G04 #@! TF.GenerationSoftware,KiCad,Pcbnew,(5.1.5)-3*
G04 #@! TF.CreationDate,2021-04-15T13:44:04+02:00*
G04 #@! TF.ProjectId,Copy_bachelorproef morse,436f7079-5f62-4616-9368-656c6f727072,rev?*
G04 #@! TF.SameCoordinates,Original*
G04 #@! TF.FileFunction,Copper,L2,Bot*
G04 #@! TF.FilePolarity,Positive*
%FSLAX46Y46*%
G04 Gerber Fmt 4.6, Leading zero omitted, Abs format (unit mm)*
G04 Created by KiCad (PCBNEW (5.1.5)-3) date 2021-04-15 13:44:04*
%MOMM*%
%LPD*%
G04 APERTURE LIST*
%ADD10C,0.500000*%
%ADD11R,2.000000X2.000000*%
%ADD12O,2.000000X2.000000*%
%ADD13C,2.000000*%
%ADD14O,0.950000X1.900000*%
%ADD15C,1.300000*%
%ADD16C,0.254000*%
G04 APERTURE END LIST*
D10*
X129527500Y-82320000D03*
X131362500Y-82320000D03*
X128610000Y-83237500D03*
X130445000Y-83237500D03*
X132280000Y-83237500D03*
X129527500Y-84155000D03*
X131362500Y-84155000D03*
X128610000Y-85072500D03*
X130445000Y-85072500D03*
X132280000Y-85072500D03*
X129527500Y-85990000D03*
X131362500Y-85990000D03*
D11*
X149860000Y-86360000D03*
D12*
X149860000Y-83820000D03*
X149860000Y-81280000D03*
X149860000Y-78740000D03*
D11*
X145415000Y-86360000D03*
D12*
X145415000Y-83820000D03*
D11*
X105570000Y-94615000D03*
D13*
X105570000Y-92075000D03*
X105570000Y-89535000D03*
X105570000Y-86995000D03*
X97630000Y-86995000D03*
X97630000Y-89535000D03*
X97630000Y-92075000D03*
X97630000Y-94615000D03*
D14*
X106926500Y-103505000D03*
X113926500Y-103505000D03*
D15*
X107926500Y-100805000D03*
X112926500Y-100805000D03*
D11*
X112903000Y-82042000D03*
D12*
X112903000Y-84582000D03*
D16*
G36*
X159572001Y-105343000D02*
G01*
X89602000Y-105343000D01*
X89602000Y-102577830D01*
X90652000Y-102577830D01*
X90652000Y-102908170D01*
X90716446Y-103232163D01*
X90842862Y-103537357D01*
X91026389Y-103812025D01*
X91259975Y-104045611D01*
X91534643Y-104229138D01*
X91839837Y-104355554D01*
X92163830Y-104420000D01*
X92494170Y-104420000D01*
X92818163Y-104355554D01*
X93123357Y-104229138D01*
X93398025Y-104045611D01*
X93631611Y-103812025D01*
X93815138Y-103537357D01*
X93941554Y-103232163D01*
X94006000Y-102908170D01*
X94006000Y-102903000D01*
X105816500Y-102903000D01*
X105816500Y-103378000D01*
X105949500Y-103378000D01*
X105949500Y-103632000D01*
X105816500Y-103632000D01*
X105816500Y-104107000D01*
X105862605Y-104321110D01*
X105949595Y-104522111D01*
X106074127Y-104702279D01*
X106231415Y-104854690D01*
X106415414Y-104973487D01*
X106628562Y-105049268D01*
X106799500Y-104922734D01*
X106799500Y-104822974D01*
X106799514Y-104822977D01*
X106808921Y-104823899D01*
X106808926Y-104823899D01*
X106808929Y-104823900D01*
X106808932Y-104823900D01*
X106867229Y-104829206D01*
X106928585Y-104828778D01*
X106989951Y-104829207D01*
X106999347Y-104828285D01*
X106999354Y-104828285D01*
X106999360Y-104828284D01*
X107053500Y-104822594D01*
X107053500Y-104922734D01*
X107224438Y-105049268D01*
X107437586Y-104973487D01*
X107621585Y-104854690D01*
X107778873Y-104702279D01*
X107903405Y-104522111D01*
X107990395Y-104321110D01*
X108036500Y-104107000D01*
X108036500Y-103632000D01*
X107903500Y-103632000D01*
X107903500Y-103378000D01*
X108036500Y-103378000D01*
X108036500Y-102903000D01*
X112816500Y-102903000D01*
X112816500Y-103378000D01*
X112949500Y-103378000D01*
X112949500Y-103632000D01*
X112816500Y-103632000D01*
X112816500Y-104107000D01*
X112862605Y-104321110D01*
X112949595Y-104522111D01*
X113074127Y-104702279D01*
X113231415Y-104854690D01*
X113415414Y-104973487D01*
X113628562Y-105049268D01*
X113799500Y-104922734D01*
X113799500Y-104822974D01*
X113799514Y-104822977D01*
X113808921Y-104823899D01*
X113808926Y-104823899D01*
X113808929Y-104823900D01*
X113808932Y-104823900D01*
X113867229Y-104829206D01*
X113928585Y-104828778D01*
X113989951Y-104829207D01*
X113999347Y-104828285D01*
X113999354Y-104828285D01*
X113999360Y-104828284D01*
X114053500Y-104822594D01*
X114053500Y-104922734D01*
X114224438Y-105049268D01*
X114437586Y-104973487D01*
X114621585Y-104854690D01*
X114778873Y-104702279D01*
X114903405Y-104522111D01*
X114990395Y-104321110D01*
X115036500Y-104107000D01*
X115036500Y-103632000D01*
X114903500Y-103632000D01*
X114903500Y-103378000D01*
X115036500Y-103378000D01*
X115036500Y-102903000D01*
X114993828Y-102704830D01*
X154914000Y-102704830D01*
X154914000Y-103035170D01*
X154978446Y-103359163D01*
X155104862Y-103664357D01*
X155288389Y-103939025D01*
X155521975Y-104172611D01*
X155796643Y-104356138D01*
X156101837Y-104482554D01*
X156425830Y-104547000D01*
X156756170Y-104547000D01*
X157080163Y-104482554D01*
X157385357Y-104356138D01*
X157660025Y-104172611D01*
X157893611Y-103939025D01*
X158077138Y-103664357D01*
X158203554Y-103359163D01*
X158268000Y-103035170D01*
X158268000Y-102704830D01*
X158203554Y-102380837D01*
X158077138Y-102075643D01*
X157893611Y-101800975D01*
X157660025Y-101567389D01*
X157385357Y-101383862D01*
X157080163Y-101257446D01*
X156756170Y-101193000D01*
X156425830Y-101193000D01*
X156101837Y-101257446D01*
X155796643Y-101383862D01*
X155521975Y-101567389D01*
X155288389Y-101800975D01*
X155104862Y-102075643D01*
X154978446Y-102380837D01*
X154914000Y-102704830D01*
X114993828Y-102704830D01*
X114990395Y-102688890D01*
X114903405Y-102487889D01*
X114778873Y-102307721D01*
X114621585Y-102155310D01*
X114437586Y-102036513D01*
X114224438Y-101960732D01*
X114053500Y-102087266D01*
X114053500Y-102187026D01*
X114053486Y-102187023D01*
X114044079Y-102186101D01*
X114044072Y-102186100D01*
X114044068Y-102186100D01*
X113985771Y-102180794D01*
X113924415Y-102181222D01*
X113863049Y-102180793D01*
X113853653Y-102181715D01*
X113853646Y-102181715D01*
X113853640Y-102181716D01*
X113799500Y-102187406D01*
X113799500Y-102087266D01*
X113628562Y-101960732D01*
X113415414Y-102036513D01*
X113231415Y-102155310D01*
X113074127Y-102307721D01*
X112949595Y-102487889D01*
X112862605Y-102688890D01*
X112816500Y-102903000D01*
X108036500Y-102903000D01*
X107990395Y-102688890D01*
X107903405Y-102487889D01*
X107778873Y-102307721D01*
X107621585Y-102155310D01*
X107437586Y-102036513D01*
X107224438Y-101960732D01*
X107053500Y-102087266D01*
X107053500Y-102187026D01*
X107053486Y-102187023D01*
X107044079Y-102186101D01*
X107044072Y-102186100D01*
X107044068Y-102186100D01*
X106985771Y-102180794D01*
X106924415Y-102181222D01*
X106863049Y-102180793D01*
X106853653Y-102181715D01*
X106853646Y-102181715D01*
X106853640Y-102181716D01*
X106799500Y-102187406D01*
X106799500Y-102087266D01*
X106628562Y-101960732D01*
X106415414Y-102036513D01*
X106231415Y-102155310D01*
X106074127Y-102307721D01*
X105949595Y-102487889D01*
X105862605Y-102688890D01*
X105816500Y-102903000D01*
X94006000Y-102903000D01*
X94006000Y-102577830D01*
X93941554Y-102253837D01*
X93815138Y-101948643D01*
X93642671Y-101690527D01*
X107220578Y-101690527D01*
X107273966Y-101919201D01*
X107503874Y-102025095D01*
X107750024Y-102084102D01*
X108002955Y-102093952D01*
X108252949Y-102054270D01*
X108490396Y-101966578D01*
X108579034Y-101919201D01*
X108632422Y-101690527D01*
X112220578Y-101690527D01*
X112273966Y-101919201D01*
X112503874Y-102025095D01*
X112750024Y-102084102D01*
X113002955Y-102093952D01*
X113252949Y-102054270D01*
X113490396Y-101966578D01*
X113579034Y-101919201D01*
X113632422Y-101690527D01*
X112926500Y-100984605D01*
X112220578Y-101690527D01*
X108632422Y-101690527D01*
X107926500Y-100984605D01*
X107220578Y-101690527D01*
X93642671Y-101690527D01*
X93631611Y-101673975D01*
X93398025Y-101440389D01*
X93123357Y-101256862D01*
X92818163Y-101130446D01*
X92494170Y-101066000D01*
X92163830Y-101066000D01*
X91839837Y-101130446D01*
X91534643Y-101256862D01*
X91259975Y-101440389D01*
X91026389Y-101673975D01*
X90842862Y-101948643D01*
X90716446Y-102253837D01*
X90652000Y-102577830D01*
X89602000Y-102577830D01*
X89602000Y-100881455D01*
X106637548Y-100881455D01*
X106677230Y-101131449D01*
X106764922Y-101368896D01*
X106812299Y-101457534D01*
X107040973Y-101510922D01*
X107746895Y-100805000D01*
X108106105Y-100805000D01*
X108812027Y-101510922D01*
X109040701Y-101457534D01*
X109146595Y-101227626D01*
X109205602Y-100981476D01*
X109209497Y-100881455D01*
X111637548Y-100881455D01*
X111677230Y-101131449D01*
X111764922Y-101368896D01*
X111812299Y-101457534D01*
X112040973Y-101510922D01*
X112746895Y-100805000D01*
X113106105Y-100805000D01*
X113812027Y-101510922D01*
X114040701Y-101457534D01*
X114146595Y-101227626D01*
X114205602Y-100981476D01*
X114215452Y-100728545D01*
X114175770Y-100478551D01*
X114088078Y-100241104D01*
X114040701Y-100152466D01*
X113812027Y-100099078D01*
X113106105Y-100805000D01*
X112746895Y-100805000D01*
X112040973Y-100099078D01*
X111812299Y-100152466D01*
X111706405Y-100382374D01*
X111647398Y-100628524D01*
X111637548Y-100881455D01*
X109209497Y-100881455D01*
X109215452Y-100728545D01*
X109175770Y-100478551D01*
X109088078Y-100241104D01*
X109040701Y-100152466D01*
X108812027Y-100099078D01*
X108106105Y-100805000D01*
X107746895Y-100805000D01*
X107040973Y-100099078D01*
X106812299Y-100152466D01*
X106706405Y-100382374D01*
X106647398Y-100628524D01*
X106637548Y-100881455D01*
X89602000Y-100881455D01*
X89602000Y-99919473D01*
X107220578Y-99919473D01*
X107926500Y-100625395D01*
X108632422Y-99919473D01*
X112220578Y-99919473D01*
X112926500Y-100625395D01*
X113632422Y-99919473D01*
X113579034Y-99690799D01*
X113349126Y-99584905D01*
X113102976Y-99525898D01*
X112850045Y-99516048D01*
X112600051Y-99555730D01*
X112362604Y-99643422D01*
X112273966Y-99690799D01*
X112220578Y-99919473D01*
X108632422Y-99919473D01*
X108579034Y-99690799D01*
X108349126Y-99584905D01*
X108102976Y-99525898D01*
X107850045Y-99516048D01*
X107600051Y-99555730D01*
X107362604Y-99643422D01*
X107273966Y-99690799D01*
X107220578Y-99919473D01*
X89602000Y-99919473D01*
X89602000Y-86834755D01*
X96003000Y-86834755D01*
X96003000Y-87155245D01*
X96065525Y-87469578D01*
X96188172Y-87765673D01*
X96366227Y-88032152D01*
X96592848Y-88258773D01*
X96602167Y-88265000D01*
X96592848Y-88271227D01*
X96366227Y-88497848D01*
X96188172Y-88764327D01*
X96065525Y-89060422D01*
X96003000Y-89374755D01*
X96003000Y-89695245D01*
X96065525Y-90009578D01*
X96188172Y-90305673D01*
X96366227Y-90572152D01*
X96592848Y-90798773D01*
X96602167Y-90805000D01*
X96592848Y-90811227D01*
X96366227Y-91037848D01*
X96188172Y-91304327D01*
X96065525Y-91600422D01*
X96003000Y-91914755D01*
X96003000Y-92235245D01*
X96065525Y-92549578D01*
X96188172Y-92845673D01*
X96366227Y-93112152D01*
X96592848Y-93338773D01*
X96602167Y-93345000D01*
X96592848Y-93351227D01*
X96366227Y-93577848D01*
X96188172Y-93844327D01*
X96065525Y-94140422D01*
X96003000Y-94454755D01*
X96003000Y-94775245D01*
X96065525Y-95089578D01*
X96188172Y-95385673D01*
X96366227Y-95652152D01*
X96592848Y-95878773D01*
X96859327Y-96056828D01*
X97155422Y-96179475D01*
X97469755Y-96242000D01*
X97790245Y-96242000D01*
X98104578Y-96179475D01*
X98400673Y-96056828D01*
X98667152Y-95878773D01*
X98893773Y-95652152D01*
X99071828Y-95385673D01*
X99194475Y-95089578D01*
X99257000Y-94775245D01*
X99257000Y-94454755D01*
X99194475Y-94140422D01*
X99071828Y-93844327D01*
X98893773Y-93577848D01*
X98667152Y-93351227D01*
X98657833Y-93345000D01*
X98667152Y-93338773D01*
X98893773Y-93112152D01*
X99071828Y-92845673D01*
X99194475Y-92549578D01*
X99257000Y-92235245D01*
X99257000Y-92137595D01*
X103928282Y-92137595D01*
X103972039Y-92456675D01*
X104077205Y-92761088D01*
X104170186Y-92935044D01*
X104389596Y-93014513D01*
X104328897Y-93032925D01*
X104219972Y-93091147D01*
X104124499Y-93169499D01*
X104046147Y-93264972D01*
X103987925Y-93373897D01*
X103952073Y-93492087D01*
X103939967Y-93615000D01*
X103939967Y-95615000D01*
X103952073Y-95737913D01*
X103987925Y-95856103D01*
X104046147Y-95965028D01*
X104124499Y-96060501D01*
X104219972Y-96138853D01*
X104328897Y-96197075D01*
X104447087Y-96232927D01*
X104570000Y-96245033D01*
X106570000Y-96245033D01*
X106692913Y-96232927D01*
X106811103Y-96197075D01*
X106920028Y-96138853D01*
X107015501Y-96060501D01*
X107093853Y-95965028D01*
X107152075Y-95856103D01*
X107187927Y-95737913D01*
X107200033Y-95615000D01*
X107200033Y-93615000D01*
X107187927Y-93492087D01*
X107152075Y-93373897D01*
X107093853Y-93264972D01*
X107015501Y-93169499D01*
X106920028Y-93091147D01*
X106811103Y-93032925D01*
X106750404Y-93014513D01*
X106969814Y-92935044D01*
X107110704Y-92645429D01*
X107192384Y-92333892D01*
X107211718Y-92012405D01*
X107167961Y-91693325D01*
X107062795Y-91388912D01*
X106969814Y-91214956D01*
X106705413Y-91119192D01*
X105749605Y-92075000D01*
X105763748Y-92089143D01*
X105584143Y-92268748D01*
X105570000Y-92254605D01*
X105555858Y-92268748D01*
X105376253Y-92089143D01*
X105390395Y-92075000D01*
X104434587Y-91119192D01*
X104170186Y-91214956D01*
X104029296Y-91504571D01*
X103947616Y-91816108D01*
X103928282Y-92137595D01*
X99257000Y-92137595D01*
X99257000Y-91914755D01*
X99194475Y-91600422D01*
X99071828Y-91304327D01*
X98893773Y-91037848D01*
X98667152Y-90811227D01*
X98657833Y-90805000D01*
X98667152Y-90798773D01*
X98893773Y-90572152D01*
X99071828Y-90305673D01*
X99194475Y-90009578D01*
X99257000Y-89695245D01*
X99257000Y-89374755D01*
X103943000Y-89374755D01*
X103943000Y-89695245D01*
X104005525Y-90009578D01*
X104128172Y-90305673D01*
X104306227Y-90572152D01*
X104532848Y-90798773D01*
X104639406Y-90869972D01*
X104614192Y-90939587D01*
X105570000Y-91895395D01*
X106525808Y-90939587D01*
X106500594Y-90869972D01*
X106607152Y-90798773D01*
X106833773Y-90572152D01*
X107011828Y-90305673D01*
X107134475Y-90009578D01*
X107197000Y-89695245D01*
X107197000Y-89374755D01*
X107134475Y-89060422D01*
X107011828Y-88764327D01*
X106833773Y-88497848D01*
X106607152Y-88271227D01*
X106500594Y-88200028D01*
X106525808Y-88130413D01*
X105570000Y-87174605D01*
X104614192Y-88130413D01*
X104639406Y-88200028D01*
X104532848Y-88271227D01*
X104306227Y-88497848D01*
X104128172Y-88764327D01*
X104005525Y-89060422D01*
X103943000Y-89374755D01*
X99257000Y-89374755D01*
X99194475Y-89060422D01*
X99071828Y-88764327D01*
X98893773Y-88497848D01*
X98667152Y-88271227D01*
X98657833Y-88265000D01*
X98667152Y-88258773D01*
X98893773Y-88032152D01*
X99071828Y-87765673D01*
X99194475Y-87469578D01*
X99257000Y-87155245D01*
X99257000Y-87057595D01*
X103928282Y-87057595D01*
X103972039Y-87376675D01*
X104077205Y-87681088D01*
X104170186Y-87855044D01*
X104434587Y-87950808D01*
X105390395Y-86995000D01*
X105749605Y-86995000D01*
X106705413Y-87950808D01*
X106969814Y-87855044D01*
X107110704Y-87565429D01*
X107192384Y-87253892D01*
X107211718Y-86932405D01*
X107167961Y-86613325D01*
X107158578Y-86586164D01*
X129105284Y-86586164D01*
X129109326Y-86774827D01*
X129270474Y-86841328D01*
X129441498Y-86875113D01*
X129615828Y-86874884D01*
X129786764Y-86840649D01*
X129945674Y-86774827D01*
X129949716Y-86586164D01*
X130940284Y-86586164D01*
X130944326Y-86774827D01*
X131105474Y-86841328D01*
X131276498Y-86875113D01*
X131450828Y-86874884D01*
X131621764Y-86840649D01*
X131780674Y-86774827D01*
X131784716Y-86586164D01*
X131362500Y-86163948D01*
X130940284Y-86586164D01*
X129949716Y-86586164D01*
X129527500Y-86163948D01*
X129105284Y-86586164D01*
X107158578Y-86586164D01*
X107062795Y-86308912D01*
X106969814Y-86134956D01*
X106705413Y-86039192D01*
X105749605Y-86995000D01*
X105390395Y-86995000D01*
X104434587Y-86039192D01*
X104170186Y-86134956D01*
X104029296Y-86424571D01*
X103947616Y-86736108D01*
X103928282Y-87057595D01*
X99257000Y-87057595D01*
X99257000Y-86834755D01*
X99194475Y-86520422D01*
X99071828Y-86224327D01*
X98893773Y-85957848D01*
X98795512Y-85859587D01*
X104614192Y-85859587D01*
X105570000Y-86815395D01*
X106525808Y-85859587D01*
X106430044Y-85595186D01*
X106140429Y-85454296D01*
X105828892Y-85372616D01*
X105507405Y-85353282D01*
X105188325Y-85397039D01*
X104883912Y-85502205D01*
X104709956Y-85595186D01*
X104614192Y-85859587D01*
X98795512Y-85859587D01*
X98667152Y-85731227D01*
X98400673Y-85553172D01*
X98104578Y-85430525D01*
X97790245Y-85368000D01*
X97469755Y-85368000D01*
X97155422Y-85430525D01*
X96859327Y-85553172D01*
X96592848Y-85731227D01*
X96366227Y-85957848D01*
X96188172Y-86224327D01*
X96065525Y-86520422D01*
X96003000Y-86834755D01*
X89602000Y-86834755D01*
X89602000Y-84962434D01*
X111312876Y-84962434D01*
X111369498Y-85149107D01*
X111509601Y-85437382D01*
X111703252Y-85692785D01*
X111943008Y-85905501D01*
X112219656Y-86067356D01*
X112522565Y-86172129D01*
X112776000Y-86053315D01*
X112776000Y-84709000D01*
X113030000Y-84709000D01*
X113030000Y-86053315D01*
X113283435Y-86172129D01*
X113586344Y-86067356D01*
X113862992Y-85905501D01*
X114102748Y-85692785D01*
X114121036Y-85668664D01*
X128187784Y-85668664D01*
X128191826Y-85857327D01*
X128352974Y-85923828D01*
X128523998Y-85957613D01*
X128642457Y-85957457D01*
X128642616Y-86078328D01*
X128676851Y-86249264D01*
X128742673Y-86408174D01*
X128931336Y-86412216D01*
X129353552Y-85990000D01*
X129701448Y-85990000D01*
X130123664Y-86412216D01*
X130312327Y-86408174D01*
X130378828Y-86247026D01*
X130412613Y-86076002D01*
X130412457Y-85957543D01*
X130477457Y-85957457D01*
X130477616Y-86078328D01*
X130511851Y-86249264D01*
X130577673Y-86408174D01*
X130766336Y-86412216D01*
X131188552Y-85990000D01*
X131536448Y-85990000D01*
X131958664Y-86412216D01*
X132147327Y-86408174D01*
X132213828Y-86247026D01*
X132247613Y-86076002D01*
X132247457Y-85957543D01*
X132368328Y-85957384D01*
X132539264Y-85923149D01*
X132698174Y-85857327D01*
X132702216Y-85668664D01*
X132280000Y-85246448D01*
X131536448Y-85990000D01*
X131188552Y-85990000D01*
X130445000Y-85246448D01*
X129701448Y-85990000D01*
X129353552Y-85990000D01*
X128610000Y-85246448D01*
X128187784Y-85668664D01*
X114121036Y-85668664D01*
X114296399Y-85437382D01*
X114436502Y-85149107D01*
X114485824Y-84986498D01*
X127724887Y-84986498D01*
X127725116Y-85160828D01*
X127759351Y-85331764D01*
X127825173Y-85490674D01*
X128013836Y-85494716D01*
X128436052Y-85072500D01*
X128783948Y-85072500D01*
X129527500Y-85816052D01*
X130271052Y-85072500D01*
X130618948Y-85072500D01*
X131362500Y-85816052D01*
X132106052Y-85072500D01*
X132453948Y-85072500D01*
X132876164Y-85494716D01*
X133064827Y-85490674D01*
X133118752Y-85360000D01*
X143784967Y-85360000D01*
X143784967Y-87360000D01*
X143797073Y-87482913D01*
X143832925Y-87601103D01*
X143891147Y-87710028D01*
X143969499Y-87805501D01*
X144064972Y-87883853D01*
X144173897Y-87942075D01*
X144292087Y-87977927D01*
X144415000Y-87990033D01*
X146415000Y-87990033D01*
X146537913Y-87977927D01*
X146656103Y-87942075D01*
X146765028Y-87883853D01*
X146860501Y-87805501D01*
X146938853Y-87710028D01*
X146997075Y-87601103D01*
X147032927Y-87482913D01*
X147045033Y-87360000D01*
X148221928Y-87360000D01*
X148234188Y-87484482D01*
X148270498Y-87604180D01*
X148329463Y-87714494D01*
X148408815Y-87811185D01*
X148505506Y-87890537D01*
X148615820Y-87949502D01*
X148735518Y-87985812D01*
X148860000Y-87998072D01*
X149574250Y-87995000D01*
X149733000Y-87836250D01*
X149733000Y-86487000D01*
X149987000Y-86487000D01*
X149987000Y-87836250D01*
X150145750Y-87995000D01*
X150860000Y-87998072D01*
X150984482Y-87985812D01*
X151104180Y-87949502D01*
X151214494Y-87890537D01*
X151311185Y-87811185D01*
X151390537Y-87714494D01*
X151449502Y-87604180D01*
X151485812Y-87484482D01*
X151498072Y-87360000D01*
X151495000Y-86645750D01*
X151336250Y-86487000D01*
X149987000Y-86487000D01*
X149733000Y-86487000D01*
X148383750Y-86487000D01*
X148225000Y-86645750D01*
X148221928Y-87360000D01*
X147045033Y-87360000D01*
X147045033Y-85360000D01*
X148221928Y-85360000D01*
X148225000Y-86074250D01*
X148383750Y-86233000D01*
X149733000Y-86233000D01*
X149733000Y-86213000D01*
X149987000Y-86213000D01*
X149987000Y-86233000D01*
X151336250Y-86233000D01*
X151495000Y-86074250D01*
X151498072Y-85360000D01*
X151485812Y-85235518D01*
X151449502Y-85115820D01*
X151390537Y-85005506D01*
X151311185Y-84908815D01*
X151214494Y-84829463D01*
X151161280Y-84801019D01*
X151301828Y-84590673D01*
X151424475Y-84294578D01*
X151487000Y-83980245D01*
X151487000Y-83659755D01*
X151424475Y-83345422D01*
X151301828Y-83049327D01*
X151123773Y-82782848D01*
X150897152Y-82556227D01*
X150887833Y-82550000D01*
X150897152Y-82543773D01*
X151123773Y-82317152D01*
X151301828Y-82050673D01*
X151424475Y-81754578D01*
X151487000Y-81440245D01*
X151487000Y-81119755D01*
X151424475Y-80805422D01*
X151301828Y-80509327D01*
X151123773Y-80242848D01*
X150897152Y-80016227D01*
X150887833Y-80010000D01*
X150897152Y-80003773D01*
X151123773Y-79777152D01*
X151301828Y-79510673D01*
X151424475Y-79214578D01*
X151487000Y-78900245D01*
X151487000Y-78579755D01*
X151424475Y-78265422D01*
X151301828Y-77969327D01*
X151123773Y-77702848D01*
X150897152Y-77476227D01*
X150630673Y-77298172D01*
X150334578Y-77175525D01*
X150020245Y-77113000D01*
X149699755Y-77113000D01*
X149385422Y-77175525D01*
X149089327Y-77298172D01*
X148822848Y-77476227D01*
X148596227Y-77702848D01*
X148418172Y-77969327D01*
X148295525Y-78265422D01*
X148233000Y-78579755D01*
X148233000Y-78900245D01*
X148295525Y-79214578D01*
X148418172Y-79510673D01*
X148596227Y-79777152D01*
X148822848Y-80003773D01*
X148832167Y-80010000D01*
X148822848Y-80016227D01*
X148596227Y-80242848D01*
X148418172Y-80509327D01*
X148295525Y-80805422D01*
X148233000Y-81119755D01*
X148233000Y-81440245D01*
X148295525Y-81754578D01*
X148418172Y-82050673D01*
X148596227Y-82317152D01*
X148822848Y-82543773D01*
X148832167Y-82550000D01*
X148822848Y-82556227D01*
X148596227Y-82782848D01*
X148418172Y-83049327D01*
X148295525Y-83345422D01*
X148233000Y-83659755D01*
X148233000Y-83980245D01*
X148295525Y-84294578D01*
X148418172Y-84590673D01*
X148558720Y-84801019D01*
X148505506Y-84829463D01*
X148408815Y-84908815D01*
X148329463Y-85005506D01*
X148270498Y-85115820D01*
X148234188Y-85235518D01*
X148221928Y-85360000D01*
X147045033Y-85360000D01*
X147032927Y-85237087D01*
X146997075Y-85118897D01*
X146938853Y-85009972D01*
X146860501Y-84914499D01*
X146765028Y-84836147D01*
X146709150Y-84806280D01*
X146808399Y-84675382D01*
X146948502Y-84387107D01*
X147005124Y-84200434D01*
X146885777Y-83947000D01*
X145542000Y-83947000D01*
X145542000Y-83967000D01*
X145288000Y-83967000D01*
X145288000Y-83947000D01*
X143944223Y-83947000D01*
X143824876Y-84200434D01*
X143881498Y-84387107D01*
X144021601Y-84675382D01*
X144120850Y-84806280D01*
X144064972Y-84836147D01*
X143969499Y-84914499D01*
X143891147Y-85009972D01*
X143832925Y-85118897D01*
X143797073Y-85237087D01*
X143784967Y-85360000D01*
X133118752Y-85360000D01*
X133131328Y-85329526D01*
X133165113Y-85158502D01*
X133164884Y-84984172D01*
X133130649Y-84813236D01*
X133064827Y-84654326D01*
X132876164Y-84650284D01*
X132453948Y-85072500D01*
X132106052Y-85072500D01*
X131362500Y-84328948D01*
X130618948Y-85072500D01*
X130271052Y-85072500D01*
X129527500Y-84328948D01*
X128783948Y-85072500D01*
X128436052Y-85072500D01*
X128013836Y-84650284D01*
X127825173Y-84654326D01*
X127758672Y-84815474D01*
X127724887Y-84986498D01*
X114485824Y-84986498D01*
X114493124Y-84962434D01*
X114373777Y-84709000D01*
X113030000Y-84709000D01*
X112776000Y-84709000D01*
X111432223Y-84709000D01*
X111312876Y-84962434D01*
X89602000Y-84962434D01*
X89602000Y-81042000D01*
X111272967Y-81042000D01*
X111272967Y-83042000D01*
X111285073Y-83164913D01*
X111320925Y-83283103D01*
X111379147Y-83392028D01*
X111457499Y-83487501D01*
X111552972Y-83565853D01*
X111608850Y-83595720D01*
X111509601Y-83726618D01*
X111369498Y-84014893D01*
X111312876Y-84201566D01*
X111432223Y-84455000D01*
X112776000Y-84455000D01*
X112776000Y-84435000D01*
X113030000Y-84435000D01*
X113030000Y-84455000D01*
X114373777Y-84455000D01*
X114493124Y-84201566D01*
X114436502Y-84014893D01*
X114348424Y-83833664D01*
X128187784Y-83833664D01*
X128191826Y-84022327D01*
X128352974Y-84088828D01*
X128523998Y-84122613D01*
X128642457Y-84122457D01*
X128642543Y-84187457D01*
X128521672Y-84187616D01*
X128350736Y-84221851D01*
X128191826Y-84287673D01*
X128187784Y-84476336D01*
X128610000Y-84898552D01*
X129353552Y-84155000D01*
X129701448Y-84155000D01*
X130445000Y-84898552D01*
X131188552Y-84155000D01*
X131536448Y-84155000D01*
X132280000Y-84898552D01*
X132702216Y-84476336D01*
X132698174Y-84287673D01*
X132537026Y-84221172D01*
X132366002Y-84187387D01*
X132247543Y-84187543D01*
X132247457Y-84122543D01*
X132368328Y-84122384D01*
X132539264Y-84088149D01*
X132698174Y-84022327D01*
X132702216Y-83833664D01*
X132280000Y-83411448D01*
X131536448Y-84155000D01*
X131188552Y-84155000D01*
X130445000Y-83411448D01*
X129701448Y-84155000D01*
X129353552Y-84155000D01*
X128610000Y-83411448D01*
X128187784Y-83833664D01*
X114348424Y-83833664D01*
X114296399Y-83726618D01*
X114197150Y-83595720D01*
X114253028Y-83565853D01*
X114348501Y-83487501D01*
X114426853Y-83392028D01*
X114485075Y-83283103D01*
X114520927Y-83164913D01*
X114522248Y-83151498D01*
X127724887Y-83151498D01*
X127725116Y-83325828D01*
X127759351Y-83496764D01*
X127825173Y-83655674D01*
X128013836Y-83659716D01*
X128436052Y-83237500D01*
X128783948Y-83237500D01*
X129527500Y-83981052D01*
X130271052Y-83237500D01*
X130618948Y-83237500D01*
X131362500Y-83981052D01*
X132106052Y-83237500D01*
X132453948Y-83237500D01*
X132876164Y-83659716D01*
X133064827Y-83655674D01*
X133131328Y-83494526D01*
X133142185Y-83439566D01*
X143824876Y-83439566D01*
X143944223Y-83693000D01*
X145288000Y-83693000D01*
X145288000Y-82348685D01*
X145542000Y-82348685D01*
X145542000Y-83693000D01*
X146885777Y-83693000D01*
X147005124Y-83439566D01*
X146948502Y-83252893D01*
X146808399Y-82964618D01*
X146614748Y-82709215D01*
X146374992Y-82496499D01*
X146098344Y-82334644D01*
X145795435Y-82229871D01*
X145542000Y-82348685D01*
X145288000Y-82348685D01*
X145034565Y-82229871D01*
X144731656Y-82334644D01*
X144455008Y-82496499D01*
X144215252Y-82709215D01*
X144021601Y-82964618D01*
X143881498Y-83252893D01*
X143824876Y-83439566D01*
X133142185Y-83439566D01*
X133165113Y-83323502D01*
X133164884Y-83149172D01*
X133130649Y-82978236D01*
X133064827Y-82819326D01*
X132876164Y-82815284D01*
X132453948Y-83237500D01*
X132106052Y-83237500D01*
X131362500Y-82493948D01*
X130618948Y-83237500D01*
X130271052Y-83237500D01*
X129527500Y-82493948D01*
X128783948Y-83237500D01*
X128436052Y-83237500D01*
X128013836Y-82815284D01*
X127825173Y-82819326D01*
X127758672Y-82980474D01*
X127724887Y-83151498D01*
X114522248Y-83151498D01*
X114533033Y-83042000D01*
X114533033Y-82641336D01*
X128187784Y-82641336D01*
X128610000Y-83063552D01*
X129353552Y-82320000D01*
X129701448Y-82320000D01*
X130445000Y-83063552D01*
X131188552Y-82320000D01*
X131536448Y-82320000D01*
X132280000Y-83063552D01*
X132702216Y-82641336D01*
X132698174Y-82452673D01*
X132537026Y-82386172D01*
X132366002Y-82352387D01*
X132247543Y-82352543D01*
X132247384Y-82231672D01*
X132213149Y-82060736D01*
X132147327Y-81901826D01*
X131958664Y-81897784D01*
X131536448Y-82320000D01*
X131188552Y-82320000D01*
X130766336Y-81897784D01*
X130577673Y-81901826D01*
X130511172Y-82062974D01*
X130477387Y-82233998D01*
X130477543Y-82352457D01*
X130412543Y-82352543D01*
X130412384Y-82231672D01*
X130378149Y-82060736D01*
X130312327Y-81901826D01*
X130123664Y-81897784D01*
X129701448Y-82320000D01*
X129353552Y-82320000D01*
X128931336Y-81897784D01*
X128742673Y-81901826D01*
X128676172Y-82062974D01*
X128642387Y-82233998D01*
X128642543Y-82352457D01*
X128521672Y-82352616D01*
X128350736Y-82386851D01*
X128191826Y-82452673D01*
X128187784Y-82641336D01*
X114533033Y-82641336D01*
X114533033Y-81723836D01*
X129105284Y-81723836D01*
X129527500Y-82146052D01*
X129949716Y-81723836D01*
X130940284Y-81723836D01*
X131362500Y-82146052D01*
X131784716Y-81723836D01*
X131780674Y-81535173D01*
X131619526Y-81468672D01*
X131448502Y-81434887D01*
X131274172Y-81435116D01*
X131103236Y-81469351D01*
X130944326Y-81535173D01*
X130940284Y-81723836D01*
X129949716Y-81723836D01*
X129945674Y-81535173D01*
X129784526Y-81468672D01*
X129613502Y-81434887D01*
X129439172Y-81435116D01*
X129268236Y-81469351D01*
X129109326Y-81535173D01*
X129105284Y-81723836D01*
X114533033Y-81723836D01*
X114533033Y-81042000D01*
X114520927Y-80919087D01*
X114485075Y-80800897D01*
X114426853Y-80691972D01*
X114348501Y-80596499D01*
X114253028Y-80518147D01*
X114144103Y-80459925D01*
X114025913Y-80424073D01*
X113903000Y-80411967D01*
X111903000Y-80411967D01*
X111780087Y-80424073D01*
X111661897Y-80459925D01*
X111552972Y-80518147D01*
X111457499Y-80596499D01*
X111379147Y-80691972D01*
X111320925Y-80800897D01*
X111285073Y-80919087D01*
X111272967Y-81042000D01*
X89602000Y-81042000D01*
X89602000Y-76073000D01*
X159572000Y-76073000D01*
X159572001Y-105343000D01*
G37*
X159572001Y-105343000D02*
X89602000Y-105343000D01*
X89602000Y-102577830D01*
X90652000Y-102577830D01*
X90652000Y-102908170D01*
X90716446Y-103232163D01*
X90842862Y-103537357D01*
X91026389Y-103812025D01*
X91259975Y-104045611D01*
X91534643Y-104229138D01*
X91839837Y-104355554D01*
X92163830Y-104420000D01*
X92494170Y-104420000D01*
X92818163Y-104355554D01*
X93123357Y-104229138D01*
X93398025Y-104045611D01*
X93631611Y-103812025D01*
X93815138Y-103537357D01*
X93941554Y-103232163D01*
X94006000Y-102908170D01*
X94006000Y-102903000D01*
X105816500Y-102903000D01*
X105816500Y-103378000D01*
X105949500Y-103378000D01*
X105949500Y-103632000D01*
X105816500Y-103632000D01*
X105816500Y-104107000D01*
X105862605Y-104321110D01*
X105949595Y-104522111D01*
X106074127Y-104702279D01*
X106231415Y-104854690D01*
X106415414Y-104973487D01*
X106628562Y-105049268D01*
X106799500Y-104922734D01*
X106799500Y-104822974D01*
X106799514Y-104822977D01*
X106808921Y-104823899D01*
X106808926Y-104823899D01*
X106808929Y-104823900D01*
X106808932Y-104823900D01*
X106867229Y-104829206D01*
X106928585Y-104828778D01*
X106989951Y-104829207D01*
X106999347Y-104828285D01*
X106999354Y-104828285D01*
X106999360Y-104828284D01*
X107053500Y-104822594D01*
X107053500Y-104922734D01*
X107224438Y-105049268D01*
X107437586Y-104973487D01*
X107621585Y-104854690D01*
X107778873Y-104702279D01*
X107903405Y-104522111D01*
X107990395Y-104321110D01*
X108036500Y-104107000D01*
X108036500Y-103632000D01*
X107903500Y-103632000D01*
X107903500Y-103378000D01*
X108036500Y-103378000D01*
X108036500Y-102903000D01*
X112816500Y-102903000D01*
X112816500Y-103378000D01*
X112949500Y-103378000D01*
X112949500Y-103632000D01*
X112816500Y-103632000D01*
X112816500Y-104107000D01*
X112862605Y-104321110D01*
X112949595Y-104522111D01*
X113074127Y-104702279D01*
X113231415Y-104854690D01*
X113415414Y-104973487D01*
X113628562Y-105049268D01*
X113799500Y-104922734D01*
X113799500Y-104822974D01*
X113799514Y-104822977D01*
X113808921Y-104823899D01*
X113808926Y-104823899D01*
X113808929Y-104823900D01*
X113808932Y-104823900D01*
X113867229Y-104829206D01*
X113928585Y-104828778D01*
X113989951Y-104829207D01*
X113999347Y-104828285D01*
X113999354Y-104828285D01*
X113999360Y-104828284D01*
X114053500Y-104822594D01*
X114053500Y-104922734D01*
X114224438Y-105049268D01*
X114437586Y-104973487D01*
X114621585Y-104854690D01*
X114778873Y-104702279D01*
X114903405Y-104522111D01*
X114990395Y-104321110D01*
X115036500Y-104107000D01*
X115036500Y-103632000D01*
X114903500Y-103632000D01*
X114903500Y-103378000D01*
X115036500Y-103378000D01*
X115036500Y-102903000D01*
X114993828Y-102704830D01*
X154914000Y-102704830D01*
X154914000Y-103035170D01*
X154978446Y-103359163D01*
X155104862Y-103664357D01*
X155288389Y-103939025D01*
X155521975Y-104172611D01*
X155796643Y-104356138D01*
X156101837Y-104482554D01*
X156425830Y-104547000D01*
X156756170Y-104547000D01*
X157080163Y-104482554D01*
X157385357Y-104356138D01*
X157660025Y-104172611D01*
X157893611Y-103939025D01*
X158077138Y-103664357D01*
X158203554Y-103359163D01*
X158268000Y-103035170D01*
X158268000Y-102704830D01*
X158203554Y-102380837D01*
X158077138Y-102075643D01*
X157893611Y-101800975D01*
X157660025Y-101567389D01*
X157385357Y-101383862D01*
X157080163Y-101257446D01*
X156756170Y-101193000D01*
X156425830Y-101193000D01*
X156101837Y-101257446D01*
X155796643Y-101383862D01*
X155521975Y-101567389D01*
X155288389Y-101800975D01*
X155104862Y-102075643D01*
X154978446Y-102380837D01*
X154914000Y-102704830D01*
X114993828Y-102704830D01*
X114990395Y-102688890D01*
X114903405Y-102487889D01*
X114778873Y-102307721D01*
X114621585Y-102155310D01*
X114437586Y-102036513D01*
X114224438Y-101960732D01*
X114053500Y-102087266D01*
X114053500Y-102187026D01*
X114053486Y-102187023D01*
X114044079Y-102186101D01*
X114044072Y-102186100D01*
X114044068Y-102186100D01*
X113985771Y-102180794D01*
X113924415Y-102181222D01*
X113863049Y-102180793D01*
X113853653Y-102181715D01*
X113853646Y-102181715D01*
X113853640Y-102181716D01*
X113799500Y-102187406D01*
X113799500Y-102087266D01*
X113628562Y-101960732D01*
X113415414Y-102036513D01*
X113231415Y-102155310D01*
X113074127Y-102307721D01*
X112949595Y-102487889D01*
X112862605Y-102688890D01*
X112816500Y-102903000D01*
X108036500Y-102903000D01*
X107990395Y-102688890D01*
X107903405Y-102487889D01*
X107778873Y-102307721D01*
X107621585Y-102155310D01*
X107437586Y-102036513D01*
X107224438Y-101960732D01*
X107053500Y-102087266D01*
X107053500Y-102187026D01*
X107053486Y-102187023D01*
X107044079Y-102186101D01*
X107044072Y-102186100D01*
X107044068Y-102186100D01*
X106985771Y-102180794D01*
X106924415Y-102181222D01*
X106863049Y-102180793D01*
X106853653Y-102181715D01*
X106853646Y-102181715D01*
X106853640Y-102181716D01*
X106799500Y-102187406D01*
X106799500Y-102087266D01*
X106628562Y-101960732D01*
X106415414Y-102036513D01*
X106231415Y-102155310D01*
X106074127Y-102307721D01*
X105949595Y-102487889D01*
X105862605Y-102688890D01*
X105816500Y-102903000D01*
X94006000Y-102903000D01*
X94006000Y-102577830D01*
X93941554Y-102253837D01*
X93815138Y-101948643D01*
X93642671Y-101690527D01*
X107220578Y-101690527D01*
X107273966Y-101919201D01*
X107503874Y-102025095D01*
X107750024Y-102084102D01*
X108002955Y-102093952D01*
X108252949Y-102054270D01*
X108490396Y-101966578D01*
X108579034Y-101919201D01*
X108632422Y-101690527D01*
X112220578Y-101690527D01*
X112273966Y-101919201D01*
X112503874Y-102025095D01*
X112750024Y-102084102D01*
X113002955Y-102093952D01*
X113252949Y-102054270D01*
X113490396Y-101966578D01*
X113579034Y-101919201D01*
X113632422Y-101690527D01*
X112926500Y-100984605D01*
X112220578Y-101690527D01*
X108632422Y-101690527D01*
X107926500Y-100984605D01*
X107220578Y-101690527D01*
X93642671Y-101690527D01*
X93631611Y-101673975D01*
X93398025Y-101440389D01*
X93123357Y-101256862D01*
X92818163Y-101130446D01*
X92494170Y-101066000D01*
X92163830Y-101066000D01*
X91839837Y-101130446D01*
X91534643Y-101256862D01*
X91259975Y-101440389D01*
X91026389Y-101673975D01*
X90842862Y-101948643D01*
X90716446Y-102253837D01*
X90652000Y-102577830D01*
X89602000Y-102577830D01*
X89602000Y-100881455D01*
X106637548Y-100881455D01*
X106677230Y-101131449D01*
X106764922Y-101368896D01*
X106812299Y-101457534D01*
X107040973Y-101510922D01*
X107746895Y-100805000D01*
X108106105Y-100805000D01*
X108812027Y-101510922D01*
X109040701Y-101457534D01*
X109146595Y-101227626D01*
X109205602Y-100981476D01*
X109209497Y-100881455D01*
X111637548Y-100881455D01*
X111677230Y-101131449D01*
X111764922Y-101368896D01*
X111812299Y-101457534D01*
X112040973Y-101510922D01*
X112746895Y-100805000D01*
X113106105Y-100805000D01*
X113812027Y-101510922D01*
X114040701Y-101457534D01*
X114146595Y-101227626D01*
X114205602Y-100981476D01*
X114215452Y-100728545D01*
X114175770Y-100478551D01*
X114088078Y-100241104D01*
X114040701Y-100152466D01*
X113812027Y-100099078D01*
X113106105Y-100805000D01*
X112746895Y-100805000D01*
X112040973Y-100099078D01*
X111812299Y-100152466D01*
X111706405Y-100382374D01*
X111647398Y-100628524D01*
X111637548Y-100881455D01*
X109209497Y-100881455D01*
X109215452Y-100728545D01*
X109175770Y-100478551D01*
X109088078Y-100241104D01*
X109040701Y-100152466D01*
X108812027Y-100099078D01*
X108106105Y-100805000D01*
X107746895Y-100805000D01*
X107040973Y-100099078D01*
X106812299Y-100152466D01*
X106706405Y-100382374D01*
X106647398Y-100628524D01*
X106637548Y-100881455D01*
X89602000Y-100881455D01*
X89602000Y-99919473D01*
X107220578Y-99919473D01*
X107926500Y-100625395D01*
X108632422Y-99919473D01*
X112220578Y-99919473D01*
X112926500Y-100625395D01*
X113632422Y-99919473D01*
X113579034Y-99690799D01*
X113349126Y-99584905D01*
X113102976Y-99525898D01*
X112850045Y-99516048D01*
X112600051Y-99555730D01*
X112362604Y-99643422D01*
X112273966Y-99690799D01*
X112220578Y-99919473D01*
X108632422Y-99919473D01*
X108579034Y-99690799D01*
X108349126Y-99584905D01*
X108102976Y-99525898D01*
X107850045Y-99516048D01*
X107600051Y-99555730D01*
X107362604Y-99643422D01*
X107273966Y-99690799D01*
X107220578Y-99919473D01*
X89602000Y-99919473D01*
X89602000Y-86834755D01*
X96003000Y-86834755D01*
X96003000Y-87155245D01*
X96065525Y-87469578D01*
X96188172Y-87765673D01*
X96366227Y-88032152D01*
X96592848Y-88258773D01*
X96602167Y-88265000D01*
X96592848Y-88271227D01*
X96366227Y-88497848D01*
X96188172Y-88764327D01*
X96065525Y-89060422D01*
X96003000Y-89374755D01*
X96003000Y-89695245D01*
X96065525Y-90009578D01*
X96188172Y-90305673D01*
X96366227Y-90572152D01*
X96592848Y-90798773D01*
X96602167Y-90805000D01*
X96592848Y-90811227D01*
X96366227Y-91037848D01*
X96188172Y-91304327D01*
X96065525Y-91600422D01*
X96003000Y-91914755D01*
X96003000Y-92235245D01*
X96065525Y-92549578D01*
X96188172Y-92845673D01*
X96366227Y-93112152D01*
X96592848Y-93338773D01*
X96602167Y-93345000D01*
X96592848Y-93351227D01*
X96366227Y-93577848D01*
X96188172Y-93844327D01*
X96065525Y-94140422D01*
X96003000Y-94454755D01*
X96003000Y-94775245D01*
X96065525Y-95089578D01*
X96188172Y-95385673D01*
X96366227Y-95652152D01*
X96592848Y-95878773D01*
X96859327Y-96056828D01*
X97155422Y-96179475D01*
X97469755Y-96242000D01*
X97790245Y-96242000D01*
X98104578Y-96179475D01*
X98400673Y-96056828D01*
X98667152Y-95878773D01*
X98893773Y-95652152D01*
X99071828Y-95385673D01*
X99194475Y-95089578D01*
X99257000Y-94775245D01*
X99257000Y-94454755D01*
X99194475Y-94140422D01*
X99071828Y-93844327D01*
X98893773Y-93577848D01*
X98667152Y-93351227D01*
X98657833Y-93345000D01*
X98667152Y-93338773D01*
X98893773Y-93112152D01*
X99071828Y-92845673D01*
X99194475Y-92549578D01*
X99257000Y-92235245D01*
X99257000Y-92137595D01*
X103928282Y-92137595D01*
X103972039Y-92456675D01*
X104077205Y-92761088D01*
X104170186Y-92935044D01*
X104389596Y-93014513D01*
X104328897Y-93032925D01*
X104219972Y-93091147D01*
X104124499Y-93169499D01*
X104046147Y-93264972D01*
X103987925Y-93373897D01*
X103952073Y-93492087D01*
X103939967Y-93615000D01*
X103939967Y-95615000D01*
X103952073Y-95737913D01*
X103987925Y-95856103D01*
X104046147Y-95965028D01*
X104124499Y-96060501D01*
X104219972Y-96138853D01*
X104328897Y-96197075D01*
X104447087Y-96232927D01*
X104570000Y-96245033D01*
X106570000Y-96245033D01*
X106692913Y-96232927D01*
X106811103Y-96197075D01*
X106920028Y-96138853D01*
X107015501Y-96060501D01*
X107093853Y-95965028D01*
X107152075Y-95856103D01*
X107187927Y-95737913D01*
X107200033Y-95615000D01*
X107200033Y-93615000D01*
X107187927Y-93492087D01*
X107152075Y-93373897D01*
X107093853Y-93264972D01*
X107015501Y-93169499D01*
X106920028Y-93091147D01*
X106811103Y-93032925D01*
X106750404Y-93014513D01*
X106969814Y-92935044D01*
X107110704Y-92645429D01*
X107192384Y-92333892D01*
X107211718Y-92012405D01*
X107167961Y-91693325D01*
X107062795Y-91388912D01*
X106969814Y-91214956D01*
X106705413Y-91119192D01*
X105749605Y-92075000D01*
X105763748Y-92089143D01*
X105584143Y-92268748D01*
X105570000Y-92254605D01*
X105555858Y-92268748D01*
X105376253Y-92089143D01*
X105390395Y-92075000D01*
X104434587Y-91119192D01*
X104170186Y-91214956D01*
X104029296Y-91504571D01*
X103947616Y-91816108D01*
X103928282Y-92137595D01*
X99257000Y-92137595D01*
X99257000Y-91914755D01*
X99194475Y-91600422D01*
X99071828Y-91304327D01*
X98893773Y-91037848D01*
X98667152Y-90811227D01*
X98657833Y-90805000D01*
X98667152Y-90798773D01*
X98893773Y-90572152D01*
X99071828Y-90305673D01*
X99194475Y-90009578D01*
X99257000Y-89695245D01*
X99257000Y-89374755D01*
X103943000Y-89374755D01*
X103943000Y-89695245D01*
X104005525Y-90009578D01*
X104128172Y-90305673D01*
X104306227Y-90572152D01*
X104532848Y-90798773D01*
X104639406Y-90869972D01*
X104614192Y-90939587D01*
X105570000Y-91895395D01*
X106525808Y-90939587D01*
X106500594Y-90869972D01*
X106607152Y-90798773D01*
X106833773Y-90572152D01*
X107011828Y-90305673D01*
X107134475Y-90009578D01*
X107197000Y-89695245D01*
X107197000Y-89374755D01*
X107134475Y-89060422D01*
X107011828Y-88764327D01*
X106833773Y-88497848D01*
X106607152Y-88271227D01*
X106500594Y-88200028D01*
X106525808Y-88130413D01*
X105570000Y-87174605D01*
X104614192Y-88130413D01*
X104639406Y-88200028D01*
X104532848Y-88271227D01*
X104306227Y-88497848D01*
X104128172Y-88764327D01*
X104005525Y-89060422D01*
X103943000Y-89374755D01*
X99257000Y-89374755D01*
X99194475Y-89060422D01*
X99071828Y-88764327D01*
X98893773Y-88497848D01*
X98667152Y-88271227D01*
X98657833Y-88265000D01*
X98667152Y-88258773D01*
X98893773Y-88032152D01*
X99071828Y-87765673D01*
X99194475Y-87469578D01*
X99257000Y-87155245D01*
X99257000Y-87057595D01*
X103928282Y-87057595D01*
X103972039Y-87376675D01*
X104077205Y-87681088D01*
X104170186Y-87855044D01*
X104434587Y-87950808D01*
X105390395Y-86995000D01*
X105749605Y-86995000D01*
X106705413Y-87950808D01*
X106969814Y-87855044D01*
X107110704Y-87565429D01*
X107192384Y-87253892D01*
X107211718Y-86932405D01*
X107167961Y-86613325D01*
X107158578Y-86586164D01*
X129105284Y-86586164D01*
X129109326Y-86774827D01*
X129270474Y-86841328D01*
X129441498Y-86875113D01*
X129615828Y-86874884D01*
X129786764Y-86840649D01*
X129945674Y-86774827D01*
X129949716Y-86586164D01*
X130940284Y-86586164D01*
X130944326Y-86774827D01*
X131105474Y-86841328D01*
X131276498Y-86875113D01*
X131450828Y-86874884D01*
X131621764Y-86840649D01*
X131780674Y-86774827D01*
X131784716Y-86586164D01*
X131362500Y-86163948D01*
X130940284Y-86586164D01*
X129949716Y-86586164D01*
X129527500Y-86163948D01*
X129105284Y-86586164D01*
X107158578Y-86586164D01*
X107062795Y-86308912D01*
X106969814Y-86134956D01*
X106705413Y-86039192D01*
X105749605Y-86995000D01*
X105390395Y-86995000D01*
X104434587Y-86039192D01*
X104170186Y-86134956D01*
X104029296Y-86424571D01*
X103947616Y-86736108D01*
X103928282Y-87057595D01*
X99257000Y-87057595D01*
X99257000Y-86834755D01*
X99194475Y-86520422D01*
X99071828Y-86224327D01*
X98893773Y-85957848D01*
X98795512Y-85859587D01*
X104614192Y-85859587D01*
X105570000Y-86815395D01*
X106525808Y-85859587D01*
X106430044Y-85595186D01*
X106140429Y-85454296D01*
X105828892Y-85372616D01*
X105507405Y-85353282D01*
X105188325Y-85397039D01*
X104883912Y-85502205D01*
X104709956Y-85595186D01*
X104614192Y-85859587D01*
X98795512Y-85859587D01*
X98667152Y-85731227D01*
X98400673Y-85553172D01*
X98104578Y-85430525D01*
X97790245Y-85368000D01*
X97469755Y-85368000D01*
X97155422Y-85430525D01*
X96859327Y-85553172D01*
X96592848Y-85731227D01*
X96366227Y-85957848D01*
X96188172Y-86224327D01*
X96065525Y-86520422D01*
X96003000Y-86834755D01*
X89602000Y-86834755D01*
X89602000Y-84962434D01*
X111312876Y-84962434D01*
X111369498Y-85149107D01*
X111509601Y-85437382D01*
X111703252Y-85692785D01*
X111943008Y-85905501D01*
X112219656Y-86067356D01*
X112522565Y-86172129D01*
X112776000Y-86053315D01*
X112776000Y-84709000D01*
X113030000Y-84709000D01*
X113030000Y-86053315D01*
X113283435Y-86172129D01*
X113586344Y-86067356D01*
X113862992Y-85905501D01*
X114102748Y-85692785D01*
X114121036Y-85668664D01*
X128187784Y-85668664D01*
X128191826Y-85857327D01*
X128352974Y-85923828D01*
X128523998Y-85957613D01*
X128642457Y-85957457D01*
X128642616Y-86078328D01*
X128676851Y-86249264D01*
X128742673Y-86408174D01*
X128931336Y-86412216D01*
X129353552Y-85990000D01*
X129701448Y-85990000D01*
X130123664Y-86412216D01*
X130312327Y-86408174D01*
X130378828Y-86247026D01*
X130412613Y-86076002D01*
X130412457Y-85957543D01*
X130477457Y-85957457D01*
X130477616Y-86078328D01*
X130511851Y-86249264D01*
X130577673Y-86408174D01*
X130766336Y-86412216D01*
X131188552Y-85990000D01*
X131536448Y-85990000D01*
X131958664Y-86412216D01*
X132147327Y-86408174D01*
X132213828Y-86247026D01*
X132247613Y-86076002D01*
X132247457Y-85957543D01*
X132368328Y-85957384D01*
X132539264Y-85923149D01*
X132698174Y-85857327D01*
X132702216Y-85668664D01*
X132280000Y-85246448D01*
X131536448Y-85990000D01*
X131188552Y-85990000D01*
X130445000Y-85246448D01*
X129701448Y-85990000D01*
X129353552Y-85990000D01*
X128610000Y-85246448D01*
X128187784Y-85668664D01*
X114121036Y-85668664D01*
X114296399Y-85437382D01*
X114436502Y-85149107D01*
X114485824Y-84986498D01*
X127724887Y-84986498D01*
X127725116Y-85160828D01*
X127759351Y-85331764D01*
X127825173Y-85490674D01*
X128013836Y-85494716D01*
X128436052Y-85072500D01*
X128783948Y-85072500D01*
X129527500Y-85816052D01*
X130271052Y-85072500D01*
X130618948Y-85072500D01*
X131362500Y-85816052D01*
X132106052Y-85072500D01*
X132453948Y-85072500D01*
X132876164Y-85494716D01*
X133064827Y-85490674D01*
X133118752Y-85360000D01*
X143784967Y-85360000D01*
X143784967Y-87360000D01*
X143797073Y-87482913D01*
X143832925Y-87601103D01*
X143891147Y-87710028D01*
X143969499Y-87805501D01*
X144064972Y-87883853D01*
X144173897Y-87942075D01*
X144292087Y-87977927D01*
X144415000Y-87990033D01*
X146415000Y-87990033D01*
X146537913Y-87977927D01*
X146656103Y-87942075D01*
X146765028Y-87883853D01*
X146860501Y-87805501D01*
X146938853Y-87710028D01*
X146997075Y-87601103D01*
X147032927Y-87482913D01*
X147045033Y-87360000D01*
X148221928Y-87360000D01*
X148234188Y-87484482D01*
X148270498Y-87604180D01*
X148329463Y-87714494D01*
X148408815Y-87811185D01*
X148505506Y-87890537D01*
X148615820Y-87949502D01*
X148735518Y-87985812D01*
X148860000Y-87998072D01*
X149574250Y-87995000D01*
X149733000Y-87836250D01*
X149733000Y-86487000D01*
X149987000Y-86487000D01*
X149987000Y-87836250D01*
X150145750Y-87995000D01*
X150860000Y-87998072D01*
X150984482Y-87985812D01*
X151104180Y-87949502D01*
X151214494Y-87890537D01*
X151311185Y-87811185D01*
X151390537Y-87714494D01*
X151449502Y-87604180D01*
X151485812Y-87484482D01*
X151498072Y-87360000D01*
X151495000Y-86645750D01*
X151336250Y-86487000D01*
X149987000Y-86487000D01*
X149733000Y-86487000D01*
X148383750Y-86487000D01*
X148225000Y-86645750D01*
X148221928Y-87360000D01*
X147045033Y-87360000D01*
X147045033Y-85360000D01*
X148221928Y-85360000D01*
X148225000Y-86074250D01*
X148383750Y-86233000D01*
X149733000Y-86233000D01*
X149733000Y-86213000D01*
X149987000Y-86213000D01*
X149987000Y-86233000D01*
X151336250Y-86233000D01*
X151495000Y-86074250D01*
X151498072Y-85360000D01*
X151485812Y-85235518D01*
X151449502Y-85115820D01*
X151390537Y-85005506D01*
X151311185Y-84908815D01*
X151214494Y-84829463D01*
X151161280Y-84801019D01*
X151301828Y-84590673D01*
X151424475Y-84294578D01*
X151487000Y-83980245D01*
X151487000Y-83659755D01*
X151424475Y-83345422D01*
X151301828Y-83049327D01*
X151123773Y-82782848D01*
X150897152Y-82556227D01*
X150887833Y-82550000D01*
X150897152Y-82543773D01*
X151123773Y-82317152D01*
X151301828Y-82050673D01*
X151424475Y-81754578D01*
X151487000Y-81440245D01*
X151487000Y-81119755D01*
X151424475Y-80805422D01*
X151301828Y-80509327D01*
X151123773Y-80242848D01*
X150897152Y-80016227D01*
X150887833Y-80010000D01*
X150897152Y-80003773D01*
X151123773Y-79777152D01*
X151301828Y-79510673D01*
X151424475Y-79214578D01*
X151487000Y-78900245D01*
X151487000Y-78579755D01*
X151424475Y-78265422D01*
X151301828Y-77969327D01*
X151123773Y-77702848D01*
X150897152Y-77476227D01*
X150630673Y-77298172D01*
X150334578Y-77175525D01*
X150020245Y-77113000D01*
X149699755Y-77113000D01*
X149385422Y-77175525D01*
X149089327Y-77298172D01*
X148822848Y-77476227D01*
X148596227Y-77702848D01*
X148418172Y-77969327D01*
X148295525Y-78265422D01*
X148233000Y-78579755D01*
X148233000Y-78900245D01*
X148295525Y-79214578D01*
X148418172Y-79510673D01*
X148596227Y-79777152D01*
X148822848Y-80003773D01*
X148832167Y-80010000D01*
X148822848Y-80016227D01*
X148596227Y-80242848D01*
X148418172Y-80509327D01*
X148295525Y-80805422D01*
X148233000Y-81119755D01*
X148233000Y-81440245D01*
X148295525Y-81754578D01*
X148418172Y-82050673D01*
X148596227Y-82317152D01*
X148822848Y-82543773D01*
X148832167Y-82550000D01*
X148822848Y-82556227D01*
X148596227Y-82782848D01*
X148418172Y-83049327D01*
X148295525Y-83345422D01*
X148233000Y-83659755D01*
X148233000Y-83980245D01*
X148295525Y-84294578D01*
X148418172Y-84590673D01*
X148558720Y-84801019D01*
X148505506Y-84829463D01*
X148408815Y-84908815D01*
X148329463Y-85005506D01*
X148270498Y-85115820D01*
X148234188Y-85235518D01*
X148221928Y-85360000D01*
X147045033Y-85360000D01*
X147032927Y-85237087D01*
X146997075Y-85118897D01*
X146938853Y-85009972D01*
X146860501Y-84914499D01*
X146765028Y-84836147D01*
X146709150Y-84806280D01*
X146808399Y-84675382D01*
X146948502Y-84387107D01*
X147005124Y-84200434D01*
X146885777Y-83947000D01*
X145542000Y-83947000D01*
X145542000Y-83967000D01*
X145288000Y-83967000D01*
X145288000Y-83947000D01*
X143944223Y-83947000D01*
X143824876Y-84200434D01*
X143881498Y-84387107D01*
X144021601Y-84675382D01*
X144120850Y-84806280D01*
X144064972Y-84836147D01*
X143969499Y-84914499D01*
X143891147Y-85009972D01*
X143832925Y-85118897D01*
X143797073Y-85237087D01*
X143784967Y-85360000D01*
X133118752Y-85360000D01*
X133131328Y-85329526D01*
X133165113Y-85158502D01*
X133164884Y-84984172D01*
X133130649Y-84813236D01*
X133064827Y-84654326D01*
X132876164Y-84650284D01*
X132453948Y-85072500D01*
X132106052Y-85072500D01*
X131362500Y-84328948D01*
X130618948Y-85072500D01*
X130271052Y-85072500D01*
X129527500Y-84328948D01*
X128783948Y-85072500D01*
X128436052Y-85072500D01*
X128013836Y-84650284D01*
X127825173Y-84654326D01*
X127758672Y-84815474D01*
X127724887Y-84986498D01*
X114485824Y-84986498D01*
X114493124Y-84962434D01*
X114373777Y-84709000D01*
X113030000Y-84709000D01*
X112776000Y-84709000D01*
X111432223Y-84709000D01*
X111312876Y-84962434D01*
X89602000Y-84962434D01*
X89602000Y-81042000D01*
X111272967Y-81042000D01*
X111272967Y-83042000D01*
X111285073Y-83164913D01*
X111320925Y-83283103D01*
X111379147Y-83392028D01*
X111457499Y-83487501D01*
X111552972Y-83565853D01*
X111608850Y-83595720D01*
X111509601Y-83726618D01*
X111369498Y-84014893D01*
X111312876Y-84201566D01*
X111432223Y-84455000D01*
X112776000Y-84455000D01*
X112776000Y-84435000D01*
X113030000Y-84435000D01*
X113030000Y-84455000D01*
X114373777Y-84455000D01*
X114493124Y-84201566D01*
X114436502Y-84014893D01*
X114348424Y-83833664D01*
X128187784Y-83833664D01*
X128191826Y-84022327D01*
X128352974Y-84088828D01*
X128523998Y-84122613D01*
X128642457Y-84122457D01*
X128642543Y-84187457D01*
X128521672Y-84187616D01*
X128350736Y-84221851D01*
X128191826Y-84287673D01*
X128187784Y-84476336D01*
X128610000Y-84898552D01*
X129353552Y-84155000D01*
X129701448Y-84155000D01*
X130445000Y-84898552D01*
X131188552Y-84155000D01*
X131536448Y-84155000D01*
X132280000Y-84898552D01*
X132702216Y-84476336D01*
X132698174Y-84287673D01*
X132537026Y-84221172D01*
X132366002Y-84187387D01*
X132247543Y-84187543D01*
X132247457Y-84122543D01*
X132368328Y-84122384D01*
X132539264Y-84088149D01*
X132698174Y-84022327D01*
X132702216Y-83833664D01*
X132280000Y-83411448D01*
X131536448Y-84155000D01*
X131188552Y-84155000D01*
X130445000Y-83411448D01*
X129701448Y-84155000D01*
X129353552Y-84155000D01*
X128610000Y-83411448D01*
X128187784Y-83833664D01*
X114348424Y-83833664D01*
X114296399Y-83726618D01*
X114197150Y-83595720D01*
X114253028Y-83565853D01*
X114348501Y-83487501D01*
X114426853Y-83392028D01*
X114485075Y-83283103D01*
X114520927Y-83164913D01*
X114522248Y-83151498D01*
X127724887Y-83151498D01*
X127725116Y-83325828D01*
X127759351Y-83496764D01*
X127825173Y-83655674D01*
X128013836Y-83659716D01*
X128436052Y-83237500D01*
X128783948Y-83237500D01*
X129527500Y-83981052D01*
X130271052Y-83237500D01*
X130618948Y-83237500D01*
X131362500Y-83981052D01*
X132106052Y-83237500D01*
X132453948Y-83237500D01*
X132876164Y-83659716D01*
X133064827Y-83655674D01*
X133131328Y-83494526D01*
X133142185Y-83439566D01*
X143824876Y-83439566D01*
X143944223Y-83693000D01*
X145288000Y-83693000D01*
X145288000Y-82348685D01*
X145542000Y-82348685D01*
X145542000Y-83693000D01*
X146885777Y-83693000D01*
X147005124Y-83439566D01*
X146948502Y-83252893D01*
X146808399Y-82964618D01*
X146614748Y-82709215D01*
X146374992Y-82496499D01*
X146098344Y-82334644D01*
X145795435Y-82229871D01*
X145542000Y-82348685D01*
X145288000Y-82348685D01*
X145034565Y-82229871D01*
X144731656Y-82334644D01*
X144455008Y-82496499D01*
X144215252Y-82709215D01*
X144021601Y-82964618D01*
X143881498Y-83252893D01*
X143824876Y-83439566D01*
X133142185Y-83439566D01*
X133165113Y-83323502D01*
X133164884Y-83149172D01*
X133130649Y-82978236D01*
X133064827Y-82819326D01*
X132876164Y-82815284D01*
X132453948Y-83237500D01*
X132106052Y-83237500D01*
X131362500Y-82493948D01*
X130618948Y-83237500D01*
X130271052Y-83237500D01*
X129527500Y-82493948D01*
X128783948Y-83237500D01*
X128436052Y-83237500D01*
X128013836Y-82815284D01*
X127825173Y-82819326D01*
X127758672Y-82980474D01*
X127724887Y-83151498D01*
X114522248Y-83151498D01*
X114533033Y-83042000D01*
X114533033Y-82641336D01*
X128187784Y-82641336D01*
X128610000Y-83063552D01*
X129353552Y-82320000D01*
X129701448Y-82320000D01*
X130445000Y-83063552D01*
X131188552Y-82320000D01*
X131536448Y-82320000D01*
X132280000Y-83063552D01*
X132702216Y-82641336D01*
X132698174Y-82452673D01*
X132537026Y-82386172D01*
X132366002Y-82352387D01*
X132247543Y-82352543D01*
X132247384Y-82231672D01*
X132213149Y-82060736D01*
X132147327Y-81901826D01*
X131958664Y-81897784D01*
X131536448Y-82320000D01*
X131188552Y-82320000D01*
X130766336Y-81897784D01*
X130577673Y-81901826D01*
X130511172Y-82062974D01*
X130477387Y-82233998D01*
X130477543Y-82352457D01*
X130412543Y-82352543D01*
X130412384Y-82231672D01*
X130378149Y-82060736D01*
X130312327Y-81901826D01*
X130123664Y-81897784D01*
X129701448Y-82320000D01*
X129353552Y-82320000D01*
X128931336Y-81897784D01*
X128742673Y-81901826D01*
X128676172Y-82062974D01*
X128642387Y-82233998D01*
X128642543Y-82352457D01*
X128521672Y-82352616D01*
X128350736Y-82386851D01*
X128191826Y-82452673D01*
X128187784Y-82641336D01*
X114533033Y-82641336D01*
X114533033Y-81723836D01*
X129105284Y-81723836D01*
X129527500Y-82146052D01*
X129949716Y-81723836D01*
X130940284Y-81723836D01*
X131362500Y-82146052D01*
X131784716Y-81723836D01*
X131780674Y-81535173D01*
X131619526Y-81468672D01*
X131448502Y-81434887D01*
X131274172Y-81435116D01*
X131103236Y-81469351D01*
X130944326Y-81535173D01*
X130940284Y-81723836D01*
X129949716Y-81723836D01*
X129945674Y-81535173D01*
X129784526Y-81468672D01*
X129613502Y-81434887D01*
X129439172Y-81435116D01*
X129268236Y-81469351D01*
X129109326Y-81535173D01*
X129105284Y-81723836D01*
X114533033Y-81723836D01*
X114533033Y-81042000D01*
X114520927Y-80919087D01*
X114485075Y-80800897D01*
X114426853Y-80691972D01*
X114348501Y-80596499D01*
X114253028Y-80518147D01*
X114144103Y-80459925D01*
X114025913Y-80424073D01*
X113903000Y-80411967D01*
X111903000Y-80411967D01*
X111780087Y-80424073D01*
X111661897Y-80459925D01*
X111552972Y-80518147D01*
X111457499Y-80596499D01*
X111379147Y-80691972D01*
X111320925Y-80800897D01*
X111285073Y-80919087D01*
X111272967Y-81042000D01*
X89602000Y-81042000D01*
X89602000Y-76073000D01*
X159572000Y-76073000D01*
X159572001Y-105343000D01*
M02*
