G04 #@! TF.GenerationSoftware,KiCad,Pcbnew,(5.1.5)-3*
G04 #@! TF.CreationDate,2021-04-15T13:44:04+02:00*
G04 #@! TF.ProjectId,Copy_bachelorproef morse,436f7079-5f62-4616-9368-656c6f727072,rev?*
G04 #@! TF.SameCoordinates,Original*
G04 #@! TF.FileFunction,Paste,Top*
G04 #@! TF.FilePolarity,Positive*
%FSLAX46Y46*%
G04 Gerber Fmt 4.6, Leading zero omitted, Abs format (unit mm)*
G04 Created by KiCad (PCBNEW (5.1.5)-3) date 2021-04-15 13:44:04*
%MOMM*%
%LPD*%
G04 APERTURE LIST*
%ADD10C,0.000100*%
%ADD11R,3.800000X2.000000*%
%ADD12R,1.500000X2.000000*%
%ADD13R,1.300000X1.300000*%
%ADD14R,1.300000X2.000000*%
%ADD15R,2.300000X1.500000*%
%ADD16R,2.000000X0.900000*%
%ADD17R,0.900000X2.000000*%
%ADD18R,1.330000X1.330000*%
%ADD19C,0.100000*%
%ADD20R,1.500000X1.900000*%
%ADD21R,0.400000X1.350000*%
G04 APERTURE END LIST*
D10*
G36*
X106926500Y-102555000D02*
G01*
X108126500Y-102555000D01*
X108126500Y-104455000D01*
X106926500Y-104455000D01*
X106901640Y-104454349D01*
X106876850Y-104452398D01*
X106852190Y-104449152D01*
X106827740Y-104444620D01*
X106803560Y-104438815D01*
X106779720Y-104431752D01*
X106756280Y-104423451D01*
X106733300Y-104413934D01*
X106710850Y-104403228D01*
X106689000Y-104391362D01*
X106667800Y-104378369D01*
X106647300Y-104364283D01*
X106627570Y-104349144D01*
X106608660Y-104332994D01*
X106590620Y-104315876D01*
X106573510Y-104297837D01*
X106557360Y-104278927D01*
X106542220Y-104259198D01*
X106528130Y-104238704D01*
X106515140Y-104217500D01*
X106503270Y-104195645D01*
X106492570Y-104173200D01*
X106483050Y-104150225D01*
X106474750Y-104126783D01*
X106467690Y-104102939D01*
X106461880Y-104078758D01*
X106457350Y-104054306D01*
X106454100Y-104029651D01*
X106452150Y-104004860D01*
X106451500Y-103980000D01*
X106451500Y-103030000D01*
X106452150Y-103005140D01*
X106454100Y-102980349D01*
X106457350Y-102955694D01*
X106461880Y-102931242D01*
X106467690Y-102907061D01*
X106474750Y-102883217D01*
X106483050Y-102859775D01*
X106492570Y-102836800D01*
X106503270Y-102814355D01*
X106515140Y-102792500D01*
X106528130Y-102771296D01*
X106542220Y-102750802D01*
X106557360Y-102731073D01*
X106573510Y-102712163D01*
X106590620Y-102694124D01*
X106608660Y-102677006D01*
X106627570Y-102660856D01*
X106647300Y-102645717D01*
X106667800Y-102631631D01*
X106689000Y-102618638D01*
X106710850Y-102606772D01*
X106733300Y-102596066D01*
X106756280Y-102586549D01*
X106779720Y-102578248D01*
X106803560Y-102571185D01*
X106827740Y-102565380D01*
X106852190Y-102560848D01*
X106876850Y-102557602D01*
X106901640Y-102555651D01*
X106926500Y-102555000D01*
G37*
X106926500Y-102555000D02*
X108126500Y-102555000D01*
X108126500Y-104455000D01*
X106926500Y-104455000D01*
X106901640Y-104454349D01*
X106876850Y-104452398D01*
X106852190Y-104449152D01*
X106827740Y-104444620D01*
X106803560Y-104438815D01*
X106779720Y-104431752D01*
X106756280Y-104423451D01*
X106733300Y-104413934D01*
X106710850Y-104403228D01*
X106689000Y-104391362D01*
X106667800Y-104378369D01*
X106647300Y-104364283D01*
X106627570Y-104349144D01*
X106608660Y-104332994D01*
X106590620Y-104315876D01*
X106573510Y-104297837D01*
X106557360Y-104278927D01*
X106542220Y-104259198D01*
X106528130Y-104238704D01*
X106515140Y-104217500D01*
X106503270Y-104195645D01*
X106492570Y-104173200D01*
X106483050Y-104150225D01*
X106474750Y-104126783D01*
X106467690Y-104102939D01*
X106461880Y-104078758D01*
X106457350Y-104054306D01*
X106454100Y-104029651D01*
X106452150Y-104004860D01*
X106451500Y-103980000D01*
X106451500Y-103030000D01*
X106452150Y-103005140D01*
X106454100Y-102980349D01*
X106457350Y-102955694D01*
X106461880Y-102931242D01*
X106467690Y-102907061D01*
X106474750Y-102883217D01*
X106483050Y-102859775D01*
X106492570Y-102836800D01*
X106503270Y-102814355D01*
X106515140Y-102792500D01*
X106528130Y-102771296D01*
X106542220Y-102750802D01*
X106557360Y-102731073D01*
X106573510Y-102712163D01*
X106590620Y-102694124D01*
X106608660Y-102677006D01*
X106627570Y-102660856D01*
X106647300Y-102645717D01*
X106667800Y-102631631D01*
X106689000Y-102618638D01*
X106710850Y-102606772D01*
X106733300Y-102596066D01*
X106756280Y-102586549D01*
X106779720Y-102578248D01*
X106803560Y-102571185D01*
X106827740Y-102565380D01*
X106852190Y-102560848D01*
X106876850Y-102557602D01*
X106901640Y-102555651D01*
X106926500Y-102555000D01*
G36*
X113926500Y-102555000D02*
G01*
X112726500Y-102555000D01*
X112726500Y-104455000D01*
X113926500Y-104455000D01*
X113951360Y-104454349D01*
X113976150Y-104452398D01*
X114000810Y-104449152D01*
X114025260Y-104444620D01*
X114049440Y-104438815D01*
X114073280Y-104431752D01*
X114096720Y-104423451D01*
X114119700Y-104413934D01*
X114142150Y-104403228D01*
X114164000Y-104391362D01*
X114185200Y-104378369D01*
X114205700Y-104364283D01*
X114225430Y-104349144D01*
X114244340Y-104332994D01*
X114262380Y-104315876D01*
X114279490Y-104297837D01*
X114295640Y-104278927D01*
X114310780Y-104259198D01*
X114324870Y-104238704D01*
X114337860Y-104217500D01*
X114349730Y-104195645D01*
X114360430Y-104173200D01*
X114369950Y-104150225D01*
X114378250Y-104126783D01*
X114385310Y-104102939D01*
X114391120Y-104078758D01*
X114395650Y-104054306D01*
X114398900Y-104029651D01*
X114400850Y-104004860D01*
X114401500Y-103980000D01*
X114401500Y-103030000D01*
X114400850Y-103005140D01*
X114398900Y-102980349D01*
X114395650Y-102955694D01*
X114391120Y-102931242D01*
X114385310Y-102907061D01*
X114378250Y-102883217D01*
X114369950Y-102859775D01*
X114360430Y-102836800D01*
X114349730Y-102814355D01*
X114337860Y-102792500D01*
X114324870Y-102771296D01*
X114310780Y-102750802D01*
X114295640Y-102731073D01*
X114279490Y-102712163D01*
X114262380Y-102694124D01*
X114244340Y-102677006D01*
X114225430Y-102660856D01*
X114205700Y-102645717D01*
X114185200Y-102631631D01*
X114164000Y-102618638D01*
X114142150Y-102606772D01*
X114119700Y-102596066D01*
X114096720Y-102586549D01*
X114073280Y-102578248D01*
X114049440Y-102571185D01*
X114025260Y-102565380D01*
X114000810Y-102560848D01*
X113976150Y-102557602D01*
X113951360Y-102555651D01*
X113926500Y-102555000D01*
G37*
X113926500Y-102555000D02*
X112726500Y-102555000D01*
X112726500Y-104455000D01*
X113926500Y-104455000D01*
X113951360Y-104454349D01*
X113976150Y-104452398D01*
X114000810Y-104449152D01*
X114025260Y-104444620D01*
X114049440Y-104438815D01*
X114073280Y-104431752D01*
X114096720Y-104423451D01*
X114119700Y-104413934D01*
X114142150Y-104403228D01*
X114164000Y-104391362D01*
X114185200Y-104378369D01*
X114205700Y-104364283D01*
X114225430Y-104349144D01*
X114244340Y-104332994D01*
X114262380Y-104315876D01*
X114279490Y-104297837D01*
X114295640Y-104278927D01*
X114310780Y-104259198D01*
X114324870Y-104238704D01*
X114337860Y-104217500D01*
X114349730Y-104195645D01*
X114360430Y-104173200D01*
X114369950Y-104150225D01*
X114378250Y-104126783D01*
X114385310Y-104102939D01*
X114391120Y-104078758D01*
X114395650Y-104054306D01*
X114398900Y-104029651D01*
X114400850Y-104004860D01*
X114401500Y-103980000D01*
X114401500Y-103030000D01*
X114400850Y-103005140D01*
X114398900Y-102980349D01*
X114395650Y-102955694D01*
X114391120Y-102931242D01*
X114385310Y-102907061D01*
X114378250Y-102883217D01*
X114369950Y-102859775D01*
X114360430Y-102836800D01*
X114349730Y-102814355D01*
X114337860Y-102792500D01*
X114324870Y-102771296D01*
X114310780Y-102750802D01*
X114295640Y-102731073D01*
X114279490Y-102712163D01*
X114262380Y-102694124D01*
X114244340Y-102677006D01*
X114225430Y-102660856D01*
X114205700Y-102645717D01*
X114185200Y-102631631D01*
X114164000Y-102618638D01*
X114142150Y-102606772D01*
X114119700Y-102596066D01*
X114096720Y-102586549D01*
X114073280Y-102578248D01*
X114049440Y-102571185D01*
X114025260Y-102565380D01*
X114000810Y-102560848D01*
X113976150Y-102557602D01*
X113951360Y-102555651D01*
X113926500Y-102555000D01*
D11*
X152400000Y-90576000D03*
D12*
X152400000Y-96876000D03*
X154700000Y-96876000D03*
X150100000Y-96876000D03*
D13*
X114360000Y-93225000D03*
D14*
X109160000Y-92075000D03*
D13*
X114360000Y-90925000D03*
D15*
X133525000Y-100965000D03*
X126825000Y-100965000D03*
D16*
X122945000Y-76655000D03*
X122945000Y-77925000D03*
X122945000Y-79195000D03*
X122945000Y-80465000D03*
X122945000Y-81735000D03*
X122945000Y-83005000D03*
X122945000Y-84275000D03*
X122945000Y-85545000D03*
X122945000Y-86815000D03*
X122945000Y-88085000D03*
X122945000Y-89355000D03*
X122945000Y-90625000D03*
X122945000Y-91895000D03*
X122945000Y-93165000D03*
D17*
X125730000Y-94165000D03*
X127000000Y-94165000D03*
X128270000Y-94165000D03*
X129540000Y-94165000D03*
X130810000Y-94165000D03*
X132080000Y-94165000D03*
X133350000Y-94165000D03*
X134620000Y-94165000D03*
X135890000Y-94165000D03*
X137160000Y-94165000D03*
D16*
X139945000Y-93165000D03*
X139945000Y-91895000D03*
X139945000Y-90625000D03*
X139945000Y-89355000D03*
X139945000Y-88085000D03*
X139945000Y-86815000D03*
X139945000Y-85545000D03*
X139945000Y-84275000D03*
X139945000Y-83005000D03*
X139945000Y-81735000D03*
X139945000Y-80465000D03*
X139945000Y-79195000D03*
X139945000Y-77925000D03*
X139945000Y-76655000D03*
D18*
X128610000Y-82320000D03*
X130445000Y-82320000D03*
X132280000Y-82320000D03*
X128610000Y-84155000D03*
X130445000Y-84155000D03*
X132280000Y-84155000D03*
X128610000Y-85990000D03*
X130445000Y-85990000D03*
X132280000Y-85990000D03*
D19*
G36*
X139642504Y-97424204D02*
G01*
X139666773Y-97427804D01*
X139690571Y-97433765D01*
X139713671Y-97442030D01*
X139735849Y-97452520D01*
X139756893Y-97465133D01*
X139776598Y-97479747D01*
X139794777Y-97496223D01*
X139811253Y-97514402D01*
X139825867Y-97534107D01*
X139838480Y-97555151D01*
X139848970Y-97577329D01*
X139857235Y-97600429D01*
X139863196Y-97624227D01*
X139866796Y-97648496D01*
X139868000Y-97673000D01*
X139868000Y-98923000D01*
X139866796Y-98947504D01*
X139863196Y-98971773D01*
X139857235Y-98995571D01*
X139848970Y-99018671D01*
X139838480Y-99040849D01*
X139825867Y-99061893D01*
X139811253Y-99081598D01*
X139794777Y-99099777D01*
X139776598Y-99116253D01*
X139756893Y-99130867D01*
X139735849Y-99143480D01*
X139713671Y-99153970D01*
X139690571Y-99162235D01*
X139666773Y-99168196D01*
X139642504Y-99171796D01*
X139618000Y-99173000D01*
X138693000Y-99173000D01*
X138668496Y-99171796D01*
X138644227Y-99168196D01*
X138620429Y-99162235D01*
X138597329Y-99153970D01*
X138575151Y-99143480D01*
X138554107Y-99130867D01*
X138534402Y-99116253D01*
X138516223Y-99099777D01*
X138499747Y-99081598D01*
X138485133Y-99061893D01*
X138472520Y-99040849D01*
X138462030Y-99018671D01*
X138453765Y-98995571D01*
X138447804Y-98971773D01*
X138444204Y-98947504D01*
X138443000Y-98923000D01*
X138443000Y-97673000D01*
X138444204Y-97648496D01*
X138447804Y-97624227D01*
X138453765Y-97600429D01*
X138462030Y-97577329D01*
X138472520Y-97555151D01*
X138485133Y-97534107D01*
X138499747Y-97514402D01*
X138516223Y-97496223D01*
X138534402Y-97479747D01*
X138554107Y-97465133D01*
X138575151Y-97452520D01*
X138597329Y-97442030D01*
X138620429Y-97433765D01*
X138644227Y-97427804D01*
X138668496Y-97424204D01*
X138693000Y-97423000D01*
X139618000Y-97423000D01*
X139642504Y-97424204D01*
G37*
G36*
X136667504Y-97424204D02*
G01*
X136691773Y-97427804D01*
X136715571Y-97433765D01*
X136738671Y-97442030D01*
X136760849Y-97452520D01*
X136781893Y-97465133D01*
X136801598Y-97479747D01*
X136819777Y-97496223D01*
X136836253Y-97514402D01*
X136850867Y-97534107D01*
X136863480Y-97555151D01*
X136873970Y-97577329D01*
X136882235Y-97600429D01*
X136888196Y-97624227D01*
X136891796Y-97648496D01*
X136893000Y-97673000D01*
X136893000Y-98923000D01*
X136891796Y-98947504D01*
X136888196Y-98971773D01*
X136882235Y-98995571D01*
X136873970Y-99018671D01*
X136863480Y-99040849D01*
X136850867Y-99061893D01*
X136836253Y-99081598D01*
X136819777Y-99099777D01*
X136801598Y-99116253D01*
X136781893Y-99130867D01*
X136760849Y-99143480D01*
X136738671Y-99153970D01*
X136715571Y-99162235D01*
X136691773Y-99168196D01*
X136667504Y-99171796D01*
X136643000Y-99173000D01*
X135718000Y-99173000D01*
X135693496Y-99171796D01*
X135669227Y-99168196D01*
X135645429Y-99162235D01*
X135622329Y-99153970D01*
X135600151Y-99143480D01*
X135579107Y-99130867D01*
X135559402Y-99116253D01*
X135541223Y-99099777D01*
X135524747Y-99081598D01*
X135510133Y-99061893D01*
X135497520Y-99040849D01*
X135487030Y-99018671D01*
X135478765Y-98995571D01*
X135472804Y-98971773D01*
X135469204Y-98947504D01*
X135468000Y-98923000D01*
X135468000Y-97673000D01*
X135469204Y-97648496D01*
X135472804Y-97624227D01*
X135478765Y-97600429D01*
X135487030Y-97577329D01*
X135497520Y-97555151D01*
X135510133Y-97534107D01*
X135524747Y-97514402D01*
X135541223Y-97496223D01*
X135559402Y-97479747D01*
X135579107Y-97465133D01*
X135600151Y-97452520D01*
X135622329Y-97442030D01*
X135645429Y-97433765D01*
X135669227Y-97427804D01*
X135693496Y-97424204D01*
X135718000Y-97423000D01*
X136643000Y-97423000D01*
X136667504Y-97424204D01*
G37*
G36*
X124720504Y-96535204D02*
G01*
X124744773Y-96538804D01*
X124768571Y-96544765D01*
X124791671Y-96553030D01*
X124813849Y-96563520D01*
X124834893Y-96576133D01*
X124854598Y-96590747D01*
X124872777Y-96607223D01*
X124889253Y-96625402D01*
X124903867Y-96645107D01*
X124916480Y-96666151D01*
X124926970Y-96688329D01*
X124935235Y-96711429D01*
X124941196Y-96735227D01*
X124944796Y-96759496D01*
X124946000Y-96784000D01*
X124946000Y-98034000D01*
X124944796Y-98058504D01*
X124941196Y-98082773D01*
X124935235Y-98106571D01*
X124926970Y-98129671D01*
X124916480Y-98151849D01*
X124903867Y-98172893D01*
X124889253Y-98192598D01*
X124872777Y-98210777D01*
X124854598Y-98227253D01*
X124834893Y-98241867D01*
X124813849Y-98254480D01*
X124791671Y-98264970D01*
X124768571Y-98273235D01*
X124744773Y-98279196D01*
X124720504Y-98282796D01*
X124696000Y-98284000D01*
X123771000Y-98284000D01*
X123746496Y-98282796D01*
X123722227Y-98279196D01*
X123698429Y-98273235D01*
X123675329Y-98264970D01*
X123653151Y-98254480D01*
X123632107Y-98241867D01*
X123612402Y-98227253D01*
X123594223Y-98210777D01*
X123577747Y-98192598D01*
X123563133Y-98172893D01*
X123550520Y-98151849D01*
X123540030Y-98129671D01*
X123531765Y-98106571D01*
X123525804Y-98082773D01*
X123522204Y-98058504D01*
X123521000Y-98034000D01*
X123521000Y-96784000D01*
X123522204Y-96759496D01*
X123525804Y-96735227D01*
X123531765Y-96711429D01*
X123540030Y-96688329D01*
X123550520Y-96666151D01*
X123563133Y-96645107D01*
X123577747Y-96625402D01*
X123594223Y-96607223D01*
X123612402Y-96590747D01*
X123632107Y-96576133D01*
X123653151Y-96563520D01*
X123675329Y-96553030D01*
X123698429Y-96544765D01*
X123722227Y-96538804D01*
X123746496Y-96535204D01*
X123771000Y-96534000D01*
X124696000Y-96534000D01*
X124720504Y-96535204D01*
G37*
G36*
X127695504Y-96535204D02*
G01*
X127719773Y-96538804D01*
X127743571Y-96544765D01*
X127766671Y-96553030D01*
X127788849Y-96563520D01*
X127809893Y-96576133D01*
X127829598Y-96590747D01*
X127847777Y-96607223D01*
X127864253Y-96625402D01*
X127878867Y-96645107D01*
X127891480Y-96666151D01*
X127901970Y-96688329D01*
X127910235Y-96711429D01*
X127916196Y-96735227D01*
X127919796Y-96759496D01*
X127921000Y-96784000D01*
X127921000Y-98034000D01*
X127919796Y-98058504D01*
X127916196Y-98082773D01*
X127910235Y-98106571D01*
X127901970Y-98129671D01*
X127891480Y-98151849D01*
X127878867Y-98172893D01*
X127864253Y-98192598D01*
X127847777Y-98210777D01*
X127829598Y-98227253D01*
X127809893Y-98241867D01*
X127788849Y-98254480D01*
X127766671Y-98264970D01*
X127743571Y-98273235D01*
X127719773Y-98279196D01*
X127695504Y-98282796D01*
X127671000Y-98284000D01*
X126746000Y-98284000D01*
X126721496Y-98282796D01*
X126697227Y-98279196D01*
X126673429Y-98273235D01*
X126650329Y-98264970D01*
X126628151Y-98254480D01*
X126607107Y-98241867D01*
X126587402Y-98227253D01*
X126569223Y-98210777D01*
X126552747Y-98192598D01*
X126538133Y-98172893D01*
X126525520Y-98151849D01*
X126515030Y-98129671D01*
X126506765Y-98106571D01*
X126500804Y-98082773D01*
X126497204Y-98058504D01*
X126496000Y-98034000D01*
X126496000Y-96784000D01*
X126497204Y-96759496D01*
X126500804Y-96735227D01*
X126506765Y-96711429D01*
X126515030Y-96688329D01*
X126525520Y-96666151D01*
X126538133Y-96645107D01*
X126552747Y-96625402D01*
X126569223Y-96607223D01*
X126587402Y-96590747D01*
X126607107Y-96576133D01*
X126628151Y-96563520D01*
X126650329Y-96553030D01*
X126673429Y-96544765D01*
X126697227Y-96538804D01*
X126721496Y-96535204D01*
X126746000Y-96534000D01*
X127671000Y-96534000D01*
X127695504Y-96535204D01*
G37*
D15*
X123365000Y-100965000D03*
X116665000Y-100965000D03*
D19*
G36*
X95391504Y-96062704D02*
G01*
X95415773Y-96066304D01*
X95439571Y-96072265D01*
X95462671Y-96080530D01*
X95484849Y-96091020D01*
X95505893Y-96103633D01*
X95525598Y-96118247D01*
X95543777Y-96134723D01*
X95560253Y-96152902D01*
X95574867Y-96172607D01*
X95587480Y-96193651D01*
X95597970Y-96215829D01*
X95606235Y-96238929D01*
X95612196Y-96262727D01*
X95615796Y-96286996D01*
X95617000Y-96311500D01*
X95617000Y-97236500D01*
X95615796Y-97261004D01*
X95612196Y-97285273D01*
X95606235Y-97309071D01*
X95597970Y-97332171D01*
X95587480Y-97354349D01*
X95574867Y-97375393D01*
X95560253Y-97395098D01*
X95543777Y-97413277D01*
X95525598Y-97429753D01*
X95505893Y-97444367D01*
X95484849Y-97456980D01*
X95462671Y-97467470D01*
X95439571Y-97475735D01*
X95415773Y-97481696D01*
X95391504Y-97485296D01*
X95367000Y-97486500D01*
X94117000Y-97486500D01*
X94092496Y-97485296D01*
X94068227Y-97481696D01*
X94044429Y-97475735D01*
X94021329Y-97467470D01*
X93999151Y-97456980D01*
X93978107Y-97444367D01*
X93958402Y-97429753D01*
X93940223Y-97413277D01*
X93923747Y-97395098D01*
X93909133Y-97375393D01*
X93896520Y-97354349D01*
X93886030Y-97332171D01*
X93877765Y-97309071D01*
X93871804Y-97285273D01*
X93868204Y-97261004D01*
X93867000Y-97236500D01*
X93867000Y-96311500D01*
X93868204Y-96286996D01*
X93871804Y-96262727D01*
X93877765Y-96238929D01*
X93886030Y-96215829D01*
X93896520Y-96193651D01*
X93909133Y-96172607D01*
X93923747Y-96152902D01*
X93940223Y-96134723D01*
X93958402Y-96118247D01*
X93978107Y-96103633D01*
X93999151Y-96091020D01*
X94021329Y-96080530D01*
X94044429Y-96072265D01*
X94068227Y-96066304D01*
X94092496Y-96062704D01*
X94117000Y-96061500D01*
X95367000Y-96061500D01*
X95391504Y-96062704D01*
G37*
G36*
X95391504Y-93087704D02*
G01*
X95415773Y-93091304D01*
X95439571Y-93097265D01*
X95462671Y-93105530D01*
X95484849Y-93116020D01*
X95505893Y-93128633D01*
X95525598Y-93143247D01*
X95543777Y-93159723D01*
X95560253Y-93177902D01*
X95574867Y-93197607D01*
X95587480Y-93218651D01*
X95597970Y-93240829D01*
X95606235Y-93263929D01*
X95612196Y-93287727D01*
X95615796Y-93311996D01*
X95617000Y-93336500D01*
X95617000Y-94261500D01*
X95615796Y-94286004D01*
X95612196Y-94310273D01*
X95606235Y-94334071D01*
X95597970Y-94357171D01*
X95587480Y-94379349D01*
X95574867Y-94400393D01*
X95560253Y-94420098D01*
X95543777Y-94438277D01*
X95525598Y-94454753D01*
X95505893Y-94469367D01*
X95484849Y-94481980D01*
X95462671Y-94492470D01*
X95439571Y-94500735D01*
X95415773Y-94506696D01*
X95391504Y-94510296D01*
X95367000Y-94511500D01*
X94117000Y-94511500D01*
X94092496Y-94510296D01*
X94068227Y-94506696D01*
X94044429Y-94500735D01*
X94021329Y-94492470D01*
X93999151Y-94481980D01*
X93978107Y-94469367D01*
X93958402Y-94454753D01*
X93940223Y-94438277D01*
X93923747Y-94420098D01*
X93909133Y-94400393D01*
X93896520Y-94379349D01*
X93886030Y-94357171D01*
X93877765Y-94334071D01*
X93871804Y-94310273D01*
X93868204Y-94286004D01*
X93867000Y-94261500D01*
X93867000Y-93336500D01*
X93868204Y-93311996D01*
X93871804Y-93287727D01*
X93877765Y-93263929D01*
X93886030Y-93240829D01*
X93896520Y-93218651D01*
X93909133Y-93197607D01*
X93923747Y-93177902D01*
X93940223Y-93159723D01*
X93958402Y-93143247D01*
X93978107Y-93128633D01*
X93999151Y-93116020D01*
X94021329Y-93105530D01*
X94044429Y-93097265D01*
X94068227Y-93091304D01*
X94092496Y-93087704D01*
X94117000Y-93086500D01*
X95367000Y-93086500D01*
X95391504Y-93087704D01*
G37*
D20*
X109426500Y-103505000D03*
X111426500Y-103505000D03*
D21*
X109126500Y-100830000D03*
X109776500Y-100830000D03*
X110426500Y-100830000D03*
X111076500Y-100830000D03*
X111726500Y-100830000D03*
D19*
G36*
X117109504Y-77866204D02*
G01*
X117133773Y-77869804D01*
X117157571Y-77875765D01*
X117180671Y-77884030D01*
X117202849Y-77894520D01*
X117223893Y-77907133D01*
X117243598Y-77921747D01*
X117261777Y-77938223D01*
X117278253Y-77956402D01*
X117292867Y-77976107D01*
X117305480Y-77997151D01*
X117315970Y-78019329D01*
X117324235Y-78042429D01*
X117330196Y-78066227D01*
X117333796Y-78090496D01*
X117335000Y-78115000D01*
X117335000Y-79365000D01*
X117333796Y-79389504D01*
X117330196Y-79413773D01*
X117324235Y-79437571D01*
X117315970Y-79460671D01*
X117305480Y-79482849D01*
X117292867Y-79503893D01*
X117278253Y-79523598D01*
X117261777Y-79541777D01*
X117243598Y-79558253D01*
X117223893Y-79572867D01*
X117202849Y-79585480D01*
X117180671Y-79595970D01*
X117157571Y-79604235D01*
X117133773Y-79610196D01*
X117109504Y-79613796D01*
X117085000Y-79615000D01*
X116160000Y-79615000D01*
X116135496Y-79613796D01*
X116111227Y-79610196D01*
X116087429Y-79604235D01*
X116064329Y-79595970D01*
X116042151Y-79585480D01*
X116021107Y-79572867D01*
X116001402Y-79558253D01*
X115983223Y-79541777D01*
X115966747Y-79523598D01*
X115952133Y-79503893D01*
X115939520Y-79482849D01*
X115929030Y-79460671D01*
X115920765Y-79437571D01*
X115914804Y-79413773D01*
X115911204Y-79389504D01*
X115910000Y-79365000D01*
X115910000Y-78115000D01*
X115911204Y-78090496D01*
X115914804Y-78066227D01*
X115920765Y-78042429D01*
X115929030Y-78019329D01*
X115939520Y-77997151D01*
X115952133Y-77976107D01*
X115966747Y-77956402D01*
X115983223Y-77938223D01*
X116001402Y-77921747D01*
X116021107Y-77907133D01*
X116042151Y-77894520D01*
X116064329Y-77884030D01*
X116087429Y-77875765D01*
X116111227Y-77869804D01*
X116135496Y-77866204D01*
X116160000Y-77865000D01*
X117085000Y-77865000D01*
X117109504Y-77866204D01*
G37*
G36*
X120084504Y-77866204D02*
G01*
X120108773Y-77869804D01*
X120132571Y-77875765D01*
X120155671Y-77884030D01*
X120177849Y-77894520D01*
X120198893Y-77907133D01*
X120218598Y-77921747D01*
X120236777Y-77938223D01*
X120253253Y-77956402D01*
X120267867Y-77976107D01*
X120280480Y-77997151D01*
X120290970Y-78019329D01*
X120299235Y-78042429D01*
X120305196Y-78066227D01*
X120308796Y-78090496D01*
X120310000Y-78115000D01*
X120310000Y-79365000D01*
X120308796Y-79389504D01*
X120305196Y-79413773D01*
X120299235Y-79437571D01*
X120290970Y-79460671D01*
X120280480Y-79482849D01*
X120267867Y-79503893D01*
X120253253Y-79523598D01*
X120236777Y-79541777D01*
X120218598Y-79558253D01*
X120198893Y-79572867D01*
X120177849Y-79585480D01*
X120155671Y-79595970D01*
X120132571Y-79604235D01*
X120108773Y-79610196D01*
X120084504Y-79613796D01*
X120060000Y-79615000D01*
X119135000Y-79615000D01*
X119110496Y-79613796D01*
X119086227Y-79610196D01*
X119062429Y-79604235D01*
X119039329Y-79595970D01*
X119017151Y-79585480D01*
X118996107Y-79572867D01*
X118976402Y-79558253D01*
X118958223Y-79541777D01*
X118941747Y-79523598D01*
X118927133Y-79503893D01*
X118914520Y-79482849D01*
X118904030Y-79460671D01*
X118895765Y-79437571D01*
X118889804Y-79413773D01*
X118886204Y-79389504D01*
X118885000Y-79365000D01*
X118885000Y-78115000D01*
X118886204Y-78090496D01*
X118889804Y-78066227D01*
X118895765Y-78042429D01*
X118904030Y-78019329D01*
X118914520Y-77997151D01*
X118927133Y-77976107D01*
X118941747Y-77956402D01*
X118958223Y-77938223D01*
X118976402Y-77921747D01*
X118996107Y-77907133D01*
X119017151Y-77894520D01*
X119039329Y-77884030D01*
X119062429Y-77875765D01*
X119086227Y-77869804D01*
X119110496Y-77866204D01*
X119135000Y-77865000D01*
X120060000Y-77865000D01*
X120084504Y-77866204D01*
G37*
G36*
X120719504Y-84851204D02*
G01*
X120743773Y-84854804D01*
X120767571Y-84860765D01*
X120790671Y-84869030D01*
X120812849Y-84879520D01*
X120833893Y-84892133D01*
X120853598Y-84906747D01*
X120871777Y-84923223D01*
X120888253Y-84941402D01*
X120902867Y-84961107D01*
X120915480Y-84982151D01*
X120925970Y-85004329D01*
X120934235Y-85027429D01*
X120940196Y-85051227D01*
X120943796Y-85075496D01*
X120945000Y-85100000D01*
X120945000Y-86350000D01*
X120943796Y-86374504D01*
X120940196Y-86398773D01*
X120934235Y-86422571D01*
X120925970Y-86445671D01*
X120915480Y-86467849D01*
X120902867Y-86488893D01*
X120888253Y-86508598D01*
X120871777Y-86526777D01*
X120853598Y-86543253D01*
X120833893Y-86557867D01*
X120812849Y-86570480D01*
X120790671Y-86580970D01*
X120767571Y-86589235D01*
X120743773Y-86595196D01*
X120719504Y-86598796D01*
X120695000Y-86600000D01*
X119770000Y-86600000D01*
X119745496Y-86598796D01*
X119721227Y-86595196D01*
X119697429Y-86589235D01*
X119674329Y-86580970D01*
X119652151Y-86570480D01*
X119631107Y-86557867D01*
X119611402Y-86543253D01*
X119593223Y-86526777D01*
X119576747Y-86508598D01*
X119562133Y-86488893D01*
X119549520Y-86467849D01*
X119539030Y-86445671D01*
X119530765Y-86422571D01*
X119524804Y-86398773D01*
X119521204Y-86374504D01*
X119520000Y-86350000D01*
X119520000Y-85100000D01*
X119521204Y-85075496D01*
X119524804Y-85051227D01*
X119530765Y-85027429D01*
X119539030Y-85004329D01*
X119549520Y-84982151D01*
X119562133Y-84961107D01*
X119576747Y-84941402D01*
X119593223Y-84923223D01*
X119611402Y-84906747D01*
X119631107Y-84892133D01*
X119652151Y-84879520D01*
X119674329Y-84869030D01*
X119697429Y-84860765D01*
X119721227Y-84854804D01*
X119745496Y-84851204D01*
X119770000Y-84850000D01*
X120695000Y-84850000D01*
X120719504Y-84851204D01*
G37*
G36*
X117744504Y-84851204D02*
G01*
X117768773Y-84854804D01*
X117792571Y-84860765D01*
X117815671Y-84869030D01*
X117837849Y-84879520D01*
X117858893Y-84892133D01*
X117878598Y-84906747D01*
X117896777Y-84923223D01*
X117913253Y-84941402D01*
X117927867Y-84961107D01*
X117940480Y-84982151D01*
X117950970Y-85004329D01*
X117959235Y-85027429D01*
X117965196Y-85051227D01*
X117968796Y-85075496D01*
X117970000Y-85100000D01*
X117970000Y-86350000D01*
X117968796Y-86374504D01*
X117965196Y-86398773D01*
X117959235Y-86422571D01*
X117950970Y-86445671D01*
X117940480Y-86467849D01*
X117927867Y-86488893D01*
X117913253Y-86508598D01*
X117896777Y-86526777D01*
X117878598Y-86543253D01*
X117858893Y-86557867D01*
X117837849Y-86570480D01*
X117815671Y-86580970D01*
X117792571Y-86589235D01*
X117768773Y-86595196D01*
X117744504Y-86598796D01*
X117720000Y-86600000D01*
X116795000Y-86600000D01*
X116770496Y-86598796D01*
X116746227Y-86595196D01*
X116722429Y-86589235D01*
X116699329Y-86580970D01*
X116677151Y-86570480D01*
X116656107Y-86557867D01*
X116636402Y-86543253D01*
X116618223Y-86526777D01*
X116601747Y-86508598D01*
X116587133Y-86488893D01*
X116574520Y-86467849D01*
X116564030Y-86445671D01*
X116555765Y-86422571D01*
X116549804Y-86398773D01*
X116546204Y-86374504D01*
X116545000Y-86350000D01*
X116545000Y-85100000D01*
X116546204Y-85075496D01*
X116549804Y-85051227D01*
X116555765Y-85027429D01*
X116564030Y-85004329D01*
X116574520Y-84982151D01*
X116587133Y-84961107D01*
X116601747Y-84941402D01*
X116618223Y-84923223D01*
X116636402Y-84906747D01*
X116656107Y-84892133D01*
X116677151Y-84879520D01*
X116699329Y-84869030D01*
X116722429Y-84860765D01*
X116746227Y-84854804D01*
X116770496Y-84851204D01*
X116795000Y-84850000D01*
X117720000Y-84850000D01*
X117744504Y-84851204D01*
G37*
G36*
X155843504Y-86120204D02*
G01*
X155867773Y-86123804D01*
X155891571Y-86129765D01*
X155914671Y-86138030D01*
X155936849Y-86148520D01*
X155957893Y-86161133D01*
X155977598Y-86175747D01*
X155995777Y-86192223D01*
X156012253Y-86210402D01*
X156026867Y-86230107D01*
X156039480Y-86251151D01*
X156049970Y-86273329D01*
X156058235Y-86296429D01*
X156064196Y-86320227D01*
X156067796Y-86344496D01*
X156069000Y-86369000D01*
X156069000Y-87294000D01*
X156067796Y-87318504D01*
X156064196Y-87342773D01*
X156058235Y-87366571D01*
X156049970Y-87389671D01*
X156039480Y-87411849D01*
X156026867Y-87432893D01*
X156012253Y-87452598D01*
X155995777Y-87470777D01*
X155977598Y-87487253D01*
X155957893Y-87501867D01*
X155936849Y-87514480D01*
X155914671Y-87524970D01*
X155891571Y-87533235D01*
X155867773Y-87539196D01*
X155843504Y-87542796D01*
X155819000Y-87544000D01*
X154569000Y-87544000D01*
X154544496Y-87542796D01*
X154520227Y-87539196D01*
X154496429Y-87533235D01*
X154473329Y-87524970D01*
X154451151Y-87514480D01*
X154430107Y-87501867D01*
X154410402Y-87487253D01*
X154392223Y-87470777D01*
X154375747Y-87452598D01*
X154361133Y-87432893D01*
X154348520Y-87411849D01*
X154338030Y-87389671D01*
X154329765Y-87366571D01*
X154323804Y-87342773D01*
X154320204Y-87318504D01*
X154319000Y-87294000D01*
X154319000Y-86369000D01*
X154320204Y-86344496D01*
X154323804Y-86320227D01*
X154329765Y-86296429D01*
X154338030Y-86273329D01*
X154348520Y-86251151D01*
X154361133Y-86230107D01*
X154375747Y-86210402D01*
X154392223Y-86192223D01*
X154410402Y-86175747D01*
X154430107Y-86161133D01*
X154451151Y-86148520D01*
X154473329Y-86138030D01*
X154496429Y-86129765D01*
X154520227Y-86123804D01*
X154544496Y-86120204D01*
X154569000Y-86119000D01*
X155819000Y-86119000D01*
X155843504Y-86120204D01*
G37*
G36*
X155843504Y-83145204D02*
G01*
X155867773Y-83148804D01*
X155891571Y-83154765D01*
X155914671Y-83163030D01*
X155936849Y-83173520D01*
X155957893Y-83186133D01*
X155977598Y-83200747D01*
X155995777Y-83217223D01*
X156012253Y-83235402D01*
X156026867Y-83255107D01*
X156039480Y-83276151D01*
X156049970Y-83298329D01*
X156058235Y-83321429D01*
X156064196Y-83345227D01*
X156067796Y-83369496D01*
X156069000Y-83394000D01*
X156069000Y-84319000D01*
X156067796Y-84343504D01*
X156064196Y-84367773D01*
X156058235Y-84391571D01*
X156049970Y-84414671D01*
X156039480Y-84436849D01*
X156026867Y-84457893D01*
X156012253Y-84477598D01*
X155995777Y-84495777D01*
X155977598Y-84512253D01*
X155957893Y-84526867D01*
X155936849Y-84539480D01*
X155914671Y-84549970D01*
X155891571Y-84558235D01*
X155867773Y-84564196D01*
X155843504Y-84567796D01*
X155819000Y-84569000D01*
X154569000Y-84569000D01*
X154544496Y-84567796D01*
X154520227Y-84564196D01*
X154496429Y-84558235D01*
X154473329Y-84549970D01*
X154451151Y-84539480D01*
X154430107Y-84526867D01*
X154410402Y-84512253D01*
X154392223Y-84495777D01*
X154375747Y-84477598D01*
X154361133Y-84457893D01*
X154348520Y-84436849D01*
X154338030Y-84414671D01*
X154329765Y-84391571D01*
X154323804Y-84367773D01*
X154320204Y-84343504D01*
X154319000Y-84319000D01*
X154319000Y-83394000D01*
X154320204Y-83369496D01*
X154323804Y-83345227D01*
X154329765Y-83321429D01*
X154338030Y-83298329D01*
X154348520Y-83276151D01*
X154361133Y-83255107D01*
X154375747Y-83235402D01*
X154392223Y-83217223D01*
X154410402Y-83200747D01*
X154430107Y-83186133D01*
X154451151Y-83173520D01*
X154473329Y-83163030D01*
X154496429Y-83154765D01*
X154520227Y-83148804D01*
X154544496Y-83145204D01*
X154569000Y-83144000D01*
X155819000Y-83144000D01*
X155843504Y-83145204D01*
G37*
G36*
X146500504Y-99456204D02*
G01*
X146524773Y-99459804D01*
X146548571Y-99465765D01*
X146571671Y-99474030D01*
X146593849Y-99484520D01*
X146614893Y-99497133D01*
X146634598Y-99511747D01*
X146652777Y-99528223D01*
X146669253Y-99546402D01*
X146683867Y-99566107D01*
X146696480Y-99587151D01*
X146706970Y-99609329D01*
X146715235Y-99632429D01*
X146721196Y-99656227D01*
X146724796Y-99680496D01*
X146726000Y-99705000D01*
X146726000Y-100955000D01*
X146724796Y-100979504D01*
X146721196Y-101003773D01*
X146715235Y-101027571D01*
X146706970Y-101050671D01*
X146696480Y-101072849D01*
X146683867Y-101093893D01*
X146669253Y-101113598D01*
X146652777Y-101131777D01*
X146634598Y-101148253D01*
X146614893Y-101162867D01*
X146593849Y-101175480D01*
X146571671Y-101185970D01*
X146548571Y-101194235D01*
X146524773Y-101200196D01*
X146500504Y-101203796D01*
X146476000Y-101205000D01*
X145551000Y-101205000D01*
X145526496Y-101203796D01*
X145502227Y-101200196D01*
X145478429Y-101194235D01*
X145455329Y-101185970D01*
X145433151Y-101175480D01*
X145412107Y-101162867D01*
X145392402Y-101148253D01*
X145374223Y-101131777D01*
X145357747Y-101113598D01*
X145343133Y-101093893D01*
X145330520Y-101072849D01*
X145320030Y-101050671D01*
X145311765Y-101027571D01*
X145305804Y-101003773D01*
X145302204Y-100979504D01*
X145301000Y-100955000D01*
X145301000Y-99705000D01*
X145302204Y-99680496D01*
X145305804Y-99656227D01*
X145311765Y-99632429D01*
X145320030Y-99609329D01*
X145330520Y-99587151D01*
X145343133Y-99566107D01*
X145357747Y-99546402D01*
X145374223Y-99528223D01*
X145392402Y-99511747D01*
X145412107Y-99497133D01*
X145433151Y-99484520D01*
X145455329Y-99474030D01*
X145478429Y-99465765D01*
X145502227Y-99459804D01*
X145526496Y-99456204D01*
X145551000Y-99455000D01*
X146476000Y-99455000D01*
X146500504Y-99456204D01*
G37*
G36*
X143525504Y-99456204D02*
G01*
X143549773Y-99459804D01*
X143573571Y-99465765D01*
X143596671Y-99474030D01*
X143618849Y-99484520D01*
X143639893Y-99497133D01*
X143659598Y-99511747D01*
X143677777Y-99528223D01*
X143694253Y-99546402D01*
X143708867Y-99566107D01*
X143721480Y-99587151D01*
X143731970Y-99609329D01*
X143740235Y-99632429D01*
X143746196Y-99656227D01*
X143749796Y-99680496D01*
X143751000Y-99705000D01*
X143751000Y-100955000D01*
X143749796Y-100979504D01*
X143746196Y-101003773D01*
X143740235Y-101027571D01*
X143731970Y-101050671D01*
X143721480Y-101072849D01*
X143708867Y-101093893D01*
X143694253Y-101113598D01*
X143677777Y-101131777D01*
X143659598Y-101148253D01*
X143639893Y-101162867D01*
X143618849Y-101175480D01*
X143596671Y-101185970D01*
X143573571Y-101194235D01*
X143549773Y-101200196D01*
X143525504Y-101203796D01*
X143501000Y-101205000D01*
X142576000Y-101205000D01*
X142551496Y-101203796D01*
X142527227Y-101200196D01*
X142503429Y-101194235D01*
X142480329Y-101185970D01*
X142458151Y-101175480D01*
X142437107Y-101162867D01*
X142417402Y-101148253D01*
X142399223Y-101131777D01*
X142382747Y-101113598D01*
X142368133Y-101093893D01*
X142355520Y-101072849D01*
X142345030Y-101050671D01*
X142336765Y-101027571D01*
X142330804Y-101003773D01*
X142327204Y-100979504D01*
X142326000Y-100955000D01*
X142326000Y-99705000D01*
X142327204Y-99680496D01*
X142330804Y-99656227D01*
X142336765Y-99632429D01*
X142345030Y-99609329D01*
X142355520Y-99587151D01*
X142368133Y-99566107D01*
X142382747Y-99546402D01*
X142399223Y-99528223D01*
X142417402Y-99511747D01*
X142437107Y-99497133D01*
X142458151Y-99484520D01*
X142480329Y-99474030D01*
X142503429Y-99465765D01*
X142527227Y-99459804D01*
X142551496Y-99456204D01*
X142576000Y-99455000D01*
X143501000Y-99455000D01*
X143525504Y-99456204D01*
G37*
G36*
X95391504Y-90728704D02*
G01*
X95415773Y-90732304D01*
X95439571Y-90738265D01*
X95462671Y-90746530D01*
X95484849Y-90757020D01*
X95505893Y-90769633D01*
X95525598Y-90784247D01*
X95543777Y-90800723D01*
X95560253Y-90818902D01*
X95574867Y-90838607D01*
X95587480Y-90859651D01*
X95597970Y-90881829D01*
X95606235Y-90904929D01*
X95612196Y-90928727D01*
X95615796Y-90952996D01*
X95617000Y-90977500D01*
X95617000Y-91902500D01*
X95615796Y-91927004D01*
X95612196Y-91951273D01*
X95606235Y-91975071D01*
X95597970Y-91998171D01*
X95587480Y-92020349D01*
X95574867Y-92041393D01*
X95560253Y-92061098D01*
X95543777Y-92079277D01*
X95525598Y-92095753D01*
X95505893Y-92110367D01*
X95484849Y-92122980D01*
X95462671Y-92133470D01*
X95439571Y-92141735D01*
X95415773Y-92147696D01*
X95391504Y-92151296D01*
X95367000Y-92152500D01*
X94117000Y-92152500D01*
X94092496Y-92151296D01*
X94068227Y-92147696D01*
X94044429Y-92141735D01*
X94021329Y-92133470D01*
X93999151Y-92122980D01*
X93978107Y-92110367D01*
X93958402Y-92095753D01*
X93940223Y-92079277D01*
X93923747Y-92061098D01*
X93909133Y-92041393D01*
X93896520Y-92020349D01*
X93886030Y-91998171D01*
X93877765Y-91975071D01*
X93871804Y-91951273D01*
X93868204Y-91927004D01*
X93867000Y-91902500D01*
X93867000Y-90977500D01*
X93868204Y-90952996D01*
X93871804Y-90928727D01*
X93877765Y-90904929D01*
X93886030Y-90881829D01*
X93896520Y-90859651D01*
X93909133Y-90838607D01*
X93923747Y-90818902D01*
X93940223Y-90800723D01*
X93958402Y-90784247D01*
X93978107Y-90769633D01*
X93999151Y-90757020D01*
X94021329Y-90746530D01*
X94044429Y-90738265D01*
X94068227Y-90732304D01*
X94092496Y-90728704D01*
X94117000Y-90727500D01*
X95367000Y-90727500D01*
X95391504Y-90728704D01*
G37*
G36*
X95391504Y-87753704D02*
G01*
X95415773Y-87757304D01*
X95439571Y-87763265D01*
X95462671Y-87771530D01*
X95484849Y-87782020D01*
X95505893Y-87794633D01*
X95525598Y-87809247D01*
X95543777Y-87825723D01*
X95560253Y-87843902D01*
X95574867Y-87863607D01*
X95587480Y-87884651D01*
X95597970Y-87906829D01*
X95606235Y-87929929D01*
X95612196Y-87953727D01*
X95615796Y-87977996D01*
X95617000Y-88002500D01*
X95617000Y-88927500D01*
X95615796Y-88952004D01*
X95612196Y-88976273D01*
X95606235Y-89000071D01*
X95597970Y-89023171D01*
X95587480Y-89045349D01*
X95574867Y-89066393D01*
X95560253Y-89086098D01*
X95543777Y-89104277D01*
X95525598Y-89120753D01*
X95505893Y-89135367D01*
X95484849Y-89147980D01*
X95462671Y-89158470D01*
X95439571Y-89166735D01*
X95415773Y-89172696D01*
X95391504Y-89176296D01*
X95367000Y-89177500D01*
X94117000Y-89177500D01*
X94092496Y-89176296D01*
X94068227Y-89172696D01*
X94044429Y-89166735D01*
X94021329Y-89158470D01*
X93999151Y-89147980D01*
X93978107Y-89135367D01*
X93958402Y-89120753D01*
X93940223Y-89104277D01*
X93923747Y-89086098D01*
X93909133Y-89066393D01*
X93896520Y-89045349D01*
X93886030Y-89023171D01*
X93877765Y-89000071D01*
X93871804Y-88976273D01*
X93868204Y-88952004D01*
X93867000Y-88927500D01*
X93867000Y-88002500D01*
X93868204Y-87977996D01*
X93871804Y-87953727D01*
X93877765Y-87929929D01*
X93886030Y-87906829D01*
X93896520Y-87884651D01*
X93909133Y-87863607D01*
X93923747Y-87843902D01*
X93940223Y-87825723D01*
X93958402Y-87809247D01*
X93978107Y-87794633D01*
X93999151Y-87782020D01*
X94021329Y-87771530D01*
X94044429Y-87763265D01*
X94068227Y-87757304D01*
X94092496Y-87753704D01*
X94117000Y-87752500D01*
X95367000Y-87752500D01*
X95391504Y-87753704D01*
G37*
G36*
X117400004Y-88280204D02*
G01*
X117424273Y-88283804D01*
X117448071Y-88289765D01*
X117471171Y-88298030D01*
X117493349Y-88308520D01*
X117514393Y-88321133D01*
X117534098Y-88335747D01*
X117552277Y-88352223D01*
X117568753Y-88370402D01*
X117583367Y-88390107D01*
X117595980Y-88411151D01*
X117606470Y-88433329D01*
X117614735Y-88456429D01*
X117620696Y-88480227D01*
X117624296Y-88504496D01*
X117625500Y-88529000D01*
X117625500Y-89779000D01*
X117624296Y-89803504D01*
X117620696Y-89827773D01*
X117614735Y-89851571D01*
X117606470Y-89874671D01*
X117595980Y-89896849D01*
X117583367Y-89917893D01*
X117568753Y-89937598D01*
X117552277Y-89955777D01*
X117534098Y-89972253D01*
X117514393Y-89986867D01*
X117493349Y-89999480D01*
X117471171Y-90009970D01*
X117448071Y-90018235D01*
X117424273Y-90024196D01*
X117400004Y-90027796D01*
X117375500Y-90029000D01*
X116450500Y-90029000D01*
X116425996Y-90027796D01*
X116401727Y-90024196D01*
X116377929Y-90018235D01*
X116354829Y-90009970D01*
X116332651Y-89999480D01*
X116311607Y-89986867D01*
X116291902Y-89972253D01*
X116273723Y-89955777D01*
X116257247Y-89937598D01*
X116242633Y-89917893D01*
X116230020Y-89896849D01*
X116219530Y-89874671D01*
X116211265Y-89851571D01*
X116205304Y-89827773D01*
X116201704Y-89803504D01*
X116200500Y-89779000D01*
X116200500Y-88529000D01*
X116201704Y-88504496D01*
X116205304Y-88480227D01*
X116211265Y-88456429D01*
X116219530Y-88433329D01*
X116230020Y-88411151D01*
X116242633Y-88390107D01*
X116257247Y-88370402D01*
X116273723Y-88352223D01*
X116291902Y-88335747D01*
X116311607Y-88321133D01*
X116332651Y-88308520D01*
X116354829Y-88298030D01*
X116377929Y-88289765D01*
X116401727Y-88283804D01*
X116425996Y-88280204D01*
X116450500Y-88279000D01*
X117375500Y-88279000D01*
X117400004Y-88280204D01*
G37*
G36*
X120375004Y-88280204D02*
G01*
X120399273Y-88283804D01*
X120423071Y-88289765D01*
X120446171Y-88298030D01*
X120468349Y-88308520D01*
X120489393Y-88321133D01*
X120509098Y-88335747D01*
X120527277Y-88352223D01*
X120543753Y-88370402D01*
X120558367Y-88390107D01*
X120570980Y-88411151D01*
X120581470Y-88433329D01*
X120589735Y-88456429D01*
X120595696Y-88480227D01*
X120599296Y-88504496D01*
X120600500Y-88529000D01*
X120600500Y-89779000D01*
X120599296Y-89803504D01*
X120595696Y-89827773D01*
X120589735Y-89851571D01*
X120581470Y-89874671D01*
X120570980Y-89896849D01*
X120558367Y-89917893D01*
X120543753Y-89937598D01*
X120527277Y-89955777D01*
X120509098Y-89972253D01*
X120489393Y-89986867D01*
X120468349Y-89999480D01*
X120446171Y-90009970D01*
X120423071Y-90018235D01*
X120399273Y-90024196D01*
X120375004Y-90027796D01*
X120350500Y-90029000D01*
X119425500Y-90029000D01*
X119400996Y-90027796D01*
X119376727Y-90024196D01*
X119352929Y-90018235D01*
X119329829Y-90009970D01*
X119307651Y-89999480D01*
X119286607Y-89986867D01*
X119266902Y-89972253D01*
X119248723Y-89955777D01*
X119232247Y-89937598D01*
X119217633Y-89917893D01*
X119205020Y-89896849D01*
X119194530Y-89874671D01*
X119186265Y-89851571D01*
X119180304Y-89827773D01*
X119176704Y-89803504D01*
X119175500Y-89779000D01*
X119175500Y-88529000D01*
X119176704Y-88504496D01*
X119180304Y-88480227D01*
X119186265Y-88456429D01*
X119194530Y-88433329D01*
X119205020Y-88411151D01*
X119217633Y-88390107D01*
X119232247Y-88370402D01*
X119248723Y-88352223D01*
X119266902Y-88335747D01*
X119286607Y-88321133D01*
X119307651Y-88308520D01*
X119329829Y-88298030D01*
X119352929Y-88289765D01*
X119376727Y-88283804D01*
X119400996Y-88280204D01*
X119425500Y-88279000D01*
X120350500Y-88279000D01*
X120375004Y-88280204D01*
G37*
G36*
X99329504Y-82311204D02*
G01*
X99353773Y-82314804D01*
X99377571Y-82320765D01*
X99400671Y-82329030D01*
X99422849Y-82339520D01*
X99443893Y-82352133D01*
X99463598Y-82366747D01*
X99481777Y-82383223D01*
X99498253Y-82401402D01*
X99512867Y-82421107D01*
X99525480Y-82442151D01*
X99535970Y-82464329D01*
X99544235Y-82487429D01*
X99550196Y-82511227D01*
X99553796Y-82535496D01*
X99555000Y-82560000D01*
X99555000Y-83810000D01*
X99553796Y-83834504D01*
X99550196Y-83858773D01*
X99544235Y-83882571D01*
X99535970Y-83905671D01*
X99525480Y-83927849D01*
X99512867Y-83948893D01*
X99498253Y-83968598D01*
X99481777Y-83986777D01*
X99463598Y-84003253D01*
X99443893Y-84017867D01*
X99422849Y-84030480D01*
X99400671Y-84040970D01*
X99377571Y-84049235D01*
X99353773Y-84055196D01*
X99329504Y-84058796D01*
X99305000Y-84060000D01*
X98380000Y-84060000D01*
X98355496Y-84058796D01*
X98331227Y-84055196D01*
X98307429Y-84049235D01*
X98284329Y-84040970D01*
X98262151Y-84030480D01*
X98241107Y-84017867D01*
X98221402Y-84003253D01*
X98203223Y-83986777D01*
X98186747Y-83968598D01*
X98172133Y-83948893D01*
X98159520Y-83927849D01*
X98149030Y-83905671D01*
X98140765Y-83882571D01*
X98134804Y-83858773D01*
X98131204Y-83834504D01*
X98130000Y-83810000D01*
X98130000Y-82560000D01*
X98131204Y-82535496D01*
X98134804Y-82511227D01*
X98140765Y-82487429D01*
X98149030Y-82464329D01*
X98159520Y-82442151D01*
X98172133Y-82421107D01*
X98186747Y-82401402D01*
X98203223Y-82383223D01*
X98221402Y-82366747D01*
X98241107Y-82352133D01*
X98262151Y-82339520D01*
X98284329Y-82329030D01*
X98307429Y-82320765D01*
X98331227Y-82314804D01*
X98355496Y-82311204D01*
X98380000Y-82310000D01*
X99305000Y-82310000D01*
X99329504Y-82311204D01*
G37*
G36*
X102304504Y-82311204D02*
G01*
X102328773Y-82314804D01*
X102352571Y-82320765D01*
X102375671Y-82329030D01*
X102397849Y-82339520D01*
X102418893Y-82352133D01*
X102438598Y-82366747D01*
X102456777Y-82383223D01*
X102473253Y-82401402D01*
X102487867Y-82421107D01*
X102500480Y-82442151D01*
X102510970Y-82464329D01*
X102519235Y-82487429D01*
X102525196Y-82511227D01*
X102528796Y-82535496D01*
X102530000Y-82560000D01*
X102530000Y-83810000D01*
X102528796Y-83834504D01*
X102525196Y-83858773D01*
X102519235Y-83882571D01*
X102510970Y-83905671D01*
X102500480Y-83927849D01*
X102487867Y-83948893D01*
X102473253Y-83968598D01*
X102456777Y-83986777D01*
X102438598Y-84003253D01*
X102418893Y-84017867D01*
X102397849Y-84030480D01*
X102375671Y-84040970D01*
X102352571Y-84049235D01*
X102328773Y-84055196D01*
X102304504Y-84058796D01*
X102280000Y-84060000D01*
X101355000Y-84060000D01*
X101330496Y-84058796D01*
X101306227Y-84055196D01*
X101282429Y-84049235D01*
X101259329Y-84040970D01*
X101237151Y-84030480D01*
X101216107Y-84017867D01*
X101196402Y-84003253D01*
X101178223Y-83986777D01*
X101161747Y-83968598D01*
X101147133Y-83948893D01*
X101134520Y-83927849D01*
X101124030Y-83905671D01*
X101115765Y-83882571D01*
X101109804Y-83858773D01*
X101106204Y-83834504D01*
X101105000Y-83810000D01*
X101105000Y-82560000D01*
X101106204Y-82535496D01*
X101109804Y-82511227D01*
X101115765Y-82487429D01*
X101124030Y-82464329D01*
X101134520Y-82442151D01*
X101147133Y-82421107D01*
X101161747Y-82401402D01*
X101178223Y-82383223D01*
X101196402Y-82366747D01*
X101216107Y-82352133D01*
X101237151Y-82339520D01*
X101259329Y-82329030D01*
X101282429Y-82320765D01*
X101306227Y-82314804D01*
X101330496Y-82311204D01*
X101355000Y-82310000D01*
X102280000Y-82310000D01*
X102304504Y-82311204D01*
G37*
G36*
X108654504Y-82311204D02*
G01*
X108678773Y-82314804D01*
X108702571Y-82320765D01*
X108725671Y-82329030D01*
X108747849Y-82339520D01*
X108768893Y-82352133D01*
X108788598Y-82366747D01*
X108806777Y-82383223D01*
X108823253Y-82401402D01*
X108837867Y-82421107D01*
X108850480Y-82442151D01*
X108860970Y-82464329D01*
X108869235Y-82487429D01*
X108875196Y-82511227D01*
X108878796Y-82535496D01*
X108880000Y-82560000D01*
X108880000Y-83810000D01*
X108878796Y-83834504D01*
X108875196Y-83858773D01*
X108869235Y-83882571D01*
X108860970Y-83905671D01*
X108850480Y-83927849D01*
X108837867Y-83948893D01*
X108823253Y-83968598D01*
X108806777Y-83986777D01*
X108788598Y-84003253D01*
X108768893Y-84017867D01*
X108747849Y-84030480D01*
X108725671Y-84040970D01*
X108702571Y-84049235D01*
X108678773Y-84055196D01*
X108654504Y-84058796D01*
X108630000Y-84060000D01*
X107705000Y-84060000D01*
X107680496Y-84058796D01*
X107656227Y-84055196D01*
X107632429Y-84049235D01*
X107609329Y-84040970D01*
X107587151Y-84030480D01*
X107566107Y-84017867D01*
X107546402Y-84003253D01*
X107528223Y-83986777D01*
X107511747Y-83968598D01*
X107497133Y-83948893D01*
X107484520Y-83927849D01*
X107474030Y-83905671D01*
X107465765Y-83882571D01*
X107459804Y-83858773D01*
X107456204Y-83834504D01*
X107455000Y-83810000D01*
X107455000Y-82560000D01*
X107456204Y-82535496D01*
X107459804Y-82511227D01*
X107465765Y-82487429D01*
X107474030Y-82464329D01*
X107484520Y-82442151D01*
X107497133Y-82421107D01*
X107511747Y-82401402D01*
X107528223Y-82383223D01*
X107546402Y-82366747D01*
X107566107Y-82352133D01*
X107587151Y-82339520D01*
X107609329Y-82329030D01*
X107632429Y-82320765D01*
X107656227Y-82314804D01*
X107680496Y-82311204D01*
X107705000Y-82310000D01*
X108630000Y-82310000D01*
X108654504Y-82311204D01*
G37*
G36*
X105679504Y-82311204D02*
G01*
X105703773Y-82314804D01*
X105727571Y-82320765D01*
X105750671Y-82329030D01*
X105772849Y-82339520D01*
X105793893Y-82352133D01*
X105813598Y-82366747D01*
X105831777Y-82383223D01*
X105848253Y-82401402D01*
X105862867Y-82421107D01*
X105875480Y-82442151D01*
X105885970Y-82464329D01*
X105894235Y-82487429D01*
X105900196Y-82511227D01*
X105903796Y-82535496D01*
X105905000Y-82560000D01*
X105905000Y-83810000D01*
X105903796Y-83834504D01*
X105900196Y-83858773D01*
X105894235Y-83882571D01*
X105885970Y-83905671D01*
X105875480Y-83927849D01*
X105862867Y-83948893D01*
X105848253Y-83968598D01*
X105831777Y-83986777D01*
X105813598Y-84003253D01*
X105793893Y-84017867D01*
X105772849Y-84030480D01*
X105750671Y-84040970D01*
X105727571Y-84049235D01*
X105703773Y-84055196D01*
X105679504Y-84058796D01*
X105655000Y-84060000D01*
X104730000Y-84060000D01*
X104705496Y-84058796D01*
X104681227Y-84055196D01*
X104657429Y-84049235D01*
X104634329Y-84040970D01*
X104612151Y-84030480D01*
X104591107Y-84017867D01*
X104571402Y-84003253D01*
X104553223Y-83986777D01*
X104536747Y-83968598D01*
X104522133Y-83948893D01*
X104509520Y-83927849D01*
X104499030Y-83905671D01*
X104490765Y-83882571D01*
X104484804Y-83858773D01*
X104481204Y-83834504D01*
X104480000Y-83810000D01*
X104480000Y-82560000D01*
X104481204Y-82535496D01*
X104484804Y-82511227D01*
X104490765Y-82487429D01*
X104499030Y-82464329D01*
X104509520Y-82442151D01*
X104522133Y-82421107D01*
X104536747Y-82401402D01*
X104553223Y-82383223D01*
X104571402Y-82366747D01*
X104591107Y-82352133D01*
X104612151Y-82339520D01*
X104634329Y-82329030D01*
X104657429Y-82320765D01*
X104681227Y-82314804D01*
X104705496Y-82311204D01*
X104730000Y-82310000D01*
X105655000Y-82310000D01*
X105679504Y-82311204D01*
G37*
G36*
X97297504Y-98122704D02*
G01*
X97321773Y-98126304D01*
X97345571Y-98132265D01*
X97368671Y-98140530D01*
X97390849Y-98151020D01*
X97411893Y-98163633D01*
X97431598Y-98178247D01*
X97449777Y-98194723D01*
X97466253Y-98212902D01*
X97480867Y-98232607D01*
X97493480Y-98253651D01*
X97503970Y-98275829D01*
X97512235Y-98298929D01*
X97518196Y-98322727D01*
X97521796Y-98346996D01*
X97523000Y-98371500D01*
X97523000Y-99621500D01*
X97521796Y-99646004D01*
X97518196Y-99670273D01*
X97512235Y-99694071D01*
X97503970Y-99717171D01*
X97493480Y-99739349D01*
X97480867Y-99760393D01*
X97466253Y-99780098D01*
X97449777Y-99798277D01*
X97431598Y-99814753D01*
X97411893Y-99829367D01*
X97390849Y-99841980D01*
X97368671Y-99852470D01*
X97345571Y-99860735D01*
X97321773Y-99866696D01*
X97297504Y-99870296D01*
X97273000Y-99871500D01*
X96348000Y-99871500D01*
X96323496Y-99870296D01*
X96299227Y-99866696D01*
X96275429Y-99860735D01*
X96252329Y-99852470D01*
X96230151Y-99841980D01*
X96209107Y-99829367D01*
X96189402Y-99814753D01*
X96171223Y-99798277D01*
X96154747Y-99780098D01*
X96140133Y-99760393D01*
X96127520Y-99739349D01*
X96117030Y-99717171D01*
X96108765Y-99694071D01*
X96102804Y-99670273D01*
X96099204Y-99646004D01*
X96098000Y-99621500D01*
X96098000Y-98371500D01*
X96099204Y-98346996D01*
X96102804Y-98322727D01*
X96108765Y-98298929D01*
X96117030Y-98275829D01*
X96127520Y-98253651D01*
X96140133Y-98232607D01*
X96154747Y-98212902D01*
X96171223Y-98194723D01*
X96189402Y-98178247D01*
X96209107Y-98163633D01*
X96230151Y-98151020D01*
X96252329Y-98140530D01*
X96275429Y-98132265D01*
X96299227Y-98126304D01*
X96323496Y-98122704D01*
X96348000Y-98121500D01*
X97273000Y-98121500D01*
X97297504Y-98122704D01*
G37*
G36*
X100272504Y-98122704D02*
G01*
X100296773Y-98126304D01*
X100320571Y-98132265D01*
X100343671Y-98140530D01*
X100365849Y-98151020D01*
X100386893Y-98163633D01*
X100406598Y-98178247D01*
X100424777Y-98194723D01*
X100441253Y-98212902D01*
X100455867Y-98232607D01*
X100468480Y-98253651D01*
X100478970Y-98275829D01*
X100487235Y-98298929D01*
X100493196Y-98322727D01*
X100496796Y-98346996D01*
X100498000Y-98371500D01*
X100498000Y-99621500D01*
X100496796Y-99646004D01*
X100493196Y-99670273D01*
X100487235Y-99694071D01*
X100478970Y-99717171D01*
X100468480Y-99739349D01*
X100455867Y-99760393D01*
X100441253Y-99780098D01*
X100424777Y-99798277D01*
X100406598Y-99814753D01*
X100386893Y-99829367D01*
X100365849Y-99841980D01*
X100343671Y-99852470D01*
X100320571Y-99860735D01*
X100296773Y-99866696D01*
X100272504Y-99870296D01*
X100248000Y-99871500D01*
X99323000Y-99871500D01*
X99298496Y-99870296D01*
X99274227Y-99866696D01*
X99250429Y-99860735D01*
X99227329Y-99852470D01*
X99205151Y-99841980D01*
X99184107Y-99829367D01*
X99164402Y-99814753D01*
X99146223Y-99798277D01*
X99129747Y-99780098D01*
X99115133Y-99760393D01*
X99102520Y-99739349D01*
X99092030Y-99717171D01*
X99083765Y-99694071D01*
X99077804Y-99670273D01*
X99074204Y-99646004D01*
X99073000Y-99621500D01*
X99073000Y-98371500D01*
X99074204Y-98346996D01*
X99077804Y-98322727D01*
X99083765Y-98298929D01*
X99092030Y-98275829D01*
X99102520Y-98253651D01*
X99115133Y-98232607D01*
X99129747Y-98212902D01*
X99146223Y-98194723D01*
X99164402Y-98178247D01*
X99184107Y-98163633D01*
X99205151Y-98151020D01*
X99227329Y-98140530D01*
X99250429Y-98132265D01*
X99274227Y-98126304D01*
X99298496Y-98122704D01*
X99323000Y-98121500D01*
X100248000Y-98121500D01*
X100272504Y-98122704D01*
G37*
G36*
X117109504Y-81041204D02*
G01*
X117133773Y-81044804D01*
X117157571Y-81050765D01*
X117180671Y-81059030D01*
X117202849Y-81069520D01*
X117223893Y-81082133D01*
X117243598Y-81096747D01*
X117261777Y-81113223D01*
X117278253Y-81131402D01*
X117292867Y-81151107D01*
X117305480Y-81172151D01*
X117315970Y-81194329D01*
X117324235Y-81217429D01*
X117330196Y-81241227D01*
X117333796Y-81265496D01*
X117335000Y-81290000D01*
X117335000Y-82540000D01*
X117333796Y-82564504D01*
X117330196Y-82588773D01*
X117324235Y-82612571D01*
X117315970Y-82635671D01*
X117305480Y-82657849D01*
X117292867Y-82678893D01*
X117278253Y-82698598D01*
X117261777Y-82716777D01*
X117243598Y-82733253D01*
X117223893Y-82747867D01*
X117202849Y-82760480D01*
X117180671Y-82770970D01*
X117157571Y-82779235D01*
X117133773Y-82785196D01*
X117109504Y-82788796D01*
X117085000Y-82790000D01*
X116160000Y-82790000D01*
X116135496Y-82788796D01*
X116111227Y-82785196D01*
X116087429Y-82779235D01*
X116064329Y-82770970D01*
X116042151Y-82760480D01*
X116021107Y-82747867D01*
X116001402Y-82733253D01*
X115983223Y-82716777D01*
X115966747Y-82698598D01*
X115952133Y-82678893D01*
X115939520Y-82657849D01*
X115929030Y-82635671D01*
X115920765Y-82612571D01*
X115914804Y-82588773D01*
X115911204Y-82564504D01*
X115910000Y-82540000D01*
X115910000Y-81290000D01*
X115911204Y-81265496D01*
X115914804Y-81241227D01*
X115920765Y-81217429D01*
X115929030Y-81194329D01*
X115939520Y-81172151D01*
X115952133Y-81151107D01*
X115966747Y-81131402D01*
X115983223Y-81113223D01*
X116001402Y-81096747D01*
X116021107Y-81082133D01*
X116042151Y-81069520D01*
X116064329Y-81059030D01*
X116087429Y-81050765D01*
X116111227Y-81044804D01*
X116135496Y-81041204D01*
X116160000Y-81040000D01*
X117085000Y-81040000D01*
X117109504Y-81041204D01*
G37*
G36*
X120084504Y-81041204D02*
G01*
X120108773Y-81044804D01*
X120132571Y-81050765D01*
X120155671Y-81059030D01*
X120177849Y-81069520D01*
X120198893Y-81082133D01*
X120218598Y-81096747D01*
X120236777Y-81113223D01*
X120253253Y-81131402D01*
X120267867Y-81151107D01*
X120280480Y-81172151D01*
X120290970Y-81194329D01*
X120299235Y-81217429D01*
X120305196Y-81241227D01*
X120308796Y-81265496D01*
X120310000Y-81290000D01*
X120310000Y-82540000D01*
X120308796Y-82564504D01*
X120305196Y-82588773D01*
X120299235Y-82612571D01*
X120290970Y-82635671D01*
X120280480Y-82657849D01*
X120267867Y-82678893D01*
X120253253Y-82698598D01*
X120236777Y-82716777D01*
X120218598Y-82733253D01*
X120198893Y-82747867D01*
X120177849Y-82760480D01*
X120155671Y-82770970D01*
X120132571Y-82779235D01*
X120108773Y-82785196D01*
X120084504Y-82788796D01*
X120060000Y-82790000D01*
X119135000Y-82790000D01*
X119110496Y-82788796D01*
X119086227Y-82785196D01*
X119062429Y-82779235D01*
X119039329Y-82770970D01*
X119017151Y-82760480D01*
X118996107Y-82747867D01*
X118976402Y-82733253D01*
X118958223Y-82716777D01*
X118941747Y-82698598D01*
X118927133Y-82678893D01*
X118914520Y-82657849D01*
X118904030Y-82635671D01*
X118895765Y-82612571D01*
X118889804Y-82588773D01*
X118886204Y-82564504D01*
X118885000Y-82540000D01*
X118885000Y-81290000D01*
X118886204Y-81265496D01*
X118889804Y-81241227D01*
X118895765Y-81217429D01*
X118904030Y-81194329D01*
X118914520Y-81172151D01*
X118927133Y-81151107D01*
X118941747Y-81131402D01*
X118958223Y-81113223D01*
X118976402Y-81096747D01*
X118996107Y-81082133D01*
X119017151Y-81069520D01*
X119039329Y-81059030D01*
X119062429Y-81050765D01*
X119086227Y-81044804D01*
X119110496Y-81041204D01*
X119135000Y-81040000D01*
X120060000Y-81040000D01*
X120084504Y-81041204D01*
G37*
G36*
X139642504Y-99964204D02*
G01*
X139666773Y-99967804D01*
X139690571Y-99973765D01*
X139713671Y-99982030D01*
X139735849Y-99992520D01*
X139756893Y-100005133D01*
X139776598Y-100019747D01*
X139794777Y-100036223D01*
X139811253Y-100054402D01*
X139825867Y-100074107D01*
X139838480Y-100095151D01*
X139848970Y-100117329D01*
X139857235Y-100140429D01*
X139863196Y-100164227D01*
X139866796Y-100188496D01*
X139868000Y-100213000D01*
X139868000Y-101463000D01*
X139866796Y-101487504D01*
X139863196Y-101511773D01*
X139857235Y-101535571D01*
X139848970Y-101558671D01*
X139838480Y-101580849D01*
X139825867Y-101601893D01*
X139811253Y-101621598D01*
X139794777Y-101639777D01*
X139776598Y-101656253D01*
X139756893Y-101670867D01*
X139735849Y-101683480D01*
X139713671Y-101693970D01*
X139690571Y-101702235D01*
X139666773Y-101708196D01*
X139642504Y-101711796D01*
X139618000Y-101713000D01*
X138693000Y-101713000D01*
X138668496Y-101711796D01*
X138644227Y-101708196D01*
X138620429Y-101702235D01*
X138597329Y-101693970D01*
X138575151Y-101683480D01*
X138554107Y-101670867D01*
X138534402Y-101656253D01*
X138516223Y-101639777D01*
X138499747Y-101621598D01*
X138485133Y-101601893D01*
X138472520Y-101580849D01*
X138462030Y-101558671D01*
X138453765Y-101535571D01*
X138447804Y-101511773D01*
X138444204Y-101487504D01*
X138443000Y-101463000D01*
X138443000Y-100213000D01*
X138444204Y-100188496D01*
X138447804Y-100164227D01*
X138453765Y-100140429D01*
X138462030Y-100117329D01*
X138472520Y-100095151D01*
X138485133Y-100074107D01*
X138499747Y-100054402D01*
X138516223Y-100036223D01*
X138534402Y-100019747D01*
X138554107Y-100005133D01*
X138575151Y-99992520D01*
X138597329Y-99982030D01*
X138620429Y-99973765D01*
X138644227Y-99967804D01*
X138668496Y-99964204D01*
X138693000Y-99963000D01*
X139618000Y-99963000D01*
X139642504Y-99964204D01*
G37*
G36*
X136667504Y-99964204D02*
G01*
X136691773Y-99967804D01*
X136715571Y-99973765D01*
X136738671Y-99982030D01*
X136760849Y-99992520D01*
X136781893Y-100005133D01*
X136801598Y-100019747D01*
X136819777Y-100036223D01*
X136836253Y-100054402D01*
X136850867Y-100074107D01*
X136863480Y-100095151D01*
X136873970Y-100117329D01*
X136882235Y-100140429D01*
X136888196Y-100164227D01*
X136891796Y-100188496D01*
X136893000Y-100213000D01*
X136893000Y-101463000D01*
X136891796Y-101487504D01*
X136888196Y-101511773D01*
X136882235Y-101535571D01*
X136873970Y-101558671D01*
X136863480Y-101580849D01*
X136850867Y-101601893D01*
X136836253Y-101621598D01*
X136819777Y-101639777D01*
X136801598Y-101656253D01*
X136781893Y-101670867D01*
X136760849Y-101683480D01*
X136738671Y-101693970D01*
X136715571Y-101702235D01*
X136691773Y-101708196D01*
X136667504Y-101711796D01*
X136643000Y-101713000D01*
X135718000Y-101713000D01*
X135693496Y-101711796D01*
X135669227Y-101708196D01*
X135645429Y-101702235D01*
X135622329Y-101693970D01*
X135600151Y-101683480D01*
X135579107Y-101670867D01*
X135559402Y-101656253D01*
X135541223Y-101639777D01*
X135524747Y-101621598D01*
X135510133Y-101601893D01*
X135497520Y-101580849D01*
X135487030Y-101558671D01*
X135478765Y-101535571D01*
X135472804Y-101511773D01*
X135469204Y-101487504D01*
X135468000Y-101463000D01*
X135468000Y-100213000D01*
X135469204Y-100188496D01*
X135472804Y-100164227D01*
X135478765Y-100140429D01*
X135487030Y-100117329D01*
X135497520Y-100095151D01*
X135510133Y-100074107D01*
X135524747Y-100054402D01*
X135541223Y-100036223D01*
X135559402Y-100019747D01*
X135579107Y-100005133D01*
X135600151Y-99992520D01*
X135622329Y-99982030D01*
X135645429Y-99973765D01*
X135669227Y-99967804D01*
X135693496Y-99964204D01*
X135718000Y-99963000D01*
X136643000Y-99963000D01*
X136667504Y-99964204D01*
G37*
G36*
X102377504Y-98122704D02*
G01*
X102401773Y-98126304D01*
X102425571Y-98132265D01*
X102448671Y-98140530D01*
X102470849Y-98151020D01*
X102491893Y-98163633D01*
X102511598Y-98178247D01*
X102529777Y-98194723D01*
X102546253Y-98212902D01*
X102560867Y-98232607D01*
X102573480Y-98253651D01*
X102583970Y-98275829D01*
X102592235Y-98298929D01*
X102598196Y-98322727D01*
X102601796Y-98346996D01*
X102603000Y-98371500D01*
X102603000Y-99621500D01*
X102601796Y-99646004D01*
X102598196Y-99670273D01*
X102592235Y-99694071D01*
X102583970Y-99717171D01*
X102573480Y-99739349D01*
X102560867Y-99760393D01*
X102546253Y-99780098D01*
X102529777Y-99798277D01*
X102511598Y-99814753D01*
X102491893Y-99829367D01*
X102470849Y-99841980D01*
X102448671Y-99852470D01*
X102425571Y-99860735D01*
X102401773Y-99866696D01*
X102377504Y-99870296D01*
X102353000Y-99871500D01*
X101428000Y-99871500D01*
X101403496Y-99870296D01*
X101379227Y-99866696D01*
X101355429Y-99860735D01*
X101332329Y-99852470D01*
X101310151Y-99841980D01*
X101289107Y-99829367D01*
X101269402Y-99814753D01*
X101251223Y-99798277D01*
X101234747Y-99780098D01*
X101220133Y-99760393D01*
X101207520Y-99739349D01*
X101197030Y-99717171D01*
X101188765Y-99694071D01*
X101182804Y-99670273D01*
X101179204Y-99646004D01*
X101178000Y-99621500D01*
X101178000Y-98371500D01*
X101179204Y-98346996D01*
X101182804Y-98322727D01*
X101188765Y-98298929D01*
X101197030Y-98275829D01*
X101207520Y-98253651D01*
X101220133Y-98232607D01*
X101234747Y-98212902D01*
X101251223Y-98194723D01*
X101269402Y-98178247D01*
X101289107Y-98163633D01*
X101310151Y-98151020D01*
X101332329Y-98140530D01*
X101355429Y-98132265D01*
X101379227Y-98126304D01*
X101403496Y-98122704D01*
X101428000Y-98121500D01*
X102353000Y-98121500D01*
X102377504Y-98122704D01*
G37*
G36*
X105352504Y-98122704D02*
G01*
X105376773Y-98126304D01*
X105400571Y-98132265D01*
X105423671Y-98140530D01*
X105445849Y-98151020D01*
X105466893Y-98163633D01*
X105486598Y-98178247D01*
X105504777Y-98194723D01*
X105521253Y-98212902D01*
X105535867Y-98232607D01*
X105548480Y-98253651D01*
X105558970Y-98275829D01*
X105567235Y-98298929D01*
X105573196Y-98322727D01*
X105576796Y-98346996D01*
X105578000Y-98371500D01*
X105578000Y-99621500D01*
X105576796Y-99646004D01*
X105573196Y-99670273D01*
X105567235Y-99694071D01*
X105558970Y-99717171D01*
X105548480Y-99739349D01*
X105535867Y-99760393D01*
X105521253Y-99780098D01*
X105504777Y-99798277D01*
X105486598Y-99814753D01*
X105466893Y-99829367D01*
X105445849Y-99841980D01*
X105423671Y-99852470D01*
X105400571Y-99860735D01*
X105376773Y-99866696D01*
X105352504Y-99870296D01*
X105328000Y-99871500D01*
X104403000Y-99871500D01*
X104378496Y-99870296D01*
X104354227Y-99866696D01*
X104330429Y-99860735D01*
X104307329Y-99852470D01*
X104285151Y-99841980D01*
X104264107Y-99829367D01*
X104244402Y-99814753D01*
X104226223Y-99798277D01*
X104209747Y-99780098D01*
X104195133Y-99760393D01*
X104182520Y-99739349D01*
X104172030Y-99717171D01*
X104163765Y-99694071D01*
X104157804Y-99670273D01*
X104154204Y-99646004D01*
X104153000Y-99621500D01*
X104153000Y-98371500D01*
X104154204Y-98346996D01*
X104157804Y-98322727D01*
X104163765Y-98298929D01*
X104172030Y-98275829D01*
X104182520Y-98253651D01*
X104195133Y-98232607D01*
X104209747Y-98212902D01*
X104226223Y-98194723D01*
X104244402Y-98178247D01*
X104264107Y-98163633D01*
X104285151Y-98151020D01*
X104307329Y-98140530D01*
X104330429Y-98132265D01*
X104354227Y-98126304D01*
X104378496Y-98122704D01*
X104403000Y-98121500D01*
X105328000Y-98121500D01*
X105352504Y-98122704D01*
G37*
G36*
X95391504Y-82002204D02*
G01*
X95415773Y-82005804D01*
X95439571Y-82011765D01*
X95462671Y-82020030D01*
X95484849Y-82030520D01*
X95505893Y-82043133D01*
X95525598Y-82057747D01*
X95543777Y-82074223D01*
X95560253Y-82092402D01*
X95574867Y-82112107D01*
X95587480Y-82133151D01*
X95597970Y-82155329D01*
X95606235Y-82178429D01*
X95612196Y-82202227D01*
X95615796Y-82226496D01*
X95617000Y-82251000D01*
X95617000Y-83176000D01*
X95615796Y-83200504D01*
X95612196Y-83224773D01*
X95606235Y-83248571D01*
X95597970Y-83271671D01*
X95587480Y-83293849D01*
X95574867Y-83314893D01*
X95560253Y-83334598D01*
X95543777Y-83352777D01*
X95525598Y-83369253D01*
X95505893Y-83383867D01*
X95484849Y-83396480D01*
X95462671Y-83406970D01*
X95439571Y-83415235D01*
X95415773Y-83421196D01*
X95391504Y-83424796D01*
X95367000Y-83426000D01*
X94117000Y-83426000D01*
X94092496Y-83424796D01*
X94068227Y-83421196D01*
X94044429Y-83415235D01*
X94021329Y-83406970D01*
X93999151Y-83396480D01*
X93978107Y-83383867D01*
X93958402Y-83369253D01*
X93940223Y-83352777D01*
X93923747Y-83334598D01*
X93909133Y-83314893D01*
X93896520Y-83293849D01*
X93886030Y-83271671D01*
X93877765Y-83248571D01*
X93871804Y-83224773D01*
X93868204Y-83200504D01*
X93867000Y-83176000D01*
X93867000Y-82251000D01*
X93868204Y-82226496D01*
X93871804Y-82202227D01*
X93877765Y-82178429D01*
X93886030Y-82155329D01*
X93896520Y-82133151D01*
X93909133Y-82112107D01*
X93923747Y-82092402D01*
X93940223Y-82074223D01*
X93958402Y-82057747D01*
X93978107Y-82043133D01*
X93999151Y-82030520D01*
X94021329Y-82020030D01*
X94044429Y-82011765D01*
X94068227Y-82005804D01*
X94092496Y-82002204D01*
X94117000Y-82001000D01*
X95367000Y-82001000D01*
X95391504Y-82002204D01*
G37*
G36*
X95391504Y-84977204D02*
G01*
X95415773Y-84980804D01*
X95439571Y-84986765D01*
X95462671Y-84995030D01*
X95484849Y-85005520D01*
X95505893Y-85018133D01*
X95525598Y-85032747D01*
X95543777Y-85049223D01*
X95560253Y-85067402D01*
X95574867Y-85087107D01*
X95587480Y-85108151D01*
X95597970Y-85130329D01*
X95606235Y-85153429D01*
X95612196Y-85177227D01*
X95615796Y-85201496D01*
X95617000Y-85226000D01*
X95617000Y-86151000D01*
X95615796Y-86175504D01*
X95612196Y-86199773D01*
X95606235Y-86223571D01*
X95597970Y-86246671D01*
X95587480Y-86268849D01*
X95574867Y-86289893D01*
X95560253Y-86309598D01*
X95543777Y-86327777D01*
X95525598Y-86344253D01*
X95505893Y-86358867D01*
X95484849Y-86371480D01*
X95462671Y-86381970D01*
X95439571Y-86390235D01*
X95415773Y-86396196D01*
X95391504Y-86399796D01*
X95367000Y-86401000D01*
X94117000Y-86401000D01*
X94092496Y-86399796D01*
X94068227Y-86396196D01*
X94044429Y-86390235D01*
X94021329Y-86381970D01*
X93999151Y-86371480D01*
X93978107Y-86358867D01*
X93958402Y-86344253D01*
X93940223Y-86327777D01*
X93923747Y-86309598D01*
X93909133Y-86289893D01*
X93896520Y-86268849D01*
X93886030Y-86246671D01*
X93877765Y-86223571D01*
X93871804Y-86199773D01*
X93868204Y-86175504D01*
X93867000Y-86151000D01*
X93867000Y-85226000D01*
X93868204Y-85201496D01*
X93871804Y-85177227D01*
X93877765Y-85153429D01*
X93886030Y-85130329D01*
X93896520Y-85108151D01*
X93909133Y-85087107D01*
X93923747Y-85067402D01*
X93940223Y-85049223D01*
X93958402Y-85032747D01*
X93978107Y-85018133D01*
X93999151Y-85005520D01*
X94021329Y-84995030D01*
X94044429Y-84986765D01*
X94068227Y-84980804D01*
X94092496Y-84977204D01*
X94117000Y-84976000D01*
X95367000Y-84976000D01*
X95391504Y-84977204D01*
G37*
G36*
X119394504Y-96026204D02*
G01*
X119418773Y-96029804D01*
X119442571Y-96035765D01*
X119465671Y-96044030D01*
X119487849Y-96054520D01*
X119508893Y-96067133D01*
X119528598Y-96081747D01*
X119546777Y-96098223D01*
X119563253Y-96116402D01*
X119577867Y-96136107D01*
X119590480Y-96157151D01*
X119600970Y-96179329D01*
X119609235Y-96202429D01*
X119615196Y-96226227D01*
X119618796Y-96250496D01*
X119620000Y-96275000D01*
X119620000Y-97200000D01*
X119618796Y-97224504D01*
X119615196Y-97248773D01*
X119609235Y-97272571D01*
X119600970Y-97295671D01*
X119590480Y-97317849D01*
X119577867Y-97338893D01*
X119563253Y-97358598D01*
X119546777Y-97376777D01*
X119528598Y-97393253D01*
X119508893Y-97407867D01*
X119487849Y-97420480D01*
X119465671Y-97430970D01*
X119442571Y-97439235D01*
X119418773Y-97445196D01*
X119394504Y-97448796D01*
X119370000Y-97450000D01*
X118120000Y-97450000D01*
X118095496Y-97448796D01*
X118071227Y-97445196D01*
X118047429Y-97439235D01*
X118024329Y-97430970D01*
X118002151Y-97420480D01*
X117981107Y-97407867D01*
X117961402Y-97393253D01*
X117943223Y-97376777D01*
X117926747Y-97358598D01*
X117912133Y-97338893D01*
X117899520Y-97317849D01*
X117889030Y-97295671D01*
X117880765Y-97272571D01*
X117874804Y-97248773D01*
X117871204Y-97224504D01*
X117870000Y-97200000D01*
X117870000Y-96275000D01*
X117871204Y-96250496D01*
X117874804Y-96226227D01*
X117880765Y-96202429D01*
X117889030Y-96179329D01*
X117899520Y-96157151D01*
X117912133Y-96136107D01*
X117926747Y-96116402D01*
X117943223Y-96098223D01*
X117961402Y-96081747D01*
X117981107Y-96067133D01*
X118002151Y-96054520D01*
X118024329Y-96044030D01*
X118047429Y-96035765D01*
X118071227Y-96029804D01*
X118095496Y-96026204D01*
X118120000Y-96025000D01*
X119370000Y-96025000D01*
X119394504Y-96026204D01*
G37*
G36*
X119394504Y-93051204D02*
G01*
X119418773Y-93054804D01*
X119442571Y-93060765D01*
X119465671Y-93069030D01*
X119487849Y-93079520D01*
X119508893Y-93092133D01*
X119528598Y-93106747D01*
X119546777Y-93123223D01*
X119563253Y-93141402D01*
X119577867Y-93161107D01*
X119590480Y-93182151D01*
X119600970Y-93204329D01*
X119609235Y-93227429D01*
X119615196Y-93251227D01*
X119618796Y-93275496D01*
X119620000Y-93300000D01*
X119620000Y-94225000D01*
X119618796Y-94249504D01*
X119615196Y-94273773D01*
X119609235Y-94297571D01*
X119600970Y-94320671D01*
X119590480Y-94342849D01*
X119577867Y-94363893D01*
X119563253Y-94383598D01*
X119546777Y-94401777D01*
X119528598Y-94418253D01*
X119508893Y-94432867D01*
X119487849Y-94445480D01*
X119465671Y-94455970D01*
X119442571Y-94464235D01*
X119418773Y-94470196D01*
X119394504Y-94473796D01*
X119370000Y-94475000D01*
X118120000Y-94475000D01*
X118095496Y-94473796D01*
X118071227Y-94470196D01*
X118047429Y-94464235D01*
X118024329Y-94455970D01*
X118002151Y-94445480D01*
X117981107Y-94432867D01*
X117961402Y-94418253D01*
X117943223Y-94401777D01*
X117926747Y-94383598D01*
X117912133Y-94363893D01*
X117899520Y-94342849D01*
X117889030Y-94320671D01*
X117880765Y-94297571D01*
X117874804Y-94273773D01*
X117871204Y-94249504D01*
X117870000Y-94225000D01*
X117870000Y-93300000D01*
X117871204Y-93275496D01*
X117874804Y-93251227D01*
X117880765Y-93227429D01*
X117889030Y-93204329D01*
X117899520Y-93182151D01*
X117912133Y-93161107D01*
X117926747Y-93141402D01*
X117943223Y-93123223D01*
X117961402Y-93106747D01*
X117981107Y-93092133D01*
X118002151Y-93079520D01*
X118024329Y-93069030D01*
X118047429Y-93060765D01*
X118071227Y-93054804D01*
X118095496Y-93051204D01*
X118120000Y-93050000D01*
X119370000Y-93050000D01*
X119394504Y-93051204D01*
G37*
G36*
X113743504Y-96789204D02*
G01*
X113767773Y-96792804D01*
X113791571Y-96798765D01*
X113814671Y-96807030D01*
X113836849Y-96817520D01*
X113857893Y-96830133D01*
X113877598Y-96844747D01*
X113895777Y-96861223D01*
X113912253Y-96879402D01*
X113926867Y-96899107D01*
X113939480Y-96920151D01*
X113949970Y-96942329D01*
X113958235Y-96965429D01*
X113964196Y-96989227D01*
X113967796Y-97013496D01*
X113969000Y-97038000D01*
X113969000Y-98288000D01*
X113967796Y-98312504D01*
X113964196Y-98336773D01*
X113958235Y-98360571D01*
X113949970Y-98383671D01*
X113939480Y-98405849D01*
X113926867Y-98426893D01*
X113912253Y-98446598D01*
X113895777Y-98464777D01*
X113877598Y-98481253D01*
X113857893Y-98495867D01*
X113836849Y-98508480D01*
X113814671Y-98518970D01*
X113791571Y-98527235D01*
X113767773Y-98533196D01*
X113743504Y-98536796D01*
X113719000Y-98538000D01*
X112794000Y-98538000D01*
X112769496Y-98536796D01*
X112745227Y-98533196D01*
X112721429Y-98527235D01*
X112698329Y-98518970D01*
X112676151Y-98508480D01*
X112655107Y-98495867D01*
X112635402Y-98481253D01*
X112617223Y-98464777D01*
X112600747Y-98446598D01*
X112586133Y-98426893D01*
X112573520Y-98405849D01*
X112563030Y-98383671D01*
X112554765Y-98360571D01*
X112548804Y-98336773D01*
X112545204Y-98312504D01*
X112544000Y-98288000D01*
X112544000Y-97038000D01*
X112545204Y-97013496D01*
X112548804Y-96989227D01*
X112554765Y-96965429D01*
X112563030Y-96942329D01*
X112573520Y-96920151D01*
X112586133Y-96899107D01*
X112600747Y-96879402D01*
X112617223Y-96861223D01*
X112635402Y-96844747D01*
X112655107Y-96830133D01*
X112676151Y-96817520D01*
X112698329Y-96807030D01*
X112721429Y-96798765D01*
X112745227Y-96792804D01*
X112769496Y-96789204D01*
X112794000Y-96788000D01*
X113719000Y-96788000D01*
X113743504Y-96789204D01*
G37*
G36*
X110768504Y-96789204D02*
G01*
X110792773Y-96792804D01*
X110816571Y-96798765D01*
X110839671Y-96807030D01*
X110861849Y-96817520D01*
X110882893Y-96830133D01*
X110902598Y-96844747D01*
X110920777Y-96861223D01*
X110937253Y-96879402D01*
X110951867Y-96899107D01*
X110964480Y-96920151D01*
X110974970Y-96942329D01*
X110983235Y-96965429D01*
X110989196Y-96989227D01*
X110992796Y-97013496D01*
X110994000Y-97038000D01*
X110994000Y-98288000D01*
X110992796Y-98312504D01*
X110989196Y-98336773D01*
X110983235Y-98360571D01*
X110974970Y-98383671D01*
X110964480Y-98405849D01*
X110951867Y-98426893D01*
X110937253Y-98446598D01*
X110920777Y-98464777D01*
X110902598Y-98481253D01*
X110882893Y-98495867D01*
X110861849Y-98508480D01*
X110839671Y-98518970D01*
X110816571Y-98527235D01*
X110792773Y-98533196D01*
X110768504Y-98536796D01*
X110744000Y-98538000D01*
X109819000Y-98538000D01*
X109794496Y-98536796D01*
X109770227Y-98533196D01*
X109746429Y-98527235D01*
X109723329Y-98518970D01*
X109701151Y-98508480D01*
X109680107Y-98495867D01*
X109660402Y-98481253D01*
X109642223Y-98464777D01*
X109625747Y-98446598D01*
X109611133Y-98426893D01*
X109598520Y-98405849D01*
X109588030Y-98383671D01*
X109579765Y-98360571D01*
X109573804Y-98336773D01*
X109570204Y-98312504D01*
X109569000Y-98288000D01*
X109569000Y-97038000D01*
X109570204Y-97013496D01*
X109573804Y-96989227D01*
X109579765Y-96965429D01*
X109588030Y-96942329D01*
X109598520Y-96920151D01*
X109611133Y-96899107D01*
X109625747Y-96879402D01*
X109642223Y-96861223D01*
X109660402Y-96844747D01*
X109680107Y-96830133D01*
X109701151Y-96817520D01*
X109723329Y-96807030D01*
X109746429Y-96798765D01*
X109770227Y-96792804D01*
X109794496Y-96789204D01*
X109819000Y-96788000D01*
X110744000Y-96788000D01*
X110768504Y-96789204D01*
G37*
G36*
X143779504Y-89931204D02*
G01*
X143803773Y-89934804D01*
X143827571Y-89940765D01*
X143850671Y-89949030D01*
X143872849Y-89959520D01*
X143893893Y-89972133D01*
X143913598Y-89986747D01*
X143931777Y-90003223D01*
X143948253Y-90021402D01*
X143962867Y-90041107D01*
X143975480Y-90062151D01*
X143985970Y-90084329D01*
X143994235Y-90107429D01*
X144000196Y-90131227D01*
X144003796Y-90155496D01*
X144005000Y-90180000D01*
X144005000Y-91430000D01*
X144003796Y-91454504D01*
X144000196Y-91478773D01*
X143994235Y-91502571D01*
X143985970Y-91525671D01*
X143975480Y-91547849D01*
X143962867Y-91568893D01*
X143948253Y-91588598D01*
X143931777Y-91606777D01*
X143913598Y-91623253D01*
X143893893Y-91637867D01*
X143872849Y-91650480D01*
X143850671Y-91660970D01*
X143827571Y-91669235D01*
X143803773Y-91675196D01*
X143779504Y-91678796D01*
X143755000Y-91680000D01*
X142830000Y-91680000D01*
X142805496Y-91678796D01*
X142781227Y-91675196D01*
X142757429Y-91669235D01*
X142734329Y-91660970D01*
X142712151Y-91650480D01*
X142691107Y-91637867D01*
X142671402Y-91623253D01*
X142653223Y-91606777D01*
X142636747Y-91588598D01*
X142622133Y-91568893D01*
X142609520Y-91547849D01*
X142599030Y-91525671D01*
X142590765Y-91502571D01*
X142584804Y-91478773D01*
X142581204Y-91454504D01*
X142580000Y-91430000D01*
X142580000Y-90180000D01*
X142581204Y-90155496D01*
X142584804Y-90131227D01*
X142590765Y-90107429D01*
X142599030Y-90084329D01*
X142609520Y-90062151D01*
X142622133Y-90041107D01*
X142636747Y-90021402D01*
X142653223Y-90003223D01*
X142671402Y-89986747D01*
X142691107Y-89972133D01*
X142712151Y-89959520D01*
X142734329Y-89949030D01*
X142757429Y-89940765D01*
X142781227Y-89934804D01*
X142805496Y-89931204D01*
X142830000Y-89930000D01*
X143755000Y-89930000D01*
X143779504Y-89931204D01*
G37*
G36*
X146754504Y-89931204D02*
G01*
X146778773Y-89934804D01*
X146802571Y-89940765D01*
X146825671Y-89949030D01*
X146847849Y-89959520D01*
X146868893Y-89972133D01*
X146888598Y-89986747D01*
X146906777Y-90003223D01*
X146923253Y-90021402D01*
X146937867Y-90041107D01*
X146950480Y-90062151D01*
X146960970Y-90084329D01*
X146969235Y-90107429D01*
X146975196Y-90131227D01*
X146978796Y-90155496D01*
X146980000Y-90180000D01*
X146980000Y-91430000D01*
X146978796Y-91454504D01*
X146975196Y-91478773D01*
X146969235Y-91502571D01*
X146960970Y-91525671D01*
X146950480Y-91547849D01*
X146937867Y-91568893D01*
X146923253Y-91588598D01*
X146906777Y-91606777D01*
X146888598Y-91623253D01*
X146868893Y-91637867D01*
X146847849Y-91650480D01*
X146825671Y-91660970D01*
X146802571Y-91669235D01*
X146778773Y-91675196D01*
X146754504Y-91678796D01*
X146730000Y-91680000D01*
X145805000Y-91680000D01*
X145780496Y-91678796D01*
X145756227Y-91675196D01*
X145732429Y-91669235D01*
X145709329Y-91660970D01*
X145687151Y-91650480D01*
X145666107Y-91637867D01*
X145646402Y-91623253D01*
X145628223Y-91606777D01*
X145611747Y-91588598D01*
X145597133Y-91568893D01*
X145584520Y-91547849D01*
X145574030Y-91525671D01*
X145565765Y-91502571D01*
X145559804Y-91478773D01*
X145556204Y-91454504D01*
X145555000Y-91430000D01*
X145555000Y-90180000D01*
X145556204Y-90155496D01*
X145559804Y-90131227D01*
X145565765Y-90107429D01*
X145574030Y-90084329D01*
X145584520Y-90062151D01*
X145597133Y-90041107D01*
X145611747Y-90021402D01*
X145628223Y-90003223D01*
X145646402Y-89986747D01*
X145666107Y-89972133D01*
X145687151Y-89959520D01*
X145709329Y-89949030D01*
X145732429Y-89940765D01*
X145756227Y-89934804D01*
X145780496Y-89931204D01*
X145805000Y-89930000D01*
X146730000Y-89930000D01*
X146754504Y-89931204D01*
G37*
G36*
X146791004Y-93614204D02*
G01*
X146815273Y-93617804D01*
X146839071Y-93623765D01*
X146862171Y-93632030D01*
X146884349Y-93642520D01*
X146905393Y-93655133D01*
X146925098Y-93669747D01*
X146943277Y-93686223D01*
X146959753Y-93704402D01*
X146974367Y-93724107D01*
X146986980Y-93745151D01*
X146997470Y-93767329D01*
X147005735Y-93790429D01*
X147011696Y-93814227D01*
X147015296Y-93838496D01*
X147016500Y-93863000D01*
X147016500Y-95113000D01*
X147015296Y-95137504D01*
X147011696Y-95161773D01*
X147005735Y-95185571D01*
X146997470Y-95208671D01*
X146986980Y-95230849D01*
X146974367Y-95251893D01*
X146959753Y-95271598D01*
X146943277Y-95289777D01*
X146925098Y-95306253D01*
X146905393Y-95320867D01*
X146884349Y-95333480D01*
X146862171Y-95343970D01*
X146839071Y-95352235D01*
X146815273Y-95358196D01*
X146791004Y-95361796D01*
X146766500Y-95363000D01*
X145841500Y-95363000D01*
X145816996Y-95361796D01*
X145792727Y-95358196D01*
X145768929Y-95352235D01*
X145745829Y-95343970D01*
X145723651Y-95333480D01*
X145702607Y-95320867D01*
X145682902Y-95306253D01*
X145664723Y-95289777D01*
X145648247Y-95271598D01*
X145633633Y-95251893D01*
X145621020Y-95230849D01*
X145610530Y-95208671D01*
X145602265Y-95185571D01*
X145596304Y-95161773D01*
X145592704Y-95137504D01*
X145591500Y-95113000D01*
X145591500Y-93863000D01*
X145592704Y-93838496D01*
X145596304Y-93814227D01*
X145602265Y-93790429D01*
X145610530Y-93767329D01*
X145621020Y-93745151D01*
X145633633Y-93724107D01*
X145648247Y-93704402D01*
X145664723Y-93686223D01*
X145682902Y-93669747D01*
X145702607Y-93655133D01*
X145723651Y-93642520D01*
X145745829Y-93632030D01*
X145768929Y-93623765D01*
X145792727Y-93617804D01*
X145816996Y-93614204D01*
X145841500Y-93613000D01*
X146766500Y-93613000D01*
X146791004Y-93614204D01*
G37*
G36*
X143816004Y-93614204D02*
G01*
X143840273Y-93617804D01*
X143864071Y-93623765D01*
X143887171Y-93632030D01*
X143909349Y-93642520D01*
X143930393Y-93655133D01*
X143950098Y-93669747D01*
X143968277Y-93686223D01*
X143984753Y-93704402D01*
X143999367Y-93724107D01*
X144011980Y-93745151D01*
X144022470Y-93767329D01*
X144030735Y-93790429D01*
X144036696Y-93814227D01*
X144040296Y-93838496D01*
X144041500Y-93863000D01*
X144041500Y-95113000D01*
X144040296Y-95137504D01*
X144036696Y-95161773D01*
X144030735Y-95185571D01*
X144022470Y-95208671D01*
X144011980Y-95230849D01*
X143999367Y-95251893D01*
X143984753Y-95271598D01*
X143968277Y-95289777D01*
X143950098Y-95306253D01*
X143930393Y-95320867D01*
X143909349Y-95333480D01*
X143887171Y-95343970D01*
X143864071Y-95352235D01*
X143840273Y-95358196D01*
X143816004Y-95361796D01*
X143791500Y-95363000D01*
X142866500Y-95363000D01*
X142841996Y-95361796D01*
X142817727Y-95358196D01*
X142793929Y-95352235D01*
X142770829Y-95343970D01*
X142748651Y-95333480D01*
X142727607Y-95320867D01*
X142707902Y-95306253D01*
X142689723Y-95289777D01*
X142673247Y-95271598D01*
X142658633Y-95251893D01*
X142646020Y-95230849D01*
X142635530Y-95208671D01*
X142627265Y-95185571D01*
X142621304Y-95161773D01*
X142617704Y-95137504D01*
X142616500Y-95113000D01*
X142616500Y-93863000D01*
X142617704Y-93838496D01*
X142621304Y-93814227D01*
X142627265Y-93790429D01*
X142635530Y-93767329D01*
X142646020Y-93745151D01*
X142658633Y-93724107D01*
X142673247Y-93704402D01*
X142689723Y-93686223D01*
X142707902Y-93669747D01*
X142727607Y-93655133D01*
X142748651Y-93642520D01*
X142770829Y-93632030D01*
X142793929Y-93623765D01*
X142817727Y-93617804D01*
X142841996Y-93614204D01*
X142866500Y-93613000D01*
X143791500Y-93613000D01*
X143816004Y-93614204D01*
G37*
M02*
