G04 #@! TF.GenerationSoftware,KiCad,Pcbnew,(5.1.5)-3*
G04 #@! TF.CreationDate,2021-04-15T13:44:04+02:00*
G04 #@! TF.ProjectId,Copy_bachelorproef morse,436f7079-5f62-4616-9368-656c6f727072,rev?*
G04 #@! TF.SameCoordinates,Original*
G04 #@! TF.FileFunction,Soldermask,Bot*
G04 #@! TF.FilePolarity,Negative*
%FSLAX46Y46*%
G04 Gerber Fmt 4.6, Leading zero omitted, Abs format (unit mm)*
G04 Created by KiCad (PCBNEW (5.1.5)-3) date 2021-04-15 13:44:04*
%MOMM*%
%LPD*%
G04 APERTURE LIST*
%ADD10C,0.100000*%
G04 APERTURE END LIST*
D10*
G36*
X107029613Y-102511611D02*
G01*
X107128764Y-102541688D01*
X107220144Y-102590531D01*
X107300238Y-102656262D01*
X107365969Y-102736356D01*
X107414812Y-102827735D01*
X107444889Y-102926886D01*
X107452500Y-103004161D01*
X107452500Y-104005839D01*
X107444889Y-104083114D01*
X107414812Y-104182265D01*
X107365969Y-104273644D01*
X107300238Y-104353738D01*
X107220144Y-104419469D01*
X107128765Y-104468312D01*
X107029614Y-104498389D01*
X106926500Y-104508545D01*
X106823387Y-104498389D01*
X106724236Y-104468312D01*
X106632857Y-104419469D01*
X106552763Y-104353738D01*
X106487032Y-104273644D01*
X106438189Y-104182265D01*
X106408112Y-104083114D01*
X106400501Y-104005839D01*
X106400500Y-103004162D01*
X106408111Y-102926887D01*
X106438188Y-102827736D01*
X106487031Y-102736356D01*
X106552762Y-102656262D01*
X106632856Y-102590531D01*
X106724235Y-102541688D01*
X106823386Y-102511611D01*
X106926500Y-102501455D01*
X107029613Y-102511611D01*
G37*
G36*
X114029613Y-102511611D02*
G01*
X114128764Y-102541688D01*
X114220144Y-102590531D01*
X114300238Y-102656262D01*
X114365969Y-102736356D01*
X114414812Y-102827735D01*
X114444889Y-102926886D01*
X114452500Y-103004161D01*
X114452500Y-104005839D01*
X114444889Y-104083114D01*
X114414812Y-104182265D01*
X114365969Y-104273644D01*
X114300238Y-104353738D01*
X114220144Y-104419469D01*
X114128765Y-104468312D01*
X114029614Y-104498389D01*
X113926500Y-104508545D01*
X113823387Y-104498389D01*
X113724236Y-104468312D01*
X113632857Y-104419469D01*
X113552763Y-104353738D01*
X113487032Y-104273644D01*
X113438189Y-104182265D01*
X113408112Y-104083114D01*
X113400501Y-104005839D01*
X113400500Y-103004162D01*
X113408111Y-102926887D01*
X113438188Y-102827736D01*
X113487031Y-102736356D01*
X113552762Y-102656262D01*
X113632856Y-102590531D01*
X113724235Y-102541688D01*
X113823386Y-102511611D01*
X113926500Y-102501455D01*
X114029613Y-102511611D01*
G37*
G36*
X156805795Y-101790156D02*
G01*
X156912150Y-101811311D01*
X157012334Y-101852809D01*
X157112520Y-101894307D01*
X157292844Y-102014795D01*
X157446205Y-102168156D01*
X157566693Y-102348480D01*
X157566693Y-102348481D01*
X157646723Y-102541689D01*
X157649689Y-102548851D01*
X157692000Y-102761560D01*
X157692000Y-102978440D01*
X157649689Y-103191149D01*
X157566693Y-103391520D01*
X157446205Y-103571844D01*
X157292844Y-103725205D01*
X157112520Y-103845693D01*
X156912150Y-103928689D01*
X156805794Y-103949845D01*
X156699440Y-103971000D01*
X156482560Y-103971000D01*
X156376206Y-103949845D01*
X156269850Y-103928689D01*
X156069480Y-103845693D01*
X155889156Y-103725205D01*
X155735795Y-103571844D01*
X155615307Y-103391520D01*
X155532311Y-103191149D01*
X155490000Y-102978440D01*
X155490000Y-102761560D01*
X155532311Y-102548851D01*
X155535278Y-102541689D01*
X155615307Y-102348481D01*
X155615307Y-102348480D01*
X155735795Y-102168156D01*
X155889156Y-102014795D01*
X156069480Y-101894307D01*
X156169666Y-101852809D01*
X156269850Y-101811311D01*
X156376206Y-101790155D01*
X156482560Y-101769000D01*
X156699440Y-101769000D01*
X156805795Y-101790156D01*
G37*
G36*
X92543794Y-101663155D02*
G01*
X92650150Y-101684311D01*
X92850520Y-101767307D01*
X93030844Y-101887795D01*
X93184205Y-102041156D01*
X93304693Y-102221480D01*
X93387689Y-102421851D01*
X93430000Y-102634560D01*
X93430000Y-102851440D01*
X93387689Y-103064149D01*
X93304693Y-103264520D01*
X93184205Y-103444844D01*
X93030844Y-103598205D01*
X92850520Y-103718693D01*
X92750334Y-103760191D01*
X92650150Y-103801689D01*
X92543795Y-103822844D01*
X92437440Y-103844000D01*
X92220560Y-103844000D01*
X92114205Y-103822844D01*
X92007850Y-103801689D01*
X91807480Y-103718693D01*
X91627156Y-103598205D01*
X91473795Y-103444844D01*
X91353307Y-103264520D01*
X91270311Y-103064149D01*
X91228000Y-102851440D01*
X91228000Y-102634560D01*
X91270311Y-102421851D01*
X91353307Y-102221480D01*
X91473795Y-102041156D01*
X91627156Y-101887795D01*
X91807480Y-101767307D01*
X92007850Y-101684311D01*
X92114205Y-101663156D01*
X92220560Y-101642000D01*
X92437440Y-101642000D01*
X92543794Y-101663155D01*
G37*
G36*
X113130973Y-100130938D02*
G01*
X113258549Y-100183782D01*
X113373359Y-100260495D01*
X113471005Y-100358141D01*
X113547718Y-100472951D01*
X113600562Y-100600527D01*
X113627500Y-100735956D01*
X113627500Y-100874044D01*
X113600562Y-101009473D01*
X113547718Y-101137049D01*
X113471005Y-101251859D01*
X113373359Y-101349505D01*
X113258549Y-101426218D01*
X113130973Y-101479062D01*
X112995544Y-101506000D01*
X112857456Y-101506000D01*
X112722027Y-101479062D01*
X112594451Y-101426218D01*
X112479641Y-101349505D01*
X112381995Y-101251859D01*
X112305282Y-101137049D01*
X112252438Y-101009473D01*
X112225500Y-100874044D01*
X112225500Y-100735956D01*
X112252438Y-100600527D01*
X112305282Y-100472951D01*
X112381995Y-100358141D01*
X112479641Y-100260495D01*
X112594451Y-100183782D01*
X112722027Y-100130938D01*
X112857456Y-100104000D01*
X112995544Y-100104000D01*
X113130973Y-100130938D01*
G37*
G36*
X108130973Y-100130938D02*
G01*
X108258549Y-100183782D01*
X108373359Y-100260495D01*
X108471005Y-100358141D01*
X108547718Y-100472951D01*
X108600562Y-100600527D01*
X108627500Y-100735956D01*
X108627500Y-100874044D01*
X108600562Y-101009473D01*
X108547718Y-101137049D01*
X108471005Y-101251859D01*
X108373359Y-101349505D01*
X108258549Y-101426218D01*
X108130973Y-101479062D01*
X107995544Y-101506000D01*
X107857456Y-101506000D01*
X107722027Y-101479062D01*
X107594451Y-101426218D01*
X107479641Y-101349505D01*
X107381995Y-101251859D01*
X107305282Y-101137049D01*
X107252438Y-101009473D01*
X107225500Y-100874044D01*
X107225500Y-100735956D01*
X107252438Y-100600527D01*
X107305282Y-100472951D01*
X107381995Y-100358141D01*
X107479641Y-100260495D01*
X107594451Y-100183782D01*
X107722027Y-100130938D01*
X107857456Y-100104000D01*
X107995544Y-100104000D01*
X108130973Y-100130938D01*
G37*
G36*
X97936564Y-93604389D02*
G01*
X98127833Y-93683615D01*
X98127835Y-93683616D01*
X98299973Y-93798635D01*
X98446365Y-93945027D01*
X98561385Y-94117167D01*
X98640611Y-94308436D01*
X98681000Y-94511484D01*
X98681000Y-94718516D01*
X98640611Y-94921564D01*
X98561385Y-95112833D01*
X98561384Y-95112835D01*
X98446365Y-95284973D01*
X98299973Y-95431365D01*
X98127835Y-95546384D01*
X98127834Y-95546385D01*
X98127833Y-95546385D01*
X97936564Y-95625611D01*
X97733516Y-95666000D01*
X97526484Y-95666000D01*
X97323436Y-95625611D01*
X97132167Y-95546385D01*
X97132166Y-95546385D01*
X97132165Y-95546384D01*
X96960027Y-95431365D01*
X96813635Y-95284973D01*
X96698616Y-95112835D01*
X96698615Y-95112833D01*
X96619389Y-94921564D01*
X96579000Y-94718516D01*
X96579000Y-94511484D01*
X96619389Y-94308436D01*
X96698615Y-94117167D01*
X96813635Y-93945027D01*
X96960027Y-93798635D01*
X97132165Y-93683616D01*
X97132167Y-93683615D01*
X97323436Y-93604389D01*
X97526484Y-93564000D01*
X97733516Y-93564000D01*
X97936564Y-93604389D01*
G37*
G36*
X106621000Y-95666000D02*
G01*
X104519000Y-95666000D01*
X104519000Y-93564000D01*
X106621000Y-93564000D01*
X106621000Y-95666000D01*
G37*
G36*
X105876564Y-91064389D02*
G01*
X106067833Y-91143615D01*
X106067835Y-91143616D01*
X106239973Y-91258635D01*
X106386365Y-91405027D01*
X106501385Y-91577167D01*
X106580611Y-91768436D01*
X106621000Y-91971484D01*
X106621000Y-92178516D01*
X106580611Y-92381564D01*
X106501385Y-92572833D01*
X106501384Y-92572835D01*
X106386365Y-92744973D01*
X106239973Y-92891365D01*
X106067835Y-93006384D01*
X106067834Y-93006385D01*
X106067833Y-93006385D01*
X105876564Y-93085611D01*
X105673516Y-93126000D01*
X105466484Y-93126000D01*
X105263436Y-93085611D01*
X105072167Y-93006385D01*
X105072166Y-93006385D01*
X105072165Y-93006384D01*
X104900027Y-92891365D01*
X104753635Y-92744973D01*
X104638616Y-92572835D01*
X104638615Y-92572833D01*
X104559389Y-92381564D01*
X104519000Y-92178516D01*
X104519000Y-91971484D01*
X104559389Y-91768436D01*
X104638615Y-91577167D01*
X104753635Y-91405027D01*
X104900027Y-91258635D01*
X105072165Y-91143616D01*
X105072167Y-91143615D01*
X105263436Y-91064389D01*
X105466484Y-91024000D01*
X105673516Y-91024000D01*
X105876564Y-91064389D01*
G37*
G36*
X97936564Y-91064389D02*
G01*
X98127833Y-91143615D01*
X98127835Y-91143616D01*
X98299973Y-91258635D01*
X98446365Y-91405027D01*
X98561385Y-91577167D01*
X98640611Y-91768436D01*
X98681000Y-91971484D01*
X98681000Y-92178516D01*
X98640611Y-92381564D01*
X98561385Y-92572833D01*
X98561384Y-92572835D01*
X98446365Y-92744973D01*
X98299973Y-92891365D01*
X98127835Y-93006384D01*
X98127834Y-93006385D01*
X98127833Y-93006385D01*
X97936564Y-93085611D01*
X97733516Y-93126000D01*
X97526484Y-93126000D01*
X97323436Y-93085611D01*
X97132167Y-93006385D01*
X97132166Y-93006385D01*
X97132165Y-93006384D01*
X96960027Y-92891365D01*
X96813635Y-92744973D01*
X96698616Y-92572835D01*
X96698615Y-92572833D01*
X96619389Y-92381564D01*
X96579000Y-92178516D01*
X96579000Y-91971484D01*
X96619389Y-91768436D01*
X96698615Y-91577167D01*
X96813635Y-91405027D01*
X96960027Y-91258635D01*
X97132165Y-91143616D01*
X97132167Y-91143615D01*
X97323436Y-91064389D01*
X97526484Y-91024000D01*
X97733516Y-91024000D01*
X97936564Y-91064389D01*
G37*
G36*
X105876564Y-88524389D02*
G01*
X106067833Y-88603615D01*
X106067835Y-88603616D01*
X106239973Y-88718635D01*
X106386365Y-88865027D01*
X106501385Y-89037167D01*
X106580611Y-89228436D01*
X106621000Y-89431484D01*
X106621000Y-89638516D01*
X106580611Y-89841564D01*
X106501385Y-90032833D01*
X106501384Y-90032835D01*
X106386365Y-90204973D01*
X106239973Y-90351365D01*
X106067835Y-90466384D01*
X106067834Y-90466385D01*
X106067833Y-90466385D01*
X105876564Y-90545611D01*
X105673516Y-90586000D01*
X105466484Y-90586000D01*
X105263436Y-90545611D01*
X105072167Y-90466385D01*
X105072166Y-90466385D01*
X105072165Y-90466384D01*
X104900027Y-90351365D01*
X104753635Y-90204973D01*
X104638616Y-90032835D01*
X104638615Y-90032833D01*
X104559389Y-89841564D01*
X104519000Y-89638516D01*
X104519000Y-89431484D01*
X104559389Y-89228436D01*
X104638615Y-89037167D01*
X104753635Y-88865027D01*
X104900027Y-88718635D01*
X105072165Y-88603616D01*
X105072167Y-88603615D01*
X105263436Y-88524389D01*
X105466484Y-88484000D01*
X105673516Y-88484000D01*
X105876564Y-88524389D01*
G37*
G36*
X97936564Y-88524389D02*
G01*
X98127833Y-88603615D01*
X98127835Y-88603616D01*
X98299973Y-88718635D01*
X98446365Y-88865027D01*
X98561385Y-89037167D01*
X98640611Y-89228436D01*
X98681000Y-89431484D01*
X98681000Y-89638516D01*
X98640611Y-89841564D01*
X98561385Y-90032833D01*
X98561384Y-90032835D01*
X98446365Y-90204973D01*
X98299973Y-90351365D01*
X98127835Y-90466384D01*
X98127834Y-90466385D01*
X98127833Y-90466385D01*
X97936564Y-90545611D01*
X97733516Y-90586000D01*
X97526484Y-90586000D01*
X97323436Y-90545611D01*
X97132167Y-90466385D01*
X97132166Y-90466385D01*
X97132165Y-90466384D01*
X96960027Y-90351365D01*
X96813635Y-90204973D01*
X96698616Y-90032835D01*
X96698615Y-90032833D01*
X96619389Y-89841564D01*
X96579000Y-89638516D01*
X96579000Y-89431484D01*
X96619389Y-89228436D01*
X96698615Y-89037167D01*
X96813635Y-88865027D01*
X96960027Y-88718635D01*
X97132165Y-88603616D01*
X97132167Y-88603615D01*
X97323436Y-88524389D01*
X97526484Y-88484000D01*
X97733516Y-88484000D01*
X97936564Y-88524389D01*
G37*
G36*
X105876564Y-85984389D02*
G01*
X106067833Y-86063615D01*
X106067835Y-86063616D01*
X106171039Y-86132575D01*
X106239973Y-86178635D01*
X106386365Y-86325027D01*
X106501385Y-86497167D01*
X106580611Y-86688436D01*
X106621000Y-86891484D01*
X106621000Y-87098516D01*
X106580611Y-87301564D01*
X106535281Y-87411000D01*
X106501384Y-87492835D01*
X106386365Y-87664973D01*
X106239973Y-87811365D01*
X106067835Y-87926384D01*
X106067834Y-87926385D01*
X106067833Y-87926385D01*
X105876564Y-88005611D01*
X105673516Y-88046000D01*
X105466484Y-88046000D01*
X105263436Y-88005611D01*
X105072167Y-87926385D01*
X105072166Y-87926385D01*
X105072165Y-87926384D01*
X104900027Y-87811365D01*
X104753635Y-87664973D01*
X104638616Y-87492835D01*
X104604719Y-87411000D01*
X104559389Y-87301564D01*
X104519000Y-87098516D01*
X104519000Y-86891484D01*
X104559389Y-86688436D01*
X104638615Y-86497167D01*
X104753635Y-86325027D01*
X104900027Y-86178635D01*
X104968961Y-86132575D01*
X105072165Y-86063616D01*
X105072167Y-86063615D01*
X105263436Y-85984389D01*
X105466484Y-85944000D01*
X105673516Y-85944000D01*
X105876564Y-85984389D01*
G37*
G36*
X97936564Y-85984389D02*
G01*
X98127833Y-86063615D01*
X98127835Y-86063616D01*
X98231039Y-86132575D01*
X98299973Y-86178635D01*
X98446365Y-86325027D01*
X98561385Y-86497167D01*
X98640611Y-86688436D01*
X98681000Y-86891484D01*
X98681000Y-87098516D01*
X98640611Y-87301564D01*
X98595281Y-87411000D01*
X98561384Y-87492835D01*
X98446365Y-87664973D01*
X98299973Y-87811365D01*
X98127835Y-87926384D01*
X98127834Y-87926385D01*
X98127833Y-87926385D01*
X97936564Y-88005611D01*
X97733516Y-88046000D01*
X97526484Y-88046000D01*
X97323436Y-88005611D01*
X97132167Y-87926385D01*
X97132166Y-87926385D01*
X97132165Y-87926384D01*
X96960027Y-87811365D01*
X96813635Y-87664973D01*
X96698616Y-87492835D01*
X96664719Y-87411000D01*
X96619389Y-87301564D01*
X96579000Y-87098516D01*
X96579000Y-86891484D01*
X96619389Y-86688436D01*
X96698615Y-86497167D01*
X96813635Y-86325027D01*
X96960027Y-86178635D01*
X97028961Y-86132575D01*
X97132165Y-86063616D01*
X97132167Y-86063615D01*
X97323436Y-85984389D01*
X97526484Y-85944000D01*
X97733516Y-85944000D01*
X97936564Y-85984389D01*
G37*
G36*
X150911000Y-87411000D02*
G01*
X148809000Y-87411000D01*
X148809000Y-85309000D01*
X150911000Y-85309000D01*
X150911000Y-87411000D01*
G37*
G36*
X146466000Y-87411000D02*
G01*
X144364000Y-87411000D01*
X144364000Y-85309000D01*
X146466000Y-85309000D01*
X146466000Y-87411000D01*
G37*
G36*
X129615297Y-85700567D02*
G01*
X129670075Y-85723257D01*
X129670077Y-85723258D01*
X129719376Y-85756198D01*
X129761302Y-85798124D01*
X129794242Y-85847423D01*
X129794243Y-85847425D01*
X129816933Y-85902203D01*
X129828500Y-85960353D01*
X129828500Y-86019647D01*
X129816933Y-86077797D01*
X129794243Y-86132575D01*
X129794242Y-86132577D01*
X129761302Y-86181876D01*
X129719376Y-86223802D01*
X129670077Y-86256742D01*
X129670076Y-86256743D01*
X129670075Y-86256743D01*
X129615297Y-86279433D01*
X129557147Y-86291000D01*
X129497853Y-86291000D01*
X129439703Y-86279433D01*
X129384925Y-86256743D01*
X129384924Y-86256743D01*
X129384923Y-86256742D01*
X129335624Y-86223802D01*
X129293698Y-86181876D01*
X129260758Y-86132577D01*
X129260757Y-86132575D01*
X129238067Y-86077797D01*
X129226500Y-86019647D01*
X129226500Y-85960353D01*
X129238067Y-85902203D01*
X129260757Y-85847425D01*
X129260758Y-85847423D01*
X129293698Y-85798124D01*
X129335624Y-85756198D01*
X129384923Y-85723258D01*
X129384925Y-85723257D01*
X129439703Y-85700567D01*
X129497853Y-85689000D01*
X129557147Y-85689000D01*
X129615297Y-85700567D01*
G37*
G36*
X131450297Y-85700567D02*
G01*
X131505075Y-85723257D01*
X131505077Y-85723258D01*
X131554376Y-85756198D01*
X131596302Y-85798124D01*
X131629242Y-85847423D01*
X131629243Y-85847425D01*
X131651933Y-85902203D01*
X131663500Y-85960353D01*
X131663500Y-86019647D01*
X131651933Y-86077797D01*
X131629243Y-86132575D01*
X131629242Y-86132577D01*
X131596302Y-86181876D01*
X131554376Y-86223802D01*
X131505077Y-86256742D01*
X131505076Y-86256743D01*
X131505075Y-86256743D01*
X131450297Y-86279433D01*
X131392147Y-86291000D01*
X131332853Y-86291000D01*
X131274703Y-86279433D01*
X131219925Y-86256743D01*
X131219924Y-86256743D01*
X131219923Y-86256742D01*
X131170624Y-86223802D01*
X131128698Y-86181876D01*
X131095758Y-86132577D01*
X131095757Y-86132575D01*
X131073067Y-86077797D01*
X131061500Y-86019647D01*
X131061500Y-85960353D01*
X131073067Y-85902203D01*
X131095757Y-85847425D01*
X131095758Y-85847423D01*
X131128698Y-85798124D01*
X131170624Y-85756198D01*
X131219923Y-85723258D01*
X131219925Y-85723257D01*
X131274703Y-85700567D01*
X131332853Y-85689000D01*
X131392147Y-85689000D01*
X131450297Y-85700567D01*
G37*
G36*
X113209564Y-83571389D02*
G01*
X113400833Y-83650615D01*
X113400835Y-83650616D01*
X113572973Y-83765635D01*
X113719365Y-83912027D01*
X113823050Y-84067202D01*
X113834385Y-84084167D01*
X113913611Y-84275436D01*
X113954000Y-84478484D01*
X113954000Y-84685516D01*
X113913611Y-84888564D01*
X113849702Y-85042854D01*
X113834384Y-85079835D01*
X113719365Y-85251973D01*
X113572973Y-85398365D01*
X113400835Y-85513384D01*
X113400834Y-85513385D01*
X113400833Y-85513385D01*
X113209564Y-85592611D01*
X113006516Y-85633000D01*
X112799484Y-85633000D01*
X112596436Y-85592611D01*
X112405167Y-85513385D01*
X112405166Y-85513385D01*
X112405165Y-85513384D01*
X112233027Y-85398365D01*
X112086635Y-85251973D01*
X111971616Y-85079835D01*
X111956298Y-85042854D01*
X111892389Y-84888564D01*
X111852000Y-84685516D01*
X111852000Y-84478484D01*
X111892389Y-84275436D01*
X111971615Y-84084167D01*
X111982951Y-84067202D01*
X112086635Y-83912027D01*
X112233027Y-83765635D01*
X112405165Y-83650616D01*
X112405167Y-83650615D01*
X112596436Y-83571389D01*
X112799484Y-83531000D01*
X113006516Y-83531000D01*
X113209564Y-83571389D01*
G37*
G36*
X130532797Y-84783067D02*
G01*
X130587575Y-84805757D01*
X130587577Y-84805758D01*
X130636876Y-84838698D01*
X130678802Y-84880624D01*
X130711742Y-84929923D01*
X130711743Y-84929925D01*
X130734433Y-84984703D01*
X130746000Y-85042853D01*
X130746000Y-85102147D01*
X130734433Y-85160297D01*
X130711743Y-85215075D01*
X130711742Y-85215077D01*
X130678802Y-85264376D01*
X130636876Y-85306302D01*
X130587577Y-85339242D01*
X130587576Y-85339243D01*
X130587575Y-85339243D01*
X130532797Y-85361933D01*
X130474647Y-85373500D01*
X130415353Y-85373500D01*
X130357203Y-85361933D01*
X130302425Y-85339243D01*
X130302424Y-85339243D01*
X130302423Y-85339242D01*
X130253124Y-85306302D01*
X130211198Y-85264376D01*
X130178258Y-85215077D01*
X130178257Y-85215075D01*
X130155567Y-85160297D01*
X130144000Y-85102147D01*
X130144000Y-85042853D01*
X130155567Y-84984703D01*
X130178257Y-84929925D01*
X130178258Y-84929923D01*
X130211198Y-84880624D01*
X130253124Y-84838698D01*
X130302423Y-84805758D01*
X130302425Y-84805757D01*
X130357203Y-84783067D01*
X130415353Y-84771500D01*
X130474647Y-84771500D01*
X130532797Y-84783067D01*
G37*
G36*
X128697797Y-84783067D02*
G01*
X128752575Y-84805757D01*
X128752577Y-84805758D01*
X128801876Y-84838698D01*
X128843802Y-84880624D01*
X128876742Y-84929923D01*
X128876743Y-84929925D01*
X128899433Y-84984703D01*
X128911000Y-85042853D01*
X128911000Y-85102147D01*
X128899433Y-85160297D01*
X128876743Y-85215075D01*
X128876742Y-85215077D01*
X128843802Y-85264376D01*
X128801876Y-85306302D01*
X128752577Y-85339242D01*
X128752576Y-85339243D01*
X128752575Y-85339243D01*
X128697797Y-85361933D01*
X128639647Y-85373500D01*
X128580353Y-85373500D01*
X128522203Y-85361933D01*
X128467425Y-85339243D01*
X128467424Y-85339243D01*
X128467423Y-85339242D01*
X128418124Y-85306302D01*
X128376198Y-85264376D01*
X128343258Y-85215077D01*
X128343257Y-85215075D01*
X128320567Y-85160297D01*
X128309000Y-85102147D01*
X128309000Y-85042853D01*
X128320567Y-84984703D01*
X128343257Y-84929925D01*
X128343258Y-84929923D01*
X128376198Y-84880624D01*
X128418124Y-84838698D01*
X128467423Y-84805758D01*
X128467425Y-84805757D01*
X128522203Y-84783067D01*
X128580353Y-84771500D01*
X128639647Y-84771500D01*
X128697797Y-84783067D01*
G37*
G36*
X132367797Y-84783067D02*
G01*
X132422575Y-84805757D01*
X132422577Y-84805758D01*
X132471876Y-84838698D01*
X132513802Y-84880624D01*
X132546742Y-84929923D01*
X132546743Y-84929925D01*
X132569433Y-84984703D01*
X132581000Y-85042853D01*
X132581000Y-85102147D01*
X132569433Y-85160297D01*
X132546743Y-85215075D01*
X132546742Y-85215077D01*
X132513802Y-85264376D01*
X132471876Y-85306302D01*
X132422577Y-85339242D01*
X132422576Y-85339243D01*
X132422575Y-85339243D01*
X132367797Y-85361933D01*
X132309647Y-85373500D01*
X132250353Y-85373500D01*
X132192203Y-85361933D01*
X132137425Y-85339243D01*
X132137424Y-85339243D01*
X132137423Y-85339242D01*
X132088124Y-85306302D01*
X132046198Y-85264376D01*
X132013258Y-85215077D01*
X132013257Y-85215075D01*
X131990567Y-85160297D01*
X131979000Y-85102147D01*
X131979000Y-85042853D01*
X131990567Y-84984703D01*
X132013257Y-84929925D01*
X132013258Y-84929923D01*
X132046198Y-84880624D01*
X132088124Y-84838698D01*
X132137423Y-84805758D01*
X132137425Y-84805757D01*
X132192203Y-84783067D01*
X132250353Y-84771500D01*
X132309647Y-84771500D01*
X132367797Y-84783067D01*
G37*
G36*
X145721564Y-82809389D02*
G01*
X145912833Y-82888615D01*
X145912835Y-82888616D01*
X146035769Y-82970758D01*
X146084973Y-83003635D01*
X146231365Y-83150027D01*
X146346385Y-83322167D01*
X146425611Y-83513436D01*
X146466000Y-83716484D01*
X146466000Y-83923516D01*
X146425611Y-84126564D01*
X146401552Y-84184647D01*
X146346384Y-84317835D01*
X146231365Y-84489973D01*
X146084973Y-84636365D01*
X145912835Y-84751384D01*
X145912834Y-84751385D01*
X145912833Y-84751385D01*
X145721564Y-84830611D01*
X145518516Y-84871000D01*
X145311484Y-84871000D01*
X145108436Y-84830611D01*
X144917167Y-84751385D01*
X144917166Y-84751385D01*
X144917165Y-84751384D01*
X144745027Y-84636365D01*
X144598635Y-84489973D01*
X144483616Y-84317835D01*
X144428448Y-84184647D01*
X144404389Y-84126564D01*
X144364000Y-83923516D01*
X144364000Y-83716484D01*
X144404389Y-83513436D01*
X144483615Y-83322167D01*
X144598635Y-83150027D01*
X144745027Y-83003635D01*
X144794231Y-82970758D01*
X144917165Y-82888616D01*
X144917167Y-82888615D01*
X145108436Y-82809389D01*
X145311484Y-82769000D01*
X145518516Y-82769000D01*
X145721564Y-82809389D01*
G37*
G36*
X150166564Y-82809389D02*
G01*
X150357833Y-82888615D01*
X150357835Y-82888616D01*
X150480769Y-82970758D01*
X150529973Y-83003635D01*
X150676365Y-83150027D01*
X150791385Y-83322167D01*
X150870611Y-83513436D01*
X150911000Y-83716484D01*
X150911000Y-83923516D01*
X150870611Y-84126564D01*
X150846552Y-84184647D01*
X150791384Y-84317835D01*
X150676365Y-84489973D01*
X150529973Y-84636365D01*
X150357835Y-84751384D01*
X150357834Y-84751385D01*
X150357833Y-84751385D01*
X150166564Y-84830611D01*
X149963516Y-84871000D01*
X149756484Y-84871000D01*
X149553436Y-84830611D01*
X149362167Y-84751385D01*
X149362166Y-84751385D01*
X149362165Y-84751384D01*
X149190027Y-84636365D01*
X149043635Y-84489973D01*
X148928616Y-84317835D01*
X148873448Y-84184647D01*
X148849389Y-84126564D01*
X148809000Y-83923516D01*
X148809000Y-83716484D01*
X148849389Y-83513436D01*
X148928615Y-83322167D01*
X149043635Y-83150027D01*
X149190027Y-83003635D01*
X149239231Y-82970758D01*
X149362165Y-82888616D01*
X149362167Y-82888615D01*
X149553436Y-82809389D01*
X149756484Y-82769000D01*
X149963516Y-82769000D01*
X150166564Y-82809389D01*
G37*
G36*
X129615297Y-83865567D02*
G01*
X129670075Y-83888257D01*
X129670077Y-83888258D01*
X129719376Y-83921198D01*
X129761302Y-83963124D01*
X129794242Y-84012423D01*
X129794243Y-84012425D01*
X129816933Y-84067203D01*
X129828500Y-84125353D01*
X129828500Y-84184647D01*
X129816933Y-84242797D01*
X129803413Y-84275436D01*
X129794242Y-84297577D01*
X129761302Y-84346876D01*
X129719376Y-84388802D01*
X129670077Y-84421742D01*
X129670076Y-84421743D01*
X129670075Y-84421743D01*
X129615297Y-84444433D01*
X129557147Y-84456000D01*
X129497853Y-84456000D01*
X129439703Y-84444433D01*
X129384925Y-84421743D01*
X129384924Y-84421743D01*
X129384923Y-84421742D01*
X129335624Y-84388802D01*
X129293698Y-84346876D01*
X129260758Y-84297577D01*
X129251587Y-84275436D01*
X129238067Y-84242797D01*
X129226500Y-84184647D01*
X129226500Y-84125353D01*
X129238067Y-84067203D01*
X129260757Y-84012425D01*
X129260758Y-84012423D01*
X129293698Y-83963124D01*
X129335624Y-83921198D01*
X129384923Y-83888258D01*
X129384925Y-83888257D01*
X129439703Y-83865567D01*
X129497853Y-83854000D01*
X129557147Y-83854000D01*
X129615297Y-83865567D01*
G37*
G36*
X131450297Y-83865567D02*
G01*
X131505075Y-83888257D01*
X131505077Y-83888258D01*
X131554376Y-83921198D01*
X131596302Y-83963124D01*
X131629242Y-84012423D01*
X131629243Y-84012425D01*
X131651933Y-84067203D01*
X131663500Y-84125353D01*
X131663500Y-84184647D01*
X131651933Y-84242797D01*
X131638413Y-84275436D01*
X131629242Y-84297577D01*
X131596302Y-84346876D01*
X131554376Y-84388802D01*
X131505077Y-84421742D01*
X131505076Y-84421743D01*
X131505075Y-84421743D01*
X131450297Y-84444433D01*
X131392147Y-84456000D01*
X131332853Y-84456000D01*
X131274703Y-84444433D01*
X131219925Y-84421743D01*
X131219924Y-84421743D01*
X131219923Y-84421742D01*
X131170624Y-84388802D01*
X131128698Y-84346876D01*
X131095758Y-84297577D01*
X131086587Y-84275436D01*
X131073067Y-84242797D01*
X131061500Y-84184647D01*
X131061500Y-84125353D01*
X131073067Y-84067203D01*
X131095757Y-84012425D01*
X131095758Y-84012423D01*
X131128698Y-83963124D01*
X131170624Y-83921198D01*
X131219923Y-83888258D01*
X131219925Y-83888257D01*
X131274703Y-83865567D01*
X131332853Y-83854000D01*
X131392147Y-83854000D01*
X131450297Y-83865567D01*
G37*
G36*
X132367797Y-82948067D02*
G01*
X132422575Y-82970757D01*
X132422577Y-82970758D01*
X132471876Y-83003698D01*
X132513802Y-83045624D01*
X132545457Y-83093000D01*
X132546743Y-83094925D01*
X132569433Y-83149703D01*
X132581000Y-83207853D01*
X132581000Y-83267147D01*
X132569433Y-83325297D01*
X132546743Y-83380075D01*
X132546742Y-83380077D01*
X132513802Y-83429376D01*
X132471876Y-83471302D01*
X132422577Y-83504242D01*
X132422576Y-83504243D01*
X132422575Y-83504243D01*
X132367797Y-83526933D01*
X132309647Y-83538500D01*
X132250353Y-83538500D01*
X132192203Y-83526933D01*
X132137425Y-83504243D01*
X132137424Y-83504243D01*
X132137423Y-83504242D01*
X132088124Y-83471302D01*
X132046198Y-83429376D01*
X132013258Y-83380077D01*
X132013257Y-83380075D01*
X131990567Y-83325297D01*
X131979000Y-83267147D01*
X131979000Y-83207853D01*
X131990567Y-83149703D01*
X132013257Y-83094925D01*
X132014543Y-83093000D01*
X132046198Y-83045624D01*
X132088124Y-83003698D01*
X132137423Y-82970758D01*
X132137425Y-82970757D01*
X132192203Y-82948067D01*
X132250353Y-82936500D01*
X132309647Y-82936500D01*
X132367797Y-82948067D01*
G37*
G36*
X128697797Y-82948067D02*
G01*
X128752575Y-82970757D01*
X128752577Y-82970758D01*
X128801876Y-83003698D01*
X128843802Y-83045624D01*
X128875457Y-83093000D01*
X128876743Y-83094925D01*
X128899433Y-83149703D01*
X128911000Y-83207853D01*
X128911000Y-83267147D01*
X128899433Y-83325297D01*
X128876743Y-83380075D01*
X128876742Y-83380077D01*
X128843802Y-83429376D01*
X128801876Y-83471302D01*
X128752577Y-83504242D01*
X128752576Y-83504243D01*
X128752575Y-83504243D01*
X128697797Y-83526933D01*
X128639647Y-83538500D01*
X128580353Y-83538500D01*
X128522203Y-83526933D01*
X128467425Y-83504243D01*
X128467424Y-83504243D01*
X128467423Y-83504242D01*
X128418124Y-83471302D01*
X128376198Y-83429376D01*
X128343258Y-83380077D01*
X128343257Y-83380075D01*
X128320567Y-83325297D01*
X128309000Y-83267147D01*
X128309000Y-83207853D01*
X128320567Y-83149703D01*
X128343257Y-83094925D01*
X128344543Y-83093000D01*
X128376198Y-83045624D01*
X128418124Y-83003698D01*
X128467423Y-82970758D01*
X128467425Y-82970757D01*
X128522203Y-82948067D01*
X128580353Y-82936500D01*
X128639647Y-82936500D01*
X128697797Y-82948067D01*
G37*
G36*
X130532797Y-82948067D02*
G01*
X130587575Y-82970757D01*
X130587577Y-82970758D01*
X130636876Y-83003698D01*
X130678802Y-83045624D01*
X130710457Y-83093000D01*
X130711743Y-83094925D01*
X130734433Y-83149703D01*
X130746000Y-83207853D01*
X130746000Y-83267147D01*
X130734433Y-83325297D01*
X130711743Y-83380075D01*
X130711742Y-83380077D01*
X130678802Y-83429376D01*
X130636876Y-83471302D01*
X130587577Y-83504242D01*
X130587576Y-83504243D01*
X130587575Y-83504243D01*
X130532797Y-83526933D01*
X130474647Y-83538500D01*
X130415353Y-83538500D01*
X130357203Y-83526933D01*
X130302425Y-83504243D01*
X130302424Y-83504243D01*
X130302423Y-83504242D01*
X130253124Y-83471302D01*
X130211198Y-83429376D01*
X130178258Y-83380077D01*
X130178257Y-83380075D01*
X130155567Y-83325297D01*
X130144000Y-83267147D01*
X130144000Y-83207853D01*
X130155567Y-83149703D01*
X130178257Y-83094925D01*
X130179543Y-83093000D01*
X130211198Y-83045624D01*
X130253124Y-83003698D01*
X130302423Y-82970758D01*
X130302425Y-82970757D01*
X130357203Y-82948067D01*
X130415353Y-82936500D01*
X130474647Y-82936500D01*
X130532797Y-82948067D01*
G37*
G36*
X113954000Y-83093000D02*
G01*
X111852000Y-83093000D01*
X111852000Y-80991000D01*
X113954000Y-80991000D01*
X113954000Y-83093000D01*
G37*
G36*
X131450297Y-82030567D02*
G01*
X131505075Y-82053257D01*
X131505077Y-82053258D01*
X131554376Y-82086198D01*
X131596302Y-82128124D01*
X131629242Y-82177423D01*
X131629243Y-82177425D01*
X131651933Y-82232203D01*
X131663500Y-82290353D01*
X131663500Y-82349647D01*
X131651933Y-82407797D01*
X131629243Y-82462575D01*
X131629242Y-82462577D01*
X131596302Y-82511876D01*
X131554376Y-82553802D01*
X131505077Y-82586742D01*
X131505076Y-82586743D01*
X131505075Y-82586743D01*
X131450297Y-82609433D01*
X131392147Y-82621000D01*
X131332853Y-82621000D01*
X131274703Y-82609433D01*
X131219925Y-82586743D01*
X131219924Y-82586743D01*
X131219923Y-82586742D01*
X131170624Y-82553802D01*
X131128698Y-82511876D01*
X131095758Y-82462577D01*
X131095757Y-82462575D01*
X131073067Y-82407797D01*
X131061500Y-82349647D01*
X131061500Y-82290353D01*
X131073067Y-82232203D01*
X131095757Y-82177425D01*
X131095758Y-82177423D01*
X131128698Y-82128124D01*
X131170624Y-82086198D01*
X131219923Y-82053258D01*
X131219925Y-82053257D01*
X131274703Y-82030567D01*
X131332853Y-82019000D01*
X131392147Y-82019000D01*
X131450297Y-82030567D01*
G37*
G36*
X129615297Y-82030567D02*
G01*
X129670075Y-82053257D01*
X129670077Y-82053258D01*
X129719376Y-82086198D01*
X129761302Y-82128124D01*
X129794242Y-82177423D01*
X129794243Y-82177425D01*
X129816933Y-82232203D01*
X129828500Y-82290353D01*
X129828500Y-82349647D01*
X129816933Y-82407797D01*
X129794243Y-82462575D01*
X129794242Y-82462577D01*
X129761302Y-82511876D01*
X129719376Y-82553802D01*
X129670077Y-82586742D01*
X129670076Y-82586743D01*
X129670075Y-82586743D01*
X129615297Y-82609433D01*
X129557147Y-82621000D01*
X129497853Y-82621000D01*
X129439703Y-82609433D01*
X129384925Y-82586743D01*
X129384924Y-82586743D01*
X129384923Y-82586742D01*
X129335624Y-82553802D01*
X129293698Y-82511876D01*
X129260758Y-82462577D01*
X129260757Y-82462575D01*
X129238067Y-82407797D01*
X129226500Y-82349647D01*
X129226500Y-82290353D01*
X129238067Y-82232203D01*
X129260757Y-82177425D01*
X129260758Y-82177423D01*
X129293698Y-82128124D01*
X129335624Y-82086198D01*
X129384923Y-82053258D01*
X129384925Y-82053257D01*
X129439703Y-82030567D01*
X129497853Y-82019000D01*
X129557147Y-82019000D01*
X129615297Y-82030567D01*
G37*
G36*
X150166564Y-80269389D02*
G01*
X150357833Y-80348615D01*
X150357835Y-80348616D01*
X150529973Y-80463635D01*
X150676365Y-80610027D01*
X150791385Y-80782167D01*
X150870611Y-80973436D01*
X150911000Y-81176484D01*
X150911000Y-81383516D01*
X150870611Y-81586564D01*
X150791385Y-81777833D01*
X150791384Y-81777835D01*
X150676365Y-81949973D01*
X150529973Y-82096365D01*
X150357835Y-82211384D01*
X150357834Y-82211385D01*
X150357833Y-82211385D01*
X150166564Y-82290611D01*
X149963516Y-82331000D01*
X149756484Y-82331000D01*
X149553436Y-82290611D01*
X149362167Y-82211385D01*
X149362166Y-82211385D01*
X149362165Y-82211384D01*
X149190027Y-82096365D01*
X149043635Y-81949973D01*
X148928616Y-81777835D01*
X148928615Y-81777833D01*
X148849389Y-81586564D01*
X148809000Y-81383516D01*
X148809000Y-81176484D01*
X148849389Y-80973436D01*
X148928615Y-80782167D01*
X149043635Y-80610027D01*
X149190027Y-80463635D01*
X149362165Y-80348616D01*
X149362167Y-80348615D01*
X149553436Y-80269389D01*
X149756484Y-80229000D01*
X149963516Y-80229000D01*
X150166564Y-80269389D01*
G37*
G36*
X150166564Y-77729389D02*
G01*
X150357833Y-77808615D01*
X150357835Y-77808616D01*
X150529973Y-77923635D01*
X150676365Y-78070027D01*
X150791385Y-78242167D01*
X150870611Y-78433436D01*
X150911000Y-78636484D01*
X150911000Y-78843516D01*
X150870611Y-79046564D01*
X150791385Y-79237833D01*
X150791384Y-79237835D01*
X150676365Y-79409973D01*
X150529973Y-79556365D01*
X150357835Y-79671384D01*
X150357834Y-79671385D01*
X150357833Y-79671385D01*
X150166564Y-79750611D01*
X149963516Y-79791000D01*
X149756484Y-79791000D01*
X149553436Y-79750611D01*
X149362167Y-79671385D01*
X149362166Y-79671385D01*
X149362165Y-79671384D01*
X149190027Y-79556365D01*
X149043635Y-79409973D01*
X148928616Y-79237835D01*
X148928615Y-79237833D01*
X148849389Y-79046564D01*
X148809000Y-78843516D01*
X148809000Y-78636484D01*
X148849389Y-78433436D01*
X148928615Y-78242167D01*
X149043635Y-78070027D01*
X149190027Y-77923635D01*
X149362165Y-77808616D01*
X149362167Y-77808615D01*
X149553436Y-77729389D01*
X149756484Y-77689000D01*
X149963516Y-77689000D01*
X150166564Y-77729389D01*
G37*
G36*
X92035795Y-70548156D02*
G01*
X92142150Y-70569311D01*
X92242334Y-70610809D01*
X92342520Y-70652307D01*
X92522844Y-70772795D01*
X92676205Y-70926156D01*
X92796693Y-71106480D01*
X92879689Y-71306851D01*
X92922000Y-71519560D01*
X92922000Y-71736440D01*
X92879689Y-71949149D01*
X92796693Y-72149520D01*
X92676205Y-72329844D01*
X92522844Y-72483205D01*
X92342520Y-72603693D01*
X92142150Y-72686689D01*
X92035795Y-72707844D01*
X91929440Y-72729000D01*
X91712560Y-72729000D01*
X91606205Y-72707844D01*
X91499850Y-72686689D01*
X91299480Y-72603693D01*
X91119156Y-72483205D01*
X90965795Y-72329844D01*
X90845307Y-72149520D01*
X90762311Y-71949149D01*
X90720000Y-71736440D01*
X90720000Y-71519560D01*
X90762311Y-71306851D01*
X90845307Y-71106480D01*
X90965795Y-70926156D01*
X91119156Y-70772795D01*
X91299480Y-70652307D01*
X91399666Y-70610809D01*
X91499850Y-70569311D01*
X91606205Y-70548156D01*
X91712560Y-70527000D01*
X91929440Y-70527000D01*
X92035795Y-70548156D01*
G37*
G36*
X157186794Y-70421155D02*
G01*
X157293150Y-70442311D01*
X157493520Y-70525307D01*
X157673844Y-70645795D01*
X157827205Y-70799156D01*
X157947693Y-70979480D01*
X158030689Y-71179851D01*
X158073000Y-71392560D01*
X158073000Y-71609440D01*
X158030689Y-71822149D01*
X157947693Y-72022520D01*
X157827205Y-72202844D01*
X157673844Y-72356205D01*
X157493520Y-72476693D01*
X157293150Y-72559689D01*
X157186795Y-72580844D01*
X157080440Y-72602000D01*
X156863560Y-72602000D01*
X156757205Y-72580844D01*
X156650850Y-72559689D01*
X156450480Y-72476693D01*
X156270156Y-72356205D01*
X156116795Y-72202844D01*
X155996307Y-72022520D01*
X155913311Y-71822149D01*
X155871000Y-71609440D01*
X155871000Y-71392560D01*
X155913311Y-71179851D01*
X155996307Y-70979480D01*
X156116795Y-70799156D01*
X156270156Y-70645795D01*
X156450480Y-70525307D01*
X156550666Y-70483809D01*
X156650850Y-70442311D01*
X156757206Y-70421155D01*
X156863560Y-70400000D01*
X157080440Y-70400000D01*
X157186794Y-70421155D01*
G37*
M02*
