M48
INCH,TZ
T1C0.0157
T2C0.0236
T3C0.0335
T4C0.0394
%
G90
G05
T1
X50634Y-32771
X50634Y-33493
X50995Y-32409
X50995Y-33132
X50995Y-33854
X51356Y-32771
X51356Y-33493
X51718Y-32409
X51718Y-33132
X51718Y-33854
X52079Y-32771
X52079Y-33493
T2
X42097Y-40750
X44853Y-40750
T3
X42491Y-39687
X44459Y-39687
T4
X44450Y-32300
X44450Y-33300
X38437Y-34250
X38437Y-35250
X38437Y-36250
X38437Y-37250
X41563Y-34250
X41563Y-35250
X41563Y-36250
X41563Y-37250
X57250Y-33000
X57250Y-34000
X59000Y-31000
X59000Y-32000
X59000Y-33000
X59000Y-34000
T0
M30
