G04 #@! TF.GenerationSoftware,KiCad,Pcbnew,(5.1.5)-3*
G04 #@! TF.CreationDate,2021-04-15T13:44:04+02:00*
G04 #@! TF.ProjectId,Copy_bachelorproef morse,436f7079-5f62-4616-9368-656c6f727072,rev?*
G04 #@! TF.SameCoordinates,Original*
G04 #@! TF.FileFunction,Soldermask,Top*
G04 #@! TF.FilePolarity,Negative*
%FSLAX46Y46*%
G04 Gerber Fmt 4.6, Leading zero omitted, Abs format (unit mm)*
G04 Created by KiCad (PCBNEW (5.1.5)-3) date 2021-04-15 13:44:04*
%MOMM*%
%LPD*%
G04 APERTURE LIST*
%ADD10C,0.000100*%
%ADD11C,0.100000*%
G04 APERTURE END LIST*
D10*
G36*
X106926500Y-102455000D02*
G01*
X108226500Y-102455000D01*
X108226500Y-104555000D01*
X106926500Y-104555000D01*
X106896410Y-104554210D01*
X106866400Y-104551850D01*
X106836550Y-104547920D01*
X106806950Y-104542430D01*
X106777680Y-104535410D01*
X106748820Y-104526860D01*
X106720440Y-104516810D01*
X106692630Y-104505290D01*
X106665460Y-104492329D01*
X106639000Y-104477965D01*
X106613330Y-104462236D01*
X106588520Y-104445185D01*
X106564640Y-104426859D01*
X106541750Y-104407308D01*
X106519910Y-104386586D01*
X106499190Y-104364750D01*
X106479640Y-104341859D01*
X106461320Y-104317977D01*
X106444260Y-104293167D01*
X106428540Y-104267500D01*
X106414170Y-104241045D01*
X106401210Y-104213874D01*
X106389690Y-104186062D01*
X106379640Y-104157685D01*
X106371090Y-104128821D01*
X106364070Y-104099549D01*
X106358580Y-104069950D01*
X106354650Y-104040104D01*
X106352290Y-104010093D01*
X106351500Y-103980000D01*
X106351500Y-103030000D01*
X106352290Y-102999907D01*
X106354650Y-102969896D01*
X106358580Y-102940050D01*
X106364070Y-102910451D01*
X106371090Y-102881179D01*
X106379640Y-102852315D01*
X106389690Y-102823938D01*
X106401210Y-102796126D01*
X106414170Y-102768955D01*
X106428540Y-102742500D01*
X106444260Y-102716833D01*
X106461320Y-102692023D01*
X106479640Y-102668141D01*
X106499190Y-102645250D01*
X106519910Y-102623414D01*
X106541750Y-102602692D01*
X106564640Y-102583141D01*
X106588520Y-102564815D01*
X106613330Y-102547764D01*
X106639000Y-102532035D01*
X106665460Y-102517671D01*
X106692630Y-102504710D01*
X106720440Y-102493190D01*
X106748820Y-102483140D01*
X106777680Y-102474590D01*
X106806950Y-102467570D01*
X106836550Y-102462080D01*
X106866400Y-102458150D01*
X106896410Y-102455790D01*
X106926500Y-102455000D01*
G37*
X106926500Y-102455000D02*
X108226500Y-102455000D01*
X108226500Y-104555000D01*
X106926500Y-104555000D01*
X106896410Y-104554210D01*
X106866400Y-104551850D01*
X106836550Y-104547920D01*
X106806950Y-104542430D01*
X106777680Y-104535410D01*
X106748820Y-104526860D01*
X106720440Y-104516810D01*
X106692630Y-104505290D01*
X106665460Y-104492329D01*
X106639000Y-104477965D01*
X106613330Y-104462236D01*
X106588520Y-104445185D01*
X106564640Y-104426859D01*
X106541750Y-104407308D01*
X106519910Y-104386586D01*
X106499190Y-104364750D01*
X106479640Y-104341859D01*
X106461320Y-104317977D01*
X106444260Y-104293167D01*
X106428540Y-104267500D01*
X106414170Y-104241045D01*
X106401210Y-104213874D01*
X106389690Y-104186062D01*
X106379640Y-104157685D01*
X106371090Y-104128821D01*
X106364070Y-104099549D01*
X106358580Y-104069950D01*
X106354650Y-104040104D01*
X106352290Y-104010093D01*
X106351500Y-103980000D01*
X106351500Y-103030000D01*
X106352290Y-102999907D01*
X106354650Y-102969896D01*
X106358580Y-102940050D01*
X106364070Y-102910451D01*
X106371090Y-102881179D01*
X106379640Y-102852315D01*
X106389690Y-102823938D01*
X106401210Y-102796126D01*
X106414170Y-102768955D01*
X106428540Y-102742500D01*
X106444260Y-102716833D01*
X106461320Y-102692023D01*
X106479640Y-102668141D01*
X106499190Y-102645250D01*
X106519910Y-102623414D01*
X106541750Y-102602692D01*
X106564640Y-102583141D01*
X106588520Y-102564815D01*
X106613330Y-102547764D01*
X106639000Y-102532035D01*
X106665460Y-102517671D01*
X106692630Y-102504710D01*
X106720440Y-102493190D01*
X106748820Y-102483140D01*
X106777680Y-102474590D01*
X106806950Y-102467570D01*
X106836550Y-102462080D01*
X106866400Y-102458150D01*
X106896410Y-102455790D01*
X106926500Y-102455000D01*
G36*
X113926500Y-102455000D02*
G01*
X112626500Y-102455000D01*
X112626500Y-104555000D01*
X113926500Y-104555000D01*
X113956590Y-104554210D01*
X113986600Y-104551850D01*
X114016450Y-104547920D01*
X114046050Y-104542430D01*
X114075320Y-104535410D01*
X114104180Y-104526860D01*
X114132560Y-104516810D01*
X114160370Y-104505290D01*
X114187540Y-104492329D01*
X114214000Y-104477965D01*
X114239670Y-104462236D01*
X114264480Y-104445185D01*
X114288360Y-104426859D01*
X114311250Y-104407308D01*
X114333090Y-104386586D01*
X114353810Y-104364750D01*
X114373360Y-104341859D01*
X114391680Y-104317977D01*
X114408740Y-104293167D01*
X114424460Y-104267500D01*
X114438830Y-104241045D01*
X114451790Y-104213874D01*
X114463310Y-104186062D01*
X114473360Y-104157685D01*
X114481910Y-104128821D01*
X114488930Y-104099549D01*
X114494420Y-104069950D01*
X114498350Y-104040104D01*
X114500710Y-104010093D01*
X114501500Y-103980000D01*
X114501500Y-103030000D01*
X114500710Y-102999907D01*
X114498350Y-102969896D01*
X114494420Y-102940050D01*
X114488930Y-102910451D01*
X114481910Y-102881179D01*
X114473360Y-102852315D01*
X114463310Y-102823938D01*
X114451790Y-102796126D01*
X114438830Y-102768955D01*
X114424460Y-102742500D01*
X114408740Y-102716833D01*
X114391680Y-102692023D01*
X114373360Y-102668141D01*
X114353810Y-102645250D01*
X114333090Y-102623414D01*
X114311250Y-102602692D01*
X114288360Y-102583141D01*
X114264480Y-102564815D01*
X114239670Y-102547764D01*
X114214000Y-102532035D01*
X114187540Y-102517671D01*
X114160370Y-102504710D01*
X114132560Y-102493190D01*
X114104180Y-102483140D01*
X114075320Y-102474590D01*
X114046050Y-102467570D01*
X114016450Y-102462080D01*
X113986600Y-102458150D01*
X113956590Y-102455790D01*
X113926500Y-102455000D01*
G37*
X113926500Y-102455000D02*
X112626500Y-102455000D01*
X112626500Y-104555000D01*
X113926500Y-104555000D01*
X113956590Y-104554210D01*
X113986600Y-104551850D01*
X114016450Y-104547920D01*
X114046050Y-104542430D01*
X114075320Y-104535410D01*
X114104180Y-104526860D01*
X114132560Y-104516810D01*
X114160370Y-104505290D01*
X114187540Y-104492329D01*
X114214000Y-104477965D01*
X114239670Y-104462236D01*
X114264480Y-104445185D01*
X114288360Y-104426859D01*
X114311250Y-104407308D01*
X114333090Y-104386586D01*
X114353810Y-104364750D01*
X114373360Y-104341859D01*
X114391680Y-104317977D01*
X114408740Y-104293167D01*
X114424460Y-104267500D01*
X114438830Y-104241045D01*
X114451790Y-104213874D01*
X114463310Y-104186062D01*
X114473360Y-104157685D01*
X114481910Y-104128821D01*
X114488930Y-104099549D01*
X114494420Y-104069950D01*
X114498350Y-104040104D01*
X114500710Y-104010093D01*
X114501500Y-103980000D01*
X114501500Y-103030000D01*
X114500710Y-102999907D01*
X114498350Y-102969896D01*
X114494420Y-102940050D01*
X114488930Y-102910451D01*
X114481910Y-102881179D01*
X114473360Y-102852315D01*
X114463310Y-102823938D01*
X114451790Y-102796126D01*
X114438830Y-102768955D01*
X114424460Y-102742500D01*
X114408740Y-102716833D01*
X114391680Y-102692023D01*
X114373360Y-102668141D01*
X114353810Y-102645250D01*
X114333090Y-102623414D01*
X114311250Y-102602692D01*
X114288360Y-102583141D01*
X114264480Y-102564815D01*
X114239670Y-102547764D01*
X114214000Y-102532035D01*
X114187540Y-102517671D01*
X114160370Y-102504710D01*
X114132560Y-102493190D01*
X114104180Y-102483140D01*
X114075320Y-102474590D01*
X114046050Y-102467570D01*
X114016450Y-102462080D01*
X113986600Y-102458150D01*
X113956590Y-102455790D01*
X113926500Y-102455000D01*
D11*
G36*
X114029613Y-102511611D02*
G01*
X114128764Y-102541688D01*
X114220144Y-102590531D01*
X114300238Y-102656262D01*
X114365969Y-102736356D01*
X114414812Y-102827735D01*
X114444889Y-102926886D01*
X114452500Y-103004161D01*
X114452500Y-104005839D01*
X114444889Y-104083114D01*
X114414812Y-104182265D01*
X114365969Y-104273644D01*
X114300238Y-104353738D01*
X114220144Y-104419469D01*
X114128765Y-104468312D01*
X114029614Y-104498389D01*
X113926500Y-104508545D01*
X113823387Y-104498389D01*
X113724236Y-104468312D01*
X113632857Y-104419469D01*
X113552763Y-104353738D01*
X113487032Y-104273644D01*
X113438189Y-104182265D01*
X113408112Y-104083114D01*
X113400501Y-104005839D01*
X113400500Y-103004162D01*
X113408111Y-102926887D01*
X113438188Y-102827736D01*
X113487031Y-102736356D01*
X113552762Y-102656262D01*
X113632856Y-102590531D01*
X113724235Y-102541688D01*
X113823386Y-102511611D01*
X113926500Y-102501455D01*
X114029613Y-102511611D01*
G37*
G36*
X112227500Y-104506000D02*
G01*
X110625500Y-104506000D01*
X110625500Y-102504000D01*
X112227500Y-102504000D01*
X112227500Y-104506000D01*
G37*
G36*
X110227500Y-104506000D02*
G01*
X108625500Y-104506000D01*
X108625500Y-102504000D01*
X110227500Y-102504000D01*
X110227500Y-104506000D01*
G37*
G36*
X156805795Y-101790156D02*
G01*
X156912150Y-101811311D01*
X157012334Y-101852809D01*
X157112520Y-101894307D01*
X157292844Y-102014795D01*
X157446205Y-102168156D01*
X157566693Y-102348480D01*
X157566693Y-102348481D01*
X157646723Y-102541689D01*
X157649689Y-102548851D01*
X157692000Y-102761560D01*
X157692000Y-102978440D01*
X157649689Y-103191149D01*
X157566693Y-103391520D01*
X157446205Y-103571844D01*
X157292844Y-103725205D01*
X157112520Y-103845693D01*
X156912150Y-103928689D01*
X156805794Y-103949845D01*
X156699440Y-103971000D01*
X156482560Y-103971000D01*
X156376206Y-103949845D01*
X156269850Y-103928689D01*
X156069480Y-103845693D01*
X155889156Y-103725205D01*
X155735795Y-103571844D01*
X155615307Y-103391520D01*
X155532311Y-103191149D01*
X155490000Y-102978440D01*
X155490000Y-102761560D01*
X155532311Y-102548851D01*
X155535278Y-102541689D01*
X155615307Y-102348481D01*
X155615307Y-102348480D01*
X155735795Y-102168156D01*
X155889156Y-102014795D01*
X156069480Y-101894307D01*
X156169666Y-101852809D01*
X156269850Y-101811311D01*
X156376206Y-101790155D01*
X156482560Y-101769000D01*
X156699440Y-101769000D01*
X156805795Y-101790156D01*
G37*
G36*
X92543794Y-101663155D02*
G01*
X92650150Y-101684311D01*
X92733539Y-101718852D01*
X92850520Y-101767307D01*
X93030844Y-101887795D01*
X93184205Y-102041156D01*
X93304693Y-102221480D01*
X93387689Y-102421851D01*
X93430000Y-102634560D01*
X93430000Y-102851440D01*
X93387689Y-103064149D01*
X93304693Y-103264520D01*
X93184205Y-103444844D01*
X93030844Y-103598205D01*
X92850520Y-103718693D01*
X92750334Y-103760191D01*
X92650150Y-103801689D01*
X92543795Y-103822844D01*
X92437440Y-103844000D01*
X92220560Y-103844000D01*
X92114205Y-103822844D01*
X92007850Y-103801689D01*
X91807480Y-103718693D01*
X91627156Y-103598205D01*
X91473795Y-103444844D01*
X91353307Y-103264520D01*
X91270311Y-103064149D01*
X91228000Y-102851440D01*
X91228000Y-102634560D01*
X91270311Y-102421851D01*
X91353307Y-102221480D01*
X91473795Y-102041156D01*
X91627156Y-101887795D01*
X91807480Y-101767307D01*
X91924461Y-101718852D01*
X92007850Y-101684311D01*
X92114205Y-101663156D01*
X92220560Y-101642000D01*
X92437440Y-101642000D01*
X92543794Y-101663155D01*
G37*
G36*
X117866000Y-101766000D02*
G01*
X115464000Y-101766000D01*
X115464000Y-100164000D01*
X117866000Y-100164000D01*
X117866000Y-101766000D01*
G37*
G36*
X134726000Y-101766000D02*
G01*
X132324000Y-101766000D01*
X132324000Y-100164000D01*
X134726000Y-100164000D01*
X134726000Y-101766000D01*
G37*
G36*
X124566000Y-101766000D02*
G01*
X122164000Y-101766000D01*
X122164000Y-100164000D01*
X124566000Y-100164000D01*
X124566000Y-101766000D01*
G37*
G36*
X128026000Y-101766000D02*
G01*
X125624000Y-101766000D01*
X125624000Y-100164000D01*
X128026000Y-100164000D01*
X128026000Y-101766000D01*
G37*
G36*
X139768562Y-99916181D02*
G01*
X139803481Y-99926774D01*
X139835663Y-99943976D01*
X139863873Y-99967127D01*
X139887024Y-99995337D01*
X139904226Y-100027519D01*
X139914819Y-100062438D01*
X139919000Y-100104895D01*
X139919000Y-101571105D01*
X139914819Y-101613562D01*
X139904226Y-101648481D01*
X139887024Y-101680663D01*
X139863873Y-101708873D01*
X139835663Y-101732024D01*
X139803481Y-101749226D01*
X139768562Y-101759819D01*
X139726105Y-101764000D01*
X138584895Y-101764000D01*
X138542438Y-101759819D01*
X138507519Y-101749226D01*
X138475337Y-101732024D01*
X138447127Y-101708873D01*
X138423976Y-101680663D01*
X138406774Y-101648481D01*
X138396181Y-101613562D01*
X138392000Y-101571105D01*
X138392000Y-100104895D01*
X138396181Y-100062438D01*
X138406774Y-100027519D01*
X138423976Y-99995337D01*
X138447127Y-99967127D01*
X138475337Y-99943976D01*
X138507519Y-99926774D01*
X138542438Y-99916181D01*
X138584895Y-99912000D01*
X139726105Y-99912000D01*
X139768562Y-99916181D01*
G37*
G36*
X136793562Y-99916181D02*
G01*
X136828481Y-99926774D01*
X136860663Y-99943976D01*
X136888873Y-99967127D01*
X136912024Y-99995337D01*
X136929226Y-100027519D01*
X136939819Y-100062438D01*
X136944000Y-100104895D01*
X136944000Y-101571105D01*
X136939819Y-101613562D01*
X136929226Y-101648481D01*
X136912024Y-101680663D01*
X136888873Y-101708873D01*
X136860663Y-101732024D01*
X136828481Y-101749226D01*
X136793562Y-101759819D01*
X136751105Y-101764000D01*
X135609895Y-101764000D01*
X135567438Y-101759819D01*
X135532519Y-101749226D01*
X135500337Y-101732024D01*
X135472127Y-101708873D01*
X135448976Y-101680663D01*
X135431774Y-101648481D01*
X135421181Y-101613562D01*
X135417000Y-101571105D01*
X135417000Y-100104895D01*
X135421181Y-100062438D01*
X135431774Y-100027519D01*
X135448976Y-99995337D01*
X135472127Y-99967127D01*
X135500337Y-99943976D01*
X135532519Y-99926774D01*
X135567438Y-99916181D01*
X135609895Y-99912000D01*
X136751105Y-99912000D01*
X136793562Y-99916181D01*
G37*
G36*
X111977500Y-100713601D02*
G01*
X111979902Y-100737987D01*
X111987015Y-100761436D01*
X111998566Y-100783047D01*
X112014111Y-100801989D01*
X112017780Y-100805000D01*
X112014112Y-100808011D01*
X111998566Y-100826953D01*
X111987015Y-100848564D01*
X111979902Y-100872012D01*
X111977500Y-100896399D01*
X111977500Y-101556000D01*
X108875500Y-101556000D01*
X108875500Y-100896399D01*
X108873098Y-100872013D01*
X108865985Y-100848564D01*
X108854434Y-100826953D01*
X108838889Y-100808011D01*
X108835220Y-100805000D01*
X108838888Y-100801989D01*
X108854434Y-100783047D01*
X108865985Y-100761436D01*
X108873098Y-100737988D01*
X108875500Y-100713601D01*
X108875500Y-100104000D01*
X111977500Y-100104000D01*
X111977500Y-100713601D01*
G37*
G36*
X108130973Y-100130938D02*
G01*
X108258549Y-100183782D01*
X108373359Y-100260495D01*
X108471005Y-100358141D01*
X108547718Y-100472951D01*
X108600562Y-100600527D01*
X108627904Y-100737987D01*
X108635017Y-100761436D01*
X108646568Y-100783046D01*
X108662113Y-100801988D01*
X108665782Y-100805000D01*
X108662113Y-100808011D01*
X108646568Y-100826953D01*
X108635017Y-100848564D01*
X108627904Y-100872013D01*
X108600562Y-101009473D01*
X108547718Y-101137049D01*
X108471005Y-101251859D01*
X108373359Y-101349505D01*
X108258549Y-101426218D01*
X108130973Y-101479062D01*
X107995544Y-101506000D01*
X107857456Y-101506000D01*
X107722027Y-101479062D01*
X107594451Y-101426218D01*
X107479641Y-101349505D01*
X107381995Y-101251859D01*
X107305282Y-101137049D01*
X107252438Y-101009473D01*
X107225500Y-100874044D01*
X107225500Y-100735956D01*
X107252438Y-100600527D01*
X107305282Y-100472951D01*
X107381995Y-100358141D01*
X107479641Y-100260495D01*
X107594451Y-100183782D01*
X107722027Y-100130938D01*
X107857456Y-100104000D01*
X107995544Y-100104000D01*
X108130973Y-100130938D01*
G37*
G36*
X113130973Y-100130938D02*
G01*
X113258549Y-100183782D01*
X113373359Y-100260495D01*
X113471005Y-100358141D01*
X113547718Y-100472951D01*
X113600562Y-100600527D01*
X113627500Y-100735956D01*
X113627500Y-100874044D01*
X113600562Y-101009473D01*
X113547718Y-101137049D01*
X113471005Y-101251859D01*
X113373359Y-101349505D01*
X113258549Y-101426218D01*
X113130973Y-101479062D01*
X112995544Y-101506000D01*
X112857456Y-101506000D01*
X112722027Y-101479062D01*
X112594451Y-101426218D01*
X112479641Y-101349505D01*
X112381995Y-101251859D01*
X112305282Y-101137049D01*
X112252438Y-101009473D01*
X112225096Y-100872013D01*
X112217983Y-100848564D01*
X112206432Y-100826954D01*
X112190887Y-100808012D01*
X112187218Y-100805000D01*
X112190887Y-100801989D01*
X112206432Y-100783047D01*
X112217983Y-100761436D01*
X112225096Y-100737987D01*
X112252438Y-100600527D01*
X112305282Y-100472951D01*
X112381995Y-100358141D01*
X112479641Y-100260495D01*
X112594451Y-100183782D01*
X112722027Y-100130938D01*
X112857456Y-100104000D01*
X112995544Y-100104000D01*
X113130973Y-100130938D01*
G37*
G36*
X146626562Y-99408181D02*
G01*
X146661481Y-99418774D01*
X146693663Y-99435976D01*
X146721873Y-99459127D01*
X146745024Y-99487337D01*
X146762226Y-99519519D01*
X146772819Y-99554438D01*
X146777000Y-99596895D01*
X146777000Y-101063105D01*
X146772819Y-101105562D01*
X146762226Y-101140481D01*
X146745024Y-101172663D01*
X146721873Y-101200873D01*
X146693663Y-101224024D01*
X146661481Y-101241226D01*
X146626562Y-101251819D01*
X146584105Y-101256000D01*
X145442895Y-101256000D01*
X145400438Y-101251819D01*
X145365519Y-101241226D01*
X145333337Y-101224024D01*
X145305127Y-101200873D01*
X145281976Y-101172663D01*
X145264774Y-101140481D01*
X145254181Y-101105562D01*
X145250000Y-101063105D01*
X145250000Y-99596895D01*
X145254181Y-99554438D01*
X145264774Y-99519519D01*
X145281976Y-99487337D01*
X145305127Y-99459127D01*
X145333337Y-99435976D01*
X145365519Y-99418774D01*
X145400438Y-99408181D01*
X145442895Y-99404000D01*
X146584105Y-99404000D01*
X146626562Y-99408181D01*
G37*
G36*
X143651562Y-99408181D02*
G01*
X143686481Y-99418774D01*
X143718663Y-99435976D01*
X143746873Y-99459127D01*
X143770024Y-99487337D01*
X143787226Y-99519519D01*
X143797819Y-99554438D01*
X143802000Y-99596895D01*
X143802000Y-101063105D01*
X143797819Y-101105562D01*
X143787226Y-101140481D01*
X143770024Y-101172663D01*
X143746873Y-101200873D01*
X143718663Y-101224024D01*
X143686481Y-101241226D01*
X143651562Y-101251819D01*
X143609105Y-101256000D01*
X142467895Y-101256000D01*
X142425438Y-101251819D01*
X142390519Y-101241226D01*
X142358337Y-101224024D01*
X142330127Y-101200873D01*
X142306976Y-101172663D01*
X142289774Y-101140481D01*
X142279181Y-101105562D01*
X142275000Y-101063105D01*
X142275000Y-99596895D01*
X142279181Y-99554438D01*
X142289774Y-99519519D01*
X142306976Y-99487337D01*
X142330127Y-99459127D01*
X142358337Y-99435976D01*
X142390519Y-99418774D01*
X142425438Y-99408181D01*
X142467895Y-99404000D01*
X143609105Y-99404000D01*
X143651562Y-99408181D01*
G37*
G36*
X105478562Y-98074681D02*
G01*
X105513481Y-98085274D01*
X105545663Y-98102476D01*
X105573873Y-98125627D01*
X105597024Y-98153837D01*
X105614226Y-98186019D01*
X105624819Y-98220938D01*
X105629000Y-98263395D01*
X105629000Y-99729605D01*
X105624819Y-99772062D01*
X105614226Y-99806981D01*
X105597024Y-99839163D01*
X105573873Y-99867373D01*
X105545663Y-99890524D01*
X105513481Y-99907726D01*
X105478562Y-99918319D01*
X105436105Y-99922500D01*
X104294895Y-99922500D01*
X104252438Y-99918319D01*
X104217519Y-99907726D01*
X104185337Y-99890524D01*
X104157127Y-99867373D01*
X104133976Y-99839163D01*
X104116774Y-99806981D01*
X104106181Y-99772062D01*
X104102000Y-99729605D01*
X104102000Y-98263395D01*
X104106181Y-98220938D01*
X104116774Y-98186019D01*
X104133976Y-98153837D01*
X104157127Y-98125627D01*
X104185337Y-98102476D01*
X104217519Y-98085274D01*
X104252438Y-98074681D01*
X104294895Y-98070500D01*
X105436105Y-98070500D01*
X105478562Y-98074681D01*
G37*
G36*
X97423562Y-98074681D02*
G01*
X97458481Y-98085274D01*
X97490663Y-98102476D01*
X97518873Y-98125627D01*
X97542024Y-98153837D01*
X97559226Y-98186019D01*
X97569819Y-98220938D01*
X97574000Y-98263395D01*
X97574000Y-99729605D01*
X97569819Y-99772062D01*
X97559226Y-99806981D01*
X97542024Y-99839163D01*
X97518873Y-99867373D01*
X97490663Y-99890524D01*
X97458481Y-99907726D01*
X97423562Y-99918319D01*
X97381105Y-99922500D01*
X96239895Y-99922500D01*
X96197438Y-99918319D01*
X96162519Y-99907726D01*
X96130337Y-99890524D01*
X96102127Y-99867373D01*
X96078976Y-99839163D01*
X96061774Y-99806981D01*
X96051181Y-99772062D01*
X96047000Y-99729605D01*
X96047000Y-98263395D01*
X96051181Y-98220938D01*
X96061774Y-98186019D01*
X96078976Y-98153837D01*
X96102127Y-98125627D01*
X96130337Y-98102476D01*
X96162519Y-98085274D01*
X96197438Y-98074681D01*
X96239895Y-98070500D01*
X97381105Y-98070500D01*
X97423562Y-98074681D01*
G37*
G36*
X100398562Y-98074681D02*
G01*
X100433481Y-98085274D01*
X100465663Y-98102476D01*
X100493873Y-98125627D01*
X100517024Y-98153837D01*
X100534226Y-98186019D01*
X100544819Y-98220938D01*
X100549000Y-98263395D01*
X100549000Y-99729605D01*
X100544819Y-99772062D01*
X100534226Y-99806981D01*
X100517024Y-99839163D01*
X100493873Y-99867373D01*
X100465663Y-99890524D01*
X100433481Y-99907726D01*
X100398562Y-99918319D01*
X100356105Y-99922500D01*
X99214895Y-99922500D01*
X99172438Y-99918319D01*
X99137519Y-99907726D01*
X99105337Y-99890524D01*
X99077127Y-99867373D01*
X99053976Y-99839163D01*
X99036774Y-99806981D01*
X99026181Y-99772062D01*
X99022000Y-99729605D01*
X99022000Y-98263395D01*
X99026181Y-98220938D01*
X99036774Y-98186019D01*
X99053976Y-98153837D01*
X99077127Y-98125627D01*
X99105337Y-98102476D01*
X99137519Y-98085274D01*
X99172438Y-98074681D01*
X99214895Y-98070500D01*
X100356105Y-98070500D01*
X100398562Y-98074681D01*
G37*
G36*
X102503562Y-98074681D02*
G01*
X102538481Y-98085274D01*
X102570663Y-98102476D01*
X102598873Y-98125627D01*
X102622024Y-98153837D01*
X102639226Y-98186019D01*
X102649819Y-98220938D01*
X102654000Y-98263395D01*
X102654000Y-99729605D01*
X102649819Y-99772062D01*
X102639226Y-99806981D01*
X102622024Y-99839163D01*
X102598873Y-99867373D01*
X102570663Y-99890524D01*
X102538481Y-99907726D01*
X102503562Y-99918319D01*
X102461105Y-99922500D01*
X101319895Y-99922500D01*
X101277438Y-99918319D01*
X101242519Y-99907726D01*
X101210337Y-99890524D01*
X101182127Y-99867373D01*
X101158976Y-99839163D01*
X101141774Y-99806981D01*
X101131181Y-99772062D01*
X101127000Y-99729605D01*
X101127000Y-98263395D01*
X101131181Y-98220938D01*
X101141774Y-98186019D01*
X101158976Y-98153837D01*
X101182127Y-98125627D01*
X101210337Y-98102476D01*
X101242519Y-98085274D01*
X101277438Y-98074681D01*
X101319895Y-98070500D01*
X102461105Y-98070500D01*
X102503562Y-98074681D01*
G37*
G36*
X136793562Y-97376181D02*
G01*
X136828481Y-97386774D01*
X136860663Y-97403976D01*
X136888873Y-97427127D01*
X136912024Y-97455337D01*
X136929226Y-97487519D01*
X136939819Y-97522438D01*
X136944000Y-97564895D01*
X136944000Y-99031105D01*
X136939819Y-99073562D01*
X136929226Y-99108481D01*
X136912024Y-99140663D01*
X136888873Y-99168873D01*
X136860663Y-99192024D01*
X136828481Y-99209226D01*
X136793562Y-99219819D01*
X136751105Y-99224000D01*
X135609895Y-99224000D01*
X135567438Y-99219819D01*
X135532519Y-99209226D01*
X135500337Y-99192024D01*
X135472127Y-99168873D01*
X135448976Y-99140663D01*
X135431774Y-99108481D01*
X135421181Y-99073562D01*
X135417000Y-99031105D01*
X135417000Y-97564895D01*
X135421181Y-97522438D01*
X135431774Y-97487519D01*
X135448976Y-97455337D01*
X135472127Y-97427127D01*
X135500337Y-97403976D01*
X135532519Y-97386774D01*
X135567438Y-97376181D01*
X135609895Y-97372000D01*
X136751105Y-97372000D01*
X136793562Y-97376181D01*
G37*
G36*
X139768562Y-97376181D02*
G01*
X139803481Y-97386774D01*
X139835663Y-97403976D01*
X139863873Y-97427127D01*
X139887024Y-97455337D01*
X139904226Y-97487519D01*
X139914819Y-97522438D01*
X139919000Y-97564895D01*
X139919000Y-99031105D01*
X139914819Y-99073562D01*
X139904226Y-99108481D01*
X139887024Y-99140663D01*
X139863873Y-99168873D01*
X139835663Y-99192024D01*
X139803481Y-99209226D01*
X139768562Y-99219819D01*
X139726105Y-99224000D01*
X138584895Y-99224000D01*
X138542438Y-99219819D01*
X138507519Y-99209226D01*
X138475337Y-99192024D01*
X138447127Y-99168873D01*
X138423976Y-99140663D01*
X138406774Y-99108481D01*
X138396181Y-99073562D01*
X138392000Y-99031105D01*
X138392000Y-97564895D01*
X138396181Y-97522438D01*
X138406774Y-97487519D01*
X138423976Y-97455337D01*
X138447127Y-97427127D01*
X138475337Y-97403976D01*
X138507519Y-97386774D01*
X138542438Y-97376181D01*
X138584895Y-97372000D01*
X139726105Y-97372000D01*
X139768562Y-97376181D01*
G37*
G36*
X113869562Y-96741181D02*
G01*
X113904481Y-96751774D01*
X113936663Y-96768976D01*
X113964873Y-96792127D01*
X113988024Y-96820337D01*
X114005226Y-96852519D01*
X114015819Y-96887438D01*
X114020000Y-96929895D01*
X114020000Y-98396105D01*
X114015819Y-98438562D01*
X114005226Y-98473481D01*
X113988024Y-98505663D01*
X113964873Y-98533873D01*
X113936663Y-98557024D01*
X113904481Y-98574226D01*
X113869562Y-98584819D01*
X113827105Y-98589000D01*
X112685895Y-98589000D01*
X112643438Y-98584819D01*
X112608519Y-98574226D01*
X112576337Y-98557024D01*
X112548127Y-98533873D01*
X112524976Y-98505663D01*
X112507774Y-98473481D01*
X112497181Y-98438562D01*
X112493000Y-98396105D01*
X112493000Y-96929895D01*
X112497181Y-96887438D01*
X112507774Y-96852519D01*
X112524976Y-96820337D01*
X112548127Y-96792127D01*
X112576337Y-96768976D01*
X112608519Y-96751774D01*
X112643438Y-96741181D01*
X112685895Y-96737000D01*
X113827105Y-96737000D01*
X113869562Y-96741181D01*
G37*
G36*
X110894562Y-96741181D02*
G01*
X110929481Y-96751774D01*
X110961663Y-96768976D01*
X110989873Y-96792127D01*
X111013024Y-96820337D01*
X111030226Y-96852519D01*
X111040819Y-96887438D01*
X111045000Y-96929895D01*
X111045000Y-98396105D01*
X111040819Y-98438562D01*
X111030226Y-98473481D01*
X111013024Y-98505663D01*
X110989873Y-98533873D01*
X110961663Y-98557024D01*
X110929481Y-98574226D01*
X110894562Y-98584819D01*
X110852105Y-98589000D01*
X109710895Y-98589000D01*
X109668438Y-98584819D01*
X109633519Y-98574226D01*
X109601337Y-98557024D01*
X109573127Y-98533873D01*
X109549976Y-98505663D01*
X109532774Y-98473481D01*
X109522181Y-98438562D01*
X109518000Y-98396105D01*
X109518000Y-96929895D01*
X109522181Y-96887438D01*
X109532774Y-96852519D01*
X109549976Y-96820337D01*
X109573127Y-96792127D01*
X109601337Y-96768976D01*
X109633519Y-96751774D01*
X109668438Y-96741181D01*
X109710895Y-96737000D01*
X110852105Y-96737000D01*
X110894562Y-96741181D01*
G37*
G36*
X127821562Y-96487181D02*
G01*
X127856481Y-96497774D01*
X127888663Y-96514976D01*
X127916873Y-96538127D01*
X127940024Y-96566337D01*
X127957226Y-96598519D01*
X127967819Y-96633438D01*
X127972000Y-96675895D01*
X127972000Y-98142105D01*
X127967819Y-98184562D01*
X127957226Y-98219481D01*
X127940024Y-98251663D01*
X127916873Y-98279873D01*
X127888663Y-98303024D01*
X127856481Y-98320226D01*
X127821562Y-98330819D01*
X127779105Y-98335000D01*
X126637895Y-98335000D01*
X126595438Y-98330819D01*
X126560519Y-98320226D01*
X126528337Y-98303024D01*
X126500127Y-98279873D01*
X126476976Y-98251663D01*
X126459774Y-98219481D01*
X126449181Y-98184562D01*
X126445000Y-98142105D01*
X126445000Y-96675895D01*
X126449181Y-96633438D01*
X126459774Y-96598519D01*
X126476976Y-96566337D01*
X126500127Y-96538127D01*
X126528337Y-96514976D01*
X126560519Y-96497774D01*
X126595438Y-96487181D01*
X126637895Y-96483000D01*
X127779105Y-96483000D01*
X127821562Y-96487181D01*
G37*
G36*
X124846562Y-96487181D02*
G01*
X124881481Y-96497774D01*
X124913663Y-96514976D01*
X124941873Y-96538127D01*
X124965024Y-96566337D01*
X124982226Y-96598519D01*
X124992819Y-96633438D01*
X124997000Y-96675895D01*
X124997000Y-98142105D01*
X124992819Y-98184562D01*
X124982226Y-98219481D01*
X124965024Y-98251663D01*
X124941873Y-98279873D01*
X124913663Y-98303024D01*
X124881481Y-98320226D01*
X124846562Y-98330819D01*
X124804105Y-98335000D01*
X123662895Y-98335000D01*
X123620438Y-98330819D01*
X123585519Y-98320226D01*
X123553337Y-98303024D01*
X123525127Y-98279873D01*
X123501976Y-98251663D01*
X123484774Y-98219481D01*
X123474181Y-98184562D01*
X123470000Y-98142105D01*
X123470000Y-96675895D01*
X123474181Y-96633438D01*
X123484774Y-96598519D01*
X123501976Y-96566337D01*
X123525127Y-96538127D01*
X123553337Y-96514976D01*
X123585519Y-96497774D01*
X123620438Y-96487181D01*
X123662895Y-96483000D01*
X124804105Y-96483000D01*
X124846562Y-96487181D01*
G37*
G36*
X150901000Y-97927000D02*
G01*
X149299000Y-97927000D01*
X149299000Y-95825000D01*
X150901000Y-95825000D01*
X150901000Y-97927000D01*
G37*
G36*
X155501000Y-97927000D02*
G01*
X153899000Y-97927000D01*
X153899000Y-95825000D01*
X155501000Y-95825000D01*
X155501000Y-97927000D01*
G37*
G36*
X153201000Y-97927000D02*
G01*
X151599000Y-97927000D01*
X151599000Y-95825000D01*
X153201000Y-95825000D01*
X153201000Y-97927000D01*
G37*
G36*
X95517562Y-96014681D02*
G01*
X95552481Y-96025274D01*
X95584663Y-96042476D01*
X95612873Y-96065627D01*
X95636024Y-96093837D01*
X95653226Y-96126019D01*
X95663819Y-96160938D01*
X95668000Y-96203395D01*
X95668000Y-97344605D01*
X95663819Y-97387062D01*
X95653226Y-97421981D01*
X95636024Y-97454163D01*
X95612873Y-97482373D01*
X95584663Y-97505524D01*
X95552481Y-97522726D01*
X95517562Y-97533319D01*
X95475105Y-97537500D01*
X94008895Y-97537500D01*
X93966438Y-97533319D01*
X93931519Y-97522726D01*
X93899337Y-97505524D01*
X93871127Y-97482373D01*
X93847976Y-97454163D01*
X93830774Y-97421981D01*
X93820181Y-97387062D01*
X93816000Y-97344605D01*
X93816000Y-96203395D01*
X93820181Y-96160938D01*
X93830774Y-96126019D01*
X93847976Y-96093837D01*
X93871127Y-96065627D01*
X93899337Y-96042476D01*
X93931519Y-96025274D01*
X93966438Y-96014681D01*
X94008895Y-96010500D01*
X95475105Y-96010500D01*
X95517562Y-96014681D01*
G37*
G36*
X119520562Y-95978181D02*
G01*
X119555481Y-95988774D01*
X119587663Y-96005976D01*
X119615873Y-96029127D01*
X119639024Y-96057337D01*
X119656226Y-96089519D01*
X119666819Y-96124438D01*
X119671000Y-96166895D01*
X119671000Y-97308105D01*
X119666819Y-97350562D01*
X119656226Y-97385481D01*
X119639024Y-97417663D01*
X119615873Y-97445873D01*
X119587663Y-97469024D01*
X119555481Y-97486226D01*
X119520562Y-97496819D01*
X119478105Y-97501000D01*
X118011895Y-97501000D01*
X117969438Y-97496819D01*
X117934519Y-97486226D01*
X117902337Y-97469024D01*
X117874127Y-97445873D01*
X117850976Y-97417663D01*
X117833774Y-97385481D01*
X117823181Y-97350562D01*
X117819000Y-97308105D01*
X117819000Y-96166895D01*
X117823181Y-96124438D01*
X117833774Y-96089519D01*
X117850976Y-96057337D01*
X117874127Y-96029127D01*
X117902337Y-96005976D01*
X117934519Y-95988774D01*
X117969438Y-95978181D01*
X118011895Y-95974000D01*
X119478105Y-95974000D01*
X119520562Y-95978181D01*
G37*
G36*
X97936564Y-93604389D02*
G01*
X98121667Y-93681061D01*
X98127835Y-93683616D01*
X98268538Y-93777631D01*
X98299973Y-93798635D01*
X98446365Y-93945027D01*
X98561385Y-94117167D01*
X98640611Y-94308436D01*
X98681000Y-94511484D01*
X98681000Y-94718516D01*
X98640611Y-94921564D01*
X98561385Y-95112833D01*
X98561384Y-95112835D01*
X98446365Y-95284973D01*
X98299973Y-95431365D01*
X98127835Y-95546384D01*
X98127834Y-95546385D01*
X98127833Y-95546385D01*
X97936564Y-95625611D01*
X97733516Y-95666000D01*
X97526484Y-95666000D01*
X97323436Y-95625611D01*
X97132167Y-95546385D01*
X97132166Y-95546385D01*
X97132165Y-95546384D01*
X96960027Y-95431365D01*
X96813635Y-95284973D01*
X96698616Y-95112835D01*
X96698615Y-95112833D01*
X96619389Y-94921564D01*
X96579000Y-94718516D01*
X96579000Y-94511484D01*
X96619389Y-94308436D01*
X96698615Y-94117167D01*
X96813635Y-93945027D01*
X96960027Y-93798635D01*
X96991462Y-93777631D01*
X97132165Y-93683616D01*
X97138333Y-93681061D01*
X97323436Y-93604389D01*
X97526484Y-93564000D01*
X97733516Y-93564000D01*
X97936564Y-93604389D01*
G37*
G36*
X106621000Y-95666000D02*
G01*
X104519000Y-95666000D01*
X104519000Y-93564000D01*
X106621000Y-93564000D01*
X106621000Y-95666000D01*
G37*
G36*
X143942062Y-93566181D02*
G01*
X143976981Y-93576774D01*
X144009163Y-93593976D01*
X144037373Y-93617127D01*
X144060524Y-93645337D01*
X144077726Y-93677519D01*
X144088319Y-93712438D01*
X144092500Y-93754895D01*
X144092500Y-95221105D01*
X144088319Y-95263562D01*
X144077726Y-95298481D01*
X144060524Y-95330663D01*
X144037373Y-95358873D01*
X144009163Y-95382024D01*
X143976981Y-95399226D01*
X143942062Y-95409819D01*
X143899605Y-95414000D01*
X142758395Y-95414000D01*
X142715938Y-95409819D01*
X142681019Y-95399226D01*
X142648837Y-95382024D01*
X142620627Y-95358873D01*
X142597476Y-95330663D01*
X142580274Y-95298481D01*
X142569681Y-95263562D01*
X142565500Y-95221105D01*
X142565500Y-93754895D01*
X142569681Y-93712438D01*
X142580274Y-93677519D01*
X142597476Y-93645337D01*
X142620627Y-93617127D01*
X142648837Y-93593976D01*
X142681019Y-93576774D01*
X142715938Y-93566181D01*
X142758395Y-93562000D01*
X143899605Y-93562000D01*
X143942062Y-93566181D01*
G37*
G36*
X146917062Y-93566181D02*
G01*
X146951981Y-93576774D01*
X146984163Y-93593976D01*
X147012373Y-93617127D01*
X147035524Y-93645337D01*
X147052726Y-93677519D01*
X147063319Y-93712438D01*
X147067500Y-93754895D01*
X147067500Y-95221105D01*
X147063319Y-95263562D01*
X147052726Y-95298481D01*
X147035524Y-95330663D01*
X147012373Y-95358873D01*
X146984163Y-95382024D01*
X146951981Y-95399226D01*
X146917062Y-95409819D01*
X146874605Y-95414000D01*
X145733395Y-95414000D01*
X145690938Y-95409819D01*
X145656019Y-95399226D01*
X145623837Y-95382024D01*
X145595627Y-95358873D01*
X145572476Y-95330663D01*
X145555274Y-95298481D01*
X145544681Y-95263562D01*
X145540500Y-95221105D01*
X145540500Y-93754895D01*
X145544681Y-93712438D01*
X145555274Y-93677519D01*
X145572476Y-93645337D01*
X145595627Y-93617127D01*
X145623837Y-93593976D01*
X145656019Y-93576774D01*
X145690938Y-93566181D01*
X145733395Y-93562000D01*
X146874605Y-93562000D01*
X146917062Y-93566181D01*
G37*
G36*
X126231000Y-95216000D02*
G01*
X125229000Y-95216000D01*
X125229000Y-93114000D01*
X126231000Y-93114000D01*
X126231000Y-95216000D01*
G37*
G36*
X131311000Y-95216000D02*
G01*
X130309000Y-95216000D01*
X130309000Y-93114000D01*
X131311000Y-93114000D01*
X131311000Y-95216000D01*
G37*
G36*
X127501000Y-95216000D02*
G01*
X126499000Y-95216000D01*
X126499000Y-93114000D01*
X127501000Y-93114000D01*
X127501000Y-95216000D01*
G37*
G36*
X128771000Y-95216000D02*
G01*
X127769000Y-95216000D01*
X127769000Y-93114000D01*
X128771000Y-93114000D01*
X128771000Y-95216000D01*
G37*
G36*
X130041000Y-95216000D02*
G01*
X129039000Y-95216000D01*
X129039000Y-93114000D01*
X130041000Y-93114000D01*
X130041000Y-95216000D01*
G37*
G36*
X132581000Y-95216000D02*
G01*
X131579000Y-95216000D01*
X131579000Y-93114000D01*
X132581000Y-93114000D01*
X132581000Y-95216000D01*
G37*
G36*
X133851000Y-95216000D02*
G01*
X132849000Y-95216000D01*
X132849000Y-93114000D01*
X133851000Y-93114000D01*
X133851000Y-95216000D01*
G37*
G36*
X135121000Y-95216000D02*
G01*
X134119000Y-95216000D01*
X134119000Y-93114000D01*
X135121000Y-93114000D01*
X135121000Y-95216000D01*
G37*
G36*
X136391000Y-95216000D02*
G01*
X135389000Y-95216000D01*
X135389000Y-93114000D01*
X136391000Y-93114000D01*
X136391000Y-95216000D01*
G37*
G36*
X137661000Y-95216000D02*
G01*
X136659000Y-95216000D01*
X136659000Y-93114000D01*
X137661000Y-93114000D01*
X137661000Y-95216000D01*
G37*
G36*
X95517562Y-93039681D02*
G01*
X95552481Y-93050274D01*
X95584663Y-93067476D01*
X95612873Y-93090627D01*
X95636024Y-93118837D01*
X95653226Y-93151019D01*
X95663819Y-93185938D01*
X95668000Y-93228395D01*
X95668000Y-94369605D01*
X95663819Y-94412062D01*
X95653226Y-94446981D01*
X95636024Y-94479163D01*
X95612873Y-94507373D01*
X95584663Y-94530524D01*
X95552481Y-94547726D01*
X95517562Y-94558319D01*
X95475105Y-94562500D01*
X94008895Y-94562500D01*
X93966438Y-94558319D01*
X93931519Y-94547726D01*
X93899337Y-94530524D01*
X93871127Y-94507373D01*
X93847976Y-94479163D01*
X93830774Y-94446981D01*
X93820181Y-94412062D01*
X93816000Y-94369605D01*
X93816000Y-93228395D01*
X93820181Y-93185938D01*
X93830774Y-93151019D01*
X93847976Y-93118837D01*
X93871127Y-93090627D01*
X93899337Y-93067476D01*
X93931519Y-93050274D01*
X93966438Y-93039681D01*
X94008895Y-93035500D01*
X95475105Y-93035500D01*
X95517562Y-93039681D01*
G37*
G36*
X119520562Y-93003181D02*
G01*
X119555481Y-93013774D01*
X119587663Y-93030976D01*
X119615873Y-93054127D01*
X119639024Y-93082337D01*
X119656226Y-93114519D01*
X119666819Y-93149438D01*
X119671000Y-93191895D01*
X119671000Y-94333105D01*
X119666819Y-94375562D01*
X119656226Y-94410481D01*
X119639024Y-94442663D01*
X119615873Y-94470873D01*
X119587663Y-94494024D01*
X119555481Y-94511226D01*
X119520562Y-94521819D01*
X119478105Y-94526000D01*
X118011895Y-94526000D01*
X117969438Y-94521819D01*
X117934519Y-94511226D01*
X117902337Y-94494024D01*
X117874127Y-94470873D01*
X117850976Y-94442663D01*
X117833774Y-94410481D01*
X117823181Y-94375562D01*
X117819000Y-94333105D01*
X117819000Y-93191895D01*
X117823181Y-93149438D01*
X117833774Y-93114519D01*
X117850976Y-93082337D01*
X117874127Y-93054127D01*
X117902337Y-93030976D01*
X117934519Y-93013774D01*
X117969438Y-93003181D01*
X118011895Y-92999000D01*
X119478105Y-92999000D01*
X119520562Y-93003181D01*
G37*
G36*
X115061000Y-93926000D02*
G01*
X113659000Y-93926000D01*
X113659000Y-92524000D01*
X115061000Y-92524000D01*
X115061000Y-93926000D01*
G37*
G36*
X123996000Y-93666000D02*
G01*
X121894000Y-93666000D01*
X121894000Y-92664000D01*
X123996000Y-92664000D01*
X123996000Y-93666000D01*
G37*
G36*
X140996000Y-93666000D02*
G01*
X138894000Y-93666000D01*
X138894000Y-92664000D01*
X140996000Y-92664000D01*
X140996000Y-93666000D01*
G37*
G36*
X97936564Y-91064389D02*
G01*
X98127833Y-91143615D01*
X98127835Y-91143616D01*
X98299973Y-91258635D01*
X98446365Y-91405027D01*
X98553673Y-91565624D01*
X98561385Y-91577167D01*
X98640611Y-91768436D01*
X98681000Y-91971484D01*
X98681000Y-92178516D01*
X98640611Y-92381564D01*
X98634631Y-92396000D01*
X98561384Y-92572835D01*
X98446365Y-92744973D01*
X98299973Y-92891365D01*
X98127835Y-93006384D01*
X98127834Y-93006385D01*
X98127833Y-93006385D01*
X97936564Y-93085611D01*
X97733516Y-93126000D01*
X97526484Y-93126000D01*
X97323436Y-93085611D01*
X97132167Y-93006385D01*
X97132166Y-93006385D01*
X97132165Y-93006384D01*
X96960027Y-92891365D01*
X96813635Y-92744973D01*
X96698616Y-92572835D01*
X96625369Y-92396000D01*
X96619389Y-92381564D01*
X96579000Y-92178516D01*
X96579000Y-91971484D01*
X96619389Y-91768436D01*
X96698615Y-91577167D01*
X96706328Y-91565624D01*
X96813635Y-91405027D01*
X96960027Y-91258635D01*
X97132165Y-91143616D01*
X97132167Y-91143615D01*
X97323436Y-91064389D01*
X97526484Y-91024000D01*
X97733516Y-91024000D01*
X97936564Y-91064389D01*
G37*
G36*
X105876564Y-91064389D02*
G01*
X106067833Y-91143615D01*
X106067835Y-91143616D01*
X106239973Y-91258635D01*
X106386365Y-91405027D01*
X106493673Y-91565624D01*
X106501385Y-91577167D01*
X106580611Y-91768436D01*
X106621000Y-91971484D01*
X106621000Y-92178516D01*
X106580611Y-92381564D01*
X106574631Y-92396000D01*
X106501384Y-92572835D01*
X106386365Y-92744973D01*
X106239973Y-92891365D01*
X106067835Y-93006384D01*
X106067834Y-93006385D01*
X106067833Y-93006385D01*
X105876564Y-93085611D01*
X105673516Y-93126000D01*
X105466484Y-93126000D01*
X105263436Y-93085611D01*
X105072167Y-93006385D01*
X105072166Y-93006385D01*
X105072165Y-93006384D01*
X104900027Y-92891365D01*
X104753635Y-92744973D01*
X104638616Y-92572835D01*
X104565369Y-92396000D01*
X104559389Y-92381564D01*
X104519000Y-92178516D01*
X104519000Y-91971484D01*
X104559389Y-91768436D01*
X104638615Y-91577167D01*
X104646328Y-91565624D01*
X104753635Y-91405027D01*
X104900027Y-91258635D01*
X105072165Y-91143616D01*
X105072167Y-91143615D01*
X105263436Y-91064389D01*
X105466484Y-91024000D01*
X105673516Y-91024000D01*
X105876564Y-91064389D01*
G37*
G36*
X109861000Y-93126000D02*
G01*
X108459000Y-93126000D01*
X108459000Y-91024000D01*
X109861000Y-91024000D01*
X109861000Y-93126000D01*
G37*
G36*
X140996000Y-92396000D02*
G01*
X138894000Y-92396000D01*
X138894000Y-91394000D01*
X140996000Y-91394000D01*
X140996000Y-92396000D01*
G37*
G36*
X123996000Y-92396000D02*
G01*
X121894000Y-92396000D01*
X121894000Y-91394000D01*
X123996000Y-91394000D01*
X123996000Y-92396000D01*
G37*
G36*
X95517562Y-90680681D02*
G01*
X95552481Y-90691274D01*
X95584663Y-90708476D01*
X95612873Y-90731627D01*
X95636024Y-90759837D01*
X95653226Y-90792019D01*
X95663819Y-90826938D01*
X95668000Y-90869395D01*
X95668000Y-92010605D01*
X95663819Y-92053062D01*
X95653226Y-92087981D01*
X95636024Y-92120163D01*
X95612873Y-92148373D01*
X95584663Y-92171524D01*
X95552481Y-92188726D01*
X95517562Y-92199319D01*
X95475105Y-92203500D01*
X94008895Y-92203500D01*
X93966438Y-92199319D01*
X93931519Y-92188726D01*
X93899337Y-92171524D01*
X93871127Y-92148373D01*
X93847976Y-92120163D01*
X93830774Y-92087981D01*
X93820181Y-92053062D01*
X93816000Y-92010605D01*
X93816000Y-90869395D01*
X93820181Y-90826938D01*
X93830774Y-90792019D01*
X93847976Y-90759837D01*
X93871127Y-90731627D01*
X93899337Y-90708476D01*
X93931519Y-90691274D01*
X93966438Y-90680681D01*
X94008895Y-90676500D01*
X95475105Y-90676500D01*
X95517562Y-90680681D01*
G37*
G36*
X143905562Y-89883181D02*
G01*
X143940481Y-89893774D01*
X143972663Y-89910976D01*
X144000873Y-89934127D01*
X144024024Y-89962337D01*
X144041226Y-89994519D01*
X144051819Y-90029438D01*
X144056000Y-90071895D01*
X144056000Y-91538105D01*
X144051819Y-91580562D01*
X144041226Y-91615481D01*
X144024024Y-91647663D01*
X144000873Y-91675873D01*
X143972663Y-91699024D01*
X143940481Y-91716226D01*
X143905562Y-91726819D01*
X143863105Y-91731000D01*
X142721895Y-91731000D01*
X142679438Y-91726819D01*
X142644519Y-91716226D01*
X142612337Y-91699024D01*
X142584127Y-91675873D01*
X142560976Y-91647663D01*
X142543774Y-91615481D01*
X142533181Y-91580562D01*
X142529000Y-91538105D01*
X142529000Y-90071895D01*
X142533181Y-90029438D01*
X142543774Y-89994519D01*
X142560976Y-89962337D01*
X142584127Y-89934127D01*
X142612337Y-89910976D01*
X142644519Y-89893774D01*
X142679438Y-89883181D01*
X142721895Y-89879000D01*
X143863105Y-89879000D01*
X143905562Y-89883181D01*
G37*
G36*
X146880562Y-89883181D02*
G01*
X146915481Y-89893774D01*
X146947663Y-89910976D01*
X146975873Y-89934127D01*
X146999024Y-89962337D01*
X147016226Y-89994519D01*
X147026819Y-90029438D01*
X147031000Y-90071895D01*
X147031000Y-91538105D01*
X147026819Y-91580562D01*
X147016226Y-91615481D01*
X146999024Y-91647663D01*
X146975873Y-91675873D01*
X146947663Y-91699024D01*
X146915481Y-91716226D01*
X146880562Y-91726819D01*
X146838105Y-91731000D01*
X145696895Y-91731000D01*
X145654438Y-91726819D01*
X145619519Y-91716226D01*
X145587337Y-91699024D01*
X145559127Y-91675873D01*
X145535976Y-91647663D01*
X145518774Y-91615481D01*
X145508181Y-91580562D01*
X145504000Y-91538105D01*
X145504000Y-90071895D01*
X145508181Y-90029438D01*
X145518774Y-89994519D01*
X145535976Y-89962337D01*
X145559127Y-89934127D01*
X145587337Y-89910976D01*
X145619519Y-89893774D01*
X145654438Y-89883181D01*
X145696895Y-89879000D01*
X146838105Y-89879000D01*
X146880562Y-89883181D01*
G37*
G36*
X154351000Y-91627000D02*
G01*
X150449000Y-91627000D01*
X150449000Y-89525000D01*
X154351000Y-89525000D01*
X154351000Y-91627000D01*
G37*
G36*
X115061000Y-91626000D02*
G01*
X113659000Y-91626000D01*
X113659000Y-90224000D01*
X115061000Y-90224000D01*
X115061000Y-91626000D01*
G37*
G36*
X140996000Y-91126000D02*
G01*
X138894000Y-91126000D01*
X138894000Y-90124000D01*
X140996000Y-90124000D01*
X140996000Y-91126000D01*
G37*
G36*
X123996000Y-91126000D02*
G01*
X121894000Y-91126000D01*
X121894000Y-90124000D01*
X123996000Y-90124000D01*
X123996000Y-91126000D01*
G37*
G36*
X97936564Y-88524389D02*
G01*
X98127833Y-88603615D01*
X98127835Y-88603616D01*
X98299973Y-88718635D01*
X98446365Y-88865027D01*
X98560342Y-89035605D01*
X98561385Y-89037167D01*
X98640611Y-89228436D01*
X98681000Y-89431484D01*
X98681000Y-89638516D01*
X98640611Y-89841564D01*
X98604161Y-89929562D01*
X98561384Y-90032835D01*
X98446365Y-90204973D01*
X98299973Y-90351365D01*
X98127835Y-90466384D01*
X98127834Y-90466385D01*
X98127833Y-90466385D01*
X97936564Y-90545611D01*
X97733516Y-90586000D01*
X97526484Y-90586000D01*
X97323436Y-90545611D01*
X97132167Y-90466385D01*
X97132166Y-90466385D01*
X97132165Y-90466384D01*
X96960027Y-90351365D01*
X96813635Y-90204973D01*
X96698616Y-90032835D01*
X96655839Y-89929562D01*
X96619389Y-89841564D01*
X96579000Y-89638516D01*
X96579000Y-89431484D01*
X96619389Y-89228436D01*
X96698615Y-89037167D01*
X96699659Y-89035605D01*
X96813635Y-88865027D01*
X96960027Y-88718635D01*
X97132165Y-88603616D01*
X97132167Y-88603615D01*
X97323436Y-88524389D01*
X97526484Y-88484000D01*
X97733516Y-88484000D01*
X97936564Y-88524389D01*
G37*
G36*
X105876564Y-88524389D02*
G01*
X106067833Y-88603615D01*
X106067835Y-88603616D01*
X106239973Y-88718635D01*
X106386365Y-88865027D01*
X106500342Y-89035605D01*
X106501385Y-89037167D01*
X106580611Y-89228436D01*
X106621000Y-89431484D01*
X106621000Y-89638516D01*
X106580611Y-89841564D01*
X106544161Y-89929562D01*
X106501384Y-90032835D01*
X106386365Y-90204973D01*
X106239973Y-90351365D01*
X106067835Y-90466384D01*
X106067834Y-90466385D01*
X106067833Y-90466385D01*
X105876564Y-90545611D01*
X105673516Y-90586000D01*
X105466484Y-90586000D01*
X105263436Y-90545611D01*
X105072167Y-90466385D01*
X105072166Y-90466385D01*
X105072165Y-90466384D01*
X104900027Y-90351365D01*
X104753635Y-90204973D01*
X104638616Y-90032835D01*
X104595839Y-89929562D01*
X104559389Y-89841564D01*
X104519000Y-89638516D01*
X104519000Y-89431484D01*
X104559389Y-89228436D01*
X104638615Y-89037167D01*
X104639659Y-89035605D01*
X104753635Y-88865027D01*
X104900027Y-88718635D01*
X105072165Y-88603616D01*
X105072167Y-88603615D01*
X105263436Y-88524389D01*
X105466484Y-88484000D01*
X105673516Y-88484000D01*
X105876564Y-88524389D01*
G37*
G36*
X117526062Y-88232181D02*
G01*
X117560981Y-88242774D01*
X117593163Y-88259976D01*
X117621373Y-88283127D01*
X117644524Y-88311337D01*
X117661726Y-88343519D01*
X117672319Y-88378438D01*
X117676500Y-88420895D01*
X117676500Y-89887105D01*
X117672319Y-89929562D01*
X117661726Y-89964481D01*
X117644524Y-89996663D01*
X117621373Y-90024873D01*
X117593163Y-90048024D01*
X117560981Y-90065226D01*
X117526062Y-90075819D01*
X117483605Y-90080000D01*
X116342395Y-90080000D01*
X116299938Y-90075819D01*
X116265019Y-90065226D01*
X116232837Y-90048024D01*
X116204627Y-90024873D01*
X116181476Y-89996663D01*
X116164274Y-89964481D01*
X116153681Y-89929562D01*
X116149500Y-89887105D01*
X116149500Y-88420895D01*
X116153681Y-88378438D01*
X116164274Y-88343519D01*
X116181476Y-88311337D01*
X116204627Y-88283127D01*
X116232837Y-88259976D01*
X116265019Y-88242774D01*
X116299938Y-88232181D01*
X116342395Y-88228000D01*
X117483605Y-88228000D01*
X117526062Y-88232181D01*
G37*
G36*
X120501062Y-88232181D02*
G01*
X120535981Y-88242774D01*
X120568163Y-88259976D01*
X120596373Y-88283127D01*
X120619524Y-88311337D01*
X120636726Y-88343519D01*
X120647319Y-88378438D01*
X120651500Y-88420895D01*
X120651500Y-89887105D01*
X120647319Y-89929562D01*
X120636726Y-89964481D01*
X120619524Y-89996663D01*
X120596373Y-90024873D01*
X120568163Y-90048024D01*
X120535981Y-90065226D01*
X120501062Y-90075819D01*
X120458605Y-90080000D01*
X119317395Y-90080000D01*
X119274938Y-90075819D01*
X119240019Y-90065226D01*
X119207837Y-90048024D01*
X119179627Y-90024873D01*
X119156476Y-89996663D01*
X119139274Y-89964481D01*
X119128681Y-89929562D01*
X119124500Y-89887105D01*
X119124500Y-88420895D01*
X119128681Y-88378438D01*
X119139274Y-88343519D01*
X119156476Y-88311337D01*
X119179627Y-88283127D01*
X119207837Y-88259976D01*
X119240019Y-88242774D01*
X119274938Y-88232181D01*
X119317395Y-88228000D01*
X120458605Y-88228000D01*
X120501062Y-88232181D01*
G37*
G36*
X123996000Y-89856000D02*
G01*
X121894000Y-89856000D01*
X121894000Y-88854000D01*
X123996000Y-88854000D01*
X123996000Y-89856000D01*
G37*
G36*
X140996000Y-89856000D02*
G01*
X138894000Y-89856000D01*
X138894000Y-88854000D01*
X140996000Y-88854000D01*
X140996000Y-89856000D01*
G37*
G36*
X95517562Y-87705681D02*
G01*
X95552481Y-87716274D01*
X95584663Y-87733476D01*
X95612873Y-87756627D01*
X95636024Y-87784837D01*
X95653226Y-87817019D01*
X95663819Y-87851938D01*
X95668000Y-87894395D01*
X95668000Y-89035605D01*
X95663819Y-89078062D01*
X95653226Y-89112981D01*
X95636024Y-89145163D01*
X95612873Y-89173373D01*
X95584663Y-89196524D01*
X95552481Y-89213726D01*
X95517562Y-89224319D01*
X95475105Y-89228500D01*
X94008895Y-89228500D01*
X93966438Y-89224319D01*
X93931519Y-89213726D01*
X93899337Y-89196524D01*
X93871127Y-89173373D01*
X93847976Y-89145163D01*
X93830774Y-89112981D01*
X93820181Y-89078062D01*
X93816000Y-89035605D01*
X93816000Y-87894395D01*
X93820181Y-87851938D01*
X93830774Y-87817019D01*
X93847976Y-87784837D01*
X93871127Y-87756627D01*
X93899337Y-87733476D01*
X93931519Y-87716274D01*
X93966438Y-87705681D01*
X94008895Y-87701500D01*
X95475105Y-87701500D01*
X95517562Y-87705681D01*
G37*
G36*
X140996000Y-88586000D02*
G01*
X138894000Y-88586000D01*
X138894000Y-87584000D01*
X140996000Y-87584000D01*
X140996000Y-88586000D01*
G37*
G36*
X123996000Y-88586000D02*
G01*
X121894000Y-88586000D01*
X121894000Y-87584000D01*
X123996000Y-87584000D01*
X123996000Y-88586000D01*
G37*
G36*
X105876564Y-85984389D02*
G01*
X106067833Y-86063615D01*
X106067835Y-86063616D01*
X106239973Y-86178635D01*
X106386365Y-86325027D01*
X106493673Y-86485624D01*
X106501385Y-86497167D01*
X106580611Y-86688436D01*
X106621000Y-86891484D01*
X106621000Y-87098516D01*
X106580611Y-87301564D01*
X106501385Y-87492833D01*
X106501384Y-87492835D01*
X106386365Y-87664973D01*
X106239973Y-87811365D01*
X106067835Y-87926384D01*
X106067834Y-87926385D01*
X106067833Y-87926385D01*
X105876564Y-88005611D01*
X105673516Y-88046000D01*
X105466484Y-88046000D01*
X105263436Y-88005611D01*
X105072167Y-87926385D01*
X105072166Y-87926385D01*
X105072165Y-87926384D01*
X104900027Y-87811365D01*
X104753635Y-87664973D01*
X104638616Y-87492835D01*
X104638615Y-87492833D01*
X104559389Y-87301564D01*
X104519000Y-87098516D01*
X104519000Y-86891484D01*
X104559389Y-86688436D01*
X104638615Y-86497167D01*
X104646328Y-86485624D01*
X104753635Y-86325027D01*
X104900027Y-86178635D01*
X105072165Y-86063616D01*
X105072167Y-86063615D01*
X105263436Y-85984389D01*
X105466484Y-85944000D01*
X105673516Y-85944000D01*
X105876564Y-85984389D01*
G37*
G36*
X97936564Y-85984389D02*
G01*
X98127833Y-86063615D01*
X98127835Y-86063616D01*
X98299973Y-86178635D01*
X98446365Y-86325027D01*
X98553673Y-86485624D01*
X98561385Y-86497167D01*
X98640611Y-86688436D01*
X98681000Y-86891484D01*
X98681000Y-87098516D01*
X98640611Y-87301564D01*
X98561385Y-87492833D01*
X98561384Y-87492835D01*
X98446365Y-87664973D01*
X98299973Y-87811365D01*
X98127835Y-87926384D01*
X98127834Y-87926385D01*
X98127833Y-87926385D01*
X97936564Y-88005611D01*
X97733516Y-88046000D01*
X97526484Y-88046000D01*
X97323436Y-88005611D01*
X97132167Y-87926385D01*
X97132166Y-87926385D01*
X97132165Y-87926384D01*
X96960027Y-87811365D01*
X96813635Y-87664973D01*
X96698616Y-87492835D01*
X96698615Y-87492833D01*
X96619389Y-87301564D01*
X96579000Y-87098516D01*
X96579000Y-86891484D01*
X96619389Y-86688436D01*
X96698615Y-86497167D01*
X96706328Y-86485624D01*
X96813635Y-86325027D01*
X96960027Y-86178635D01*
X97132165Y-86063616D01*
X97132167Y-86063615D01*
X97323436Y-85984389D01*
X97526484Y-85944000D01*
X97733516Y-85944000D01*
X97936564Y-85984389D01*
G37*
G36*
X155969562Y-86072181D02*
G01*
X156004481Y-86082774D01*
X156036663Y-86099976D01*
X156064873Y-86123127D01*
X156088024Y-86151337D01*
X156105226Y-86183519D01*
X156115819Y-86218438D01*
X156120000Y-86260895D01*
X156120000Y-87402105D01*
X156115819Y-87444562D01*
X156105226Y-87479481D01*
X156088024Y-87511663D01*
X156064873Y-87539873D01*
X156036663Y-87563024D01*
X156004481Y-87580226D01*
X155969562Y-87590819D01*
X155927105Y-87595000D01*
X154460895Y-87595000D01*
X154418438Y-87590819D01*
X154383519Y-87580226D01*
X154351337Y-87563024D01*
X154323127Y-87539873D01*
X154299976Y-87511663D01*
X154282774Y-87479481D01*
X154272181Y-87444562D01*
X154268000Y-87402105D01*
X154268000Y-86260895D01*
X154272181Y-86218438D01*
X154282774Y-86183519D01*
X154299976Y-86151337D01*
X154323127Y-86123127D01*
X154351337Y-86099976D01*
X154383519Y-86082774D01*
X154418438Y-86072181D01*
X154460895Y-86068000D01*
X155927105Y-86068000D01*
X155969562Y-86072181D01*
G37*
G36*
X150911000Y-87411000D02*
G01*
X148809000Y-87411000D01*
X148809000Y-85309000D01*
X150911000Y-85309000D01*
X150911000Y-87411000D01*
G37*
G36*
X146466000Y-87411000D02*
G01*
X144364000Y-87411000D01*
X144364000Y-85309000D01*
X146466000Y-85309000D01*
X146466000Y-87411000D01*
G37*
G36*
X140996000Y-87316000D02*
G01*
X138894000Y-87316000D01*
X138894000Y-86314000D01*
X140996000Y-86314000D01*
X140996000Y-87316000D01*
G37*
G36*
X123996000Y-87316000D02*
G01*
X121894000Y-87316000D01*
X121894000Y-86314000D01*
X123996000Y-86314000D01*
X123996000Y-87316000D01*
G37*
G36*
X120845562Y-84803181D02*
G01*
X120880481Y-84813774D01*
X120912663Y-84830976D01*
X120940873Y-84854127D01*
X120964024Y-84882337D01*
X120981226Y-84914519D01*
X120991819Y-84949438D01*
X120996000Y-84991895D01*
X120996000Y-86458105D01*
X120991819Y-86500562D01*
X120981226Y-86535481D01*
X120964024Y-86567663D01*
X120940873Y-86595873D01*
X120912663Y-86619024D01*
X120880481Y-86636226D01*
X120845562Y-86646819D01*
X120803105Y-86651000D01*
X119661895Y-86651000D01*
X119619438Y-86646819D01*
X119584519Y-86636226D01*
X119552337Y-86619024D01*
X119524127Y-86595873D01*
X119500976Y-86567663D01*
X119483774Y-86535481D01*
X119473181Y-86500562D01*
X119469000Y-86458105D01*
X119469000Y-84991895D01*
X119473181Y-84949438D01*
X119483774Y-84914519D01*
X119500976Y-84882337D01*
X119524127Y-84854127D01*
X119552337Y-84830976D01*
X119584519Y-84813774D01*
X119619438Y-84803181D01*
X119661895Y-84799000D01*
X120803105Y-84799000D01*
X120845562Y-84803181D01*
G37*
G36*
X117870562Y-84803181D02*
G01*
X117905481Y-84813774D01*
X117937663Y-84830976D01*
X117965873Y-84854127D01*
X117989024Y-84882337D01*
X118006226Y-84914519D01*
X118016819Y-84949438D01*
X118021000Y-84991895D01*
X118021000Y-86458105D01*
X118016819Y-86500562D01*
X118006226Y-86535481D01*
X117989024Y-86567663D01*
X117965873Y-86595873D01*
X117937663Y-86619024D01*
X117905481Y-86636226D01*
X117870562Y-86646819D01*
X117828105Y-86651000D01*
X116686895Y-86651000D01*
X116644438Y-86646819D01*
X116609519Y-86636226D01*
X116577337Y-86619024D01*
X116549127Y-86595873D01*
X116525976Y-86567663D01*
X116508774Y-86535481D01*
X116498181Y-86500562D01*
X116494000Y-86458105D01*
X116494000Y-84991895D01*
X116498181Y-84949438D01*
X116508774Y-84914519D01*
X116525976Y-84882337D01*
X116549127Y-84854127D01*
X116577337Y-84830976D01*
X116609519Y-84813774D01*
X116644438Y-84803181D01*
X116686895Y-84799000D01*
X117828105Y-84799000D01*
X117870562Y-84803181D01*
G37*
G36*
X95517562Y-84929181D02*
G01*
X95552481Y-84939774D01*
X95584663Y-84956976D01*
X95612873Y-84980127D01*
X95636024Y-85008337D01*
X95653226Y-85040519D01*
X95663819Y-85075438D01*
X95668000Y-85117895D01*
X95668000Y-86259105D01*
X95663819Y-86301562D01*
X95653226Y-86336481D01*
X95636024Y-86368663D01*
X95612873Y-86396873D01*
X95584663Y-86420024D01*
X95552481Y-86437226D01*
X95517562Y-86447819D01*
X95475105Y-86452000D01*
X94008895Y-86452000D01*
X93966438Y-86447819D01*
X93931519Y-86437226D01*
X93899337Y-86420024D01*
X93871127Y-86396873D01*
X93847976Y-86368663D01*
X93830774Y-86336481D01*
X93820181Y-86301562D01*
X93816000Y-86259105D01*
X93816000Y-85117895D01*
X93820181Y-85075438D01*
X93830774Y-85040519D01*
X93847976Y-85008337D01*
X93871127Y-84980127D01*
X93899337Y-84956976D01*
X93931519Y-84939774D01*
X93966438Y-84929181D01*
X94008895Y-84925000D01*
X95475105Y-84925000D01*
X95517562Y-84929181D01*
G37*
G36*
X131450297Y-85700567D02*
G01*
X131505075Y-85723257D01*
X131505077Y-85723258D01*
X131554376Y-85756198D01*
X131596302Y-85798124D01*
X131629242Y-85847423D01*
X131629243Y-85847425D01*
X131651933Y-85902203D01*
X131663500Y-85960353D01*
X131663500Y-86019647D01*
X131651933Y-86077797D01*
X131629243Y-86132575D01*
X131629242Y-86132577D01*
X131596302Y-86181876D01*
X131554376Y-86223802D01*
X131505077Y-86256742D01*
X131505076Y-86256743D01*
X131505075Y-86256743D01*
X131450297Y-86279433D01*
X131392147Y-86291000D01*
X131332853Y-86291000D01*
X131274703Y-86279433D01*
X131219925Y-86256743D01*
X131219924Y-86256743D01*
X131219923Y-86256742D01*
X131170624Y-86223802D01*
X131128698Y-86181876D01*
X131095758Y-86132577D01*
X131095757Y-86132575D01*
X131073067Y-86077797D01*
X131061500Y-86019647D01*
X131061500Y-85960353D01*
X131073067Y-85902203D01*
X131095757Y-85847425D01*
X131095758Y-85847423D01*
X131128698Y-85798124D01*
X131170624Y-85756198D01*
X131219923Y-85723258D01*
X131219925Y-85723257D01*
X131274703Y-85700567D01*
X131332853Y-85689000D01*
X131392147Y-85689000D01*
X131450297Y-85700567D01*
G37*
G36*
X129615297Y-85700567D02*
G01*
X129670075Y-85723257D01*
X129670077Y-85723258D01*
X129719376Y-85756198D01*
X129761302Y-85798124D01*
X129794242Y-85847423D01*
X129794243Y-85847425D01*
X129816933Y-85902203D01*
X129828500Y-85960353D01*
X129828500Y-86019647D01*
X129816933Y-86077797D01*
X129794243Y-86132575D01*
X129794242Y-86132577D01*
X129761302Y-86181876D01*
X129719376Y-86223802D01*
X129670077Y-86256742D01*
X129670076Y-86256743D01*
X129670075Y-86256743D01*
X129615297Y-86279433D01*
X129557147Y-86291000D01*
X129497853Y-86291000D01*
X129439703Y-86279433D01*
X129384925Y-86256743D01*
X129384924Y-86256743D01*
X129384923Y-86256742D01*
X129335624Y-86223802D01*
X129293698Y-86181876D01*
X129260758Y-86132577D01*
X129260757Y-86132575D01*
X129238067Y-86077797D01*
X129226500Y-86019647D01*
X129226500Y-85960353D01*
X129238067Y-85902203D01*
X129260757Y-85847425D01*
X129260758Y-85847423D01*
X129293698Y-85798124D01*
X129335624Y-85756198D01*
X129384923Y-85723258D01*
X129384925Y-85723257D01*
X129439703Y-85700567D01*
X129497853Y-85689000D01*
X129557147Y-85689000D01*
X129615297Y-85700567D01*
G37*
G36*
X140996000Y-86046000D02*
G01*
X138894000Y-86046000D01*
X138894000Y-85044000D01*
X140996000Y-85044000D01*
X140996000Y-86046000D01*
G37*
G36*
X123996000Y-86046000D02*
G01*
X121894000Y-86046000D01*
X121894000Y-85044000D01*
X123996000Y-85044000D01*
X123996000Y-86046000D01*
G37*
G36*
X113209564Y-83571389D02*
G01*
X113400833Y-83650615D01*
X113400835Y-83650616D01*
X113572973Y-83765635D01*
X113719365Y-83912027D01*
X113823050Y-84067202D01*
X113834385Y-84084167D01*
X113913611Y-84275436D01*
X113954000Y-84478484D01*
X113954000Y-84685516D01*
X113913611Y-84888564D01*
X113849702Y-85042854D01*
X113834384Y-85079835D01*
X113719365Y-85251973D01*
X113572973Y-85398365D01*
X113400835Y-85513384D01*
X113400834Y-85513385D01*
X113400833Y-85513385D01*
X113209564Y-85592611D01*
X113006516Y-85633000D01*
X112799484Y-85633000D01*
X112596436Y-85592611D01*
X112405167Y-85513385D01*
X112405166Y-85513385D01*
X112405165Y-85513384D01*
X112233027Y-85398365D01*
X112086635Y-85251973D01*
X111971616Y-85079835D01*
X111956298Y-85042854D01*
X111892389Y-84888564D01*
X111852000Y-84685516D01*
X111852000Y-84478484D01*
X111892389Y-84275436D01*
X111971615Y-84084167D01*
X111982951Y-84067202D01*
X112086635Y-83912027D01*
X112233027Y-83765635D01*
X112405165Y-83650616D01*
X112405167Y-83650615D01*
X112596436Y-83571389D01*
X112799484Y-83531000D01*
X113006516Y-83531000D01*
X113209564Y-83571389D01*
G37*
G36*
X128697797Y-84783067D02*
G01*
X128752575Y-84805757D01*
X128752577Y-84805758D01*
X128801876Y-84838698D01*
X128843802Y-84880624D01*
X128876246Y-84929181D01*
X128876743Y-84929925D01*
X128899433Y-84984703D01*
X128911000Y-85042853D01*
X128911000Y-85102147D01*
X128899433Y-85160297D01*
X128885930Y-85192895D01*
X128876742Y-85215077D01*
X128843802Y-85264376D01*
X128801876Y-85306302D01*
X128752577Y-85339242D01*
X128752576Y-85339243D01*
X128752575Y-85339243D01*
X128697797Y-85361933D01*
X128639647Y-85373500D01*
X128580353Y-85373500D01*
X128522203Y-85361933D01*
X128467425Y-85339243D01*
X128467424Y-85339243D01*
X128467423Y-85339242D01*
X128418124Y-85306302D01*
X128376198Y-85264376D01*
X128343258Y-85215077D01*
X128334070Y-85192895D01*
X128320567Y-85160297D01*
X128309000Y-85102147D01*
X128309000Y-85042853D01*
X128320567Y-84984703D01*
X128343257Y-84929925D01*
X128343754Y-84929181D01*
X128376198Y-84880624D01*
X128418124Y-84838698D01*
X128467423Y-84805758D01*
X128467425Y-84805757D01*
X128522203Y-84783067D01*
X128580353Y-84771500D01*
X128639647Y-84771500D01*
X128697797Y-84783067D01*
G37*
G36*
X130532797Y-84783067D02*
G01*
X130587575Y-84805757D01*
X130587577Y-84805758D01*
X130636876Y-84838698D01*
X130678802Y-84880624D01*
X130711246Y-84929181D01*
X130711743Y-84929925D01*
X130734433Y-84984703D01*
X130746000Y-85042853D01*
X130746000Y-85102147D01*
X130734433Y-85160297D01*
X130720930Y-85192895D01*
X130711742Y-85215077D01*
X130678802Y-85264376D01*
X130636876Y-85306302D01*
X130587577Y-85339242D01*
X130587576Y-85339243D01*
X130587575Y-85339243D01*
X130532797Y-85361933D01*
X130474647Y-85373500D01*
X130415353Y-85373500D01*
X130357203Y-85361933D01*
X130302425Y-85339243D01*
X130302424Y-85339243D01*
X130302423Y-85339242D01*
X130253124Y-85306302D01*
X130211198Y-85264376D01*
X130178258Y-85215077D01*
X130169070Y-85192895D01*
X130155567Y-85160297D01*
X130144000Y-85102147D01*
X130144000Y-85042853D01*
X130155567Y-84984703D01*
X130178257Y-84929925D01*
X130178754Y-84929181D01*
X130211198Y-84880624D01*
X130253124Y-84838698D01*
X130302423Y-84805758D01*
X130302425Y-84805757D01*
X130357203Y-84783067D01*
X130415353Y-84771500D01*
X130474647Y-84771500D01*
X130532797Y-84783067D01*
G37*
G36*
X132367797Y-84783067D02*
G01*
X132422575Y-84805757D01*
X132422577Y-84805758D01*
X132471876Y-84838698D01*
X132513802Y-84880624D01*
X132546246Y-84929181D01*
X132546743Y-84929925D01*
X132569433Y-84984703D01*
X132581000Y-85042853D01*
X132581000Y-85102147D01*
X132569433Y-85160297D01*
X132555930Y-85192895D01*
X132546742Y-85215077D01*
X132513802Y-85264376D01*
X132471876Y-85306302D01*
X132422577Y-85339242D01*
X132422576Y-85339243D01*
X132422575Y-85339243D01*
X132367797Y-85361933D01*
X132309647Y-85373500D01*
X132250353Y-85373500D01*
X132192203Y-85361933D01*
X132137425Y-85339243D01*
X132137424Y-85339243D01*
X132137423Y-85339242D01*
X132088124Y-85306302D01*
X132046198Y-85264376D01*
X132013258Y-85215077D01*
X132004070Y-85192895D01*
X131990567Y-85160297D01*
X131979000Y-85102147D01*
X131979000Y-85042853D01*
X131990567Y-84984703D01*
X132013257Y-84929925D01*
X132013754Y-84929181D01*
X132046198Y-84880624D01*
X132088124Y-84838698D01*
X132137423Y-84805758D01*
X132137425Y-84805757D01*
X132192203Y-84783067D01*
X132250353Y-84771500D01*
X132309647Y-84771500D01*
X132367797Y-84783067D01*
G37*
G36*
X150166564Y-82809389D02*
G01*
X150357833Y-82888615D01*
X150357835Y-82888616D01*
X150529973Y-83003635D01*
X150676365Y-83150027D01*
X150784341Y-83311624D01*
X150791385Y-83322167D01*
X150870611Y-83513436D01*
X150911000Y-83716484D01*
X150911000Y-83923516D01*
X150870611Y-84126564D01*
X150846552Y-84184647D01*
X150791384Y-84317835D01*
X150676365Y-84489973D01*
X150529973Y-84636365D01*
X150357835Y-84751384D01*
X150357834Y-84751385D01*
X150357833Y-84751385D01*
X150166564Y-84830611D01*
X149963516Y-84871000D01*
X149756484Y-84871000D01*
X149553436Y-84830611D01*
X149362167Y-84751385D01*
X149362166Y-84751385D01*
X149362165Y-84751384D01*
X149190027Y-84636365D01*
X149043635Y-84489973D01*
X148928616Y-84317835D01*
X148873448Y-84184647D01*
X148849389Y-84126564D01*
X148809000Y-83923516D01*
X148809000Y-83716484D01*
X148849389Y-83513436D01*
X148928615Y-83322167D01*
X148935660Y-83311624D01*
X149043635Y-83150027D01*
X149190027Y-83003635D01*
X149362165Y-82888616D01*
X149362167Y-82888615D01*
X149553436Y-82809389D01*
X149756484Y-82769000D01*
X149963516Y-82769000D01*
X150166564Y-82809389D01*
G37*
G36*
X145721564Y-82809389D02*
G01*
X145912833Y-82888615D01*
X145912835Y-82888616D01*
X146084973Y-83003635D01*
X146231365Y-83150027D01*
X146339341Y-83311624D01*
X146346385Y-83322167D01*
X146425611Y-83513436D01*
X146466000Y-83716484D01*
X146466000Y-83923516D01*
X146425611Y-84126564D01*
X146401552Y-84184647D01*
X146346384Y-84317835D01*
X146231365Y-84489973D01*
X146084973Y-84636365D01*
X145912835Y-84751384D01*
X145912834Y-84751385D01*
X145912833Y-84751385D01*
X145721564Y-84830611D01*
X145518516Y-84871000D01*
X145311484Y-84871000D01*
X145108436Y-84830611D01*
X144917167Y-84751385D01*
X144917166Y-84751385D01*
X144917165Y-84751384D01*
X144745027Y-84636365D01*
X144598635Y-84489973D01*
X144483616Y-84317835D01*
X144428448Y-84184647D01*
X144404389Y-84126564D01*
X144364000Y-83923516D01*
X144364000Y-83716484D01*
X144404389Y-83513436D01*
X144483615Y-83322167D01*
X144490660Y-83311624D01*
X144598635Y-83150027D01*
X144745027Y-83003635D01*
X144917165Y-82888616D01*
X144917167Y-82888615D01*
X145108436Y-82809389D01*
X145311484Y-82769000D01*
X145518516Y-82769000D01*
X145721564Y-82809389D01*
G37*
G36*
X140996000Y-84776000D02*
G01*
X138894000Y-84776000D01*
X138894000Y-83774000D01*
X140996000Y-83774000D01*
X140996000Y-84776000D01*
G37*
G36*
X123996000Y-84776000D02*
G01*
X121894000Y-84776000D01*
X121894000Y-83774000D01*
X123996000Y-83774000D01*
X123996000Y-84776000D01*
G37*
G36*
X155969562Y-83097181D02*
G01*
X156004481Y-83107774D01*
X156036663Y-83124976D01*
X156064873Y-83148127D01*
X156088024Y-83176337D01*
X156105226Y-83208519D01*
X156115819Y-83243438D01*
X156120000Y-83285895D01*
X156120000Y-84427105D01*
X156115819Y-84469562D01*
X156105226Y-84504481D01*
X156088024Y-84536663D01*
X156064873Y-84564873D01*
X156036663Y-84588024D01*
X156004481Y-84605226D01*
X155969562Y-84615819D01*
X155927105Y-84620000D01*
X154460895Y-84620000D01*
X154418438Y-84615819D01*
X154383519Y-84605226D01*
X154351337Y-84588024D01*
X154323127Y-84564873D01*
X154299976Y-84536663D01*
X154282774Y-84504481D01*
X154272181Y-84469562D01*
X154268000Y-84427105D01*
X154268000Y-83285895D01*
X154272181Y-83243438D01*
X154282774Y-83208519D01*
X154299976Y-83176337D01*
X154323127Y-83148127D01*
X154351337Y-83124976D01*
X154383519Y-83107774D01*
X154418438Y-83097181D01*
X154460895Y-83093000D01*
X155927105Y-83093000D01*
X155969562Y-83097181D01*
G37*
G36*
X131450297Y-83865567D02*
G01*
X131505075Y-83888257D01*
X131505077Y-83888258D01*
X131554376Y-83921198D01*
X131596302Y-83963124D01*
X131629242Y-84012423D01*
X131629243Y-84012425D01*
X131651933Y-84067203D01*
X131663500Y-84125353D01*
X131663500Y-84184647D01*
X131651933Y-84242797D01*
X131638413Y-84275436D01*
X131629242Y-84297577D01*
X131596302Y-84346876D01*
X131554376Y-84388802D01*
X131505077Y-84421742D01*
X131505076Y-84421743D01*
X131505075Y-84421743D01*
X131450297Y-84444433D01*
X131392147Y-84456000D01*
X131332853Y-84456000D01*
X131274703Y-84444433D01*
X131219925Y-84421743D01*
X131219924Y-84421743D01*
X131219923Y-84421742D01*
X131170624Y-84388802D01*
X131128698Y-84346876D01*
X131095758Y-84297577D01*
X131086587Y-84275436D01*
X131073067Y-84242797D01*
X131061500Y-84184647D01*
X131061500Y-84125353D01*
X131073067Y-84067203D01*
X131095757Y-84012425D01*
X131095758Y-84012423D01*
X131128698Y-83963124D01*
X131170624Y-83921198D01*
X131219923Y-83888258D01*
X131219925Y-83888257D01*
X131274703Y-83865567D01*
X131332853Y-83854000D01*
X131392147Y-83854000D01*
X131450297Y-83865567D01*
G37*
G36*
X129615297Y-83865567D02*
G01*
X129670075Y-83888257D01*
X129670077Y-83888258D01*
X129719376Y-83921198D01*
X129761302Y-83963124D01*
X129794242Y-84012423D01*
X129794243Y-84012425D01*
X129816933Y-84067203D01*
X129828500Y-84125353D01*
X129828500Y-84184647D01*
X129816933Y-84242797D01*
X129803413Y-84275436D01*
X129794242Y-84297577D01*
X129761302Y-84346876D01*
X129719376Y-84388802D01*
X129670077Y-84421742D01*
X129670076Y-84421743D01*
X129670075Y-84421743D01*
X129615297Y-84444433D01*
X129557147Y-84456000D01*
X129497853Y-84456000D01*
X129439703Y-84444433D01*
X129384925Y-84421743D01*
X129384924Y-84421743D01*
X129384923Y-84421742D01*
X129335624Y-84388802D01*
X129293698Y-84346876D01*
X129260758Y-84297577D01*
X129251587Y-84275436D01*
X129238067Y-84242797D01*
X129226500Y-84184647D01*
X129226500Y-84125353D01*
X129238067Y-84067203D01*
X129260757Y-84012425D01*
X129260758Y-84012423D01*
X129293698Y-83963124D01*
X129335624Y-83921198D01*
X129384923Y-83888258D01*
X129384925Y-83888257D01*
X129439703Y-83865567D01*
X129497853Y-83854000D01*
X129557147Y-83854000D01*
X129615297Y-83865567D01*
G37*
G36*
X99455562Y-82263181D02*
G01*
X99490481Y-82273774D01*
X99522663Y-82290976D01*
X99550873Y-82314127D01*
X99574024Y-82342337D01*
X99591226Y-82374519D01*
X99601819Y-82409438D01*
X99606000Y-82451895D01*
X99606000Y-83918105D01*
X99601819Y-83960562D01*
X99591226Y-83995481D01*
X99574024Y-84027663D01*
X99550873Y-84055873D01*
X99522663Y-84079024D01*
X99490481Y-84096226D01*
X99455562Y-84106819D01*
X99413105Y-84111000D01*
X98271895Y-84111000D01*
X98229438Y-84106819D01*
X98194519Y-84096226D01*
X98162337Y-84079024D01*
X98134127Y-84055873D01*
X98110976Y-84027663D01*
X98093774Y-83995481D01*
X98083181Y-83960562D01*
X98079000Y-83918105D01*
X98079000Y-82451895D01*
X98083181Y-82409438D01*
X98093774Y-82374519D01*
X98110976Y-82342337D01*
X98134127Y-82314127D01*
X98162337Y-82290976D01*
X98194519Y-82273774D01*
X98229438Y-82263181D01*
X98271895Y-82259000D01*
X99413105Y-82259000D01*
X99455562Y-82263181D01*
G37*
G36*
X105805562Y-82263181D02*
G01*
X105840481Y-82273774D01*
X105872663Y-82290976D01*
X105900873Y-82314127D01*
X105924024Y-82342337D01*
X105941226Y-82374519D01*
X105951819Y-82409438D01*
X105956000Y-82451895D01*
X105956000Y-83918105D01*
X105951819Y-83960562D01*
X105941226Y-83995481D01*
X105924024Y-84027663D01*
X105900873Y-84055873D01*
X105872663Y-84079024D01*
X105840481Y-84096226D01*
X105805562Y-84106819D01*
X105763105Y-84111000D01*
X104621895Y-84111000D01*
X104579438Y-84106819D01*
X104544519Y-84096226D01*
X104512337Y-84079024D01*
X104484127Y-84055873D01*
X104460976Y-84027663D01*
X104443774Y-83995481D01*
X104433181Y-83960562D01*
X104429000Y-83918105D01*
X104429000Y-82451895D01*
X104433181Y-82409438D01*
X104443774Y-82374519D01*
X104460976Y-82342337D01*
X104484127Y-82314127D01*
X104512337Y-82290976D01*
X104544519Y-82273774D01*
X104579438Y-82263181D01*
X104621895Y-82259000D01*
X105763105Y-82259000D01*
X105805562Y-82263181D01*
G37*
G36*
X108780562Y-82263181D02*
G01*
X108815481Y-82273774D01*
X108847663Y-82290976D01*
X108875873Y-82314127D01*
X108899024Y-82342337D01*
X108916226Y-82374519D01*
X108926819Y-82409438D01*
X108931000Y-82451895D01*
X108931000Y-83918105D01*
X108926819Y-83960562D01*
X108916226Y-83995481D01*
X108899024Y-84027663D01*
X108875873Y-84055873D01*
X108847663Y-84079024D01*
X108815481Y-84096226D01*
X108780562Y-84106819D01*
X108738105Y-84111000D01*
X107596895Y-84111000D01*
X107554438Y-84106819D01*
X107519519Y-84096226D01*
X107487337Y-84079024D01*
X107459127Y-84055873D01*
X107435976Y-84027663D01*
X107418774Y-83995481D01*
X107408181Y-83960562D01*
X107404000Y-83918105D01*
X107404000Y-82451895D01*
X107408181Y-82409438D01*
X107418774Y-82374519D01*
X107435976Y-82342337D01*
X107459127Y-82314127D01*
X107487337Y-82290976D01*
X107519519Y-82273774D01*
X107554438Y-82263181D01*
X107596895Y-82259000D01*
X108738105Y-82259000D01*
X108780562Y-82263181D01*
G37*
G36*
X102430562Y-82263181D02*
G01*
X102465481Y-82273774D01*
X102497663Y-82290976D01*
X102525873Y-82314127D01*
X102549024Y-82342337D01*
X102566226Y-82374519D01*
X102576819Y-82409438D01*
X102581000Y-82451895D01*
X102581000Y-83918105D01*
X102576819Y-83960562D01*
X102566226Y-83995481D01*
X102549024Y-84027663D01*
X102525873Y-84055873D01*
X102497663Y-84079024D01*
X102465481Y-84096226D01*
X102430562Y-84106819D01*
X102388105Y-84111000D01*
X101246895Y-84111000D01*
X101204438Y-84106819D01*
X101169519Y-84096226D01*
X101137337Y-84079024D01*
X101109127Y-84055873D01*
X101085976Y-84027663D01*
X101068774Y-83995481D01*
X101058181Y-83960562D01*
X101054000Y-83918105D01*
X101054000Y-82451895D01*
X101058181Y-82409438D01*
X101068774Y-82374519D01*
X101085976Y-82342337D01*
X101109127Y-82314127D01*
X101137337Y-82290976D01*
X101169519Y-82273774D01*
X101204438Y-82263181D01*
X101246895Y-82259000D01*
X102388105Y-82259000D01*
X102430562Y-82263181D01*
G37*
G36*
X128697797Y-82948067D02*
G01*
X128752575Y-82970757D01*
X128752577Y-82970758D01*
X128801876Y-83003698D01*
X128843802Y-83045624D01*
X128875457Y-83093000D01*
X128876743Y-83094925D01*
X128899433Y-83149703D01*
X128911000Y-83207853D01*
X128911000Y-83267147D01*
X128899433Y-83325297D01*
X128884445Y-83361481D01*
X128876742Y-83380077D01*
X128843802Y-83429376D01*
X128801876Y-83471302D01*
X128752577Y-83504242D01*
X128752576Y-83504243D01*
X128752575Y-83504243D01*
X128697797Y-83526933D01*
X128639647Y-83538500D01*
X128580353Y-83538500D01*
X128522203Y-83526933D01*
X128467425Y-83504243D01*
X128467424Y-83504243D01*
X128467423Y-83504242D01*
X128418124Y-83471302D01*
X128376198Y-83429376D01*
X128343258Y-83380077D01*
X128335555Y-83361481D01*
X128320567Y-83325297D01*
X128309000Y-83267147D01*
X128309000Y-83207853D01*
X128320567Y-83149703D01*
X128343257Y-83094925D01*
X128344543Y-83093000D01*
X128376198Y-83045624D01*
X128418124Y-83003698D01*
X128467423Y-82970758D01*
X128467425Y-82970757D01*
X128522203Y-82948067D01*
X128580353Y-82936500D01*
X128639647Y-82936500D01*
X128697797Y-82948067D01*
G37*
G36*
X130532797Y-82948067D02*
G01*
X130587575Y-82970757D01*
X130587577Y-82970758D01*
X130636876Y-83003698D01*
X130678802Y-83045624D01*
X130710457Y-83093000D01*
X130711743Y-83094925D01*
X130734433Y-83149703D01*
X130746000Y-83207853D01*
X130746000Y-83267147D01*
X130734433Y-83325297D01*
X130719445Y-83361481D01*
X130711742Y-83380077D01*
X130678802Y-83429376D01*
X130636876Y-83471302D01*
X130587577Y-83504242D01*
X130587576Y-83504243D01*
X130587575Y-83504243D01*
X130532797Y-83526933D01*
X130474647Y-83538500D01*
X130415353Y-83538500D01*
X130357203Y-83526933D01*
X130302425Y-83504243D01*
X130302424Y-83504243D01*
X130302423Y-83504242D01*
X130253124Y-83471302D01*
X130211198Y-83429376D01*
X130178258Y-83380077D01*
X130170555Y-83361481D01*
X130155567Y-83325297D01*
X130144000Y-83267147D01*
X130144000Y-83207853D01*
X130155567Y-83149703D01*
X130178257Y-83094925D01*
X130179543Y-83093000D01*
X130211198Y-83045624D01*
X130253124Y-83003698D01*
X130302423Y-82970758D01*
X130302425Y-82970757D01*
X130357203Y-82948067D01*
X130415353Y-82936500D01*
X130474647Y-82936500D01*
X130532797Y-82948067D01*
G37*
G36*
X132367797Y-82948067D02*
G01*
X132422575Y-82970757D01*
X132422577Y-82970758D01*
X132471876Y-83003698D01*
X132513802Y-83045624D01*
X132545457Y-83093000D01*
X132546743Y-83094925D01*
X132569433Y-83149703D01*
X132581000Y-83207853D01*
X132581000Y-83267147D01*
X132569433Y-83325297D01*
X132554445Y-83361481D01*
X132546742Y-83380077D01*
X132513802Y-83429376D01*
X132471876Y-83471302D01*
X132422577Y-83504242D01*
X132422576Y-83504243D01*
X132422575Y-83504243D01*
X132367797Y-83526933D01*
X132309647Y-83538500D01*
X132250353Y-83538500D01*
X132192203Y-83526933D01*
X132137425Y-83504243D01*
X132137424Y-83504243D01*
X132137423Y-83504242D01*
X132088124Y-83471302D01*
X132046198Y-83429376D01*
X132013258Y-83380077D01*
X132005555Y-83361481D01*
X131990567Y-83325297D01*
X131979000Y-83267147D01*
X131979000Y-83207853D01*
X131990567Y-83149703D01*
X132013257Y-83094925D01*
X132014543Y-83093000D01*
X132046198Y-83045624D01*
X132088124Y-83003698D01*
X132137423Y-82970758D01*
X132137425Y-82970757D01*
X132192203Y-82948067D01*
X132250353Y-82936500D01*
X132309647Y-82936500D01*
X132367797Y-82948067D01*
G37*
G36*
X140996000Y-83506000D02*
G01*
X138894000Y-83506000D01*
X138894000Y-82504000D01*
X140996000Y-82504000D01*
X140996000Y-83506000D01*
G37*
G36*
X123996000Y-83506000D02*
G01*
X121894000Y-83506000D01*
X121894000Y-82504000D01*
X123996000Y-82504000D01*
X123996000Y-83506000D01*
G37*
G36*
X95517562Y-81954181D02*
G01*
X95552481Y-81964774D01*
X95584663Y-81981976D01*
X95612873Y-82005127D01*
X95636024Y-82033337D01*
X95653226Y-82065519D01*
X95663819Y-82100438D01*
X95668000Y-82142895D01*
X95668000Y-83284105D01*
X95663819Y-83326562D01*
X95653226Y-83361481D01*
X95636024Y-83393663D01*
X95612873Y-83421873D01*
X95584663Y-83445024D01*
X95552481Y-83462226D01*
X95517562Y-83472819D01*
X95475105Y-83477000D01*
X94008895Y-83477000D01*
X93966438Y-83472819D01*
X93931519Y-83462226D01*
X93899337Y-83445024D01*
X93871127Y-83421873D01*
X93847976Y-83393663D01*
X93830774Y-83361481D01*
X93820181Y-83326562D01*
X93816000Y-83284105D01*
X93816000Y-82142895D01*
X93820181Y-82100438D01*
X93830774Y-82065519D01*
X93847976Y-82033337D01*
X93871127Y-82005127D01*
X93899337Y-81981976D01*
X93931519Y-81964774D01*
X93966438Y-81954181D01*
X94008895Y-81950000D01*
X95475105Y-81950000D01*
X95517562Y-81954181D01*
G37*
G36*
X113954000Y-83093000D02*
G01*
X111852000Y-83093000D01*
X111852000Y-80991000D01*
X113954000Y-80991000D01*
X113954000Y-83093000D01*
G37*
G36*
X120210562Y-80993181D02*
G01*
X120245481Y-81003774D01*
X120277663Y-81020976D01*
X120305873Y-81044127D01*
X120329024Y-81072337D01*
X120346226Y-81104519D01*
X120356819Y-81139438D01*
X120361000Y-81181895D01*
X120361000Y-82648105D01*
X120356819Y-82690562D01*
X120346226Y-82725481D01*
X120329024Y-82757663D01*
X120305873Y-82785873D01*
X120277663Y-82809024D01*
X120245481Y-82826226D01*
X120210562Y-82836819D01*
X120168105Y-82841000D01*
X119026895Y-82841000D01*
X118984438Y-82836819D01*
X118949519Y-82826226D01*
X118917337Y-82809024D01*
X118889127Y-82785873D01*
X118865976Y-82757663D01*
X118848774Y-82725481D01*
X118838181Y-82690562D01*
X118834000Y-82648105D01*
X118834000Y-81181895D01*
X118838181Y-81139438D01*
X118848774Y-81104519D01*
X118865976Y-81072337D01*
X118889127Y-81044127D01*
X118917337Y-81020976D01*
X118949519Y-81003774D01*
X118984438Y-80993181D01*
X119026895Y-80989000D01*
X120168105Y-80989000D01*
X120210562Y-80993181D01*
G37*
G36*
X117235562Y-80993181D02*
G01*
X117270481Y-81003774D01*
X117302663Y-81020976D01*
X117330873Y-81044127D01*
X117354024Y-81072337D01*
X117371226Y-81104519D01*
X117381819Y-81139438D01*
X117386000Y-81181895D01*
X117386000Y-82648105D01*
X117381819Y-82690562D01*
X117371226Y-82725481D01*
X117354024Y-82757663D01*
X117330873Y-82785873D01*
X117302663Y-82809024D01*
X117270481Y-82826226D01*
X117235562Y-82836819D01*
X117193105Y-82841000D01*
X116051895Y-82841000D01*
X116009438Y-82836819D01*
X115974519Y-82826226D01*
X115942337Y-82809024D01*
X115914127Y-82785873D01*
X115890976Y-82757663D01*
X115873774Y-82725481D01*
X115863181Y-82690562D01*
X115859000Y-82648105D01*
X115859000Y-81181895D01*
X115863181Y-81139438D01*
X115873774Y-81104519D01*
X115890976Y-81072337D01*
X115914127Y-81044127D01*
X115942337Y-81020976D01*
X115974519Y-81003774D01*
X116009438Y-80993181D01*
X116051895Y-80989000D01*
X117193105Y-80989000D01*
X117235562Y-80993181D01*
G37*
G36*
X131450297Y-82030567D02*
G01*
X131505075Y-82053257D01*
X131505077Y-82053258D01*
X131554376Y-82086198D01*
X131596302Y-82128124D01*
X131621363Y-82165631D01*
X131629243Y-82177425D01*
X131651933Y-82232203D01*
X131663500Y-82290353D01*
X131663500Y-82349647D01*
X131651933Y-82407797D01*
X131633667Y-82451895D01*
X131629242Y-82462577D01*
X131596302Y-82511876D01*
X131554376Y-82553802D01*
X131505077Y-82586742D01*
X131505076Y-82586743D01*
X131505075Y-82586743D01*
X131450297Y-82609433D01*
X131392147Y-82621000D01*
X131332853Y-82621000D01*
X131274703Y-82609433D01*
X131219925Y-82586743D01*
X131219924Y-82586743D01*
X131219923Y-82586742D01*
X131170624Y-82553802D01*
X131128698Y-82511876D01*
X131095758Y-82462577D01*
X131091333Y-82451895D01*
X131073067Y-82407797D01*
X131061500Y-82349647D01*
X131061500Y-82290353D01*
X131073067Y-82232203D01*
X131095757Y-82177425D01*
X131103637Y-82165631D01*
X131128698Y-82128124D01*
X131170624Y-82086198D01*
X131219923Y-82053258D01*
X131219925Y-82053257D01*
X131274703Y-82030567D01*
X131332853Y-82019000D01*
X131392147Y-82019000D01*
X131450297Y-82030567D01*
G37*
G36*
X129615297Y-82030567D02*
G01*
X129670075Y-82053257D01*
X129670077Y-82053258D01*
X129719376Y-82086198D01*
X129761302Y-82128124D01*
X129786363Y-82165631D01*
X129794243Y-82177425D01*
X129816933Y-82232203D01*
X129828500Y-82290353D01*
X129828500Y-82349647D01*
X129816933Y-82407797D01*
X129798667Y-82451895D01*
X129794242Y-82462577D01*
X129761302Y-82511876D01*
X129719376Y-82553802D01*
X129670077Y-82586742D01*
X129670076Y-82586743D01*
X129670075Y-82586743D01*
X129615297Y-82609433D01*
X129557147Y-82621000D01*
X129497853Y-82621000D01*
X129439703Y-82609433D01*
X129384925Y-82586743D01*
X129384924Y-82586743D01*
X129384923Y-82586742D01*
X129335624Y-82553802D01*
X129293698Y-82511876D01*
X129260758Y-82462577D01*
X129256333Y-82451895D01*
X129238067Y-82407797D01*
X129226500Y-82349647D01*
X129226500Y-82290353D01*
X129238067Y-82232203D01*
X129260757Y-82177425D01*
X129268637Y-82165631D01*
X129293698Y-82128124D01*
X129335624Y-82086198D01*
X129384923Y-82053258D01*
X129384925Y-82053257D01*
X129439703Y-82030567D01*
X129497853Y-82019000D01*
X129557147Y-82019000D01*
X129615297Y-82030567D01*
G37*
G36*
X150166564Y-80269389D02*
G01*
X150357833Y-80348615D01*
X150357835Y-80348616D01*
X150529973Y-80463635D01*
X150676365Y-80610027D01*
X150791385Y-80782167D01*
X150870611Y-80973436D01*
X150911000Y-81176484D01*
X150911000Y-81383516D01*
X150870611Y-81586564D01*
X150791385Y-81777833D01*
X150791384Y-81777835D01*
X150676365Y-81949973D01*
X150529973Y-82096365D01*
X150357835Y-82211384D01*
X150357834Y-82211385D01*
X150357833Y-82211385D01*
X150166564Y-82290611D01*
X149963516Y-82331000D01*
X149756484Y-82331000D01*
X149553436Y-82290611D01*
X149362167Y-82211385D01*
X149362166Y-82211385D01*
X149362165Y-82211384D01*
X149190027Y-82096365D01*
X149043635Y-81949973D01*
X148928616Y-81777835D01*
X148928615Y-81777833D01*
X148849389Y-81586564D01*
X148809000Y-81383516D01*
X148809000Y-81176484D01*
X148849389Y-80973436D01*
X148928615Y-80782167D01*
X149043635Y-80610027D01*
X149190027Y-80463635D01*
X149362165Y-80348616D01*
X149362167Y-80348615D01*
X149553436Y-80269389D01*
X149756484Y-80229000D01*
X149963516Y-80229000D01*
X150166564Y-80269389D01*
G37*
G36*
X123996000Y-82236000D02*
G01*
X121894000Y-82236000D01*
X121894000Y-81234000D01*
X123996000Y-81234000D01*
X123996000Y-82236000D01*
G37*
G36*
X140996000Y-82236000D02*
G01*
X138894000Y-82236000D01*
X138894000Y-81234000D01*
X140996000Y-81234000D01*
X140996000Y-82236000D01*
G37*
G36*
X123996000Y-80966000D02*
G01*
X121894000Y-80966000D01*
X121894000Y-79964000D01*
X123996000Y-79964000D01*
X123996000Y-80966000D01*
G37*
G36*
X140996000Y-80966000D02*
G01*
X138894000Y-80966000D01*
X138894000Y-79964000D01*
X140996000Y-79964000D01*
X140996000Y-80966000D01*
G37*
G36*
X150166564Y-77729389D02*
G01*
X150357833Y-77808615D01*
X150357835Y-77808616D01*
X150396411Y-77834392D01*
X150529973Y-77923635D01*
X150676365Y-78070027D01*
X150791385Y-78242167D01*
X150870611Y-78433436D01*
X150911000Y-78636484D01*
X150911000Y-78843516D01*
X150870611Y-79046564D01*
X150791385Y-79237833D01*
X150791384Y-79237835D01*
X150676365Y-79409973D01*
X150529973Y-79556365D01*
X150357835Y-79671384D01*
X150357834Y-79671385D01*
X150357833Y-79671385D01*
X150166564Y-79750611D01*
X149963516Y-79791000D01*
X149756484Y-79791000D01*
X149553436Y-79750611D01*
X149362167Y-79671385D01*
X149362166Y-79671385D01*
X149362165Y-79671384D01*
X149190027Y-79556365D01*
X149043635Y-79409973D01*
X148928616Y-79237835D01*
X148928615Y-79237833D01*
X148849389Y-79046564D01*
X148809000Y-78843516D01*
X148809000Y-78636484D01*
X148849389Y-78433436D01*
X148928615Y-78242167D01*
X149043635Y-78070027D01*
X149190027Y-77923635D01*
X149323589Y-77834392D01*
X149362165Y-77808616D01*
X149362167Y-77808615D01*
X149553436Y-77729389D01*
X149756484Y-77689000D01*
X149963516Y-77689000D01*
X150166564Y-77729389D01*
G37*
G36*
X140996000Y-79696000D02*
G01*
X138894000Y-79696000D01*
X138894000Y-78694000D01*
X140996000Y-78694000D01*
X140996000Y-79696000D01*
G37*
G36*
X123996000Y-79696000D02*
G01*
X121894000Y-79696000D01*
X121894000Y-78694000D01*
X123996000Y-78694000D01*
X123996000Y-79696000D01*
G37*
G36*
X120210562Y-77818181D02*
G01*
X120245481Y-77828774D01*
X120277663Y-77845976D01*
X120305873Y-77869127D01*
X120329024Y-77897337D01*
X120346226Y-77929519D01*
X120356819Y-77964438D01*
X120361000Y-78006895D01*
X120361000Y-79473105D01*
X120356819Y-79515562D01*
X120346226Y-79550481D01*
X120329024Y-79582663D01*
X120305873Y-79610873D01*
X120277663Y-79634024D01*
X120245481Y-79651226D01*
X120210562Y-79661819D01*
X120168105Y-79666000D01*
X119026895Y-79666000D01*
X118984438Y-79661819D01*
X118949519Y-79651226D01*
X118917337Y-79634024D01*
X118889127Y-79610873D01*
X118865976Y-79582663D01*
X118848774Y-79550481D01*
X118838181Y-79515562D01*
X118834000Y-79473105D01*
X118834000Y-78006895D01*
X118838181Y-77964438D01*
X118848774Y-77929519D01*
X118865976Y-77897337D01*
X118889127Y-77869127D01*
X118917337Y-77845976D01*
X118949519Y-77828774D01*
X118984438Y-77818181D01*
X119026895Y-77814000D01*
X120168105Y-77814000D01*
X120210562Y-77818181D01*
G37*
G36*
X117235562Y-77818181D02*
G01*
X117270481Y-77828774D01*
X117302663Y-77845976D01*
X117330873Y-77869127D01*
X117354024Y-77897337D01*
X117371226Y-77929519D01*
X117381819Y-77964438D01*
X117386000Y-78006895D01*
X117386000Y-79473105D01*
X117381819Y-79515562D01*
X117371226Y-79550481D01*
X117354024Y-79582663D01*
X117330873Y-79610873D01*
X117302663Y-79634024D01*
X117270481Y-79651226D01*
X117235562Y-79661819D01*
X117193105Y-79666000D01*
X116051895Y-79666000D01*
X116009438Y-79661819D01*
X115974519Y-79651226D01*
X115942337Y-79634024D01*
X115914127Y-79610873D01*
X115890976Y-79582663D01*
X115873774Y-79550481D01*
X115863181Y-79515562D01*
X115859000Y-79473105D01*
X115859000Y-78006895D01*
X115863181Y-77964438D01*
X115873774Y-77929519D01*
X115890976Y-77897337D01*
X115914127Y-77869127D01*
X115942337Y-77845976D01*
X115974519Y-77828774D01*
X116009438Y-77818181D01*
X116051895Y-77814000D01*
X117193105Y-77814000D01*
X117235562Y-77818181D01*
G37*
G36*
X123996000Y-78426000D02*
G01*
X121894000Y-78426000D01*
X121894000Y-77424000D01*
X123996000Y-77424000D01*
X123996000Y-78426000D01*
G37*
G36*
X140996000Y-78426000D02*
G01*
X138894000Y-78426000D01*
X138894000Y-77424000D01*
X140996000Y-77424000D01*
X140996000Y-78426000D01*
G37*
G36*
X123996000Y-77156000D02*
G01*
X121894000Y-77156000D01*
X121894000Y-76154000D01*
X123996000Y-76154000D01*
X123996000Y-77156000D01*
G37*
G36*
X140996000Y-77156000D02*
G01*
X138894000Y-77156000D01*
X138894000Y-76154000D01*
X140996000Y-76154000D01*
X140996000Y-77156000D01*
G37*
G36*
X92035795Y-70548156D02*
G01*
X92142150Y-70569311D01*
X92242334Y-70610809D01*
X92342520Y-70652307D01*
X92522844Y-70772795D01*
X92676205Y-70926156D01*
X92796693Y-71106480D01*
X92879689Y-71306851D01*
X92922000Y-71519560D01*
X92922000Y-71736440D01*
X92879689Y-71949149D01*
X92796693Y-72149520D01*
X92676205Y-72329844D01*
X92522844Y-72483205D01*
X92342520Y-72603693D01*
X92142150Y-72686689D01*
X92035795Y-72707844D01*
X91929440Y-72729000D01*
X91712560Y-72729000D01*
X91606205Y-72707844D01*
X91499850Y-72686689D01*
X91299480Y-72603693D01*
X91119156Y-72483205D01*
X90965795Y-72329844D01*
X90845307Y-72149520D01*
X90762311Y-71949149D01*
X90720000Y-71736440D01*
X90720000Y-71519560D01*
X90762311Y-71306851D01*
X90845307Y-71106480D01*
X90965795Y-70926156D01*
X91119156Y-70772795D01*
X91299480Y-70652307D01*
X91399666Y-70610809D01*
X91499850Y-70569311D01*
X91606205Y-70548156D01*
X91712560Y-70527000D01*
X91929440Y-70527000D01*
X92035795Y-70548156D01*
G37*
G36*
X157186794Y-70421155D02*
G01*
X157293150Y-70442311D01*
X157493520Y-70525307D01*
X157673844Y-70645795D01*
X157827205Y-70799156D01*
X157947693Y-70979480D01*
X158030689Y-71179851D01*
X158073000Y-71392560D01*
X158073000Y-71609440D01*
X158030689Y-71822149D01*
X157947693Y-72022520D01*
X157827205Y-72202844D01*
X157673844Y-72356205D01*
X157493520Y-72476693D01*
X157293150Y-72559689D01*
X157186795Y-72580844D01*
X157080440Y-72602000D01*
X156863560Y-72602000D01*
X156757205Y-72580844D01*
X156650850Y-72559689D01*
X156450480Y-72476693D01*
X156270156Y-72356205D01*
X156116795Y-72202844D01*
X155996307Y-72022520D01*
X155913311Y-71822149D01*
X155871000Y-71609440D01*
X155871000Y-71392560D01*
X155913311Y-71179851D01*
X155996307Y-70979480D01*
X156116795Y-70799156D01*
X156270156Y-70645795D01*
X156450480Y-70525307D01*
X156550666Y-70483809D01*
X156650850Y-70442311D01*
X156757206Y-70421155D01*
X156863560Y-70400000D01*
X157080440Y-70400000D01*
X157186794Y-70421155D01*
G37*
M02*
