G04 #@! TF.GenerationSoftware,KiCad,Pcbnew,(5.1.5)-3*
G04 #@! TF.CreationDate,2021-04-15T13:44:04+02:00*
G04 #@! TF.ProjectId,Copy_bachelorproef morse,436f7079-5f62-4616-9368-656c6f727072,rev?*
G04 #@! TF.SameCoordinates,Original*
G04 #@! TF.FileFunction,Legend,Top*
G04 #@! TF.FilePolarity,Positive*
%FSLAX46Y46*%
G04 Gerber Fmt 4.6, Leading zero omitted, Abs format (unit mm)*
G04 Created by KiCad (PCBNEW (5.1.5)-3) date 2021-04-15 13:44:04*
%MOMM*%
%LPD*%
G04 APERTURE LIST*
%ADD10C,0.120000*%
%ADD11C,0.200000*%
%ADD12C,0.127000*%
%ADD13C,0.300000*%
%ADD14C,0.150000*%
%ADD15C,0.050000*%
G04 APERTURE END LIST*
D10*
X155810000Y-91816000D02*
X154550000Y-91816000D01*
X148990000Y-91816000D02*
X150250000Y-91816000D01*
X155810000Y-95576000D02*
X155810000Y-91816000D01*
X148990000Y-97826000D02*
X148990000Y-91816000D01*
X109340000Y-89935000D02*
X109340000Y-90835000D01*
X109340000Y-89935000D02*
X109340000Y-90835000D01*
X109340000Y-89935000D02*
X109340000Y-89935000D01*
X114180000Y-94115000D02*
X114180000Y-94595000D01*
X114180000Y-91815000D02*
X114180000Y-92335000D01*
X114180000Y-89555000D02*
X114180000Y-90035000D01*
X109340000Y-93315000D02*
X109340000Y-94595000D01*
X109340000Y-89555000D02*
X109340000Y-90835000D01*
X109340000Y-94595000D02*
X114180000Y-94595000D01*
X109340000Y-89555000D02*
X114180000Y-89555000D01*
D11*
X131975000Y-101965000D02*
G75*
G03X131975000Y-101965000I-100000J0D01*
G01*
X127075000Y-99115000D02*
X127075000Y-99865000D01*
X133275000Y-99115000D02*
X127075000Y-99115000D01*
X133275000Y-99765000D02*
X133275000Y-99115000D01*
X127075000Y-102815000D02*
X127075000Y-102065000D01*
X133275000Y-102815000D02*
X127075000Y-102815000D01*
X133275000Y-102065000D02*
X133275000Y-102815000D01*
X121545000Y-76665000D02*
G75*
G03X121545000Y-76665000I-100000J0D01*
G01*
D12*
X122445000Y-94015000D02*
X122445000Y-94665000D01*
X122445000Y-94665000D02*
X124895000Y-94665000D01*
X137995000Y-94665000D02*
X140445000Y-94665000D01*
X140445000Y-94665000D02*
X140445000Y-94015000D01*
X122445000Y-75665000D02*
X122445000Y-69165000D01*
X122445000Y-69165000D02*
X140445000Y-69165000D01*
X140445000Y-69165000D02*
X140445000Y-75665000D01*
D10*
X151190000Y-85090000D02*
X148530000Y-85090000D01*
X151190000Y-85090000D02*
X151190000Y-77410000D01*
X151190000Y-77410000D02*
X148530000Y-77410000D01*
X148530000Y-85090000D02*
X148530000Y-77410000D01*
X148530000Y-87690000D02*
X148530000Y-86360000D01*
X149860000Y-87690000D02*
X148530000Y-87690000D01*
X137065936Y-99208000D02*
X138270064Y-99208000D01*
X137065936Y-97388000D02*
X138270064Y-97388000D01*
X126323064Y-96499000D02*
X125118936Y-96499000D01*
X126323064Y-98319000D02*
X125118936Y-98319000D01*
D11*
X116915000Y-99865000D02*
X116915000Y-99115000D01*
X116915000Y-99115000D02*
X123115000Y-99115000D01*
X123115000Y-99115000D02*
X123115000Y-99865000D01*
X116915000Y-102165000D02*
X116915000Y-102815000D01*
X116915000Y-102815000D02*
X123115000Y-102815000D01*
X123115000Y-102815000D02*
X123115000Y-102065000D01*
X118415000Y-99965000D02*
G75*
G03X118415000Y-99965000I-100000J0D01*
G01*
D10*
X146745000Y-85090000D02*
X144085000Y-85090000D01*
X146745000Y-85090000D02*
X146745000Y-82490000D01*
X146745000Y-82490000D02*
X144085000Y-82490000D01*
X144085000Y-85090000D02*
X144085000Y-82490000D01*
X144085000Y-87690000D02*
X144085000Y-86360000D01*
X145415000Y-87690000D02*
X144085000Y-87690000D01*
X93832000Y-94684436D02*
X93832000Y-95888564D01*
X95652000Y-94684436D02*
X95652000Y-95888564D01*
D11*
X106735000Y-94615000D02*
G75*
G03X106735000Y-94615000I-100000J0D01*
G01*
D12*
X104775000Y-95600000D02*
X98425000Y-95600000D01*
X104775000Y-86010000D02*
X98425000Y-86010000D01*
X106676500Y-102235000D02*
X106676500Y-100655000D01*
X106676500Y-100655000D02*
X106947500Y-100655000D01*
X114176500Y-102235000D02*
X114176500Y-100655000D01*
X114176500Y-100655000D02*
X113905500Y-100655000D01*
D13*
X109226500Y-99605000D02*
G75*
G03X109226500Y-99605000I-100000J0D01*
G01*
D12*
X106676500Y-104775000D02*
X106676500Y-104955000D01*
X106676500Y-104955000D02*
X114176500Y-104955000D01*
X114176500Y-104955000D02*
X114176500Y-104775000D01*
D10*
X111573000Y-83312000D02*
X114233000Y-83312000D01*
X111573000Y-83312000D02*
X111573000Y-85912000D01*
X111573000Y-85912000D02*
X114233000Y-85912000D01*
X114233000Y-83312000D02*
X114233000Y-85912000D01*
X114233000Y-80712000D02*
X114233000Y-82042000D01*
X112903000Y-80712000D02*
X114233000Y-80712000D01*
X117507936Y-77830000D02*
X118712064Y-77830000D01*
X117507936Y-79650000D02*
X118712064Y-79650000D01*
X119347064Y-86635000D02*
X118142936Y-86635000D01*
X119347064Y-84815000D02*
X118142936Y-84815000D01*
X154284000Y-85946064D02*
X154284000Y-84741936D01*
X156104000Y-85946064D02*
X156104000Y-84741936D01*
X145128064Y-101240000D02*
X143923936Y-101240000D01*
X145128064Y-99420000D02*
X143923936Y-99420000D01*
X93832000Y-89350436D02*
X93832000Y-90554564D01*
X95652000Y-89350436D02*
X95652000Y-90554564D01*
X117798436Y-88244000D02*
X119002564Y-88244000D01*
X117798436Y-90064000D02*
X119002564Y-90064000D01*
X100932064Y-82275000D02*
X99727936Y-82275000D01*
X100932064Y-84095000D02*
X99727936Y-84095000D01*
X106077936Y-84095000D02*
X107282064Y-84095000D01*
X106077936Y-82275000D02*
X107282064Y-82275000D01*
X98900064Y-98086500D02*
X97695936Y-98086500D01*
X98900064Y-99906500D02*
X97695936Y-99906500D01*
X117507936Y-81005000D02*
X118712064Y-81005000D01*
X117507936Y-82825000D02*
X118712064Y-82825000D01*
X138270064Y-101748000D02*
X137065936Y-101748000D01*
X138270064Y-99928000D02*
X137065936Y-99928000D01*
X103980064Y-98086500D02*
X102775936Y-98086500D01*
X103980064Y-99906500D02*
X102775936Y-99906500D01*
X95652000Y-83598936D02*
X95652000Y-84803064D01*
X93832000Y-83598936D02*
X93832000Y-84803064D01*
X117835000Y-94647936D02*
X117835000Y-95852064D01*
X119655000Y-94647936D02*
X119655000Y-95852064D01*
X112371064Y-98573000D02*
X111166936Y-98573000D01*
X112371064Y-96753000D02*
X111166936Y-96753000D01*
X145382064Y-89895000D02*
X144177936Y-89895000D01*
X145382064Y-91715000D02*
X144177936Y-91715000D01*
X145418564Y-95398000D02*
X144214436Y-95398000D01*
X145418564Y-93578000D02*
X144214436Y-93578000D01*
D14*
X156464095Y-93178380D02*
X156464095Y-93987904D01*
X156511714Y-94083142D01*
X156559333Y-94130761D01*
X156654571Y-94178380D01*
X156845047Y-94178380D01*
X156940285Y-94130761D01*
X156987904Y-94083142D01*
X157035523Y-93987904D01*
X157035523Y-93178380D01*
X157464095Y-93273619D02*
X157511714Y-93226000D01*
X157606952Y-93178380D01*
X157845047Y-93178380D01*
X157940285Y-93226000D01*
X157987904Y-93273619D01*
X158035523Y-93368857D01*
X158035523Y-93464095D01*
X157987904Y-93606952D01*
X157416476Y-94178380D01*
X158035523Y-94178380D01*
X111164761Y-88877380D02*
X110831428Y-88401190D01*
X110593333Y-88877380D02*
X110593333Y-87877380D01*
X110974285Y-87877380D01*
X111069523Y-87925000D01*
X111117142Y-87972619D01*
X111164761Y-88067857D01*
X111164761Y-88210714D01*
X111117142Y-88305952D01*
X111069523Y-88353571D01*
X110974285Y-88401190D01*
X110593333Y-88401190D01*
X111450476Y-87877380D02*
X111783809Y-88877380D01*
X112117142Y-87877380D01*
X112974285Y-88877380D02*
X112402857Y-88877380D01*
X112688571Y-88877380D02*
X112688571Y-87877380D01*
X112593333Y-88020238D01*
X112498095Y-88115476D01*
X112402857Y-88163095D01*
X90995666Y-99995380D02*
X90662333Y-99519190D01*
X90424238Y-99995380D02*
X90424238Y-98995380D01*
X90805190Y-98995380D01*
X90900428Y-99043000D01*
X90948047Y-99090619D01*
X90995666Y-99185857D01*
X90995666Y-99328714D01*
X90948047Y-99423952D01*
X90900428Y-99471571D01*
X90805190Y-99519190D01*
X90424238Y-99519190D01*
X91424238Y-99471571D02*
X91757571Y-99471571D01*
X91900428Y-99995380D02*
X91424238Y-99995380D01*
X91424238Y-98995380D01*
X91900428Y-98995380D01*
X92662333Y-99471571D02*
X92329000Y-99471571D01*
X92329000Y-99995380D02*
X92329000Y-98995380D01*
X92805190Y-98995380D01*
X93329000Y-98995380D02*
X93329000Y-99233476D01*
X93090904Y-99138238D02*
X93329000Y-99233476D01*
X93567095Y-99138238D01*
X93186142Y-99423952D02*
X93329000Y-99233476D01*
X93471857Y-99423952D01*
X94090904Y-98995380D02*
X94090904Y-99233476D01*
X93852809Y-99138238D02*
X94090904Y-99233476D01*
X94329000Y-99138238D01*
X93948047Y-99423952D02*
X94090904Y-99233476D01*
X94233761Y-99423952D01*
X90487666Y-68880380D02*
X90154333Y-68404190D01*
X89916238Y-68880380D02*
X89916238Y-67880380D01*
X90297190Y-67880380D01*
X90392428Y-67928000D01*
X90440047Y-67975619D01*
X90487666Y-68070857D01*
X90487666Y-68213714D01*
X90440047Y-68308952D01*
X90392428Y-68356571D01*
X90297190Y-68404190D01*
X89916238Y-68404190D01*
X90916238Y-68356571D02*
X91249571Y-68356571D01*
X91392428Y-68880380D02*
X90916238Y-68880380D01*
X90916238Y-67880380D01*
X91392428Y-67880380D01*
X92154333Y-68356571D02*
X91821000Y-68356571D01*
X91821000Y-68880380D02*
X91821000Y-67880380D01*
X92297190Y-67880380D01*
X92821000Y-67880380D02*
X92821000Y-68118476D01*
X92582904Y-68023238D02*
X92821000Y-68118476D01*
X93059095Y-68023238D01*
X92678142Y-68308952D02*
X92821000Y-68118476D01*
X92963857Y-68308952D01*
X93582904Y-67880380D02*
X93582904Y-68118476D01*
X93344809Y-68023238D02*
X93582904Y-68118476D01*
X93821000Y-68023238D01*
X93440047Y-68308952D02*
X93582904Y-68118476D01*
X93725761Y-68308952D01*
X155638666Y-68753380D02*
X155305333Y-68277190D01*
X155067238Y-68753380D02*
X155067238Y-67753380D01*
X155448190Y-67753380D01*
X155543428Y-67801000D01*
X155591047Y-67848619D01*
X155638666Y-67943857D01*
X155638666Y-68086714D01*
X155591047Y-68181952D01*
X155543428Y-68229571D01*
X155448190Y-68277190D01*
X155067238Y-68277190D01*
X156067238Y-68229571D02*
X156400571Y-68229571D01*
X156543428Y-68753380D02*
X156067238Y-68753380D01*
X156067238Y-67753380D01*
X156543428Y-67753380D01*
X157305333Y-68229571D02*
X156972000Y-68229571D01*
X156972000Y-68753380D02*
X156972000Y-67753380D01*
X157448190Y-67753380D01*
X157972000Y-67753380D02*
X157972000Y-67991476D01*
X157733904Y-67896238D02*
X157972000Y-67991476D01*
X158210095Y-67896238D01*
X157829142Y-68181952D02*
X157972000Y-67991476D01*
X158114857Y-68181952D01*
X158733904Y-67753380D02*
X158733904Y-67991476D01*
X158495809Y-67896238D02*
X158733904Y-67991476D01*
X158972000Y-67896238D01*
X158591047Y-68181952D02*
X158733904Y-67991476D01*
X158876761Y-68181952D01*
X155257666Y-100122380D02*
X154924333Y-99646190D01*
X154686238Y-100122380D02*
X154686238Y-99122380D01*
X155067190Y-99122380D01*
X155162428Y-99170000D01*
X155210047Y-99217619D01*
X155257666Y-99312857D01*
X155257666Y-99455714D01*
X155210047Y-99550952D01*
X155162428Y-99598571D01*
X155067190Y-99646190D01*
X154686238Y-99646190D01*
X155686238Y-99598571D02*
X156019571Y-99598571D01*
X156162428Y-100122380D02*
X155686238Y-100122380D01*
X155686238Y-99122380D01*
X156162428Y-99122380D01*
X156924333Y-99598571D02*
X156591000Y-99598571D01*
X156591000Y-100122380D02*
X156591000Y-99122380D01*
X157067190Y-99122380D01*
X157591000Y-99122380D02*
X157591000Y-99360476D01*
X157352904Y-99265238D02*
X157591000Y-99360476D01*
X157829095Y-99265238D01*
X157448142Y-99550952D02*
X157591000Y-99360476D01*
X157733857Y-99550952D01*
X158352904Y-99122380D02*
X158352904Y-99360476D01*
X158114809Y-99265238D02*
X158352904Y-99360476D01*
X158591000Y-99265238D01*
X158210047Y-99550952D02*
X158352904Y-99360476D01*
X158495761Y-99550952D01*
D15*
X128676571Y-104501904D02*
X128409904Y-104120952D01*
X128219428Y-104501904D02*
X128219428Y-103701904D01*
X128524190Y-103701904D01*
X128600380Y-103740000D01*
X128638476Y-103778095D01*
X128676571Y-103854285D01*
X128676571Y-103968571D01*
X128638476Y-104044761D01*
X128600380Y-104082857D01*
X128524190Y-104120952D01*
X128219428Y-104120952D01*
X129324190Y-104463809D02*
X129248000Y-104501904D01*
X129095619Y-104501904D01*
X129019428Y-104463809D01*
X128981333Y-104387619D01*
X128981333Y-104082857D01*
X129019428Y-104006666D01*
X129095619Y-103968571D01*
X129248000Y-103968571D01*
X129324190Y-104006666D01*
X129362285Y-104082857D01*
X129362285Y-104159047D01*
X128981333Y-104235238D01*
X129667047Y-104463809D02*
X129743238Y-104501904D01*
X129895619Y-104501904D01*
X129971809Y-104463809D01*
X130009904Y-104387619D01*
X130009904Y-104349523D01*
X129971809Y-104273333D01*
X129895619Y-104235238D01*
X129781333Y-104235238D01*
X129705142Y-104197142D01*
X129667047Y-104120952D01*
X129667047Y-104082857D01*
X129705142Y-104006666D01*
X129781333Y-103968571D01*
X129895619Y-103968571D01*
X129971809Y-104006666D01*
X130657523Y-104463809D02*
X130581333Y-104501904D01*
X130428952Y-104501904D01*
X130352761Y-104463809D01*
X130314666Y-104387619D01*
X130314666Y-104082857D01*
X130352761Y-104006666D01*
X130428952Y-103968571D01*
X130581333Y-103968571D01*
X130657523Y-104006666D01*
X130695619Y-104082857D01*
X130695619Y-104159047D01*
X130314666Y-104235238D01*
X130924190Y-103968571D02*
X131228952Y-103968571D01*
X131038476Y-103701904D02*
X131038476Y-104387619D01*
X131076571Y-104463809D01*
X131152761Y-104501904D01*
X131228952Y-104501904D01*
X131914666Y-104501904D02*
X131457523Y-104501904D01*
X131686095Y-104501904D02*
X131686095Y-103701904D01*
X131609904Y-103816190D01*
X131533714Y-103892380D01*
X131457523Y-103930476D01*
X128413142Y-71302571D02*
X128746476Y-71302571D01*
X128889333Y-71826380D02*
X128413142Y-71826380D01*
X128413142Y-70826380D01*
X128889333Y-70826380D01*
X129270285Y-71778761D02*
X129413142Y-71826380D01*
X129651238Y-71826380D01*
X129746476Y-71778761D01*
X129794095Y-71731142D01*
X129841714Y-71635904D01*
X129841714Y-71540666D01*
X129794095Y-71445428D01*
X129746476Y-71397809D01*
X129651238Y-71350190D01*
X129460761Y-71302571D01*
X129365523Y-71254952D01*
X129317904Y-71207333D01*
X129270285Y-71112095D01*
X129270285Y-71016857D01*
X129317904Y-70921619D01*
X129365523Y-70874000D01*
X129460761Y-70826380D01*
X129698857Y-70826380D01*
X129841714Y-70874000D01*
X130270285Y-71826380D02*
X130270285Y-70826380D01*
X130651238Y-70826380D01*
X130746476Y-70874000D01*
X130794095Y-70921619D01*
X130841714Y-71016857D01*
X130841714Y-71159714D01*
X130794095Y-71254952D01*
X130746476Y-71302571D01*
X130651238Y-71350190D01*
X130270285Y-71350190D01*
X131175047Y-70826380D02*
X131794095Y-70826380D01*
X131460761Y-71207333D01*
X131603619Y-71207333D01*
X131698857Y-71254952D01*
X131746476Y-71302571D01*
X131794095Y-71397809D01*
X131794095Y-71635904D01*
X131746476Y-71731142D01*
X131698857Y-71778761D01*
X131603619Y-71826380D01*
X131317904Y-71826380D01*
X131222666Y-71778761D01*
X131175047Y-71731142D01*
X132175047Y-70921619D02*
X132222666Y-70874000D01*
X132317904Y-70826380D01*
X132556000Y-70826380D01*
X132651238Y-70874000D01*
X132698857Y-70921619D01*
X132746476Y-71016857D01*
X132746476Y-71112095D01*
X132698857Y-71254952D01*
X132127428Y-71826380D01*
X132746476Y-71826380D01*
X121024380Y-73080571D02*
X121357714Y-73080571D01*
X121500571Y-73604380D02*
X121024380Y-73604380D01*
X121024380Y-72604380D01*
X121500571Y-72604380D01*
X121881523Y-73556761D02*
X122024380Y-73604380D01*
X122262476Y-73604380D01*
X122357714Y-73556761D01*
X122405333Y-73509142D01*
X122452952Y-73413904D01*
X122452952Y-73318666D01*
X122405333Y-73223428D01*
X122357714Y-73175809D01*
X122262476Y-73128190D01*
X122072000Y-73080571D01*
X121976761Y-73032952D01*
X121929142Y-72985333D01*
X121881523Y-72890095D01*
X121881523Y-72794857D01*
X121929142Y-72699619D01*
X121976761Y-72652000D01*
X122072000Y-72604380D01*
X122310095Y-72604380D01*
X122452952Y-72652000D01*
X122881523Y-73604380D02*
X122881523Y-72604380D01*
X123262476Y-72604380D01*
X123357714Y-72652000D01*
X123405333Y-72699619D01*
X123452952Y-72794857D01*
X123452952Y-72937714D01*
X123405333Y-73032952D01*
X123357714Y-73080571D01*
X123262476Y-73128190D01*
X122881523Y-73128190D01*
X123786285Y-72604380D02*
X124405333Y-72604380D01*
X124072000Y-72985333D01*
X124214857Y-72985333D01*
X124310095Y-73032952D01*
X124357714Y-73080571D01*
X124405333Y-73175809D01*
X124405333Y-73413904D01*
X124357714Y-73509142D01*
X124310095Y-73556761D01*
X124214857Y-73604380D01*
X123929142Y-73604380D01*
X123833904Y-73556761D01*
X123786285Y-73509142D01*
X124786285Y-72699619D02*
X124833904Y-72652000D01*
X124929142Y-72604380D01*
X125167238Y-72604380D01*
X125262476Y-72652000D01*
X125310095Y-72699619D01*
X125357714Y-72794857D01*
X125357714Y-72890095D01*
X125310095Y-73032952D01*
X124738666Y-73604380D01*
X125357714Y-73604380D01*
X125786285Y-73223428D02*
X126548190Y-73223428D01*
X126929142Y-72604380D02*
X127167238Y-73604380D01*
X127357714Y-72890095D01*
X127548190Y-73604380D01*
X127786285Y-72604380D01*
X128738666Y-73604380D02*
X128405333Y-73128190D01*
X128167238Y-73604380D02*
X128167238Y-72604380D01*
X128548190Y-72604380D01*
X128643428Y-72652000D01*
X128691047Y-72699619D01*
X128738666Y-72794857D01*
X128738666Y-72937714D01*
X128691047Y-73032952D01*
X128643428Y-73080571D01*
X128548190Y-73128190D01*
X128167238Y-73128190D01*
X129357714Y-72604380D02*
X129548190Y-72604380D01*
X129643428Y-72652000D01*
X129738666Y-72747238D01*
X129786285Y-72937714D01*
X129786285Y-73271047D01*
X129738666Y-73461523D01*
X129643428Y-73556761D01*
X129548190Y-73604380D01*
X129357714Y-73604380D01*
X129262476Y-73556761D01*
X129167238Y-73461523D01*
X129119619Y-73271047D01*
X129119619Y-72937714D01*
X129167238Y-72747238D01*
X129262476Y-72652000D01*
X129357714Y-72604380D01*
X130405333Y-72604380D02*
X130595809Y-72604380D01*
X130691047Y-72652000D01*
X130786285Y-72747238D01*
X130833904Y-72937714D01*
X130833904Y-73271047D01*
X130786285Y-73461523D01*
X130691047Y-73556761D01*
X130595809Y-73604380D01*
X130405333Y-73604380D01*
X130310095Y-73556761D01*
X130214857Y-73461523D01*
X130167238Y-73271047D01*
X130167238Y-72937714D01*
X130214857Y-72747238D01*
X130310095Y-72652000D01*
X130405333Y-72604380D01*
X131262476Y-73604380D02*
X131262476Y-72604380D01*
X131595809Y-73318666D01*
X131929142Y-72604380D01*
X131929142Y-73604380D01*
X132405333Y-73223428D02*
X133167238Y-73223428D01*
X133548190Y-72604380D02*
X134167238Y-72604380D01*
X133833904Y-72985333D01*
X133976761Y-72985333D01*
X134072000Y-73032952D01*
X134119619Y-73080571D01*
X134167238Y-73175809D01*
X134167238Y-73413904D01*
X134119619Y-73509142D01*
X134072000Y-73556761D01*
X133976761Y-73604380D01*
X133691047Y-73604380D01*
X133595809Y-73556761D01*
X133548190Y-73509142D01*
X134548190Y-72699619D02*
X134595809Y-72652000D01*
X134691047Y-72604380D01*
X134929142Y-72604380D01*
X135024380Y-72652000D01*
X135072000Y-72699619D01*
X135119619Y-72794857D01*
X135119619Y-72890095D01*
X135072000Y-73032952D01*
X134500571Y-73604380D01*
X135119619Y-73604380D01*
X135548190Y-73080571D02*
X135881523Y-73080571D01*
X136024380Y-73604380D02*
X135548190Y-73604380D01*
X135548190Y-72604380D01*
X136024380Y-72604380D01*
X136214857Y-73699619D02*
X136976761Y-73699619D01*
X137500571Y-73985333D02*
X137452952Y-73937714D01*
X137357714Y-73794857D01*
X137310095Y-73699619D01*
X137262476Y-73556761D01*
X137214857Y-73318666D01*
X137214857Y-73128190D01*
X137262476Y-72890095D01*
X137310095Y-72747238D01*
X137357714Y-72652000D01*
X137452952Y-72509142D01*
X137500571Y-72461523D01*
X138405333Y-73604380D02*
X137833904Y-73604380D01*
X138119619Y-73604380D02*
X138119619Y-72604380D01*
X138024380Y-72747238D01*
X137929142Y-72842476D01*
X137833904Y-72890095D01*
X139262476Y-72604380D02*
X139072000Y-72604380D01*
X138976761Y-72652000D01*
X138929142Y-72699619D01*
X138833904Y-72842476D01*
X138786285Y-73032952D01*
X138786285Y-73413904D01*
X138833904Y-73509142D01*
X138881523Y-73556761D01*
X138976761Y-73604380D01*
X139167238Y-73604380D01*
X139262476Y-73556761D01*
X139310095Y-73509142D01*
X139357714Y-73413904D01*
X139357714Y-73175809D01*
X139310095Y-73080571D01*
X139262476Y-73032952D01*
X139167238Y-72985333D01*
X138976761Y-72985333D01*
X138881523Y-73032952D01*
X138833904Y-73080571D01*
X138786285Y-73175809D01*
X139786285Y-73604380D02*
X139786285Y-72604380D01*
X140119619Y-73318666D01*
X140452952Y-72604380D01*
X140452952Y-73604380D01*
X141262476Y-73080571D02*
X141405333Y-73128190D01*
X141452952Y-73175809D01*
X141500571Y-73271047D01*
X141500571Y-73413904D01*
X141452952Y-73509142D01*
X141405333Y-73556761D01*
X141310095Y-73604380D01*
X140929142Y-73604380D01*
X140929142Y-72604380D01*
X141262476Y-72604380D01*
X141357714Y-72652000D01*
X141405333Y-72699619D01*
X141452952Y-72794857D01*
X141452952Y-72890095D01*
X141405333Y-72985333D01*
X141357714Y-73032952D01*
X141262476Y-73080571D01*
X140929142Y-73080571D01*
X141833904Y-73985333D02*
X141881523Y-73937714D01*
X141976761Y-73794857D01*
X142024380Y-73699619D01*
X142072000Y-73556761D01*
X142119619Y-73318666D01*
X142119619Y-73128190D01*
X142072000Y-72890095D01*
X142024380Y-72747238D01*
X141976761Y-72652000D01*
X141881523Y-72509142D01*
X141833904Y-72461523D01*
D14*
X146090285Y-76144380D02*
X146090285Y-75144380D01*
X146471238Y-75144380D01*
X146566476Y-75192000D01*
X146614095Y-75239619D01*
X146661714Y-75334857D01*
X146661714Y-75477714D01*
X146614095Y-75572952D01*
X146566476Y-75620571D01*
X146471238Y-75668190D01*
X146090285Y-75668190D01*
X147090285Y-76144380D02*
X147090285Y-75477714D01*
X147090285Y-75668190D02*
X147137904Y-75572952D01*
X147185523Y-75525333D01*
X147280761Y-75477714D01*
X147376000Y-75477714D01*
X147852190Y-76144380D02*
X147756952Y-76096761D01*
X147709333Y-76049142D01*
X147661714Y-75953904D01*
X147661714Y-75668190D01*
X147709333Y-75572952D01*
X147756952Y-75525333D01*
X147852190Y-75477714D01*
X147995047Y-75477714D01*
X148090285Y-75525333D01*
X148137904Y-75572952D01*
X148185523Y-75668190D01*
X148185523Y-75953904D01*
X148137904Y-76049142D01*
X148090285Y-76096761D01*
X147995047Y-76144380D01*
X147852190Y-76144380D01*
X149042666Y-75477714D02*
X149042666Y-76287238D01*
X148995047Y-76382476D01*
X148947428Y-76430095D01*
X148852190Y-76477714D01*
X148709333Y-76477714D01*
X148614095Y-76430095D01*
X149042666Y-76096761D02*
X148947428Y-76144380D01*
X148756952Y-76144380D01*
X148661714Y-76096761D01*
X148614095Y-76049142D01*
X148566476Y-75953904D01*
X148566476Y-75668190D01*
X148614095Y-75572952D01*
X148661714Y-75525333D01*
X148756952Y-75477714D01*
X148947428Y-75477714D01*
X149042666Y-75525333D01*
X149518857Y-76144380D02*
X149518857Y-75477714D01*
X149518857Y-75668190D02*
X149566476Y-75572952D01*
X149614095Y-75525333D01*
X149709333Y-75477714D01*
X149804571Y-75477714D01*
X150566476Y-76144380D02*
X150566476Y-75620571D01*
X150518857Y-75525333D01*
X150423619Y-75477714D01*
X150233142Y-75477714D01*
X150137904Y-75525333D01*
X150566476Y-76096761D02*
X150471238Y-76144380D01*
X150233142Y-76144380D01*
X150137904Y-76096761D01*
X150090285Y-76001523D01*
X150090285Y-75906285D01*
X150137904Y-75811047D01*
X150233142Y-75763428D01*
X150471238Y-75763428D01*
X150566476Y-75715809D01*
X151042666Y-76144380D02*
X151042666Y-75477714D01*
X151042666Y-75572952D02*
X151090285Y-75525333D01*
X151185523Y-75477714D01*
X151328380Y-75477714D01*
X151423619Y-75525333D01*
X151471238Y-75620571D01*
X151471238Y-76144380D01*
X151471238Y-75620571D02*
X151518857Y-75525333D01*
X151614095Y-75477714D01*
X151756952Y-75477714D01*
X151852190Y-75525333D01*
X151899809Y-75620571D01*
X151899809Y-76144380D01*
X152376000Y-76144380D02*
X152376000Y-75477714D01*
X152376000Y-75572952D02*
X152423619Y-75525333D01*
X152518857Y-75477714D01*
X152661714Y-75477714D01*
X152756952Y-75525333D01*
X152804571Y-75620571D01*
X152804571Y-76144380D01*
X152804571Y-75620571D02*
X152852190Y-75525333D01*
X152947428Y-75477714D01*
X153090285Y-75477714D01*
X153185523Y-75525333D01*
X153233142Y-75620571D01*
X153233142Y-76144380D01*
X154090285Y-76096761D02*
X153995047Y-76144380D01*
X153804571Y-76144380D01*
X153709333Y-76096761D01*
X153661714Y-76001523D01*
X153661714Y-75620571D01*
X153709333Y-75525333D01*
X153804571Y-75477714D01*
X153995047Y-75477714D01*
X154090285Y-75525333D01*
X154137904Y-75620571D01*
X154137904Y-75715809D01*
X153661714Y-75811047D01*
X154566476Y-76144380D02*
X154566476Y-75477714D01*
X154566476Y-75668190D02*
X154614095Y-75572952D01*
X154661714Y-75525333D01*
X154756952Y-75477714D01*
X154852190Y-75477714D01*
X155709333Y-76144380D02*
X155137904Y-76144380D01*
X155423619Y-76144380D02*
X155423619Y-75144380D01*
X155328380Y-75287238D01*
X155233142Y-75382476D01*
X155137904Y-75430095D01*
X136993333Y-96718380D02*
X136660000Y-96242190D01*
X136421904Y-96718380D02*
X136421904Y-95718380D01*
X136802857Y-95718380D01*
X136898095Y-95766000D01*
X136945714Y-95813619D01*
X136993333Y-95908857D01*
X136993333Y-96051714D01*
X136945714Y-96146952D01*
X136898095Y-96194571D01*
X136802857Y-96242190D01*
X136421904Y-96242190D01*
X137612380Y-95718380D02*
X137707619Y-95718380D01*
X137802857Y-95766000D01*
X137850476Y-95813619D01*
X137898095Y-95908857D01*
X137945714Y-96099333D01*
X137945714Y-96337428D01*
X137898095Y-96527904D01*
X137850476Y-96623142D01*
X137802857Y-96670761D01*
X137707619Y-96718380D01*
X137612380Y-96718380D01*
X137517142Y-96670761D01*
X137469523Y-96623142D01*
X137421904Y-96527904D01*
X137374285Y-96337428D01*
X137374285Y-96099333D01*
X137421904Y-95908857D01*
X137469523Y-95813619D01*
X137517142Y-95766000D01*
X137612380Y-95718380D01*
X125078142Y-96464380D02*
X124744809Y-95988190D01*
X124506714Y-96464380D02*
X124506714Y-95464380D01*
X124887666Y-95464380D01*
X124982904Y-95512000D01*
X125030523Y-95559619D01*
X125078142Y-95654857D01*
X125078142Y-95797714D01*
X125030523Y-95892952D01*
X124982904Y-95940571D01*
X124887666Y-95988190D01*
X124506714Y-95988190D01*
X126030523Y-96464380D02*
X125459095Y-96464380D01*
X125744809Y-96464380D02*
X125744809Y-95464380D01*
X125649571Y-95607238D01*
X125554333Y-95702476D01*
X125459095Y-95750095D01*
X126363857Y-95464380D02*
X126982904Y-95464380D01*
X126649571Y-95845333D01*
X126792428Y-95845333D01*
X126887666Y-95892952D01*
X126935285Y-95940571D01*
X126982904Y-96035809D01*
X126982904Y-96273904D01*
X126935285Y-96369142D01*
X126887666Y-96416761D01*
X126792428Y-96464380D01*
X126506714Y-96464380D01*
X126411476Y-96416761D01*
X126363857Y-96369142D01*
D15*
X117951523Y-103828857D02*
X118218190Y-103828857D01*
X118332476Y-104247904D02*
X117951523Y-104247904D01*
X117951523Y-103447904D01*
X118332476Y-103447904D01*
X118675333Y-103714571D02*
X118675333Y-104247904D01*
X118675333Y-103790761D02*
X118713428Y-103752666D01*
X118789619Y-103714571D01*
X118903904Y-103714571D01*
X118980095Y-103752666D01*
X119018190Y-103828857D01*
X119018190Y-104247904D01*
X119742000Y-104247904D02*
X119742000Y-103828857D01*
X119703904Y-103752666D01*
X119627714Y-103714571D01*
X119475333Y-103714571D01*
X119399142Y-103752666D01*
X119742000Y-104209809D02*
X119665809Y-104247904D01*
X119475333Y-104247904D01*
X119399142Y-104209809D01*
X119361047Y-104133619D01*
X119361047Y-104057428D01*
X119399142Y-103981238D01*
X119475333Y-103943142D01*
X119665809Y-103943142D01*
X119742000Y-103905047D01*
X120122952Y-104247904D02*
X120122952Y-103447904D01*
X120122952Y-103752666D02*
X120199142Y-103714571D01*
X120351523Y-103714571D01*
X120427714Y-103752666D01*
X120465809Y-103790761D01*
X120503904Y-103866952D01*
X120503904Y-104095523D01*
X120465809Y-104171714D01*
X120427714Y-104209809D01*
X120351523Y-104247904D01*
X120199142Y-104247904D01*
X120122952Y-104209809D01*
X120961047Y-104247904D02*
X120884857Y-104209809D01*
X120846761Y-104133619D01*
X120846761Y-103447904D01*
X121570571Y-104209809D02*
X121494380Y-104247904D01*
X121341999Y-104247904D01*
X121265809Y-104209809D01*
X121227714Y-104133619D01*
X121227714Y-103828857D01*
X121265809Y-103752666D01*
X121341999Y-103714571D01*
X121494380Y-103714571D01*
X121570571Y-103752666D01*
X121608666Y-103828857D01*
X121608666Y-103905047D01*
X121227714Y-103981238D01*
X122370571Y-104247904D02*
X121913428Y-104247904D01*
X122141999Y-104247904D02*
X122141999Y-103447904D01*
X122065809Y-103562190D01*
X121989619Y-103638380D01*
X121913428Y-103676476D01*
D14*
X142446666Y-80446571D02*
X142589523Y-80494190D01*
X142637142Y-80541809D01*
X142684761Y-80637047D01*
X142684761Y-80779904D01*
X142637142Y-80875142D01*
X142589523Y-80922761D01*
X142494285Y-80970380D01*
X142113333Y-80970380D01*
X142113333Y-79970380D01*
X142446666Y-79970380D01*
X142541904Y-80018000D01*
X142589523Y-80065619D01*
X142637142Y-80160857D01*
X142637142Y-80256095D01*
X142589523Y-80351333D01*
X142541904Y-80398952D01*
X142446666Y-80446571D01*
X142113333Y-80446571D01*
X143541904Y-80303714D02*
X143541904Y-80970380D01*
X143113333Y-80303714D02*
X143113333Y-80827523D01*
X143160952Y-80922761D01*
X143256190Y-80970380D01*
X143399047Y-80970380D01*
X143494285Y-80922761D01*
X143541904Y-80875142D01*
X143875238Y-80303714D02*
X144256190Y-80303714D01*
X144018095Y-79970380D02*
X144018095Y-80827523D01*
X144065714Y-80922761D01*
X144160952Y-80970380D01*
X144256190Y-80970380D01*
X144446666Y-80303714D02*
X144827619Y-80303714D01*
X144589523Y-79970380D02*
X144589523Y-80827523D01*
X144637142Y-80922761D01*
X144732380Y-80970380D01*
X144827619Y-80970380D01*
X145303809Y-80970380D02*
X145208571Y-80922761D01*
X145160952Y-80875142D01*
X145113333Y-80779904D01*
X145113333Y-80494190D01*
X145160952Y-80398952D01*
X145208571Y-80351333D01*
X145303809Y-80303714D01*
X145446666Y-80303714D01*
X145541904Y-80351333D01*
X145589523Y-80398952D01*
X145637142Y-80494190D01*
X145637142Y-80779904D01*
X145589523Y-80875142D01*
X145541904Y-80922761D01*
X145446666Y-80970380D01*
X145303809Y-80970380D01*
X146065714Y-80303714D02*
X146065714Y-80970380D01*
X146065714Y-80398952D02*
X146113333Y-80351333D01*
X146208571Y-80303714D01*
X146351428Y-80303714D01*
X146446666Y-80351333D01*
X146494285Y-80446571D01*
X146494285Y-80970380D01*
X147494285Y-80970380D02*
X146922857Y-80970380D01*
X147208571Y-80970380D02*
X147208571Y-79970380D01*
X147113333Y-80113238D01*
X147018095Y-80208476D01*
X146922857Y-80256095D01*
X93067142Y-95670666D02*
X93114761Y-95718285D01*
X93162380Y-95861142D01*
X93162380Y-95956380D01*
X93114761Y-96099238D01*
X93019523Y-96194476D01*
X92924285Y-96242095D01*
X92733809Y-96289714D01*
X92590952Y-96289714D01*
X92400476Y-96242095D01*
X92305238Y-96194476D01*
X92210000Y-96099238D01*
X92162380Y-95956380D01*
X92162380Y-95861142D01*
X92210000Y-95718285D01*
X92257619Y-95670666D01*
X92162380Y-95337333D02*
X92162380Y-94670666D01*
X93162380Y-95099238D01*
D15*
X101092095Y-89368380D02*
X101092095Y-90177904D01*
X101139714Y-90273142D01*
X101187333Y-90320761D01*
X101282571Y-90368380D01*
X101473047Y-90368380D01*
X101568285Y-90320761D01*
X101615904Y-90273142D01*
X101663523Y-90177904D01*
X101663523Y-89368380D01*
X102044476Y-89368380D02*
X102663523Y-89368380D01*
X102330190Y-89749333D01*
X102473047Y-89749333D01*
X102568285Y-89796952D01*
X102615904Y-89844571D01*
X102663523Y-89939809D01*
X102663523Y-90177904D01*
X102615904Y-90273142D01*
X102568285Y-90320761D01*
X102473047Y-90368380D01*
X102187333Y-90368380D01*
X102092095Y-90320761D01*
X102044476Y-90273142D01*
X100671523Y-88590380D02*
X100195333Y-88590380D01*
X100195333Y-87590380D01*
X101004857Y-88590380D02*
X101004857Y-87590380D01*
X101338190Y-88304666D01*
X101671523Y-87590380D01*
X101671523Y-88590380D01*
X102052476Y-87590380D02*
X102671523Y-87590380D01*
X102338190Y-87971333D01*
X102481047Y-87971333D01*
X102576285Y-88018952D01*
X102623904Y-88066571D01*
X102671523Y-88161809D01*
X102671523Y-88399904D01*
X102623904Y-88495142D01*
X102576285Y-88542761D01*
X102481047Y-88590380D01*
X102195333Y-88590380D01*
X102100095Y-88542761D01*
X102052476Y-88495142D01*
X103242952Y-88018952D02*
X103147714Y-87971333D01*
X103100095Y-87923714D01*
X103052476Y-87828476D01*
X103052476Y-87780857D01*
X103100095Y-87685619D01*
X103147714Y-87638000D01*
X103242952Y-87590380D01*
X103433428Y-87590380D01*
X103528666Y-87638000D01*
X103576285Y-87685619D01*
X103623904Y-87780857D01*
X103623904Y-87828476D01*
X103576285Y-87923714D01*
X103528666Y-87971333D01*
X103433428Y-88018952D01*
X103242952Y-88018952D01*
X103147714Y-88066571D01*
X103100095Y-88114190D01*
X103052476Y-88209428D01*
X103052476Y-88399904D01*
X103100095Y-88495142D01*
X103147714Y-88542761D01*
X103242952Y-88590380D01*
X103433428Y-88590380D01*
X103528666Y-88542761D01*
X103576285Y-88495142D01*
X103623904Y-88399904D01*
X103623904Y-88209428D01*
X103576285Y-88114190D01*
X103528666Y-88066571D01*
X103433428Y-88018952D01*
X104481047Y-87590380D02*
X104290571Y-87590380D01*
X104195333Y-87638000D01*
X104147714Y-87685619D01*
X104052476Y-87828476D01*
X104004857Y-88018952D01*
X104004857Y-88399904D01*
X104052476Y-88495142D01*
X104100095Y-88542761D01*
X104195333Y-88590380D01*
X104385809Y-88590380D01*
X104481047Y-88542761D01*
X104528666Y-88495142D01*
X104576285Y-88399904D01*
X104576285Y-88161809D01*
X104528666Y-88066571D01*
X104481047Y-88018952D01*
X104385809Y-87971333D01*
X104195333Y-87971333D01*
X104100095Y-88018952D01*
X104052476Y-88066571D01*
X104004857Y-88161809D01*
X101892323Y-103591882D02*
X101892323Y-104402143D01*
X101939985Y-104497467D01*
X101987647Y-104545130D01*
X102082972Y-104592792D01*
X102273622Y-104592792D01*
X102368946Y-104545130D01*
X102416609Y-104497467D01*
X102464271Y-104402143D01*
X102464271Y-103591882D01*
X102893233Y-104545130D02*
X103036220Y-104592792D01*
X103274532Y-104592792D01*
X103369856Y-104545130D01*
X103417519Y-104497467D01*
X103465181Y-104402143D01*
X103465181Y-104306818D01*
X103417519Y-104211493D01*
X103369856Y-104163831D01*
X103274532Y-104116168D01*
X103083882Y-104068506D01*
X102988557Y-104020844D01*
X102940895Y-103973181D01*
X102893233Y-103877856D01*
X102893233Y-103782532D01*
X102940895Y-103687207D01*
X102988557Y-103639545D01*
X103083882Y-103591882D01*
X103322194Y-103591882D01*
X103465181Y-103639545D01*
X104227779Y-104068506D02*
X104370766Y-104116168D01*
X104418429Y-104163831D01*
X104466091Y-104259155D01*
X104466091Y-104402143D01*
X104418429Y-104497467D01*
X104370766Y-104545130D01*
X104275442Y-104592792D01*
X103894143Y-104592792D01*
X103894143Y-103591882D01*
X104227779Y-103591882D01*
X104323104Y-103639545D01*
X104370766Y-103687207D01*
X104418429Y-103782532D01*
X104418429Y-103877856D01*
X104370766Y-103973181D01*
X104323104Y-104020844D01*
X104227779Y-104068506D01*
X103894143Y-104068506D01*
X105419339Y-104592792D02*
X104847390Y-104592792D01*
X105133365Y-104592792D02*
X105133365Y-103591882D01*
X105038040Y-103734869D01*
X104942715Y-103830194D01*
X104847390Y-103877856D01*
X104722330Y-107078716D02*
X104149884Y-107078716D01*
X104436107Y-107078716D02*
X104436107Y-106076936D01*
X104340700Y-106220047D01*
X104245292Y-106315455D01*
X104149884Y-106363159D01*
X105342480Y-106076936D02*
X105437887Y-106076936D01*
X105533295Y-106124640D01*
X105580999Y-106172343D01*
X105628702Y-106267751D01*
X105676406Y-106458566D01*
X105676406Y-106697085D01*
X105628702Y-106887900D01*
X105580999Y-106983308D01*
X105533295Y-107031012D01*
X105437887Y-107078716D01*
X105342480Y-107078716D01*
X105247072Y-107031012D01*
X105199368Y-106983308D01*
X105151664Y-106887900D01*
X105103960Y-106697085D01*
X105103960Y-106458566D01*
X105151664Y-106267751D01*
X105199368Y-106172343D01*
X105247072Y-106124640D01*
X105342480Y-106076936D01*
X106582779Y-106076936D02*
X106105740Y-106076936D01*
X106058037Y-106553974D01*
X106105740Y-106506270D01*
X106201148Y-106458566D01*
X106439667Y-106458566D01*
X106535075Y-106506270D01*
X106582779Y-106553974D01*
X106630482Y-106649381D01*
X106630482Y-106887900D01*
X106582779Y-106983308D01*
X106535075Y-107031012D01*
X106439667Y-107078716D01*
X106201148Y-107078716D01*
X106105740Y-107031012D01*
X106058037Y-106983308D01*
X107250632Y-106076936D02*
X107346040Y-106076936D01*
X107441447Y-106124640D01*
X107489151Y-106172343D01*
X107536855Y-106267751D01*
X107584559Y-106458566D01*
X107584559Y-106697085D01*
X107536855Y-106887900D01*
X107489151Y-106983308D01*
X107441447Y-107031012D01*
X107346040Y-107078716D01*
X107250632Y-107078716D01*
X107155224Y-107031012D01*
X107107520Y-106983308D01*
X107059817Y-106887900D01*
X107012113Y-106697085D01*
X107012113Y-106458566D01*
X107059817Y-106267751D01*
X107107520Y-106172343D01*
X107155224Y-106124640D01*
X107250632Y-106076936D01*
X108538635Y-107078716D02*
X107966189Y-107078716D01*
X108252412Y-107078716D02*
X108252412Y-106076936D01*
X108157004Y-106220047D01*
X108061597Y-106315455D01*
X107966189Y-106363159D01*
X108872561Y-106076936D02*
X109540415Y-106076936D01*
X109111080Y-107078716D01*
X109922045Y-106697085D02*
X110685306Y-106697085D01*
X111687086Y-107078716D02*
X111114640Y-107078716D01*
X111400863Y-107078716D02*
X111400863Y-106076936D01*
X111305456Y-106220047D01*
X111210048Y-106315455D01*
X111114640Y-106363159D01*
X112307236Y-106076936D02*
X112402643Y-106076936D01*
X112498051Y-106124640D01*
X112545755Y-106172343D01*
X112593459Y-106267751D01*
X112641162Y-106458566D01*
X112641162Y-106697085D01*
X112593459Y-106887900D01*
X112545755Y-106983308D01*
X112498051Y-107031012D01*
X112402643Y-107078716D01*
X112307236Y-107078716D01*
X112211828Y-107031012D01*
X112164124Y-106983308D01*
X112116420Y-106887900D01*
X112068717Y-106697085D01*
X112068717Y-106458566D01*
X112116420Y-106267751D01*
X112164124Y-106172343D01*
X112211828Y-106124640D01*
X112307236Y-106076936D01*
X113261312Y-106076936D02*
X113356720Y-106076936D01*
X113452127Y-106124640D01*
X113499831Y-106172343D01*
X113547535Y-106267751D01*
X113595239Y-106458566D01*
X113595239Y-106697085D01*
X113547535Y-106887900D01*
X113499831Y-106983308D01*
X113452127Y-107031012D01*
X113356720Y-107078716D01*
X113261312Y-107078716D01*
X113165904Y-107031012D01*
X113118200Y-106983308D01*
X113070497Y-106887900D01*
X113022793Y-106697085D01*
X113022793Y-106458566D01*
X113070497Y-106267751D01*
X113118200Y-106172343D01*
X113165904Y-106124640D01*
X113261312Y-106076936D01*
X114549315Y-107078716D02*
X113976869Y-107078716D01*
X114263092Y-107078716D02*
X114263092Y-106076936D01*
X114167684Y-106220047D01*
X114072277Y-106315455D01*
X113976869Y-106363159D01*
D14*
X110998238Y-79724380D02*
X110998238Y-78724380D01*
X111379190Y-78724380D01*
X111474428Y-78772000D01*
X111522047Y-78819619D01*
X111569666Y-78914857D01*
X111569666Y-79057714D01*
X111522047Y-79152952D01*
X111474428Y-79200571D01*
X111379190Y-79248190D01*
X110998238Y-79248190D01*
X111998238Y-79724380D02*
X111998238Y-79057714D01*
X111998238Y-78724380D02*
X111950619Y-78772000D01*
X111998238Y-78819619D01*
X112045857Y-78772000D01*
X111998238Y-78724380D01*
X111998238Y-78819619D01*
X112474428Y-79057714D02*
X112474428Y-79724380D01*
X112474428Y-79152952D02*
X112522047Y-79105333D01*
X112617285Y-79057714D01*
X112760142Y-79057714D01*
X112855380Y-79105333D01*
X112903000Y-79200571D01*
X112903000Y-79724380D01*
X113331571Y-78819619D02*
X113379190Y-78772000D01*
X113474428Y-78724380D01*
X113712523Y-78724380D01*
X113807761Y-78772000D01*
X113855380Y-78819619D01*
X113903000Y-78914857D01*
X113903000Y-79010095D01*
X113855380Y-79152952D01*
X113283952Y-79724380D01*
X113903000Y-79724380D01*
X114807761Y-78724380D02*
X114331571Y-78724380D01*
X114283952Y-79200571D01*
X114331571Y-79152952D01*
X114426809Y-79105333D01*
X114664904Y-79105333D01*
X114760142Y-79152952D01*
X114807761Y-79200571D01*
X114855380Y-79295809D01*
X114855380Y-79533904D01*
X114807761Y-79629142D01*
X114760142Y-79676761D01*
X114664904Y-79724380D01*
X114426809Y-79724380D01*
X114331571Y-79676761D01*
X114283952Y-79629142D01*
X117943333Y-77277142D02*
X117895714Y-77324761D01*
X117752857Y-77372380D01*
X117657619Y-77372380D01*
X117514761Y-77324761D01*
X117419523Y-77229523D01*
X117371904Y-77134285D01*
X117324285Y-76943809D01*
X117324285Y-76800952D01*
X117371904Y-76610476D01*
X117419523Y-76515238D01*
X117514761Y-76420000D01*
X117657619Y-76372380D01*
X117752857Y-76372380D01*
X117895714Y-76420000D01*
X117943333Y-76467619D01*
X118895714Y-77372380D02*
X118324285Y-77372380D01*
X118610000Y-77372380D02*
X118610000Y-76372380D01*
X118514761Y-76515238D01*
X118419523Y-76610476D01*
X118324285Y-76658095D01*
X118197333Y-84431142D02*
X118149714Y-84478761D01*
X118006857Y-84526380D01*
X117911619Y-84526380D01*
X117768761Y-84478761D01*
X117673523Y-84383523D01*
X117625904Y-84288285D01*
X117578285Y-84097809D01*
X117578285Y-83954952D01*
X117625904Y-83764476D01*
X117673523Y-83669238D01*
X117768761Y-83574000D01*
X117911619Y-83526380D01*
X118006857Y-83526380D01*
X118149714Y-83574000D01*
X118197333Y-83621619D01*
X118578285Y-83621619D02*
X118625904Y-83574000D01*
X118721142Y-83526380D01*
X118959238Y-83526380D01*
X119054476Y-83574000D01*
X119102095Y-83621619D01*
X119149714Y-83716857D01*
X119149714Y-83812095D01*
X119102095Y-83954952D01*
X118530666Y-84526380D01*
X119149714Y-84526380D01*
X157567333Y-85447142D02*
X157519714Y-85494761D01*
X157376857Y-85542380D01*
X157281619Y-85542380D01*
X157138761Y-85494761D01*
X157043523Y-85399523D01*
X156995904Y-85304285D01*
X156948285Y-85113809D01*
X156948285Y-84970952D01*
X156995904Y-84780476D01*
X157043523Y-84685238D01*
X157138761Y-84590000D01*
X157281619Y-84542380D01*
X157376857Y-84542380D01*
X157519714Y-84590000D01*
X157567333Y-84637619D01*
X157900666Y-84542380D02*
X158519714Y-84542380D01*
X158186380Y-84923333D01*
X158329238Y-84923333D01*
X158424476Y-84970952D01*
X158472095Y-85018571D01*
X158519714Y-85113809D01*
X158519714Y-85351904D01*
X158472095Y-85447142D01*
X158424476Y-85494761D01*
X158329238Y-85542380D01*
X158043523Y-85542380D01*
X157948285Y-85494761D01*
X157900666Y-85447142D01*
X143089333Y-98909142D02*
X143041714Y-98956761D01*
X142898857Y-99004380D01*
X142803619Y-99004380D01*
X142660761Y-98956761D01*
X142565523Y-98861523D01*
X142517904Y-98766285D01*
X142470285Y-98575809D01*
X142470285Y-98432952D01*
X142517904Y-98242476D01*
X142565523Y-98147238D01*
X142660761Y-98052000D01*
X142803619Y-98004380D01*
X142898857Y-98004380D01*
X143041714Y-98052000D01*
X143089333Y-98099619D01*
X143946476Y-98337714D02*
X143946476Y-99004380D01*
X143708380Y-97956761D02*
X143470285Y-98671047D01*
X144089333Y-98671047D01*
X92813142Y-90082666D02*
X92860761Y-90130285D01*
X92908380Y-90273142D01*
X92908380Y-90368380D01*
X92860761Y-90511238D01*
X92765523Y-90606476D01*
X92670285Y-90654095D01*
X92479809Y-90701714D01*
X92336952Y-90701714D01*
X92146476Y-90654095D01*
X92051238Y-90606476D01*
X91956000Y-90511238D01*
X91908380Y-90368380D01*
X91908380Y-90273142D01*
X91956000Y-90130285D01*
X92003619Y-90082666D01*
X91908380Y-89177904D02*
X91908380Y-89654095D01*
X92384571Y-89701714D01*
X92336952Y-89654095D01*
X92289333Y-89558857D01*
X92289333Y-89320761D01*
X92336952Y-89225523D01*
X92384571Y-89177904D01*
X92479809Y-89130285D01*
X92717904Y-89130285D01*
X92813142Y-89177904D01*
X92860761Y-89225523D01*
X92908380Y-89320761D01*
X92908380Y-89558857D01*
X92860761Y-89654095D01*
X92813142Y-89701714D01*
X118233833Y-87691142D02*
X118186214Y-87738761D01*
X118043357Y-87786380D01*
X117948119Y-87786380D01*
X117805261Y-87738761D01*
X117710023Y-87643523D01*
X117662404Y-87548285D01*
X117614785Y-87357809D01*
X117614785Y-87214952D01*
X117662404Y-87024476D01*
X117710023Y-86929238D01*
X117805261Y-86834000D01*
X117948119Y-86786380D01*
X118043357Y-86786380D01*
X118186214Y-86834000D01*
X118233833Y-86881619D01*
X119090976Y-86786380D02*
X118900500Y-86786380D01*
X118805261Y-86834000D01*
X118757642Y-86881619D01*
X118662404Y-87024476D01*
X118614785Y-87214952D01*
X118614785Y-87595904D01*
X118662404Y-87691142D01*
X118710023Y-87738761D01*
X118805261Y-87786380D01*
X118995738Y-87786380D01*
X119090976Y-87738761D01*
X119138595Y-87691142D01*
X119186214Y-87595904D01*
X119186214Y-87357809D01*
X119138595Y-87262571D01*
X119090976Y-87214952D01*
X118995738Y-87167333D01*
X118805261Y-87167333D01*
X118710023Y-87214952D01*
X118662404Y-87262571D01*
X118614785Y-87357809D01*
X100671333Y-81637142D02*
X100623714Y-81684761D01*
X100480857Y-81732380D01*
X100385619Y-81732380D01*
X100242761Y-81684761D01*
X100147523Y-81589523D01*
X100099904Y-81494285D01*
X100052285Y-81303809D01*
X100052285Y-81160952D01*
X100099904Y-80970476D01*
X100147523Y-80875238D01*
X100242761Y-80780000D01*
X100385619Y-80732380D01*
X100480857Y-80732380D01*
X100623714Y-80780000D01*
X100671333Y-80827619D01*
X101242761Y-81160952D02*
X101147523Y-81113333D01*
X101099904Y-81065714D01*
X101052285Y-80970476D01*
X101052285Y-80922857D01*
X101099904Y-80827619D01*
X101147523Y-80780000D01*
X101242761Y-80732380D01*
X101433238Y-80732380D01*
X101528476Y-80780000D01*
X101576095Y-80827619D01*
X101623714Y-80922857D01*
X101623714Y-80970476D01*
X101576095Y-81065714D01*
X101528476Y-81113333D01*
X101433238Y-81160952D01*
X101242761Y-81160952D01*
X101147523Y-81208571D01*
X101099904Y-81256190D01*
X101052285Y-81351428D01*
X101052285Y-81541904D01*
X101099904Y-81637142D01*
X101147523Y-81684761D01*
X101242761Y-81732380D01*
X101433238Y-81732380D01*
X101528476Y-81684761D01*
X101576095Y-81637142D01*
X101623714Y-81541904D01*
X101623714Y-81351428D01*
X101576095Y-81256190D01*
X101528476Y-81208571D01*
X101433238Y-81160952D01*
X106513333Y-81722142D02*
X106465714Y-81769761D01*
X106322857Y-81817380D01*
X106227619Y-81817380D01*
X106084761Y-81769761D01*
X105989523Y-81674523D01*
X105941904Y-81579285D01*
X105894285Y-81388809D01*
X105894285Y-81245952D01*
X105941904Y-81055476D01*
X105989523Y-80960238D01*
X106084761Y-80865000D01*
X106227619Y-80817380D01*
X106322857Y-80817380D01*
X106465714Y-80865000D01*
X106513333Y-80912619D01*
X106989523Y-81817380D02*
X107180000Y-81817380D01*
X107275238Y-81769761D01*
X107322857Y-81722142D01*
X107418095Y-81579285D01*
X107465714Y-81388809D01*
X107465714Y-81007857D01*
X107418095Y-80912619D01*
X107370476Y-80865000D01*
X107275238Y-80817380D01*
X107084761Y-80817380D01*
X106989523Y-80865000D01*
X106941904Y-80912619D01*
X106894285Y-81007857D01*
X106894285Y-81245952D01*
X106941904Y-81341190D01*
X106989523Y-81388809D01*
X107084761Y-81436428D01*
X107275238Y-81436428D01*
X107370476Y-81388809D01*
X107418095Y-81341190D01*
X107465714Y-81245952D01*
X97655142Y-101173642D02*
X97607523Y-101221261D01*
X97464666Y-101268880D01*
X97369428Y-101268880D01*
X97226571Y-101221261D01*
X97131333Y-101126023D01*
X97083714Y-101030785D01*
X97036095Y-100840309D01*
X97036095Y-100697452D01*
X97083714Y-100506976D01*
X97131333Y-100411738D01*
X97226571Y-100316500D01*
X97369428Y-100268880D01*
X97464666Y-100268880D01*
X97607523Y-100316500D01*
X97655142Y-100364119D01*
X98607523Y-101268880D02*
X98036095Y-101268880D01*
X98321809Y-101268880D02*
X98321809Y-100268880D01*
X98226571Y-100411738D01*
X98131333Y-100506976D01*
X98036095Y-100554595D01*
X99226571Y-100268880D02*
X99321809Y-100268880D01*
X99417047Y-100316500D01*
X99464666Y-100364119D01*
X99512285Y-100459357D01*
X99559904Y-100649833D01*
X99559904Y-100887928D01*
X99512285Y-101078404D01*
X99464666Y-101173642D01*
X99417047Y-101221261D01*
X99321809Y-101268880D01*
X99226571Y-101268880D01*
X99131333Y-101221261D01*
X99083714Y-101173642D01*
X99036095Y-101078404D01*
X98988476Y-100887928D01*
X98988476Y-100649833D01*
X99036095Y-100459357D01*
X99083714Y-100364119D01*
X99131333Y-100316500D01*
X99226571Y-100268880D01*
X117943333Y-80547380D02*
X117610000Y-80071190D01*
X117371904Y-80547380D02*
X117371904Y-79547380D01*
X117752857Y-79547380D01*
X117848095Y-79595000D01*
X117895714Y-79642619D01*
X117943333Y-79737857D01*
X117943333Y-79880714D01*
X117895714Y-79975952D01*
X117848095Y-80023571D01*
X117752857Y-80071190D01*
X117371904Y-80071190D01*
X118895714Y-80547380D02*
X118324285Y-80547380D01*
X118610000Y-80547380D02*
X118610000Y-79547380D01*
X118514761Y-79690238D01*
X118419523Y-79785476D01*
X118324285Y-79833095D01*
X138009333Y-104084380D02*
X137676000Y-103608190D01*
X137437904Y-104084380D02*
X137437904Y-103084380D01*
X137818857Y-103084380D01*
X137914095Y-103132000D01*
X137961714Y-103179619D01*
X138009333Y-103274857D01*
X138009333Y-103417714D01*
X137961714Y-103512952D01*
X137914095Y-103560571D01*
X137818857Y-103608190D01*
X137437904Y-103608190D01*
X138390285Y-103179619D02*
X138437904Y-103132000D01*
X138533142Y-103084380D01*
X138771238Y-103084380D01*
X138866476Y-103132000D01*
X138914095Y-103179619D01*
X138961714Y-103274857D01*
X138961714Y-103370095D01*
X138914095Y-103512952D01*
X138342666Y-104084380D01*
X138961714Y-104084380D01*
X103211333Y-102052380D02*
X102878000Y-101576190D01*
X102639904Y-102052380D02*
X102639904Y-101052380D01*
X103020857Y-101052380D01*
X103116095Y-101100000D01*
X103163714Y-101147619D01*
X103211333Y-101242857D01*
X103211333Y-101385714D01*
X103163714Y-101480952D01*
X103116095Y-101528571D01*
X103020857Y-101576190D01*
X102639904Y-101576190D01*
X104068476Y-101052380D02*
X103878000Y-101052380D01*
X103782761Y-101100000D01*
X103735142Y-101147619D01*
X103639904Y-101290476D01*
X103592285Y-101480952D01*
X103592285Y-101861904D01*
X103639904Y-101957142D01*
X103687523Y-102004761D01*
X103782761Y-102052380D01*
X103973238Y-102052380D01*
X104068476Y-102004761D01*
X104116095Y-101957142D01*
X104163714Y-101861904D01*
X104163714Y-101623809D01*
X104116095Y-101528571D01*
X104068476Y-101480952D01*
X103973238Y-101433333D01*
X103782761Y-101433333D01*
X103687523Y-101480952D01*
X103639904Y-101528571D01*
X103592285Y-101623809D01*
X92654380Y-84748666D02*
X92178190Y-85082000D01*
X92654380Y-85320095D02*
X91654380Y-85320095D01*
X91654380Y-84939142D01*
X91702000Y-84843904D01*
X91749619Y-84796285D01*
X91844857Y-84748666D01*
X91987714Y-84748666D01*
X92082952Y-84796285D01*
X92130571Y-84843904D01*
X92178190Y-84939142D01*
X92178190Y-85320095D01*
X91654380Y-84415333D02*
X91654380Y-83748666D01*
X92654380Y-84177238D01*
X117975142Y-92400380D02*
X117641809Y-91924190D01*
X117403714Y-92400380D02*
X117403714Y-91400380D01*
X117784666Y-91400380D01*
X117879904Y-91448000D01*
X117927523Y-91495619D01*
X117975142Y-91590857D01*
X117975142Y-91733714D01*
X117927523Y-91828952D01*
X117879904Y-91876571D01*
X117784666Y-91924190D01*
X117403714Y-91924190D01*
X118927523Y-92400380D02*
X118356095Y-92400380D01*
X118641809Y-92400380D02*
X118641809Y-91400380D01*
X118546571Y-91543238D01*
X118451333Y-91638476D01*
X118356095Y-91686095D01*
X119879904Y-92400380D02*
X119308476Y-92400380D01*
X119594190Y-92400380D02*
X119594190Y-91400380D01*
X119498952Y-91543238D01*
X119403714Y-91638476D01*
X119308476Y-91686095D01*
X111371142Y-96210380D02*
X111037809Y-95734190D01*
X110799714Y-96210380D02*
X110799714Y-95210380D01*
X111180666Y-95210380D01*
X111275904Y-95258000D01*
X111323523Y-95305619D01*
X111371142Y-95400857D01*
X111371142Y-95543714D01*
X111323523Y-95638952D01*
X111275904Y-95686571D01*
X111180666Y-95734190D01*
X110799714Y-95734190D01*
X112323523Y-96210380D02*
X111752095Y-96210380D01*
X112037809Y-96210380D02*
X112037809Y-95210380D01*
X111942571Y-95353238D01*
X111847333Y-95448476D01*
X111752095Y-95496095D01*
X112704476Y-95305619D02*
X112752095Y-95258000D01*
X112847333Y-95210380D01*
X113085428Y-95210380D01*
X113180666Y-95258000D01*
X113228285Y-95305619D01*
X113275904Y-95400857D01*
X113275904Y-95496095D01*
X113228285Y-95638952D01*
X112656857Y-96210380D01*
X113275904Y-96210380D01*
X144041904Y-89352380D02*
X144041904Y-88352380D01*
X144280000Y-88352380D01*
X144422857Y-88400000D01*
X144518095Y-88495238D01*
X144565714Y-88590476D01*
X144613333Y-88780952D01*
X144613333Y-88923809D01*
X144565714Y-89114285D01*
X144518095Y-89209523D01*
X144422857Y-89304761D01*
X144280000Y-89352380D01*
X144041904Y-89352380D01*
X145565714Y-89352380D02*
X144994285Y-89352380D01*
X145280000Y-89352380D02*
X145280000Y-88352380D01*
X145184761Y-88495238D01*
X145089523Y-88590476D01*
X144994285Y-88638095D01*
X144173642Y-96760380D02*
X143840309Y-96284190D01*
X143602214Y-96760380D02*
X143602214Y-95760380D01*
X143983166Y-95760380D01*
X144078404Y-95808000D01*
X144126023Y-95855619D01*
X144173642Y-95950857D01*
X144173642Y-96093714D01*
X144126023Y-96188952D01*
X144078404Y-96236571D01*
X143983166Y-96284190D01*
X143602214Y-96284190D01*
X145126023Y-96760380D02*
X144554595Y-96760380D01*
X144840309Y-96760380D02*
X144840309Y-95760380D01*
X144745071Y-95903238D01*
X144649833Y-95998476D01*
X144554595Y-96046095D01*
X146030785Y-95760380D02*
X145554595Y-95760380D01*
X145506976Y-96236571D01*
X145554595Y-96188952D01*
X145649833Y-96141333D01*
X145887928Y-96141333D01*
X145983166Y-96188952D01*
X146030785Y-96236571D01*
X146078404Y-96331809D01*
X146078404Y-96569904D01*
X146030785Y-96665142D01*
X145983166Y-96712761D01*
X145887928Y-96760380D01*
X145649833Y-96760380D01*
X145554595Y-96712761D01*
X145506976Y-96665142D01*
M02*
